<svg xmlns="http://www.w3.org/2000/svg" height="60" width="120" fill-rule="evenodd">
<style >
<!-- path{
    fill: #02B3E4;
} -->

@media (prefers-color-scheme: dark) {
      path {
        fill: #000000; <!-- set icon color for dark mode -->
        opacity: 0.5;
      }
    }

</style>
<path d="M49.366 30.827c0 1.388-1.137 2.402-2.706 2.402s-2.706-1.014-2.706-2.402v-5.125H42.87v5.178c0 1.815 1.57 3.363 3.79 3.363s3.79-1.6 3.79-3.363v-5.178h-1.082zm8.876-5.125H55.32v8.54h2.923c2.435 0 4.113-1.655 4.113-4.27 0-2.562-1.678-4.27-4.113-4.27zm-.108 7.473h-1.732V26.77h1.732c1.84 0 3.14 1.228 3.14 3.203 0 2.135-1.353 3.15-3.14 3.203zm23.705.16c-1.948 0-3.247-1.44-3.247-3.363s1.353-3.3 3.247-3.3c1.515 0 2.435.854 2.435.854l.433-.747s-.974-1.014-2.977-1.014c-2.598 0-4.22 1.922-4.22 4.217 0 2.35 1.678 4.324 4.33 4.324 2.057 0 3.085-1.388 3.085-1.388l-.595-.64c-.054-.053-.866 1.068-2.5 1.068zm8.118-7.633h1.082v8.54h-1.082zm5.953 1.068h2.706v7.473H99.7V26.77h2.706v-1.068H95.91m16.67 0l-2.598 3.897-2.652-3.897h-1.137l3.247 4.75v3.8h1.082v-3.8l3.193-4.75m-44.38 0l-3.356 8.54h1.082l.92-2.455 3.518-.747 1.19 3.203h1.082l-3.3-8.54h-1.137zm-1.028 5.07l1.624-3.95h.054l1.353 3.363-3.03.587z" fill="#2e3d49"/><path d="M33.4 16.447l.935.467v12.15c0 5.19-2.7 8.128-5.604 9.44h.004l-7.368 4.242c-1.537.85-3.217 1.273-4.792 1.273-4.674 0-10.282-3.74-10.282-11.217V21.588l1.87.935v10.282c0 7.478 5.608 9.347 8.412 9.347 1.737 0 4.55-.718 6.44-3.042-3.467-.816-7.375-3.8-7.375-10.044v-11.03l-7.478 4.487-1.87-.935 9.347-5.608 1.87.935v12.15c0 6.487 4.22 8.05 6.56 8.35.57-1.226.918-2.744.918-4.61v-12.15l1.87.935v11.217c0 1.732-.3 3.263-.82 4.594 2.362-.34 6.43-1.964 6.43-8.332V18.082l-5.608 3.505-1.87-.935 7.478-4.674z" fill="#02b3e4"/></svg>