<svg xmlns="http://www.w3.org/2000/svg" width="120" height="60"><defs><clipPath id="A" transform="translate(-3.47 -3.13)">
<style >
<!-- path{
    fill: #0056D2;
} -->

@media (prefers-color-scheme: dark) {
      path {
        fill: #000000; <!-- set icon color for dark mode -->
        opacity: 0.5;
      }
    }

</style>
<path d="M3.47 3.13h583.4v269.82H3.47z" fill="none"/></clipPath></defs><g clip-path="url(#A)" transform="matrix(.133944 0 0 .133944 20.695534 11.716673)"><path d="M359.46 226h32.8v43.8h46.8V226h-27.1l46-56.75L504.02 226h-27.14v43.8H583.4V226h-19.98l-75.77-93.38 72.85-89.88h22.9V0H476.88v42.75h24.2L457.93 96l-43.2-53.24h24.32V0h-79.6v47.86l68.78 84.77-68.78 84.85z" fill="#209fda"/><path d="M359.46 47.86V0H332v42.75h23.3zM392.25 226h-32.8v-8.53l-6.92 8.53H332v43.8h60.24z" fill="#026ba4"/><path d="M161 205.93h37.83a103.67 103.67 0 0 1-18.55 30 104.5 104.5 0 0 1-19.28-30m19.28-111.3a104.3 104.3 0 0 0-23.48 41.93 61.47 61.47 0 0 1 4.29 10.78h37.44a60.16 60.16 0 0 1 4.4-10.62 104.39 104.39 0 0 0-22.65-42.09zm-19.2 52.7a64.26 64.26 0 0 1 .28 34.84h36.83a61.34 61.34 0 0 1 .3-34.84zm0 0h-6.75a105.56 105.56 0 0 0-.17 34.84h7.2a64.27 64.27 0 0 0-.28-34.84z" fill="#78212e"/><path d="M355.3 42.75H332V.01h-44v42.74h28.42V79.6a100.53 100.53 0 0 0-59.1-18.86 104.24 104.24 0 0 0-77.06 33.9 104.38 104.38 0 0 1 22.62 42.09 61 61 0 0 1 53.94-32.47c33.7 0 59.6 27.32 59.6 61v.33c-.17 33.54-26 60.68-59.6 60.68a61 61 0 0 1-53.94-32.47 60.54 60.54 0 0 1-4.7-11.62h-44a104.18 104.18 0 0 0 6.83 23.73h37.8a103.67 103.67 0 0 1-18.55 30 104.24 104.24 0 0 0 77.06 33.9A100.44 100.44 0 0 0 332 237.1v-11.08h20.5l6.92-8.54V47.87zm-38.87 208.2v18.92H332V237.1a101.37 101.37 0 0 1-15.58 13.86zM156.8 136.57a101.58 101.58 0 0 0-2.46 10.78h6.75a61.48 61.48 0 0 0-4.29-10.78z" fill="#8a8c8f"/><path d="M205.2 147.35a107.36 107.36 0 0 0-2.3-10.62 60.16 60.16 0 0 0-4.4 10.62 61.34 61.34 0 0 0-.3 34.84h7.16a111 111 0 0 0-.16-34.84zm-100.67-86.6c-50.82 0-94.28 36.544-103 86.6H45.7c7.868-25.616 31.533-43.098 58.33-43.1a58.84 58.84 0 0 1 52.76 32.31 104.29 104.29 0 0 1 23.48-41.93 100.35 100.35 0 0 0-75.74-33.9zm44.2 145.2a58.59 58.59 0 0 1-44.71 20.36 61 61 0 0 1-58.63-44.1h108.77a105.56 105.56 0 0 1 .17-34.84H1.53a105.56 105.56 0 0 0-.17 34.84c8.305 50.52 51.97 87.597 103.17 87.6a100.35 100.35 0 0 0 75.75-33.93 104.5 104.5 0 0 1-19.28-30h-12.26z" fill="#b72768"/></g></svg>