<svg id="Layer_1" data-name="Layer 1" xmlns="http://www.w3.org/2000/svg" xmlns:xlink="http://www.w3.org/1999/xlink" viewBox="0 0 949.86 806.59"><defs><style>.cls-1{opacity:0.5;}.cls-2{fill:#6c63ff;}.cls-3{fill:none;stroke:#fff;stroke-miterlimit:10;}.cls-4,.cls-8{opacity:0.1;}.cls-5{fill:url(#linear-gradient);}.cls-6{fill:#efb7b9;}.cls-7{opacity:0.03;}.cls-7,.cls-8{isolation:isolate;}.cls-9{fill:#e1e7ef;}.cls-10{fill:#444053;}.cls-11{fill:#67647e;}.cls-12{fill:#e4e6ed;}.cls-13{fill:#d8d9e5;}.cls-14{fill:#585268;}.cls-15{fill:#e6e6e6;}.cls-16{fill:#fff;}</style><linearGradient id="linear-gradient" x1="462.04" y1="22.58" x2="462.04" y2="599.06" gradientTransform="matrix(1, 0, 0, -1, -96.48, 839)" gradientUnits="userSpaceOnUse"><stop offset="0" stop-color="gray" stop-opacity="0.25"/><stop offset="0.54" stop-color="gray" stop-opacity="0.12"/><stop offset="1" stop-color="gray" stop-opacity="0.1"/></linearGradient></defs><title>header-male</title><g class="cls-1"><path class="cls-2" d="M226.31,650.66S98.68,586.75,153.22,444,10.29,251.69,10.29,251.69s-38.68,139,34,231.59S145,729.54,226.31,650.66Z" transform="translate(-0.01 -51.37)"/><path class="cls-3" d="M10.29,251.69s53.85,92.34,81,212.45S162.72,683.37,225.65,648.4" transform="translate(-0.01 -51.37)"/></g><g class="cls-1"><path class="cls-2" d="M198.89,674s-51-72.5,16.67-142.39S191,378.85,191,378.85s-58.21,72-44.31,146.56S134.11,698.73,198.89,674Z" transform="translate(-0.01 -51.37)"/><path class="cls-3" d="M191,378.85s3.86,69.36-14,148-21,149.38,22.14,145.7" transform="translate(-0.01 -51.37)"/></g><g class="cls-4"><path class="cls-2" d="M48.45,788.31c.9,5.45,4.09,9.6,7.11,13.41l36,45.21c2.9,3.64,6,7.43,9.91,8.42,8.13,2.13,14.68-8.21,21.63-14.26,24.72-21.5,58.51,11.24,86.45-1.28,11.18-5,20.23-16.91,31.63-20.93,30.17-10.71,55.73,36.58,86.88,39,10.23.76,20.27-3.4,30-7.53l65.19-27.62c4.52-1.92,9.13-3.82,13.9-3.94,8-.13,15.49,5,23,8.65,30.39,14.82,64.12,6.82,95.34-4.4s62.64-25.67,94.9-23.28c8.4.63,19.5.1,21.79-10.8,1.37-6.48-17.09.31-21.36-3.18s5.89-18.07.91-18.69c-29-3.6-58.54-3.7-86.87,5.35-14.68,4.68-29.12,11.8-44.19,13.26-15.72,1.53-31.35-3.18-46.78-7.46-39.06-10.84-78.8-19.11-118.68-17.43-70.89,3.06-140.72,37.66-211.25,27.63a181.16,181.16,0,0,1-59.8-19.82c-9.52-5.08-9.09,12.92-18.8,19-3.16,2-11.44-16.43-13.91-12.89A17.88,17.88,0,0,0,48.45,788.31Z" transform="translate(-0.01 -51.37)"/></g><path class="cls-5" d="M656.4,701.13l-112.68-146c-8.8-41-22-41-22-41-89.78-12-114.43-27.33-114.43-27.33L387.19,479l-1.67-1-.24-1.32c-.08-.45-.16-1.05-.22-1.57a96,96,0,0,0,44-58.72c.16-.64.31-1.3.46-1.95a25.37,25.37,0,0,0,10.5-9.26c8.63-14,.43-31.72.62-48,.11-10.31,3.71-20.41,3.3-30.7-.34-8.63-3.46-16.91-6.87-24.88-1.65-3.87-3.48-7.83-6.64-10.7-8.4-7.55-22-4.31-32.78-8-14-4.81-20.45-19.79-28.52-31.84-3.09-4.65-8.71-9.56-13.79-7-6,3-4.34,13.19-10.36,16.05-3.65,1.74-8.1-.45-10.71-3.48s-4.09-6.82-6.66-9.88a19.68,19.68,0,0,0-19-6.3,6.62,6.62,0,0,0-3.61,1.83c-1.93,2.21-.72,5.52-.59,8.41.46,9.73-11.59,15.13-21.54,16.17s-21.68,1.15-27.63,9c-3.16,4.15-3.83,9.55-5.95,14.28-4.93,11-16.85,17-27.33,23.25s-21.26,15.47-21.17,27.42c.1,11.47,10.33,20.76,12.13,32.12.95,6-.54,12.23.65,18.22,2.19,11,12.56,18.35,22.12,24.58.65.42,1.31.84,2,1.23.17.68.34,1.34.52,2A96.52,96.52,0,0,0,288,478.52c.15.65.3,1.3.44,2,.46,2,.89,4.18,1.26,6.37l-.29.08v-.22L178.09,514.79a5.11,5.11,0,0,0-2.09-.26c-4.56-.36-18.81,4.5-35.45,70.44L69.26,709.67S27.89,749,59.58,782.3c16.16,17,34.37,21.09,48.35,21a67.31,67.31,0,0,0,23.81-4s-.57-.87-1.45-2.41l9.42,1.13c18.54,20.4,50.13,13.24,50.13,13.24s44.92-.51,46.57-23.76l80.74,24.52.33,4.36h42.4l-.07-2.78L449,787.05c6.95,12.72,23.95,19,23.95,19s52.35,2.18,68.8-7.25a74,74,0,0,1,22.3-8.5l.45,0-.11.1,100.79-10.7C711,740.41,656.4,701.13,656.4,701.13ZM149.08,735.85l-2.21-1.27A82.9,82.9,0,0,1,159.05,731l19.61-23.95,3.39,23.62A45,45,0,0,0,149.08,735.85Zm379.23-.19a41.4,41.4,0,0,0-25.38-8.22l.77-58.15c7.37,4.66,13.55,9.79,15.38,14.75,5.28,14.52,30.81,37.58,30.81,37.58L536.63,732.4h0l-2.06,1.67c-.56.13-1.11.26-1.67.41Z" transform="translate(-0.01 -51.37)"/><polygon class="cls-6" points="128.46 748.52 149.03 751.06 161.03 692.53 137.88 678.95 107.88 711.19 128.46 748.52"/><polygon class="cls-7" points="128.46 748.52 149.03 751.06 161.03 692.53 137.88 678.95 107.88 711.19 128.46 748.52"/><path class="cls-6" d="M404.45,512.3l-49.71,44.12s-96,21.21-72-8.49c13.59-16.82,11.79-42.35,7.66-61.32a158.94,158.94,0,0,0-7.66-25.24S406.19,387.6,389.05,443.6c-5.09,16.61-5.8,29.41-4.29,39.2C388.36,506,404.45,512.3,404.45,512.3Z" transform="translate(-0.01 -51.37)"/><path class="cls-8" d="M389.05,443.6c-5.09,16.61-5.8,29.41-4.29,39.2a97,97,0,0,1-94.34,3.82,158.14,158.14,0,0,0-7.67-25.23S406.19,387.6,389.05,443.6Z" transform="translate(-0.01 -51.37)"/><path class="cls-6" d="M430.2,400.32c0,52.48-43,95-96,95s-96-42.54-96-95,43-95,96-95c52.87-.17,95.87,42.1,96,94.43C430.2,399.93,430.2,400.13,430.2,400.32Z" transform="translate(-0.01 -51.37)"/><polygon class="cls-9" points="268.17 471.97 268.17 645.87 437.04 632.29 408.76 455 334.18 499.11 268.17 471.97"/><path class="cls-8" d="M359.9,630.22l-18.8-52.59h.78C361.59,556.42,353,543.69,353,543.69H325.65c-17.42,12.24-5.33,28.09-1.23,32.65l-8.2,53.88Z" transform="translate(-0.01 -51.37)"/><path class="cls-10" d="M359.9,628.52l-18.8-52.59h.78C361.59,554.72,353,542,353,542H325.65c-17.42,12.23-5.33,28.08-1.23,32.64l-8.2,53.88Z" transform="translate(-0.01 -51.37)"/><path class="cls-8" d="M385,485.8s-5.41,24.8-43.08,57.89c0,0,11.59,3.82,13.28,34.36l14.15,19.11s11.14-39.87,30.86-53.44,0-49.2,0-49.2Z" transform="translate(-0.01 -51.37)"/><path class="cls-9" d="M385,484.12s-5.41,24.8-43.08,57.89c0,0,11.59,3.82,13.28,34.35l14.15,19.12S380.48,555.61,400.2,542s0-49.2,0-49.2Z" transform="translate(-0.01 -51.37)"/><path class="cls-8" d="M334.15,543.69s-16.22,12.73-17.1,33.09-9.43,20.36-9.43,20.36-21.43-65.32-28.28-71.26,12.36-31,12.36-31S302.48,530.12,334.15,543.69Z" transform="translate(-0.01 -51.37)"/><path class="cls-9" d="M334.15,542s-16.22,12.72-17.1,33.1-9.43,20.36-9.43,20.36-21.44-65.34-28.32-71.28,12.36-31,12.36-31S302.48,528.42,334.15,542Z" transform="translate(-0.01 -51.37)"/><path class="cls-8" d="M383.9,484.31l21.43,8.49s24,15.29,111.44,27.15c0,0,12.85,0,21.43,40.72L647.9,705.73s53.15,39,8.58,78l-98.12,10.61s56.58-53.44-29.14-55.14l15.84-13.16s-24.86-22.94-30-37.32-47.13-30.54-47.13-30.54l5.15,122.15L395.9,792.24,384.78,564.93a148.92,148.92,0,0,1,1.85-32C389.54,515.64,392.6,488.33,383.9,484.31Z" transform="translate(-0.01 -51.37)"/><path class="cls-11" d="M384.76,484.31l21.43,8.49s24,15.29,111.44,27.15c0,0,12.85,0,21.43,40.72l109.7,145.06s53.14,39,8.58,78l-98.12,10.61s56.58-53.44-29.14-55.14l15.86-13.15s-24.86-22.94-30-37.33-47.12-30.53-47.12-30.53L474,780.38l-77.23,11.86L385.6,564.93a149.57,149.57,0,0,1,1.86-32C390.39,515.64,393.46,488.33,384.76,484.31Z" transform="translate(-0.01 -51.37)"/><path class="cls-8" d="M292.18,492.79l-108.86,28s-16.28-10.18-36,69.57L77.89,714.25s-40.29,39-9.42,72.11,69.45,16.91,69.45,16.91S102.78,749,164.5,735.41l23.17-28.84,104.58,11.87-2.64-149.3,2.93-17.4a170.93,170.93,0,0,0,0-56.82Z" transform="translate(-0.01 -51.37)"/><path class="cls-11" d="M291.33,492.79l-108.86,28s-16.29-10.18-36,69.57L77,714.25s-40.32,39-9.41,72.06,69.43,17,69.43,17S101.9,749,163.62,735.41l23.18-28.84,104.57,11.87-2.62-149.3,2.91-17.4a170.93,170.93,0,0,0,0-56.82Z" transform="translate(-0.01 -51.37)"/><polygon class="cls-12" points="184.17 524.56 173.88 532.19 329.04 571.21 329.04 555.95 184.17 524.56"/><polygon class="cls-12" points="484.19 522.01 494.47 529.65 329.04 571.21 329.04 555.95 484.19 522.01"/><polygon class="cls-2" points="164.46 524.56 308.46 557.64 318.75 764.63 192.74 725.61 164.46 524.56"/><polygon class="cls-2" points="501.33 524.56 347.89 559.34 356.46 767.18 498.76 723.91 501.33 524.56"/><path class="cls-2" d="M303.32,609s25.14,15.29,51.57,0L360,820.24H318.76Z" transform="translate(-0.01 -51.37)"/><path class="cls-8" d="M303.32,609s25.14,15.29,51.57,0L360,820.24H318.76Z" transform="translate(-0.01 -51.37)"/><path class="cls-13" d="M187.61,573.38v5.94l141.43,28S257,581,187.61,573.38Z" transform="translate(-0.01 -51.37)"/><path class="cls-13" d="M481.62,570v5.94L329,607.31S412.18,577.63,481.62,570Z" transform="translate(-0.01 -51.37)"/><path class="cls-6" d="M528.51,738.86,524,740.05s-29.14-25.23-66.27,13S470.13,810,470.13,810s51,2.17,67-7.21a70.94,70.94,0,0,1,22.32-8.55,22.88,22.88,0,0,0,12.5-7h0a29.32,29.32,0,0,0,7.47-24.35h0a29.64,29.64,0,0,0-21.95-24.17h0A57,57,0,0,0,528.51,738.86Z" transform="translate(-0.01 -51.37)"/><path class="cls-6" d="M150.75,743.05S185,712.51,227,763.41s-32.58,51.77-32.58,51.77-40.32,9.3-55.71-23.78S150.75,743.05,150.75,743.05Z" transform="translate(-0.01 -51.37)"/><path class="cls-8" d="M532.14,736.78s39.86,11.52,31.31,57l24.09-2.6,5.09-23.14-10.29-32.23-19.71-7.65Z" transform="translate(-0.01 -51.37)"/><path class="cls-11" d="M533,736.78s39.86,11.52,31.31,57l24.09-2.6,5.08-23.14L583.2,735.84l-19.71-7.65Z" transform="translate(-0.01 -51.37)"/><path class="cls-8" d="M430.2,400.32a94.27,94.27,0,0,1-2.74,22.57,33.59,33.59,0,0,1-19.36,2.82c-11.36-1.72-21.38-8.41-29.69-16.26s-15.27-17-23.28-25.16c-7.27-7.4-16.23-14.32-26.64-14.62-9.46-.27-18.07,5-27.19,7.43-9.55,2.6-28.78-4.49-33.44,3.52-2.74,4.71-1.77,15.07-3.39,20.65a80.23,80.23,0,0,1-7.36,17.47c-2.32,4-5.72,8.3-10.4,8.26a10.62,10.62,0,0,1-5.13-1.62c-14-50.62,16.11-102.88,67.26-116.74s104,15.95,118,66.56a94.23,94.23,0,0,1,3.4,25.1Z" transform="translate(-0.01 -51.37)"/><path class="cls-14" d="M301.29,375.42c9.13-2.47,17.77-7.7,27.19-7.43,10.41.3,19.38,7.22,26.64,14.62,8,8.16,15,17.29,23.28,25.15s18.34,14.53,29.69,16.27,24.14-2.5,30-12.24c8.4-13.9.42-31.5.6-47.7.12-10.24,3.61-20.27,3.22-30.5-.34-8.56-3.37-16.82-6.69-24.7-1.61-3.82-3.38-7.78-6.47-10.62-8.18-7.49-21.42-4.28-31.92-8-13.59-4.78-19.92-19.67-27.77-31.63-3-4.59-8.5-9.49-13.43-7-5.8,3-4.22,13.11-10.09,15.95-3.55,1.72-7.89-.45-10.43-3.46s-4-6.78-6.48-9.81a19,19,0,0,0-18.54-6.26,6.28,6.28,0,0,0-3.51,1.81c-1.87,2.2-.71,5.48-.58,8.35.45,9.67-11.25,15-21,16.06s-21.11,1.15-26.91,8.94c-3.09,4.12-3.72,9.49-5.79,14.18-4.81,10.89-16.41,16.82-26.62,23.1s-20.7,15.37-20.61,27.24c.09,11.41,10,20.64,11.8,31.9.93,6-.51,12.16.65,18.1,2.12,10.9,12.22,18.22,21.54,24.41,2.31,1.53,4.78,3.13,7.57,3.15,4.63,0,8.1-4.23,10.39-8.26a80.55,80.55,0,0,0,7.37-17.47c1.61-5.59.65-15.95,3.38-20.64C272.51,370.93,291.74,378,301.29,375.42Z" transform="translate(-0.01 -51.37)"/><path class="cls-15" d="M532.83,95.07A2.87,2.87,0,0,0,530,97.93V321.45a2.87,2.87,0,0,0,2.88,2.87H719.89a2.87,2.87,0,0,0,2.88-2.87V97.93a2.87,2.87,0,0,0-2.88-2.86Z" transform="translate(-0.01 -51.37)"/><path class="cls-16" d="M552.25,302.11H700.46V117.28H552.25Z" transform="translate(-0.01 -51.37)"/><path class="cls-15" d="M652.53,110.83H600.19a7.17,7.17,0,0,1-7.21-7.12,7.24,7.24,0,0,1,1-3.63L620.13,55l.06-.11a7.11,7.11,0,0,1,5.45-3.44h0c.22,0,.45,0,.68,0A7.11,7.11,0,0,1,632.59,55l26.17,45.13a7.15,7.15,0,0,1-2.63,9.79,7.24,7.24,0,0,1-3.6,1Zm-53.78-7.17a1.52,1.52,0,0,0,.19.72,1.43,1.43,0,0,0,1.25.72h52.34a1.44,1.44,0,0,0,1.25-.72,1.52,1.52,0,0,0,.19-.72,1.45,1.45,0,0,0-.19-.71L627.61,57.82a1.45,1.45,0,0,0-2-.53,1.5,1.5,0,0,0-.53.53L598.94,103A1.45,1.45,0,0,0,598.75,103.66Z" transform="translate(-0.01 -51.37)"/><ellipse class="cls-15" cx="626.35" cy="9.31" rx="4.32" ry="4.3"/><path class="cls-15" d="M554,231.73a38.86,38.86,0,0,1,53.35-18.58c11.23,5.93,20.2,15.26,31.61,20.94a81.21,81.21,0,0,0,35.66,8.37,80.06,80.06,0,0,0,40-10.34,2.15,2.15,0,0,0-2.17-3.71,77,77,0,0,1-72.57,1.32c-11.44-6-20.51-15.61-32.16-21.21a41.74,41.74,0,0,0-32-1.79,42.88,42.88,0,0,0-25.88,23.86c-1,2.56,3.12,3.67,4.16,1.14Z" transform="translate(-0.01 -51.37)"/><path class="cls-15" d="M550.54,271.91a165.09,165.09,0,0,1,72.72.25c21.25,4.91,43.18,13.74,65.09,7.15,9.79-2.94,18.76-8.82,23.79-17.87,1.34-2.43-2.38-4.6-3.73-2.17-9.47,17-31.65,19.92-49.16,17.12-11.71-1.87-23-5.61-34.51-8.3a168.87,168.87,0,0,0-75.35-.32c-2.71.6-1.56,4.74,1.15,4.14Z" transform="translate(-0.01 -51.37)"/><path class="cls-15" d="M549,175.83a171.33,171.33,0,0,1,69.13,2.45c21.15,5.16,41.82,16.94,64.18,14.91,10.35-.95,20.59-4.74,27.63-12.62,1.84-2.06-1.21-5.11-3.06-3-6.06,6.8-14.8,10.33-23.77,11.28-10.33,1.1-20.48-1-30.32-4.06-10.89-3.36-21.46-7.6-32.53-10.38a175.69,175.69,0,0,0-72.4-2.69c-2.74.47-1.58,4.61,1.14,4.15Z" transform="translate(-0.01 -51.37)"/><ellipse class="cls-15" cx="636.42" cy="128.24" rx="20.15" ry="20.06"/><path class="cls-15" d="M828.88,164a1.49,1.49,0,0,0-1.54,1.41v91.77a1.49,1.49,0,0,0,1.54,1.41H948.33a1.47,1.47,0,0,0,1.53-1.41V165.42a1.47,1.47,0,0,0-1.53-1.41Z" transform="translate(-0.01 -51.37)"/><path class="cls-16" d="M839.21,175v72.71H938V175Z" transform="translate(-0.01 -51.37)"/><path class="cls-15" d="M901.25,167H876a3.36,3.36,0,0,1-3.49-3.19,3,3,0,0,1,.48-1.62L885.59,142l0-.05a3.47,3.47,0,0,1,2.64-1.53h.34a3.52,3.52,0,0,1,3,1.6l12.64,20.2a3.08,3.08,0,0,1-1.27,4.38,3.73,3.73,0,0,1-1.74.43Zm-26-3.21a.62.62,0,0,0,.09.32.72.72,0,0,0,.61.32h25.29a.69.69,0,0,0,.6-.32.63.63,0,0,0,.1-.32.55.55,0,0,0-.1-.32l-12.64-20.19a.73.73,0,0,0-1-.24.67.67,0,0,0-.26.24l-12.65,20.19a.59.59,0,0,0-.09.32Z" transform="translate(-0.01 -51.37)"/><ellipse class="cls-15" cx="888.6" cy="93.16" rx="2.09" ry="1.92"/><path class="cls-15" d="M856.42,173.75A60.61,60.61,0,0,1,874,204c4.13,18.4-1.15,37.53-14.33,51.86-1.59,1.73,1.12,4.25,2.72,2.51a63.13,63.13,0,0,0,16.29-33.9c2.62-19.57-4.58-39.17-19.56-53.24-1.74-1.63-4.46.88-2.72,2.51Z" transform="translate(-0.01 -51.37)"/><path class="cls-15" d="M914.15,166.18a44.75,44.75,0,0,0-19.33,34.16c-1,13.85,4.77,27.23,14,38a78.56,78.56,0,0,0,19.05,15.85c2.08,1.25,4-1.82,1.94-3.06-11.78-7.11-21.86-17.2-27.21-29.32a44,44,0,0,1-.11-36.34,39.39,39.39,0,0,1,13.61-16.2c2-1.34.06-4.42-1.94-3.07Z" transform="translate(-0.01 -51.37)"/><path class="cls-15" d="M844.47,569.83s-126.65-51-82.16-86.34S844.47,569.83,844.47,569.83Z" transform="translate(-0.01 -51.37)"/><path class="cls-15" d="M842.27,581.73s-58.22-167.27,27.5-159.27S842.27,581.73,842.27,581.73Z" transform="translate(-0.01 -51.37)"/><path class="cls-15" d="M799.82,566.9l2.45,28,0,.48a112.09,112.09,0,0,0,.75,13.08C806.38,637,820.63,650,837.29,650s30.29-13,33.6-41.55a112.1,112.1,0,0,0,.76-13.08l0-.39v-.09l2.45-28Z" transform="translate(-0.01 -51.37)"/><path class="cls-16" d="M871.68,594.88V595l0,.39a112.1,112.1,0,0,1-.76,13.08H803.06a112.09,112.09,0,0,1-.75-13.08l0-.48Z" transform="translate(-0.01 -51.37)"/></svg>