<svg xmlns="http://www.w3.org/2000/svg" xmlns:xlink="http://www.w3.org/1999/xlink" id="fd25c83a-acc9-441d-8dce-2bbb37970907" width="1076.4" height="733.47" data-name="Layer 1" viewBox="0 0 1076.4 733.47"><defs><linearGradient id="bc224463-365b-4973-a542-782a8bb75c72" x1="487.42" x2="487.42" y1="814.54" y2="138.95" gradientUnits="userSpaceOnUse"><stop offset="0" stop-color="gray" stop-opacity=".25"/><stop offset=".54" stop-color="gray" stop-opacity=".12"/><stop offset="1" stop-color="gray" stop-opacity=".1"/></linearGradient><linearGradient id="f10c32a2-f99a-4cbc-971d-c4e860c06767" x1="875.73" x2="875.73" y1="813.03" y2="187.56" gradientTransform="matrix(-1, 0, 0, 1, 1751.04, 0)" xlink:href="#bc224463-365b-4973-a542-782a8bb75c72"/></defs><title>robotics</title><path fill="#7c38b5" d="M1130.38,364.35h-91.94V475.79h85.22c.22,1.15.44,2.3.68,3.45h-85.9v89.85l.43-.14c2.43-.85,4.84-1.75,7.23-2.72l1.55-.62q3.66-1.53,7.23-3.23c.84-.39,1.68-.8,2.51-1.22a150,150,0,0,0,36.17-25c.31-.26.6-.55.89-.82,1.46-1.41,2.9-2.85,4.3-4.32.52-.54,1-1.08,1.54-1.64,1.65-1.79,3.24-3.64,4.79-5.5.23-.28.45-.56.68-.82A115.92,115.92,0,0,0,1121.34,498c.13-.26.24-.55.36-.82,1.26-2.82,2.39-5.68,3.37-8.59.41-1.22.81-2.45,1.16-3.68.13-.37.23-.74.34-1.1,5.09-17.84,5.68-36.4,5.68-54.85q0-3.23,0-6.45c0-7.45-.11-14.95-.24-22.44,0-1.94-.1-3.88-.14-5.83-.13-4.94-.3-9.9-.54-14.84-.06-1.37-.13-2.75-.21-4.11,0-.79-.08-1.58-.14-2.37Q1130.71,368.61,1130.38,364.35Z" opacity=".1" transform="translate(-61.56 -83.02)"/><path fill="#7c38b5" d="M1038.44,240.27h50.44a343.41,343.41,0,0,0-26.83-32.84c-7.49-8.18-15.37-16.16-23.61-23.84Z" opacity=".1" transform="translate(-61.56 -83.02)"/><path fill="#7c38b5" d="M1038.44,243.72V360.9h91.65c0-.34,0-.69-.09-1-.08-.93-.16-1.85-.25-2.77-.09-1.08-.21-2.17-.32-3.25s-.25-2.35-.39-3.52-.26-2.35-.41-3.52-.29-2.34-.45-3.5-.31-2.33-.48-3.49c-.14-1-.28-1.93-.43-2.89-.21-1.37-.43-2.73-.66-4.09,0-.2-.07-.41-.1-.6a253.15,253.15,0,0,0-6.75-29.42A201.46,201.46,0,0,0,1108.39,273a215,215,0,0,0-17.1-29.29Z" opacity=".1" transform="translate(-61.56 -83.02)"/><path fill="#7c38b5" d="M820.1,364.35V475.79h196.38V364.35Zm0,114.88V554.7c22.86-7.31,49-4.35,72.7,1.65,18.35,4.65,36.23,11,54.55,15.55a198.26,198.26,0,0,0,24.87,4.7l2.06.23,3,.27,3,.22a1.67,1.67,0,0,1,.31,0c.44,0,.89,0,1.34.06l.46,0c.54,0,1.08.06,1.62.06h0c.77,0,1.55,0,2.33.07h1c.77,0,1.55,0,2.33,0l1.71,0,1.38,0c.59,0,1.17,0,1.75-.06.94,0,1.88-.08,2.83-.14h0l1.75-.12c.72,0,1.45-.1,2.16-.17,1.53-.12,3-.27,4.55-.46.6-.07,1.21-.14,1.81-.23l.89-.11c1.51-.2,3-.43,4.51-.69,1.11-.17,2.22-.37,3.34-.58V479.23Zm146.06-239v3.44H820.1V360.9h196.38V243.71h-9.85v-3.44h9.85V164.54c-38.2-30.78-82.85-54.88-132.58-66a282.59,282.59,0,0,0-63.8-6.66V240.27Zm-449-.66.69.66H798.13V92.91c-49.9,4.15-98.56,20.91-137.79,48.68-18.85,13.33-35.78,29.14-56.93,39.36a89.15,89.15,0,0,1-35.6,9.2Zm-1.93-60.44v33.35l27.08-26.43C532.24,182.57,524.3,180.2,515.19,179.17Zm-.9,419.56.9,0V671.8q15.33-1.15,30.54-3.14A547.36,547.36,0,0,0,678,634.4h0q6.84-2.76,13.58-5.67,4.49-2,8.93-4,6.66-3.06,13.22-6.29A463.75,463.75,0,0,0,769.62,586c1.11-.76,2.23-1.52,3.33-2.29q3.31-2.3,6.59-4.64c1.09-.79,2.18-1.57,3.26-2.37l2.25-1.66c2.24-1.67,4.47-3.34,6.73-5h0c2.09-1.5,4.2-3,6.34-4.4v-86.4H572.94c.16-.5.31-1,.48-1.53-.18.51-.34,1-.49,1.53H515.19V598.67Zm.9-355V360.9H798.13V243.71Zm0,120.64V475.79H798.13V364.35ZM458.67,182.56l34.56,33.73V179Q475.86,180.08,458.67,182.56ZM218,364.35V475.79H493.23V364.35Zm66.52,275.24a511.15,511.15,0,0,0,129.73,30.78l.19,0q12.58,1.33,25.25,2.06l.31,0h0c17.69,1,35.45,1.23,53.18.57V479.23H218l1,128.32M141.79,475.79h54.28V364.35H174.6c-2.23,3.91-4.39,7.86-6.44,11.85-1.1,2.13-2.17,4.29-3.21,6.45C150.82,412,141.84,444.22,141.79,475.79Zm0,3.44c.44,22.64,5.54,44.87,16.73,65.4,9.3,17,22.22,32,37.51,45V479.23ZM176.61,360.9h19.46v-29A310.66,310.66,0,0,0,176.61,360.9ZM298.5,240.27H486.74l.68-.66-1-1h0L433.49,187A427.49,427.49,0,0,0,387,199.43c-1.44.47-2.88,1-4.31,1.45A422,422,0,0,0,298.5,240.27ZM218,305.64V360.9H459.38l0,0,0,0h33.83v-114l-3.86-3.14H293A378.08,378.08,0,0,0,218,305.64Z" opacity=".1" transform="translate(-61.56 -83.02)"/><path fill="#7c38b5" d="M1038.44,302.83V360.9h91.65c0-.34,0-.69-.09-1-.08-.93-.16-1.85-.25-2.77-.09-1.08-.21-2.17-.32-3.25s-.25-2.35-.39-3.52-.26-2.35-.41-3.52-.29-2.34-.45-3.5-.31-2.33-.48-3.49c-.14-1-.28-1.93-.43-2.89-.21-1.37-.43-2.73-.66-4.09,0-.2-.07-.41-.1-.6a253.15,253.15,0,0,0-6.75-29.42Z" opacity=".1" transform="translate(-61.56 -83.02)"/><path fill="#7c38b5" d="M1130.38,364.35h-91.94V475.79h85.22c.22,1.15.44,2.3.68,3.45h-85.9v89.85l.43-.14c2.43-.85,4.84-1.75,7.23-2.72l1.55-.62q3.66-1.53,7.23-3.23c.84-.39,1.68-.8,2.51-1.22a150,150,0,0,0,36.17-25c.31-.26.6-.55.89-.82,1.46-1.41,2.9-2.85,4.3-4.32.52-.54,1-1.08,1.54-1.64,1.65-1.79,3.24-3.64,4.79-5.5.23-.28.45-.56.68-.82A115.92,115.92,0,0,0,1121.34,498c.13-.26.24-.55.36-.82,1.26-2.82,2.39-5.68,3.37-8.59.41-1.22.81-2.45,1.16-3.68.13-.37.23-.74.34-1.1,5.09-17.84,5.68-36.4,5.68-54.85q0-3.23,0-6.45c0-7.45-.11-14.95-.24-22.44,0-1.94-.1-3.88-.14-5.83-.13-4.94-.3-9.9-.54-14.84-.06-1.37-.13-2.75-.21-4.11,0-.79-.08-1.58-.14-2.37Q1130.71,368.61,1130.38,364.35Z" opacity=".1" transform="translate(-61.56 -83.02)"/><polygon fill="#7c38b5" points="885.8 177.48 885.8 277.89 954.93 277.89 954.93 177.48 945.08 177.48 945.08 143.48 904.61 143.48 904.61 177.48 885.8 177.48" opacity=".1"/><rect width="69.13" height="111.44" x="885.8" y="281.33" fill="#7c38b5" opacity=".1"/><path fill="#7c38b5" d="M1016.49,479.24H947.36V571.9a199.92,199.92,0,0,0,24.86,4.7l2.07.23,3,.27c1,.08,2,.16,3,.22l.31,0c.44,0,.89,0,1.34.06l.46,0c.54,0,1.09.05,1.63.06h0c.78,0,1.55,0,2.33.06h1c.77,0,1.54,0,2.33,0l1.7,0c.46,0,.93,0,1.39,0l1.75-.06c.93,0,1.88-.08,2.82-.14h0l1.74-.12,2.17-.17c1.52-.12,3-.28,4.54-.46l1.81-.23.89-.11c1.51-.2,3-.43,4.51-.69,1.12-.17,2.23-.38,3.35-.58Z" opacity=".1" transform="translate(-61.56 -83.02)"/><rect width="57.01" height="112.26" x="453.64" y="165.62" fill="#7c38b5" opacity=".1"/><polygon fill="#7c38b5" points="453.64 281.33 453.64 392.77 736.58 392.77 736.58 344.71 585.87 344.71 585.87 373.06 510.64 373.06 510.64 281.33 453.64 281.33" opacity=".1"/><path fill="#7c38b5" d="M514.29,598.73l.9,0V671.8q15.33-1.15,30.54-3.14a547,547,0,0,0,132.33-34.27q18.23-7.3,35.73-15.94A466.71,466.71,0,0,0,769.63,586q6.68-4.53,13.17-9.29c3-2.2,6-4.46,9-6.64,2.09-1.51,4.2-3,6.35-4.41V479.24H573c.16-.52.31-1,.47-1.54-.17.51-.33,1-.48,1.54H515.19V598.68Z" opacity=".1" transform="translate(-61.56 -83.02)"/><path fill="#7c38b5" d="M366.52,240.27h37.14V230H387V199.43c-1.44.48-2.89,1-4.32,1.45V230H366.52Z" opacity=".1" transform="translate(-61.56 -83.02)"/><path fill="#7c38b5" d="M277,360.9H459.39l-.06,0,.08,0h33.82V248.64h-9.58v83h-43.8V282.51H403.66V243.72H366.52v38.79H330.35v49.11H277Z" opacity=".1" transform="translate(-61.56 -83.02)"/><path fill="#7c38b5" d="M277,364.35V475.79H493.23V364.35Zm7.55,275.24a511.15,511.15,0,0,0,129.73,30.78l.19,0q12.58,1.33,25.25,2.06l.31,0h0c17.69,1,35.45,1.23,53.18.57V479.23H277v39.51H218l.31,88.22" opacity=".1" transform="translate(-61.56 -83.02)"/><path fill="#7c38b5" d="M192.26,479.24H141.83c.44,22.63,5.55,44.85,16.74,65.38,9.29,17.06,22.22,32,37.5,45V518.74h-3.81Z" opacity=".1" transform="translate(-61.56 -83.02)"/><path fill="#7c38b5" d="M141.8,475.79h50.46V382.65H165C150.83,412,141.84,444.23,141.8,475.79Z" opacity=".1" transform="translate(-61.56 -83.02)"/><rect width="30.54" height="35.2" x="453.64" y="196.83" fill="#7c38b5" opacity=".1"/><rect width="30.54" height="8.1" x="453.64" y="269.78" fill="#7c38b5" opacity=".1"/><rect width="30.54" height="23.65" x="453.64" y="281.33" fill="#7c38b5" opacity=".1"/><rect width="30.54" height="35.2" x="453.64" y="342.74" fill="#7c38b5" opacity=".1"/><rect width="30.54" height="35.2" x="453.64" y="415.7" fill="#7c38b5" opacity=".1"/><path fill="#7c38b5" d="M515.19,598.68l-.9.05.9,0v8.17h30.54V571.67H515.19Z" opacity=".1" transform="translate(-61.56 -83.02)"/><path fill="#7c38b5" d="M515.19,644.61V671.8q15.33-1.15,30.54-3.14v-24Z" opacity=".1" transform="translate(-61.56 -83.02)"/><rect width="130.88" height="2.58" x="605.7" y="390.19" fill="#7c38b5" opacity=".1"/><rect width="130.88" height="9.91" x="605.7" y="396.22" fill="#7c38b5" opacity=".1"/><rect width="130.88" height="15.94" x="605.7" y="438.61" fill="#7c38b5" opacity=".1"/><path fill="#7c38b5" d="M667.25,570V586H769.63q6.68-4.53,13.17-9.29c3-2.2,6-4.45,9-6.64Z" opacity=".1" transform="translate(-61.56 -83.02)"/><path fill="#7c38b5" d="M667.25,618.45v15.94h10.81q18.24-7.3,35.73-15.94Z" opacity=".1" transform="translate(-61.56 -83.02)"/><rect width="25.76" height="22.91" x="414.29" y="375.15" fill="#7c38b5" opacity=".1" transform="translate(792.78 690.19) rotate(-180)"/><rect width="25.76" height="22.91" x="972.16" y="268.39" fill="#7c38b5" opacity=".1" transform="translate(1908.53 476.68) rotate(-180)"/><rect width="25.76" height="22.91" x="972.16" y="321.61" fill="#7c38b5" opacity=".1" transform="translate(1908.53 583.12) rotate(-180)"/><rect width="25.76" height="22.91" x="972.16" y="374.83" fill="#7c38b5" opacity=".1" transform="translate(1908.53 689.55) rotate(-180)"/><rect width="25.76" height="22.91" x="972.16" y="428.05" fill="#7c38b5" opacity=".1" transform="translate(1908.53 795.99) rotate(-180)"/><rect width="25.76" height="22.91" x="972.16" y="481.27" fill="#7c38b5" opacity=".1" transform="translate(1908.53 902.43) rotate(-180)"/><rect width="25.76" height="22.91" x="972.16" y="534.49" fill="#7c38b5" opacity=".1" transform="translate(1908.53 1008.86) rotate(-180)"/><rect width="25.76" height="22.91" x="315.93" y="375.15" fill="#7c38b5" opacity=".1" transform="translate(596.06 690.19) rotate(-180)"/><rect width="25.76" height="22.91" x="414.29" y="431.66" fill="#7c38b5" opacity=".1" transform="translate(792.78 803.21) rotate(-180)"/><rect width="25.76" height="22.91" x="315.93" y="431.66" fill="#7c38b5" opacity=".1" transform="translate(596.06 803.21) rotate(-180)"/><rect width="25.76" height="22.91" x="414.29" y="488.17" fill="#7c38b5" opacity=".1" transform="translate(792.78 916.23) rotate(-180)"/><rect width="25.76" height="22.91" x="315.93" y="488.17" fill="#7c38b5" opacity=".1" transform="translate(596.06 916.23) rotate(-180)"/><rect width="25.76" height="22.91" x="414.29" y="544.68" fill="#7c38b5" opacity=".1" transform="translate(792.78 1029.26) rotate(-180)"/><rect width="25.76" height="22.91" x="315.93" y="544.68" fill="#7c38b5" opacity=".1" transform="translate(596.06 1029.26) rotate(-180)"/><rect width="25.76" height="22.91" x="414.29" y="601.19" fill="#7c38b5" opacity=".1" transform="translate(792.78 1142.28) rotate(-180)"/><rect width="25.76" height="22.91" x="315.93" y="601.19" fill="#7c38b5" opacity=".1" transform="translate(596.06 1142.28) rotate(-180)"/><polygon fill="#7c38b5" points="378.5 589.46 378.5 574.68 352.74 574.68 352.74 587.36 378.5 589.46" opacity=".1"/><path fill="#7c38b5" d="M1038.44,332.24v13.11h88.17V332.24Zm79.39.83h7.23v11.46h-7.23Zm-8.78,0h7.23v11.46h-7.23Zm-8.76,0h7.23v11.46h-7.23Zm-8.78,0h7.23v11.46h-7.23Zm-8.77,0H1090v11.46h-7.23Zm-8.78,0h7.23v11.46H1074Zm-8.78,0h7.23v11.46h-7.23Zm-8.77,0h7.23v11.46h-7.23Zm-8.77,0h7.23v11.46h-7.23Zm-8.77,0h7.23v11.46h-7.23Z" opacity=".1" transform="translate(-61.56 -83.02)"/><path fill="#7c38b5" d="M1038.44,370.4v13.11h88.17V370.4Zm79.39.83h7.23v11.45h-7.23Zm-8.78,0h7.23v11.45h-7.23Zm-8.76,0h7.23v11.45h-7.23Zm-8.78,0h7.23v11.45h-7.23Zm-8.77,0H1090v11.45h-7.23Zm-8.78,0h7.23v11.45H1074Zm-8.78,0h7.23v11.45h-7.23Zm-8.77,0h7.23v11.45h-7.23Zm-8.77,0h7.23v11.45h-7.23Zm-8.77,0h7.23v11.45h-7.23Z" opacity=".1" transform="translate(-61.56 -83.02)"/><path fill="#7c38b5" d="M1038.44,408.56v13.1h88.17v-13.1Zm79.39.82h7.23v11.45h-7.23Zm-8.78,0h7.23v11.45h-7.23Zm-8.76,0h7.23v11.45h-7.23Zm-8.78,0h7.23v11.45h-7.23Zm-8.77,0H1090v11.45h-7.23Zm-8.78,0h7.23v11.45H1074Zm-8.78,0h7.23v11.45h-7.23Zm-8.77,0h7.23v11.45h-7.23Zm-8.77,0h7.23v11.45h-7.23Zm-8.77,0h7.23v11.45h-7.23Z" opacity=".1" transform="translate(-61.56 -83.02)"/><path fill="#7c38b5" d="M1038.44,446.71V459.8h88.17V446.71Zm79.39.81h7.23V459h-7.23Zm-8.78,0h7.23V459h-7.23Zm-8.76,0h7.23V459h-7.23Zm-8.78,0h7.23V459h-7.23Zm-8.77,0H1090V459h-7.23Zm-8.78,0h7.23V459H1074Zm-8.78,0h7.23V459h-7.23Zm-8.77,0h7.23V459h-7.23Zm-8.77,0h7.23V459h-7.23Zm-8.77,0h7.23V459h-7.23Z" opacity=".1" transform="translate(-61.56 -83.02)"/><path fill="#7c38b5" d="M1038.44,484.85V498h82.9c.12-.26.24-.55.35-.82h-3.86V485.68h7.23v2.86c.42-1.22.82-2.45,1.17-3.69Zm70.61.83h7.23v11.45h-7.23Zm-8.76,0h7.23v11.45h-7.23Zm-8.78,0h7.23v11.45h-7.23Zm-8.77,0H1090v11.45h-7.23Zm-8.78,0h7.23v11.45H1074Zm-8.78,0h7.23v11.45h-7.23Zm-8.77,0h7.23v11.45h-7.23Zm-8.77,0h7.23v11.45h-7.23Zm-8.77,0h7.23v11.45h-7.23Z" opacity=".1" transform="translate(-61.56 -83.02)"/><path fill="#7c38b5" d="M1038.44,523v13.1h55.11c.32-.27.6-.55.89-.82h-2.93V523.83h7.23V531l1.55-1.65v-5.5h4.79c.23-.28.45-.56.68-.82Zm44.3.82H1090v11.46h-7.23Zm-8.78,0h7.23v11.46H1074Zm-8.78,0h7.23v11.46h-7.23Zm-8.77,0h7.23v11.46h-7.23Zm-8.77,0h7.23v11.46h-7.23Zm-8.77,0h7.23v11.46h-7.23Z" opacity=".1" transform="translate(-61.56 -83.02)"/><path fill="#7c38b5" d="M1038.44,561.16v7.93l.43-.14v-7h7.23v4.26l1.54-.64V562h7.23v.4c.85-.39,1.69-.8,2.52-1.22Z" opacity=".1" transform="translate(-61.56 -83.02)"/><path fill="#7c38b5" d="M459.35,360.92l0,0h0Zm54.94,237.81.9,0v0Zm58.64-119.5h0c.16-.5.31-1,.48-1.53C573.24,478.21,573.08,478.73,572.93,479.23ZM459.35,360.92l0,0h0ZM966.16,240.27v3.44h40.47v-3.44ZM514.29,598.73l.9,0v0Zm58.64-119.5h0c.16-.5.31-1,.48-1.53C573.24,478.21,573.08,478.73,572.93,479.23ZM459.35,360.92l0,0h0Zm54.94,237.81.9,0v0Zm58.64-119.5h0c.16-.5.31-1,.48-1.53C573.24,478.21,573.08,478.73,572.93,479.23Z" opacity=".1" transform="translate(-61.56 -83.02)"/><rect width="1001.87" height="35.42" x="74.53" y="698.04" fill="#7c38b5" opacity=".1"/><rect width="5.07" height="114.02" x="104.76" y="472.85" fill="#535461"/><path fill="#3f3d56" d="M203.21,669.54l-.32,5.14-.44,7.25-.19,3-.45,7.25-.19,3-.45,7.24-5.11,82.45A14,14,0,0,1,182.13,798H155.58a14,14,0,0,1-13.93-13.1l-5.12-82.45-.44-7.24-.19-3-.46-7.25-.18-3-.45-7.25-.32-5.14a7.23,7.23,0,0,1,7.22-7.67H196A7.21,7.21,0,0,1,203.21,669.54Z" transform="translate(-61.56 -83.02)"/><polygon fill="#9d9cb5" points="141.34 591.66 140.89 598.91 73.7 598.91 73.26 591.66 141.34 591.66"/><polygon fill="#9d9cb5" points="140.71 601.93 140.26 609.19 74.34 609.19 73.89 601.93 140.71 601.93"/><polygon fill="#9d9cb5" points="140.06 612.21 139.62 619.46 74.98 619.46 74.53 612.21 140.06 612.21"/><path fill="#7c38b5" d="M127.08,598.61c29.49,21.33,41.77,54.71,41.77,54.71s-35.54-1.22-65-22.56S62,576.05,62,576.05,97.58,577.27,127.08,598.61Z" transform="translate(-61.56 -83.02)"/><path fill="none" stroke="#535461" stroke-miterlimit="10" stroke-width="2" d="M62,576.05s36.89,20.48,48.72,37.43,58.09,39.84,58.09,39.84" transform="translate(-61.56 -83.02)"/><path fill="#7c38b5" d="M146.11,555.62c16.06,11.61,22.74,29.78,22.74,29.78s-19.34-.67-35.4-12.28-22.73-29.78-22.73-29.78S130.06,544,146.11,555.62Z" transform="translate(-61.56 -83.02)"/><path fill="none" stroke="#535461" stroke-miterlimit="10" stroke-width="2" d="M110.72,543.34s20.07,11.15,26.52,20.37,31.61,21.69,31.61,21.69" transform="translate(-61.56 -83.02)"/><path fill="#7c38b5" d="M192.18,584.47c-18.44,20.27-22.34,46.75-22.34,46.75s26-6.38,44.44-26.65,22.34-46.74,22.34-46.74S210.62,564.2,192.18,584.47Z" transform="translate(-61.56 -83.02)"/><path fill="none" stroke="#535461" stroke-miterlimit="10" stroke-width="2" d="M236.62,557.83s-24,20.77-30.13,35.09-36.65,38.3-36.65,38.3" transform="translate(-61.56 -83.02)"/><circle cx="406.3" cy="56.89" r="19.79" fill="none" stroke="#7c38b5" stroke-miterlimit="10" opacity=".2"/><circle cx="406.3" cy="56.89" r="35.77" fill="none" stroke="#7c38b5" stroke-miterlimit="10" opacity=".2"/><circle cx="406.3" cy="56.89" r="56.39" fill="none" stroke="#7c38b5" stroke-miterlimit="10" opacity=".2"/><path fill="url(#bc224463-365b-4973-a542-782a8bb75c72)" d="M604.58,808.24c-.53-3.94-3.24-9-3.24-9l-14.47-21.15H587s-2.29-10.63,0-15.83-8.14-18.06-8.14-18.06-1.27-3.22,2-7.18-2-15.58-2-15.58-2.55-24.25-2.8-28-2.29-24.24-2.29-24.24l-4.84-43.55-8.6-115.4-.16-2.16c1.07-.51,1.63-.83,1.63-.83L560,443.49l1.49-1.31c13-11.47,42.91-38,42.62-38.61-.39-.74-3.63-44.35-4-55.3A64.71,64.71,0,0,0,595,325.64c-.75-1.46-2.91-11-3.81-15.08l-.39-1.81s-8.78-16.33-8-23.75,2.29-13-16.42-15.59c0,0-15.78-2.29-25.07-8.54a72.68,72.68,0,0,0-17.94-8.78s-3.44-6-6.79-4.84V234.51a13.87,13.87,0,0,0,8.81-12.76V175.86A14.06,14.06,0,0,0,511.14,162H471.35v0a13.92,13.92,0,0,0-1.72.15v-21a2.23,2.23,0,0,0-.7-1.62,2.38,2.38,0,0,0-1.67-.68,2.34,2.34,0,0,0-2.37,2.3v22.49a13.79,13.79,0,0,0-7.41,12.12v45.89a13.87,13.87,0,0,0,8.8,12.76v12.11c-1.61-.19-4,.92-6.72,6.46,0,0-13.62,7.67-18.33,8.54s-21.38,6.55-21.38,6.55a15,15,0,0,1-8.65,2.72c-5.22,0-9.55,11.14-8.91,17.2s-.39,10.51-5.22,10.76-2.19,9.93-2.17,10c-.06.27-.22,1-.45,2.06-.94,4.23-3,13.3-3.72,14.72a64.47,64.47,0,0,0-5.16,22.63c-.38,11-3.63,54.56-4,55.3-.24.49,20.26,18.8,34.69,31.59l2.08,1.84-6.63,60.53s0,6.78,6.82,11.86c0,.69,0,1.42-.08,2.16-.29,7-.87,15.65-2,17.9-2,4-1.53,25.23-1.53,25.23s-2,43.31-4.58,48-3.06,14.6-2.29,16.58-2.55,53.94-2.55,53.94l-2.55,23.25s.77,22.27-1.52,22.77-3.57,15.83-3.57,15.83-8.14,10.89-4.58,14.85-.53,5.69-.9,6.68-7.76,4.7-2.41,18.55c.05.14.12.26.18.39-5,6.77-20.87,28.69-19.91,32a8.91,8.91,0,0,0,4.24,5c3.73,2.18,10.14,3.19,20.32,0,16.93-5.32,15.66-9.16,15.66-9.16s.13-6.18,7.13-6.68,12.22-6.8,12.22-6.8l-.82-3-1.13-4.13c.14-1.23,1-3.25,4.87-4.4,5.86-1.73,4.33-12.61,4.33-12.61s-.51-11.39,2-12.87,1.52-20.29,1.52-20.29,2.81-13.61,6.88-22.77,8.91-63.58,8.91-63.58,3.3-26.72,6.36-34.39,5.86-29.2,5.86-29.2,18.84-35.63,19.09-43.55c0,0,2.44-7.42,4.79.75s9.21,27.71,9.21,27.71l6.62,24,7.89,35.87,5.09,30.19S520.53,669,522.56,673s4.84,13.11,3.31,14.85,3.06,9.89,4.33,11.62,0,38.36,0,38.36,5.85,31.17,14.25,36.61a11.1,11.1,0,0,0,1.86.94c-.12,3.38-.24,7.9-.08,10.26a4,4,0,0,0,.26,1.55c.76,1,9.42,7.66,11.2,7.66s8.14,4.34,8.4,6.44,18.61,11,21.2,11.26,15.2,2.47,17-1A5.6,5.6,0,0,0,604.58,808.24ZM559.5,362.39l1.31,1.1s1.33,10.21,2.29,13.26-.19,9-.19,9,.19,4.27,1.33,6.49S562,399.3,562,399.3H558.9l-1-38.22Zm-137.84,33a4.18,4.18,0,0,1-.2-3.15,9.29,9.29,0,0,0,.65-1.74,26,26,0,0,0,.69-4.75.18.18,0,0,0,0-.05c-.1-.58-1.08-6-.18-9s2.29-13.26,2.29-13.26l.87-.73,2-1.68s.06-.64.14-1.69c.43,9,.77,18.84.22,19.38-1,1-4.71,10.64-3.82,11,.29.12-.11,4-.78,9.18A18.4,18.4,0,0,1,421.66,395.4Z" transform="translate(-61.56 -83.02)"/><path fill="#6f758d" d="M470.15,142.2v30.33a2.3,2.3,0,0,1-4.6,0V142.2a2.3,2.3,0,0,1,2.3-2.3,2.32,2.32,0,0,1,2.3,2.3Z" transform="translate(-61.56 -83.02)"/><path fill="#6f758d" d="M515.69,223.28v47.13a14.25,14.25,0,0,1-14.21,14.21H481.12a14.25,14.25,0,0,1-14.22-14.21V223.28a14.26,14.26,0,0,1,14.22-14.21h20.36a14.25,14.25,0,0,1,14.21,14.21Z" transform="translate(-61.56 -83.02)"/><path fill="#3f3d56" d="M435.63,399.89l-3.89,48s-5.84-5.29-13.4-12.19c-14-12.77-33.9-31.06-33.67-31.54.37-.74,3.52-44.29,3.89-55.22a66.29,66.29,0,0,1,5-22.61c.7-1.41,2.7-10.46,3.61-14.69.29-1.32.46-2.17.46-2.17l6.49-2.6s27.24,30.39,27.24,30.95-1.85,23.9-1.85,23.9l-1.94,1.69-.84.72s-1.3,10.2-2.23,13.25c-.87,2.9.08,8.37.18,8.94v.05a26.39,26.39,0,0,1-.68,4.74,9.68,9.68,0,0,1-.62,1.75,4.3,4.3,0,0,0,.19,3.14,19.06,19.06,0,0,0,2,3.9Z" transform="translate(-61.56 -83.02)"/><path fill="#3f3d56" d="M600.72,404.15c.29.58-28.77,27.1-41.36,38.55l-5.71,5.18-3.89-48h10s3.34-4.82,2.23-7-1.3-6.49-1.3-6.49,1.11-5.93.19-9-2.23-13.25-2.23-13.25L557.38,363l-1.51-1.32S554,338.37,554,337.81s27.24-30.95,27.24-30.95l6.48,2.6s.15.7.38,1.81c.88,4,3,13.6,3.7,15.05a66.12,66.12,0,0,1,5,22.61C597.2,359.86,600.35,403.41,600.72,404.15Z" transform="translate(-61.56 -83.02)"/><path fill="#3f3d56" d="M600.84,811.51c-1.73,3.46-14,1.24-16.48,1s-20.33-9.15-20.58-11.24-6.43-6.43-8.15-6.43-10.13-6.67-10.88-7.66a4.19,4.19,0,0,1-.25-1.54c-.26-4.06.25-14.52.25-14.52l35.83,2L598,799.28s2.62,5,3.14,9A5.79,5.79,0,0,1,600.84,811.51Z" transform="translate(-61.56 -83.02)"/><path d="M600.84,811.51c-1.73,3.46-14,1.24-16.48,1s-20.33-9.15-20.58-11.24-6.43-6.43-8.15-6.43-10.13-6.67-10.88-7.66a4.19,4.19,0,0,1-.25-1.54c-.26-4.06.25-14.52.25-14.52l35.83,2L598,799.28s2.62,5,3.14,9A5.79,5.79,0,0,1,600.84,811.51Z" opacity=".1" transform="translate(-61.56 -83.02)"/><path d="M600.84,811.51c-1.73,3.46-14,1.24-16.48,1s-20.33-9.15-20.58-11.24-6.43-6.43-8.15-6.43-10.13-6.67-10.88-7.66a4.19,4.19,0,0,1-.25-1.54L556.12,793s7.41,4.7,9.39,7.54,17.56,8.65,18.85,8.76c1,.1,11.2-1.86,16.78-1A5.79,5.79,0,0,1,600.84,811.51Z" opacity=".1" transform="translate(-61.56 -83.02)"/><path fill="#3f3d56" d="M431.47,789.89s-5.07,6.3-11.86,6.79a7,7,0,0,0-6.92,6.67s1.24,3.84-15.19,9.15c-9.89,3.2-16.11,2.19-19.74,0a8.77,8.77,0,0,1-4.1-5c-1.11-3.95,20.75-34,20.75-34l19.89-1.24,14.21,6.43,2.17,8.13Z" transform="translate(-61.56 -83.02)"/><path d="M431.47,789.89s-5.07,6.3-11.86,6.79a7,7,0,0,0-6.92,6.67s1.24,3.84-15.19,9.15c-9.89,3.2-16.11,2.19-19.74,0a8.77,8.77,0,0,1-4.1-5c-1.11-3.95,20.75-34,20.75-34l19.89-1.24,14.21,6.43,2.17,8.13Z" opacity=".1" transform="translate(-61.56 -83.02)"/><path fill="none" d="M431.47,789.89s-5.07,6.3-11.86,6.79a7,7,0,0,0-6.92,6.67s1.24,3.84-15.19,9.15c-9.89,3.2-16.11,2.19-19.74,0,9.33-1,29.93-6.86,32-8.9,2.47-2.48,5.56-9.27,7.66-9.39,1.45-.09,8.85-4.55,13.29-7.31Z" transform="translate(-61.56 -83.02)"/><path d="M431.47,789.89s-5.07,6.3-11.86,6.79a7,7,0,0,0-6.92,6.67s1.24,3.84-15.19,9.15c-9.89,3.2-16.11,2.19-19.74,0,9.33-1,29.93-6.86,32-8.9,2.47-2.48,5.56-9.27,7.66-9.39,1.45-.09,8.85-4.55,13.29-7.31Z" opacity=".1" transform="translate(-61.56 -83.02)"/><path fill="#3f3d56" d="M584,762.34c-2.22,5.19,0,15.81,0,15.81s-33.11,1.74-41.26-3.7-13.84-36.57-13.84-36.57,1.23-36.56,0-38.3-5.68-9.88-4.2-11.6-1.24-10.88-3.21-14.83-1.24-15.32-1.24-15.32l-4.94-30.14-7.66-35.83-6.42-24s-6.67-19.52-8.94-27.68-4.65-.74-4.65-.74c-.24,7.91-18.53,43.49-18.53,43.49s-2.72,21.49-5.69,29.15-6.17,34.35-6.17,34.35-4.69,54.35-8.65,63.49S442,732.69,442,732.69s1,18.78-1.48,20.26-2,12.85-2,12.85,1.48,10.87-4.21,12.61-4.69,5.43-4.69,5.43S398,789,392.8,775.19s2-17.54,2.34-18.53,4.34-2.71.87-6.67,4.45-14.83,4.45-14.83,1.24-15.31,3.46-15.81,1.48-22.73,1.48-22.73l2.47-23.22s3.22-51.89,2.48-53.87-.25-11.86,2.22-16.55S417,555.05,417,555.05s-.5-21.25,1.48-25.2c1.12-2.24,1.68-10.85,2-17.88.2-5.35.26-9.79.26-9.79L448.4,491.8,484,480.44l29.9,14.32,43.73,8.4.55,7.55L566.49,626l4.7,43.49s2,20.5,2.23,24.2,2.71,27.93,2.71,27.93,5.19,11.61,2,15.56-2,7.17-2,7.17S586.26,757.15,584,762.34Z" transform="translate(-61.56 -83.02)"/><polygon points="470.6 181.72 459.24 384.2 397.46 371.23 385.23 290.06 397.34 181.1 406.46 182.27 422.55 184.32 438.48 185.31 455.74 183.38 470.6 181.72" opacity=".1"/><polygon fill="#7c38b5" points="470.6 183.21 459.24 385.68 397.46 372.71 385.23 291.54 397.34 182.59 406.46 183.75 422.55 185.8 438.48 186.79 455.74 184.86 470.6 183.21"/><path fill="#3f3d56" d="M481.38,271.66l22.24.74-6.25,8.75s.44,17.68,3.41,22.75,2.1,83.39,2.1,83.39L497,398.53l-10.13-12.6.12-103.4Z" transform="translate(-61.56 -83.02)"/><path d="M481.38,271.66l22.24.74-6.25,8.75s.44,17.68,3.41,22.75,2.1,83.39,2.1,83.39L497,398.53l-10.13-12.6.12-103.4Z" opacity=".1" transform="translate(-61.56 -83.02)"/><polygon points="454.66 165.66 433.91 188.64 445.77 200.99 465.41 181.85 454.66 165.66" opacity=".1"/><path fill="#7c38b5" d="M514.85,248.71l-19.39,21.46,11.86,12.36L527,263.38l-9.61-14.48A1.58,1.58,0,0,0,514.85,248.71Z" transform="translate(-61.56 -83.02)"/><polygon points="425.14 187.53 404.14 166.53 402.16 177.52 411.8 201.61 425.14 187.53" opacity=".1"/><polygon fill="#7c38b5" points="425.88 186.05 404.88 165.04 402.9 176.04 412.54 200.13 425.88 186.05"/><path d="M558.15,510.71A102.37,102.37,0,0,1,526.22,520c-20.38,2.6-33.72-23.34-33.72-23.34l-7.78,10.13c-2.47,10.75-40.16,13.46-55.47,9.38a24.27,24.27,0,0,1-8.78-4.16c.2-5.35.26-9.79.26-9.79L448.4,491.8,484,480.44l29.9,14.32,43.73,8.4Z" opacity=".1" transform="translate(-61.56 -83.02)"/><path d="M532.15,266.22,520.79,468.69l-61.77-13-12.23-81.16,12.11-109,9.12,1.16a110.57,110.57,0,0,1-1.34,11.81c-1.48,6.92,7.66,56.09,7.66,56.09s17.37,55.13,25.2,47.19,18.9-49.91,18.9-49.91c7.54-15.57.13-59.17-.43-60.1a17.65,17.65,0,0,1-.71-4Z" opacity=".1" transform="translate(-61.56 -83.02)"/><path d="M558.84,422.86l.52,19.84-5.71,5.18-3.89-48h8.52Z" opacity=".1" transform="translate(-61.56 -83.02)"/><path d="M424.69,386.31v.05a26.39,26.39,0,0,1-.68,4.74c0-.44,0-.69-.08-.72C423.57,390.22,424,388.41,424.69,386.31Z" opacity=".1" transform="translate(-61.56 -83.02)"/><path d="M435.63,399.89l-3.89,48s-5.84-5.29-13.4-12.19l.9-8.5s3.19-20.9,4.35-31.2a19.06,19.06,0,0,0,2,3.9Z" opacity=".1" transform="translate(-61.56 -83.02)"/><path fill="#3f3d56" d="M469.14,248.8s-3.7-5.43-8.76,5.07c0,0-13.22,7.66-17.79,8.52s-20.75,6.55-20.75,6.55a14.3,14.3,0,0,1-8.41,2.72c-5.06,0-9.26,11.11-8.64,17.17s-.37,10.5-5.07,10.75-2.1,10-2.1,10l31.26,35.83s2,33,1,34-4.58,10.62-3.71,11-4.7,36.82-4.7,36.82L413.93,498s0,11.85,15.32,15.93,53,1.36,55.47-9.39l7.78-10.13s13.34,26,33.72,23.35,33.36-10,33.36-10l-2.23-84.87-1.48-61.15,31.87-52.25s-8.52-16.31-7.78-23.72,2.23-13-15.93-15.57c0,0-15.32-2.28-24.34-8.52a69.38,69.38,0,0,0-17.42-8.77s-4.1-7.4-7.64-4.2c0,0,2.58,11.36,2.27,13.4s.55,11.06,1.11,12,8,44.53.43,60.1c0,0-11.07,42-18.9,49.9s-25.2-47.19-25.2-47.19-9.14-49.16-7.66-56.08S469.14,248.8,469.14,248.8Z" transform="translate(-61.56 -83.02)"/><circle cx="434.03" cy="322.31" r="5.44" fill="#3f3d56"/><circle cx="434.03" cy="347.94" r="5.44" fill="#3f3d56"/><circle cx="434.03" cy="322.31" r="5.44" opacity=".1"/><circle cx="434.03" cy="347.94" r="5.44" opacity=".1"/><path d="M544.43,754.93s22.31,1.73,24.54,3.46S544.43,754.93,544.43,754.93Z" opacity=".1" transform="translate(-61.56 -83.02)"/><path d="M411.58,737.39s4.7,5.93,2.72,8.65S411.58,737.39,411.58,737.39Z" opacity=".1" transform="translate(-61.56 -83.02)"/><path d="M417.26,758.74s8.65-5.68,12.11-1.9S417.26,758.74,417.26,758.74Z" opacity=".1" transform="translate(-61.56 -83.02)"/><path d="M515.69,223.28v14.27a14.1,14.1,0,0,1-5.66,1.19H472.58a14,14,0,0,1-5.68-1.2V223.28a14.26,14.26,0,0,1,14.22-14.21h20.36A14.26,14.26,0,0,1,515.69,223.28Z" opacity=".1" transform="translate(-61.56 -83.02)"/><path d="M470.15,162v10.54a2.3,2.3,0,0,1-4.6,0v-8.87A13.57,13.57,0,0,1,470.15,162Z" opacity=".1" transform="translate(-61.56 -83.02)"/><rect width="65.88" height="73.41" x="396.8" y="79.94" fill="#dcdfed" rx="12"/><path d="M510,212v29.93H472.58V211.94a14.12,14.12,0,0,1,8.54-2.87h20.36A14.18,14.18,0,0,1,510,212Z" opacity=".1" transform="translate(-61.56 -83.02)"/><rect width="38.61" height="76.55" x="410.27" y="79.94" opacity=".1"/><rect width="37.45" height="76.55" x="411.02" y="79.94" fill="#6f758d"/><rect width="12.11" height="2.24" x="413.77" y="106.35" fill="#dcdfed"/><rect width="12.11" height="2.24" x="433.91" y="106.35" fill="#dcdfed"/><rect width="20.44" height="1.34" x="419.52" y="131.09" fill="#dcdfed"/><path fill="url(#f10c32a2-f99a-4cbc-971d-c4e860c06767)" d="M748.32,296.46,762.8,368a3.8,3.8,0,0,0,3.36,3l9.65.94a40.69,40.69,0,0,1,1.93,3.85c1.72,4,2.84,8.8,6.55,11.17,2,2,6.51,1.65,9.09,1.66a23.23,23.23,0,0,1,8,1.11,3.88,3.88,0,0,0-.9,0,34.73,34.73,0,0,1,4.86,2.4c.12.16.25.32.35.48.41.63.74,1.39,1.43,1.7-.2.4.75.41,2.27.2a1.66,1.66,0,0,1,.43.14,3.32,3.32,0,0,1,1,1.05c2.51,3.34,7.17,4.17,11.37,4.28s8.64-.18,12.34,1.81c.88.47,1.7,1.06,2.62,1.46a4.41,4.41,0,0,0,.05,1.31,23.09,23.09,0,0,0,1.68,4,4.79,4.79,0,0,1,.1,4.22c-.31.54-.81,1-1.13,1.5a6.1,6.1,0,0,0-.63,2.81c-.29,4.55-.57,9.19.67,13.57.72,2.55,1.94,5.2,1.14,7.72-.48,1.52-1.67,2.81-1.84,4.39s.83,3.24,1.42,4.83c1.39,3.77.63,8.29-.33,12.18a1.63,1.63,0,0,0,.19.09,11.62,11.62,0,0,0-1.74,2.75c-1.53,3.29-1.43,7.08-1.32,10.7.21,6.81.44,13.7,2.33,20.24a13.72,13.72,0,0,1,.66,2.87,11.54,11.54,0,0,1-.24,2.75c-.45,2.62-1,5.23-1.65,7.81a9,9,0,0,0-.43,3.43c.19,1.51,1.14,2.82,1.77,4.22,2.51,5.58-.19,12.45,2.25,18.06.58,1.33,1.43,2.53,1.93,3.89,1.1,3,.48,6.24.85,9.36a52.18,52.18,0,0,0,1.62,6.52c1.77,6.94-1.16,14.34.55,21.3,1.46,6,2.94,12,3,18.11.09,4.27-.5,8.54,0,12.78s2.26,8.61,5.89,10.87a14.37,14.37,0,0,0,6.31,1.86c4.3,22.37,4.05,45.43,7.79,67.92.75,4.54,1.67,9,2.13,13.63,2.13,21.4-5.86,42.17-10.37,63.32l-.72.44c-5.55,3.46-11.46,7.36-13.66,13.48-.68,1.89-.84,4.3.68,5.63a12.19,12.19,0,0,1,1.6,1.24c1.21,1.46.15,4.08,1.61,5.28a23.2,23.2,0,0,0,2.89.3q-1,2.38-2,4.77c-.61,1.41-1.23,2.95-.85,4.44a11.92,11.92,0,0,0,1.39,2.67,15.35,15.35,0,0,1,1.42,7.2,3.28,3.28,0,0,0,.63,2.31,3.05,3.05,0,0,0,.94.59,27.76,27.76,0,0,0,27.52-3,3.12,3.12,0,0,0,.94-.94,3.67,3.67,0,0,0,.27-.81c.63-2.59,1.27-5.18,1.9-7.77.08-.3.15-.61.23-.91.74-3.06,1.49-6.11,2.24-9.17,1-4.3,2.09-8.61,2.82-13,0,2.44,0,4.87,0,7.31l0,8.54a36.24,36.24,0,0,0,.13,3.77c1.05,0,2.1,0,3.15,0a.42.42,0,0,0,.4-.17,2.27,2.27,0,0,0,.2-1q.23-4.68.33-9.38c.13-5.48.15-11,.05-16.46,0-1.24.12-3.79-.08-5.5a27.36,27.36,0,0,0,1.28-3.73c.51-1.72,1-3.46,1.42-5.21a7.21,7.21,0,0,1,2,0,152.68,152.68,0,0,1-2.93,30.08c1.94,1.81,5.37.76,6.93-1.4s1.76-5,2-7.6c.73-8.68,2.13-17.29,3.54-25.89a11.94,11.94,0,0,1,1.25-4.25c.67-1.14,1.72-2,2.31-3.22a8.87,8.87,0,0,0,.54-4.8c-.36-3.79-1.3-7.65-3.62-10.69-2.18-2.85-5.8-4.79-9.35-4.37l-.22-.4c-2.06-4.13-1.85-9-1.59-13.56q.43-7.78.88-15.56c.85-5.72,1.52-11.44,1.92-17.17,1-3.68,2.35-7.26,3.25-11,0-3.63,1.29-7.41,1.33-11.14a73.69,73.69,0,0,0-.87-11.59c-1.14-7.88-3.2-15.59-4.91-23.35-.28-1.31-.46-2.7-.65-4.07a15.92,15.92,0,0,0,3.18-2.44c-1.75-13.6-3.34-28.2,3.1-40.32,1.91-3.58,4.52-7,5.19-11,.17-1,.22-2.06.43-3.07a17.65,17.65,0,0,1,1.25-3.46l12.74-28.85,2.06-4.64c2.21-5,4.42-10,6.31-15.17,2.22-6,4-12.23,5.67-18.42,1-3.71,2-7.49,1.93-11.33a28.15,28.15,0,0,0-2.37-9.88c-.3-.71-.62-1.41-1-2.11.39-.12.77-.21,1.15-.33.85-6.05,1.57-12.72-1.84-17.78a10,10,0,0,1-1.59-2.68c-.61-2.07.71-4.18,1.13-6.3.86-4.33-2.06-8.4-4.56-12.05a5.54,5.54,0,0,1-.88-1.62c-.46-1.66.55-3.51.57-5.19a2.93,2.93,0,0,0-.29-1.29c9.65.56,19.17,3.08,28.85,3.45,6.13.24,13-.72,16.89-5.4,2.49-3,3.38-6.95,3.62-10.81.44-7.11-1-14.19-2.2-21.22-.78-4.77-1.4-9.57-1.89-14.39,1,.09,2,.14,3,.14,5.73,0,11.69-.84,16.43-4s7.91-9.19,6.42-14.68c-.84-3.1-3-5.66-4.58-8.45-5.58-9.85-4-22.38.8-32.65,2.25-4.86,5.23-9.9,4.33-15.18-1.28-7.4-9.25-11.25-15.23-15.85a40,40,0,0,1-15.16-34.72c.46-4.87,1.79-10-.16-14.49-2.1-4.81-7.29-7.34-11.66-10.26a46.73,46.73,0,0,1-15.87-18.15c-2.23-4.56-4.07-8.74-9.33-10.3a27.42,27.42,0,0,0-12.93-.24l.88-.42c-.4.07-.8.15-1.18.24l-.62.17a28,28,0,0,0-12.22.07c-8.13,1.95-17,7.79-23.66,12.6a32.44,32.44,0,0,0-5.46,4.79c-.17.19-.36.36-.53.55a12.74,12.74,0,0,0-2,2.95,11.54,11.54,0,0,0-.77,2.44,20.66,20.66,0,0,0-.83,7.12c-.36.5-.71,1-1,1.53a31.24,31.24,0,0,0,8.26,42.07,55.63,55.63,0,0,1-4.23,7.86c-1.72,2.78-3.54,5.51-5.4,8.2l-20,6.2c-1.26.4-2.52.79-3.73,1.3a17.38,17.38,0,0,0-4.08,2.44,14.71,14.71,0,0,0-5.48,13.48c.09.52.21,1,.33,1.54-.6,3.06-1.06,6.17-1.52,9.26-.6,4.17-1.2,8.34-1.75,12.52a25.71,25.71,0,0,0-2.6,13.37,66.09,66.09,0,0,0,.73,8.32c-.07,2.45-.1,4.9,0,7.35a76.43,76.43,0,0,1,0,9.33,57.24,57.24,0,0,1-1.66,8.4,1.81,1.81,0,0,1-.74,1.27l-.23.06-1.34-.13-1.48-.17a4.7,4.7,0,0,0-.05-.63L813.72,295a3.8,3.8,0,0,0-3.74-3H752.05A3.79,3.79,0,0,0,748.32,296.46Zm183.52,92.11a7.84,7.84,0,0,1,.43-.93c.59-1,1.45-1.82,2-2.83a4.13,4.13,0,0,0,0-3.66c-.57-1,1-1.95,1.46-3a6.78,6.78,0,0,0,.15-2.59,8.18,8.18,0,0,1,1.63-4c1.1-1.74,2.21-3.46,3.34-5.18.33-.52.68-1,1-1.54a10.57,10.57,0,0,0,.61,1,9.21,9.21,0,0,1,1.84,3.18,14.53,14.53,0,0,1,0,2.47c0,2.56,1.62,4.81,2.85,7.07s2.13,5.09.85,7.32c-.45.78-1,2-.23,2.36.43.2,1,0,1.37.28.52.47-.19,1.26-.84,1.55a17.14,17.14,0,0,1-13.58,0C933.82,389.6,932.84,389.06,931.84,388.57Zm-123-13.38,16,1.57a8.73,8.73,0,0,1-4.27.88l-3.88-1.16s0,.26-.13.7c-.73-.19-1.47-.37-2.2-.54C812.49,376.2,810.65,375.71,808.82,375.19Z" transform="translate(-61.56 -83.02)"/><path fill="#3f3d56" d="M932.09,202A46.38,46.38,0,0,0,947.77,220c4.33,2.91,9.45,5.43,11.53,10.21,1.94,4.46.62,9.57.17,14.42a39.82,39.82,0,0,0,15,34.53c5.91,4.57,13.8,8.41,15.06,15.77.9,5.25-2,10.27-4.28,15.1-4.7,10.22-6.31,22.68-.79,32.47,1.57,2.79,3.69,5.33,4.53,8.41,1.48,5.47-1.66,11.43-6.35,14.61s-10.58,4-16.24,4c-4.12,0-8.58-.62-11.5-3.51-2-1.94-2.94-4.64-3.86-7.23l-7.16-20.24c-1.3-3.64-2.66-7.42-5.37-10.18-5.74-5.86-15.12-5.24-23.32-5.14a107.44,107.44,0,0,1-35.56-5.61c-6.7-2.26-14-6.11-15.55-13-1.53-6.74,3.08-13.16,7.14-18.75q4.56-6.25,8.62-12.85c2.64-4.28,5.17-8.78,5.89-13.75,1.21-8.26-2.66-16.28-5.66-24.07s-5.09-17-.73-24.12a25.78,25.78,0,0,1,7.07-7c6.55-4.79,15.35-10.59,23.39-12.54a27.17,27.17,0,0,1,13.08.18C928.06,193.28,929.88,197.43,932.09,202Z" transform="translate(-61.56 -83.02)"/><path fill="#454b69" d="M843.82,298.46a101.23,101.23,0,0,0-3.41,16.76c-2,13.71-4,27.5-3.62,41.34a77.82,77.82,0,0,1,0,9.29,57.86,57.86,0,0,1-1.64,8.35,1.77,1.77,0,0,1-.74,1.26c-.47.23-1,0-1.55-.06-1.78-.22-3.09,1.5-4.47,2.66a8.48,8.48,0,0,1-9.63.71,10.74,10.74,0,0,1-4.11,11A14.48,14.48,0,0,1,802.77,392c2.05-.32,4,1.12,5.16,2.87.4.63.72,1.38,1.4,1.69s1.87-.08,2.67.34a3.39,3.39,0,0,1,1,1c2.48,3.33,7.09,4.15,11.24,4.26s8.54-.17,12.2,1.8a30.83,30.83,0,0,0,2.69,1.51c2.88,1.19,6.32,0,8.56-2.13s3.48-5.14,4.4-8.11c3.7-12,3-24.91,2.22-37.47C853.09,337.78,850.55,317.33,843.82,298.46Z" transform="translate(-61.56 -83.02)"/><path d="M843.82,298.46a101.23,101.23,0,0,0-3.41,16.76c-2,13.71-4,27.5-3.62,41.34a77.82,77.82,0,0,1,0,9.29,57.86,57.86,0,0,1-1.64,8.35,1.77,1.77,0,0,1-.74,1.26c-.47.23-1,0-1.55-.06-1.78-.22-3.09,1.5-4.47,2.66a8.48,8.48,0,0,1-9.63.71,10.74,10.74,0,0,1-4.11,11A14.48,14.48,0,0,1,802.77,392c2.05-.32,4,1.12,5.16,2.87.4.63.72,1.38,1.4,1.69s1.87-.08,2.67.34a3.39,3.39,0,0,1,1,1c2.48,3.33,7.09,4.15,11.24,4.26s8.54-.17,12.2,1.8a30.83,30.83,0,0,0,2.69,1.51c2.88,1.19,6.32,0,8.56-2.13s3.48-5.14,4.4-8.11c3.7-12,3-24.91,2.22-37.47C853.09,337.78,850.55,317.33,843.82,298.46Z" opacity=".1" transform="translate(-61.56 -83.02)"/><path fill="#fbbebe" d="M904.53,664.26c-1,4.33-2.75,8.49-3.68,12.85a75.48,75.48,0,0,0-1.22,11.34l-1.07,19.28c-.26,4.57-.47,9.38,1.56,13.48,1.41,2.84,3.85,5.22,4.55,8.32,1.08,4.85-2.39,9.42-5.63,13.19l-16,18.51c-5,5.8-10.47,11.9-17.88,13.87a6,6,0,0,1-3.42.12c-2.07-.68-3.07-3.18-2.77-5.34a13.7,13.7,0,0,1,2.84-5.8c4.18-5.87,8.67-11.65,11.39-18.33,3.45-8.49,3.8-17.9,3.59-27.07C876,681.3,866.57,644.35,867.64,607c8.16-.62,16.64-2,24.81-1.9,7.29.08,6.42,7.51,7.69,13.35,1.69,7.73,3.72,15.39,4.86,23.23a74.21,74.21,0,0,1,.85,11.53C905.81,656.89,904.53,660.65,904.53,664.26Z" transform="translate(-61.56 -83.02)"/><path d="M904.53,664.26c-1,4.33-2.75,8.49-3.68,12.85a75.48,75.48,0,0,0-1.22,11.34l-1.07,19.28c-.26,4.57-.47,9.38,1.56,13.48,1.41,2.84,3.85,5.22,4.55,8.32,1.08,4.85-2.39,9.42-5.63,13.19l-16,18.51c-5,5.8-10.47,11.9-17.88,13.87a6,6,0,0,1-3.42.12c-2.07-.68-3.07-3.18-2.77-5.34a13.7,13.7,0,0,1,2.84-5.8c4.18-5.87,8.67-11.65,11.39-18.33,3.45-8.49,3.8-17.9,3.59-27.07C876,681.3,866.57,644.35,867.64,607c8.16-.62,16.64-2,24.81-1.9,7.29.08,6.42,7.51,7.69,13.35,1.69,7.73,3.72,15.39,4.86,23.23a74.21,74.21,0,0,1,.85,11.53C905.81,656.89,904.53,660.65,904.53,664.26Z" opacity=".05" transform="translate(-61.56 -83.02)"/><path fill="#3f3d56" d="M899.7,721.69c3.71-.76,7.6,1.25,9.89,4.27s3.22,6.86,3.58,10.64a8.88,8.88,0,0,1-.53,4.77c-.59,1.17-1.62,2.07-2.29,3.2a12,12,0,0,0-1.24,4.23c-1.38,8.55-2.77,17.12-3.5,25.75-.22,2.63-.43,5.42-2,7.56s-4.92,3.2-6.84,1.39a153.22,153.22,0,0,0,2.89-29.91c-4.36-.6-8.15,2.83-11,6.18a97.3,97.3,0,0,0-8,10.84c-2.2,3.49-4.21,7.14-7,10.17a25.64,25.64,0,0,1-22.63,7.74c-1.44-1.19-.39-3.8-1.59-5.25A12,12,0,0,0,847.9,782c-1.5-1.32-1.35-3.71-.67-5.59,2.18-6.1,8-10,13.5-13.41,9.94-6.24,20-12.39,30-18.44A19.8,19.8,0,0,0,899,734.43C899.36,733.39,900.92,721.28,899.7,721.69Z" transform="translate(-61.56 -83.02)"/><path d="M899.7,721.69c3.71-.76,7.6,1.25,9.89,4.27s3.22,6.86,3.58,10.64a8.88,8.88,0,0,1-.53,4.77c-.59,1.17-1.62,2.07-2.29,3.2a12,12,0,0,0-1.24,4.23c-1.38,8.55-2.77,17.12-3.5,25.75-.22,2.63-.43,5.42-2,7.56s-4.92,3.2-6.84,1.39a153.22,153.22,0,0,0,2.89-29.91c-4.36-.6-8.15,2.83-11,6.18a97.3,97.3,0,0,0-8,10.84c-2.2,3.49-4.21,7.14-7,10.17a25.64,25.64,0,0,1-22.63,7.74c-1.44-1.19-.39-3.8-1.59-5.25A12,12,0,0,0,847.9,782c-1.5-1.32-1.35-3.71-.67-5.59,2.18-6.1,8-10,13.5-13.41,9.94-6.24,20-12.39,30-18.44A19.8,19.8,0,0,0,899,734.43C899.36,733.39,900.92,721.28,899.7,721.69Z" opacity=".05" transform="translate(-61.56 -83.02)"/><path fill="#fbbebe" d="M901.32,653.41c2,25-3.6,49.84-8.58,74.39a27.61,27.61,0,0,0-.76,6,44.89,44.89,0,0,0,1.21,7.41c1.88,10.13-.53,20.52-2.92,30.55-1.67,6.94-4,14.78-10.48,17.81-4.57,2.14-9.91,1.21-14.86.23a8.84,8.84,0,0,1-4.49-1.8c-1.78-1.68-1.85-4.45-1.7-6.89,1.72-27.57,15.68-54,13-81.5-.45-4.55-1.36-9.05-2.11-13.56-3.86-23.39-3.4-47.4-8.29-70.59a4.3,4.3,0,0,1,0-2.46,4.15,4.15,0,0,1,1.91-1.81c4.52-2.7,9.35-5.11,14.56-5.84,4.07-.57,9.2-.13,12.62,2.4,3.59,2.65,3.83,8.35,4.88,12.51C898,631.14,900.42,642.18,901.32,653.41Z" transform="translate(-61.56 -83.02)"/><path fill="#3f3d56" d="M894.78,793.67a2.21,2.21,0,0,1-.2,1,.42.42,0,0,1-.39.18c-1,0-2.08,0-3.11,0a36,36,0,0,1-.14-3.76l0-8.49c0-6.74,0-13.49.3-20.19a2.27,2.27,0,0,1,.11-.72.67.67,0,0,1,.34-.33c.74-.35,2.47-1.43,3.11-.18s.35,5.15.38,6.78c.1,5.45.09,10.92,0,16.37Q895,789,894.78,793.67Z" transform="translate(-61.56 -83.02)"/><path fill="#3f3d56" d="M840.26,498.15a11.55,11.55,0,0,1-.24,2.74c-.45,2.6-1,5.19-1.63,7.76a9.1,9.1,0,0,0-.43,3.42c.19,1.5,1.13,2.8,1.75,4.19,2.48,5.55-.19,12.39,2.23,18,.57,1.32,1.41,2.52,1.91,3.87,1.09,2.94.47,6.2.84,9.31a50.79,50.79,0,0,0,1.6,6.49c1.75,6.9-1.15,14.26.54,21.19,1.45,5.93,2.9,11.91,3,18,.08,4.24-.5,8.49,0,12.71s2.24,8.56,5.83,10.81c2.84,1.77,6.34,2,9.7,2,6.45.12,12.93-.07,19.37-.57s13.37-1.55,17.91-6.13c-1.73-13.53-3.3-28.05,3.07-40.11,1.88-3.56,4.46-6.91,5.13-10.89.16-1,.21-2.05.42-3.06a17.35,17.35,0,0,1,1.24-3.43l12.6-28.7q1-2.31,2-4.62c2.18-5,4.37-10,6.25-15.09,2.19-6,3.93-12.16,5.6-18.32,1-3.7,2-7.45,1.9-11.28a27.84,27.84,0,0,0-2.34-9.83c-.75-1.81-1.61-3.59-2.5-5.33a263.17,263.17,0,0,0-76.3-6.53,42.23,42.23,0,0,0-12,2,17.69,17.69,0,0,0-7,4.54,12.38,12.38,0,0,0-2.14,3.22c-1.5,3.28-1.41,7.05-1.3,10.65.21,6.77.44,13.63,2.31,20.13A14.41,14.41,0,0,1,840.26,498.15Z" transform="translate(-61.56 -83.02)"/><path fill="#3f3d56" d="M857.77,779.8a28.31,28.31,0,0,0,12.94,5.44c4.14.61,8.69.17,12-2.43,3.76-3,5-8,6.12-12.68l1.43-6.23c.52-2.24,1-4.48,1.43-6.74a72.15,72.15,0,0,0,1-18.09c3.39,1.32,5.43,5.36,5.65,9s-.9,7.2-1.93,10.7a20.5,20.5,0,0,1-1.86,4.87c-.61,1-1.4,1.92-1.92,3a15,15,0,0,0-1.1,5,139,139,0,0,1-3.34,16.65l-2.22,9.12-.22.91L883.8,806a2.91,2.91,0,0,1-.27.8,3,3,0,0,1-.92.94,27.32,27.32,0,0,1-27.22,2.94,3.31,3.31,0,0,1-.93-.58,3.27,3.27,0,0,1-.61-2.3,15.41,15.41,0,0,0-1.41-7.16,11.77,11.77,0,0,1-1.37-2.66c-.38-1.48.23-3,.83-4.41l4.59-10.75C857,781.55,856.94,780.9,857.77,779.8Z" transform="translate(-61.56 -83.02)"/><path fill="#fbbebe" d="M868.55,332.26a28.65,28.65,0,0,0,1.39,7,9.87,9.87,0,0,0,2.85,4.22c2.14-2.89,6-3.88,8.84-6,2.51-1.85,4.28-4.5,6.15-7,3.68-4.92,8-9.38,12-14.08.6-.71,1.19-1.42,1.77-2.15a63,63,0,0,0,5.51-7.86c3.32-5.71,5.59-12.28,10.58-16.61,2.72-2.35,6.13-3.91,8.55-6.58-1.64-2.41-2.25-5.33-2.83-8.19a83.83,83.83,0,0,1-1.42-8.36c-.09-.74-.14-1.49-.17-2.24,0-.32,0-.64-.05-1,0-2.29,1.48-6.23-.86-7.52-2.16-1.19-5.69-1.2-8.21-1.17h-.41a30.15,30.15,0,0,0-16.51,5.12,10.34,10.34,0,0,0-2.86,2.61c-1.31,2-1.38,4.4-1.28,6.79,0,.55.05,1.09.09,1.62,0,.26,0,.53,0,.8.09,2.66-.17,5.51-2,7.35-2,2-5.18,2.09-7.89,2.94-.45.14-.88.3-1.3.47a17.48,17.48,0,0,0-7.35,6.23,30.22,30.22,0,0,0-4.26,10.25,58,58,0,0,0-1.42,10C866.94,316.63,867.74,324.51,868.55,332.26Z" transform="translate(-61.56 -83.02)"/><path d="M891.63,270.86c0,.26,0,.53,0,.8,3.32,1.21,11.4-2.19,15.14-2.19,7.42,0,9.71,1.47,15.08-2.86-.12-1.06-.19-2.13-.22-3.2,0-2.29,1.48-6.23-.86-7.52s-6.09-1.2-8.62-1.17a30.15,30.15,0,0,0-16.51,5.12,10.34,10.34,0,0,0-2.86,2.61C891.21,264.85,891.46,268,891.63,270.86Z" opacity=".1" transform="translate(-61.56 -83.02)"/><path fill="#fbbebe" d="M871.08,239.93a31.21,31.21,0,0,0,31.23,31.22,31.24,31.24,0,0,0,31.22-31.22,31.23,31.23,0,0,0-62.45,0Z" transform="translate(-61.56 -83.02)"/><path fill="#7c38b5" d="M923.61,276.83a6.52,6.52,0,0,1,3.46-1.48c1.84,0,3.35,1.51,4.11,3.18s1,3.53,1.65,5.25a11.48,11.48,0,0,0,4.62,5.62c1.47.92,3.22,1.56,4.23,3,1.59,2.25.62,5.39-.72,7.8-5,9-14,14.86-22.71,20.38l-9.8,6.22a131.5,131.5,0,0,1-12.18,7.15c-6.8,3.35-14.15,5.5-20.91,8.92-3.11,1.57-6.16,3.44-9.6,4a31.67,31.67,0,0,1-1.36-7.12c-1.67-14.91-3.32-30.14,0-44.77.62-2.79,1.49-5.64,3.45-7.71a16.94,16.94,0,0,1,4.35-3,123.56,123.56,0,0,1,12.22-5.73,13.86,13.86,0,0,1,6.28-1.39,13.19,13.19,0,0,1-1.43,4.67l-15.75,35.06c-1,2.2-2,4.5-1.92,6.92.12,3.44,2.44,6.79,1.49,10.1A235.1,235.1,0,0,1,904.41,297a5,5,0,0,0,1.25-1.55,6.24,6.24,0,0,0,.18-2.89c-.11-1.84.27-4.3,1.81-5.53,1.07-.86,2.65-1.11,3.83-1.86C915.62,282.56,919.58,279.61,923.61,276.83Z" transform="translate(-61.56 -83.02)"/><path d="M840.14,464.06c7.77,4.14,16.53,6.16,25.3,7s17.59.49,26.39.15c6.68-.24,13.35-.51,20-.75,9.08-.36,18-1.09,26.68-3.83-.75-1.81-1.61-3.59-2.5-5.33a263.17,263.17,0,0,0-76.3-6.53,42.23,42.23,0,0,0-12,2,17.69,17.69,0,0,0-7,4.54C840.57,462.24,840.35,463.16,840.14,464.06Z" opacity=".1" transform="translate(-61.56 -83.02)"/><path fill="#454b69" d="M841.55,366.47c3.46,11.69,1.09,24.48-1.07,36.47-1.29.65-1.69,2.38-1.41,3.8a24,24,0,0,0,1.66,4,4.76,4.76,0,0,1,.1,4.19c-.31.55-.8,1-1.12,1.5a6.16,6.16,0,0,0-.62,2.79c-.29,4.53-.56,9.14.66,13.5.71,2.54,1.92,5.18,1.12,7.68-.47,1.51-1.64,2.79-1.81,4.37s.82,3.22,1.4,4.81c1.37,3.74.63,8.24-.32,12.11,7.77,4.14,16.53,6.16,25.3,7s17.59.49,26.39.16l20-.76c9.15-.36,18.15-1.1,26.88-3.89.84-6,1.55-12.65-1.82-17.68a10,10,0,0,1-1.57-2.67c-.6-2.06.7-4.15,1.12-6.26.85-4.31-2-8.36-4.52-12a5.67,5.67,0,0,1-.86-1.61c-.46-1.66.54-3.49.56-5.16a3,3,0,0,0-.32-1.4c-.37-.7-1.06-1.18-1.44-1.88a5.11,5.11,0,0,1-.34-2.88q.69-9.37,2.26-18.65c.1-.56.2-1.13.33-1.69a9.29,9.29,0,0,1,.92-2.45c.58-1,1.43-1.81,2-2.82a4.07,4.07,0,0,0,0-3.63c-.57-1.05,1-1.95,1.45-3a6.66,6.66,0,0,0,.14-2.57,8.31,8.31,0,0,1,1.61-4c1.09-1.73,2.19-3.44,3.31-5.15q7.47-11.57,15.53-22.73Q961,340.6,965,335.33c2.15-2.83,4.36-5.71,5.44-9.1a13.93,13.93,0,0,0,.45-1.8,15.37,15.37,0,0,0-1.34-9.58c-1.28-2.56-3.23-4.69-4.94-7-1.9-2.56-3.53-5.36-5.71-7.68s-5.12-4.18-8.31-4.18c-1.85,0-4,.52-5.29-.8-.47-.48-.72-1.12-1.2-1.57-1.36-1.29-3.58-.41-5.21.51l-31.27,17.67-5.07,2.88c-.92.55-1.86,1.09-2.78,1.65a108.14,108.14,0,0,0-12.53,8.5c-5.8,4.64-12.21,8.92-17.26,14.36-.47.5-.94,1-1.39,1.55q-1.37-9.54-2.73-19.11a24.09,24.09,0,0,1-.36-5.56,24.47,24.47,0,0,1,1.34-5.36c.2-.61.42-1.24.62-1.86l3.37-10.11c1.65-4.95,3.41-10.1,7.14-13.75a19.26,19.26,0,0,0,2.48-2.55l0-.05a3.74,3.74,0,0,0,.61-3.29l-26.34,8.22c-1.24.39-2.49.78-3.68,1.29a17.43,17.43,0,0,0-4,2.43,14.66,14.66,0,0,0-5.41,13.41c.26,1.64.84,3.22,1.18,4.84.6,2.94,1.55,6.34.27,9.06s-2.43,5.15-3.63,7.72a38.52,38.52,0,0,0-2.46,6.1,30.13,30.13,0,0,0-.85,8.78,66.14,66.14,0,0,0,3.38,19.38C840.15,362.39,840.93,364.41,841.55,366.47Z" transform="translate(-61.56 -83.02)"/><polygon fill="#3f3d56" points="833.75 298.26 771.29 292.38 760.38 291.15 770.41 294.7 833.75 298.26"/><polygon fill="#3f3d56" points="835.15 301.28 835.15 296.58 768.94 293.31 765.72 296.08 835.15 301.28"/><path fill="#fbbebe" d="M896.5,375.34c-1.39-.37-2.88-.3-4.29-.63-1.82-.44-3.46-1.56-5.32-1.79a12,12,0,0,0-3.43.25l-8.57,1.5c-.66.11-1.44.32-1.67.95a1.64,1.64,0,0,0,.53,1.58c1.53,1.63,4,1.86,6.22,2l6,.36a7,7,0,0,1,3.35.76,2.44,2.44,0,0,1,1.13,3,3.15,3.15,0,0,1-1.37,1.23,12.81,12.81,0,0,1-7.82,1.48,36.93,36.93,0,0,1-6.37-1.82,40.4,40.4,0,0,0-16.31-1.72c-1.42.14-3.09.55-3.6,1.89a3,3,0,0,0,.58,2.75c2.13,3,6.38,3.08,10,3.88a20.5,20.5,0,0,1,9.12,4.73c-.79,1.63-.13,3.56.66,5.19a33.78,33.78,0,0,0,3.21,5.31,6.79,6.79,0,0,0,2.69,2.42,6.88,6.88,0,0,0,2.26.39,95.9,95.9,0,0,0,22.19-1.21,3.59,3.59,0,0,0,2.13-.89,3.66,3.66,0,0,0,.69-1.74q1.14-5.6,2-11.26c.36-2.38.51-4.88-.66-7.07-.91-1.72-2.35-2.28-3.82-3.44C902.75,380.86,900.71,376.46,896.5,375.34Z" transform="translate(-61.56 -83.02)"/><path fill="#3f3d56" d="M815.83,297.68l15.51,76.92a3.77,3.77,0,0,1-4.07,4.49l-58.46-5.77a3.75,3.75,0,0,1-3.32-3l-14.33-71.16a3.77,3.77,0,0,1,3.69-4.51h57.29A3.78,3.78,0,0,1,815.83,297.68Z" transform="translate(-61.56 -83.02)"/><path fill="#fbbebe" d="M786.74,389.2c-3.68-2.36-4.78-7.09-6.49-11.11a69.05,69.05,0,0,0-4.69-8.56c-1.49-2.46-3-5.45-1.8-8.07a7.53,7.53,0,0,1,4.3-3.5,8.52,8.52,0,0,1,5.31-.65c2,.55,3.49,2.21,4.85,3.79l4.82,5.59c2.2,2.56,4.46,5.16,7.36,6.89a27.69,27.69,0,0,0,5.55,2.35q5.19,1.72,10.5,3a28.21,28.21,0,0,1,5.92,1.83,3.05,3.05,0,0,1,1.74,1.62,3.48,3.48,0,0,1-.61,2.65c-1.22,2.28-2.61,6.91-5.17,7.72A41.74,41.74,0,0,1,811,393.9c-2.44.26-4.36-.74-6.56-1.66a21.47,21.47,0,0,0-8.67-1.39C793.17,390.84,788.75,391.21,786.74,389.2Z" transform="translate(-61.56 -83.02)"/><path fill="#454b69" d="M818.75,378.77s-2.16,14.8-16,13.21c0,0,7.33,2.93,6.56,4.56s17-3.18,17-3.18l.92-7.72s.59-4.25,0-4.37S818.75,378.77,818.75,378.77Z" transform="translate(-61.56 -83.02)"/><path d="M818.75,378.77s-2.16,14.8-16,13.21c0,0,7.33,2.93,6.56,4.56s17-3.18,17-3.18l.92-7.72s.59-4.25,0-4.37S818.75,378.77,818.75,378.77Z" opacity=".1" transform="translate(-61.56 -83.02)"/><path d="M882.46,317a7.5,7.5,0,0,0-3.2,3.11,22,22,0,0,0-2.6,5.94c-.68,2.55-1,5.4-2.88,7.24" opacity=".1" transform="translate(-61.56 -83.02)"/><path d="M940.43,357.93a14.47,14.47,0,0,0,1.17,10.74q7.47-11.57,15.53-22.73Q961,340.6,965,335.33c2.15-2.83,4.36-5.71,5.44-9.1a13.93,13.93,0,0,0,.45-1.8,10,10,0,0,0-5.6-4c-3.63,10.52-12.83,18.06-19.4,27.05A30.73,30.73,0,0,0,940.43,357.93Z" opacity=".1" transform="translate(-61.56 -83.02)"/><path d="M894.13,411.75l21.75.74c1.86.06,4.15.43,4.73,2.19.18.56.14,1.17.32,1.72.61,2,3.26,2.22,5.33,2.21,1.8,0,3.6.07,5.39.21a3,3,0,0,0-.32-1.4c-.37-.7-1.06-1.18-1.44-1.88a5.11,5.11,0,0,1-.34-2.88q.69-9.37,2.26-18.65c.1-.56.2-1.13.33-1.69-1.83-.93-3.68-1.81-5.67-1.6-1.79.19-3.43,1.25-5.22,1.15-3.11-.15-5.25-3.62-8.35-3.82a5.14,5.14,0,0,1-2-.24c-1-.5-1.14-1.8-1.64-2.77-.75-1.43-2.85-1.78-4.42-1.41a64.74,64.74,0,0,1-.63,9.83,17,17,0,0,1-1,4.18,19.9,19.9,0,0,1-2.21,3.85C898.7,404.94,896.46,408.31,894.13,411.75Z" opacity=".1" transform="translate(-61.56 -83.02)"/><path fill="#454b69" d="M966.43,319.21c3.87,1,6.61,4.6,7.74,8.43s.93,7.9.83,11.88a236.25,236.25,0,0,0,3,44.21c1.14,7,2.6,14,2.17,21.11-.24,3.84-1.11,7.8-3.58,10.75-3.88,4.66-10.64,5.61-16.7,5.38-10.88-.43-21.56-3.61-32.45-3.55-2.07,0-4.71-.23-5.33-2.2-.18-.56-.14-1.16-.32-1.72-.57-1.76-2.86-2.13-4.72-2.2l-21.76-.73c2.33-3.44,4.57-6.82,6.9-10.26a20.8,20.8,0,0,0,2.22-3.85,17.54,17.54,0,0,0,1-4.19,63.27,63.27,0,0,0,.62-9.82c1.57-.37,3.67,0,4.42,1.41.51,1,.67,2.27,1.65,2.77a4.92,4.92,0,0,0,2,.23c3.1.2,5.25,3.68,8.35,3.83,1.79.1,3.44-1,5.22-1.15,2.82-.29,5.34,1.57,7.93,2.71a16.78,16.78,0,0,0,13.43,0c.64-.28,1.34-1.07.82-1.54-.35-.31-.93-.07-1.35-.28-.8-.39-.22-1.57.23-2.34,1.26-2.22.37-5-.85-7.28s-2.78-4.49-2.81-7a14.3,14.3,0,0,0,0-2.45,9.28,9.28,0,0,0-1.82-3.17c-2.23-3.26-2.55-7.57-1.58-11.41A31.06,31.06,0,0,1,947,346.26C953.6,337.28,962.8,329.74,966.43,319.21Z" transform="translate(-61.56 -83.02)"/><path d="M907.58,311.83l-5.07,2.88a47.81,47.81,0,0,0,4.77,1.9c11.42,3.84,7.35,9.16,19.4,9,8.21-.09,17.58-.72,23.32,5.14,2.72,2.76,4.08,6.54,5.37,10.19.59,1.65,1.18,3.32,1.76,5Q961,340.6,965,335.33c2.15-2.83,4.36-5.71,5.44-9.1a15.38,15.38,0,0,0-.89-11.38c-1.28-2.56-3.23-4.69-4.94-7-1.9-2.56-3.53-5.36-5.71-7.68s-5.12-4.18-8.31-4.18c-1.85,0-4,.52-5.29-.8-.47-.48-.72-1.12-1.2-1.57-1.36-1.29-3.58-.41-5.21.51Z" opacity=".1" transform="translate(-61.56 -83.02)"/><path fill="#3f3d56" d="M877.35,216.9a16.46,16.46,0,0,1,1.09-4.34,12.29,12.29,0,0,1,2-2.93,28.27,28.27,0,0,1,21-9.53,4.81,4.81,0,0,1,2,.32,2.56,2.56,0,0,1,.45.27c5.72-3.85,12.37-7.65,18.57-9.15a27.17,27.17,0,0,1,13.08.18c5.2,1.56,7,5.71,9.23,10.24A46.38,46.38,0,0,0,960.47,220c4.33,2.91,9.45,5.43,11.53,10.21,1.94,4.46.62,9.57.17,14.42a39.82,39.82,0,0,0,15,34.53c5.91,4.57,13.8,8.41,15.06,15.77.9,5.25-2.05,10.27-4.28,15.1-4.7,10.22-6.31,22.68-.79,32.47,1.57,2.79,3.69,5.33,4.53,8.41,1.47,5.47-1.66,11.43-6.35,14.61s-10.58,4-16.24,4c-4.12,0-8.58-.62-11.5-3.51-2-1.94-2.94-4.64-3.86-7.23q-3.59-10.12-7.16-20.24c-1.3-3.64-2.66-7.42-5.37-10.18-5.74-5.86-15.12-5.24-23.32-5.14-12.06.15-8-5.17-19.4-9-6.71-2.26-14-6.11-15.56-13-1.53-6.74,3.08-13.16,7.14-18.75q4.56-6.25,8.63-12.85c2.63-4.28,5.16-8.78,5.89-13.75,1.21-8.26-18.82-12.87-21.82-20.66a57,57,0,0,1-2.16-6.74c-1.44-.1-2.78-.24-3.71-.28-3.83-.17-8.15-1.67-9.46-5.28C876.73,221,877,218.9,877.35,216.9Z" transform="translate(-61.56 -83.02)"/><g opacity=".1"><path d="M911.07,197.68a4.81,4.81,0,0,0-2-.32h-.28a51.94,51.94,0,0,1,13.72-6.07c.37-.09.77-.16,1.16-.23A80,80,0,0,0,911.52,198,3.35,3.35,0,0,0,911.07,197.68Z" transform="translate(-61.56 -83.02)"/><path d="M877.35,216.66a16.48,16.48,0,0,1,1.09-4.33,12.34,12.34,0,0,1,2-2.94,28.31,28.31,0,0,1,16.28-9.1,27.6,27.6,0,0,0-8.67,6.6,12.34,12.34,0,0,0-2,2.94,16.48,16.48,0,0,0-1.09,4.33,12.14,12.14,0,0,0,.07,6c1.31,3.6,5.63,5.11,9.46,5.27.93,0,2.27.18,3.71.29a57.41,57.41,0,0,0,2.16,6.73c3,7.79,23,12.4,21.82,20.66-.73,5-3.26,9.48-5.89,13.75s-5.59,8.68-8.63,12.85c-4.06,5.59-8.67,12-7.14,18.76s8.85,10.75,15.56,13c11.42,3.85,7.34,9.17,19.4,9,8.2-.1,17.58-.72,23.32,5.14,2.71,2.77,4.07,6.54,5.37,10.19q3.57,10.11,7.16,20.23c.92,2.6,1.9,5.29,3.86,7.23,2.92,2.89,7.38,3.49,11.5,3.51a41.07,41.07,0,0,0,7-.53c-4.38,2.37-9.58,3-14.6,3-4.12,0-8.58-.62-11.5-3.51-2-1.94-2.94-4.63-3.86-7.23q-3.59-10.12-7.16-20.23c-1.3-3.65-2.66-7.42-5.37-10.19-5.74-5.86-15.12-5.24-23.32-5.14-12.06.15-8-5.17-19.4-9-6.71-2.26-14-6.11-15.56-13-1.53-6.74,3.08-13.17,7.14-18.76q4.56-6.25,8.63-12.85c2.63-4.27,5.16-8.78,5.89-13.75,1.21-8.26-18.82-12.87-21.82-20.66a57.41,57.41,0,0,1-2.16-6.73c-1.44-.11-2.78-.25-3.71-.29-3.83-.16-8.15-1.67-9.46-5.27A12.14,12.14,0,0,1,877.35,216.66Z" transform="translate(-61.56 -83.02)"/></g></svg>