<svg id="a9370ae1-210a-4918-a96d-edf406e909af" data-name="Layer 1" xmlns="http://www.w3.org/2000/svg" xmlns:xlink="http://www.w3.org/1999/xlink" width="1086" height="811.37" viewBox="0 0 1086 811.37"><defs><linearGradient id="b77fcadf-efbd-44d1-9146-365d58ec581c" x1="585.8" y1="811" x2="585.8" y2="677.2" gradientUnits="userSpaceOnUse"><stop offset="0" stop-color="gray" stop-opacity="0.25"/><stop offset="0.54" stop-color="gray" stop-opacity="0.12"/><stop offset="1" stop-color="gray" stop-opacity="0.1"/></linearGradient></defs><title>festivities</title><path d="M279.68,71.14c-2.42-3.29-7.42.28-5.16,3.69.59.89,1.24,1.75,1.85,2.58,7.45,10,11.31,22.27,14.64,34.35.81,3,1.6,6.12.67,9,1.33-7.84.47-15.94-1.54-23.64S285,82.11,281.77,74.84A20.26,20.26,0,0,0,279.68,71.14Z" transform="translate(-57 -44.32)" fill="#6c63ff" opacity="0.5"/><path d="M231.33,92.3c-5-.15-5.66,7.47-.66,7.87,1.31.11,2.64.14,3.9.17,15.39.42,29.95,6,43.94,12,3.43,1.47,7,3.12,9,6.27-6.31-7.31-14.61-12.66-23.44-16.6s-18.24-6.52-27.64-8.93A24.17,24.17,0,0,0,231.33,92.3Z" transform="translate(-57 -44.32)" fill="#6c63ff"/><path d="M232.72,111c-3.18.12-2.46,4.63.74,4.66.83,0,1.67,0,2.46-.07,9.71-.39,19.66,2.29,29.3,5.24,2.37.72,4.87,1.54,6.59,3.31a52.82,52.82,0,0,0-17.12-8.79,132.63,132.63,0,0,0-18.64-4.1A16.87,16.87,0,0,0,232.72,111Z" transform="translate(-57 -44.32)" fill="#6c63ff" opacity="0.2"/><path d="M297.68,194.91c.9,3.05,5.1,1.23,4.33-1.87-.2-.81-.45-1.61-.68-2.37-2.79-9.31-2.66-19.61-2.2-29.68.12-2.48.29-5.1,1.58-7.21a52.71,52.71,0,0,0-4.26,18.77,130.32,130.32,0,0,0,.65,19.07A16.81,16.81,0,0,0,297.68,194.91Z" transform="translate(-57 -44.32)" fill="#6c63ff" opacity="0.5"/><path d="M238.5,66.91c-1.91-.33-2.05,2.45-.15,2.88.5.11,1,.19,1.48.27,5.85,1,11.45,3.86,16.84,6.85a9.1,9.1,0,0,1,3.51,2.82,32.22,32.22,0,0,0-9.11-7.43,78.86,78.86,0,0,0-10.61-4.81A10.06,10.06,0,0,0,238.5,66.91Z" transform="translate(-57 -44.32)" fill="#6c63ff" opacity="0.2"/><path d="M209,140.68c-4.85,2.5-.75,9.35,4.23,7.08,1.3-.6,2.57-1.27,3.79-1.9,14.81-7.68,32-10.51,49-12.69,4.15-.53,8.58-1,12.42.64-10.47-2.95-21.63-3.2-32.41-1.94s-21.27,3.95-31.65,6.8A28.69,28.69,0,0,0,209,140.68Z" transform="translate(-57 -44.32)" fill="#6c63ff"/><path d="M222.85,167.35c-3.48,3.25,2,7.09,5.61,4,1-.81,1.87-1.67,2.74-2.49,10.62-10,24.65-17.06,38.62-23.6,3.43-1.61,17.55-3.24,21.31-3.15-9.84.88-29.94,4-38.88,8a215.31,215.31,0,0,0-25.36,14.24A26.63,26.63,0,0,0,222.85,167.35Z" transform="translate(-57 -44.32)" fill="#6c63ff" opacity="0.5"/><path d="M247.71,209.91c-1,4.65,5.63,4.72,6.87.07.32-1.21.58-2.44.83-3.61,3.07-14.23,10.58-28.05,18.36-41.37,1.91-3.27,12.59-12.64,15.74-14.71-7.6,6.32-22.39,20.28-27.43,28.7a216,216,0,0,0-12.78,26.13A27.45,27.45,0,0,0,247.71,209.91Z" transform="translate(-57 -44.32)" fill="#6c63ff"/><path d="M297.74,46.51c-2.38-4.84-9.16-.86-7,4.1.56,1.3,1.19,2.57,1.79,3.78,7.31,14.79,9.82,31.88,11.7,48.69.46,4.12.86,8.52-.82,12.31,3.06-10.35,3.47-21.4,2.41-32.1s-3.55-21.13-6.19-31.46A28.32,28.32,0,0,0,297.74,46.51Z" transform="translate(-57 -44.32)" fill="#6c63ff"/><path d="M259.93,54.74a.9.9,0,0,0,.41.13c.27,0,.45-.27.56-.51.59-1.29.25-3,1.17-4A14.08,14.08,0,0,1,264.28,54L267.76,53a5.14,5.14,0,0,1-.66,4,5.2,5.2,0,0,1,1.64,1.12,1.79,1.79,0,0,1,.43,1.84,8.83,8.83,0,0,1-2.46.24,16.36,16.36,0,0,1-.26,4.58.83.83,0,0,1-.3.58c-.25.16-.59,0-.85-.14a8,8,0,0,1-2.86-3l-1.3,3.09a1.4,1.4,0,0,1-.57.78.93.93,0,0,1-1.09-.38,2.61,2.61,0,0,1-.38-1.17l-.49-2.94a.7.7,0,0,0-.16-.42.75.75,0,0,0-.51-.15q-1.85,0-3.69,0c-.21-.66.44-1.26,1.07-1.54s1.37-.48,1.69-1.09c.64-1.25-1-3-.31-4.05C257.52,53,258.86,54.21,259.93,54.74Z" transform="translate(-57 -44.32)" fill="#6c63ff"/><path d="M327.15,71.14c2.42-3.29,7.42.28,5.16,3.69-.59.89-1.24,1.75-1.85,2.58-7.45,10-11.32,22.27-14.64,34.35-.82,3-1.61,6.12-.68,9-1.33-7.84-.46-15.94,1.55-23.64s5.14-15.06,8.37-22.33A20.26,20.26,0,0,1,327.15,71.14Z" transform="translate(-57 -44.32)" fill="#6c63ff" opacity="0.5"/><path d="M375.49,92.3c5-.15,5.67,7.47.66,7.87-1.31.11-2.63.14-3.89.17-15.4.42-29.95,6-43.94,12-3.43,1.47-7,3.12-9,6.27,6.3-7.31,14.6-12.66,23.44-16.6S361,95.5,370.36,93.09A24.17,24.17,0,0,1,375.49,92.3Z" transform="translate(-57 -44.32)" fill="#6c63ff"/><path d="M374.11,111c3.17.12,2.46,4.63-.74,4.66-.83,0-1.67,0-2.47-.07-9.71-.39-19.65,2.29-29.29,5.24-2.37.72-4.87,1.54-6.59,3.31a52.82,52.82,0,0,1,17.12-8.79,132.32,132.32,0,0,1,18.64-4.1A16.87,16.87,0,0,1,374.11,111Z" transform="translate(-57 -44.32)" fill="#6c63ff" opacity="0.5"/><path d="M368.32,66.91c1.92-.33,2.06,2.45.16,2.88-.5.11-1,.19-1.49.27-5.85,1-11.44,3.86-16.83,6.85a9.1,9.1,0,0,0-3.51,2.82,32.09,32.09,0,0,1,9.11-7.43,78.74,78.74,0,0,1,10.6-4.81A10.48,10.48,0,0,1,368.32,66.91Z" transform="translate(-57 -44.32)" fill="#6c63ff" opacity="0.2"/><path d="M318.58,200.68c-.43,1.9-3.06,1-2.71-1,.09-.51.2-1,.31-1.48,1.34-5.78.85-12.05.18-18.17a9.2,9.2,0,0,0-1.25-4.33A32.2,32.2,0,0,1,318.45,187a79.67,79.67,0,0,1,.35,11.65A10.5,10.5,0,0,1,318.58,200.68Z" transform="translate(-57 -44.32)" fill="#6c63ff" opacity="0.2"/><path d="M367.1,188.11c1.49,2.53-2.17,2.35-3.78-.18-.43-.66-.81-1.32-1.19-2-4.54-7.73-11.46-15.38-18.42-22.77a25.54,25.54,0,0,0-5.72-4.93,90.12,90.12,0,0,1,15,12.8c4.47,4.68,8.42,9.55,12.29,14.42A23.47,23.47,0,0,1,367.1,188.11Z" transform="translate(-57 -44.32)" fill="#6c63ff" opacity="0.5"/><path d="M234.32,188.11c-1.49,2.53,2.18,2.35,3.79-.18.42-.66.81-1.32,1.18-2,4.54-7.73,11.46-15.38,18.43-22.77a25.49,25.49,0,0,1,5.71-4.93,90.94,90.94,0,0,0-15,12.8c-4.47,4.68-8.42,9.55-12.28,14.42A23.57,23.57,0,0,0,234.32,188.11Z" transform="translate(-57 -44.32)" fill="#6c63ff" opacity="0.2"/><path d="M282.88,200.68c.43,1.9,3.05,1,2.71-1-.09-.51-.21-1-.32-1.48-1.33-5.78-.85-12.05-.17-18.17a9.3,9.3,0,0,1,1.24-4.33A32.18,32.18,0,0,0,283,187a79.68,79.68,0,0,0-.36,11.65A10.51,10.51,0,0,0,282.88,200.68Z" transform="translate(-57 -44.32)" fill="#6c63ff" opacity="0.2"/><path d="M353,85.91c1.91-.34,2.05,2.45.15,2.87-.5.11-1,.2-1.48.28-5.85,1-11.45,3.86-16.84,6.84a9.28,9.28,0,0,0-3.51,2.82,32.19,32.19,0,0,1,9.11-7.42,80.19,80.19,0,0,1,10.61-4.82A10,10,0,0,1,353,85.91Z" transform="translate(-57 -44.32)" fill="#6c63ff" opacity="0.2"/><path d="M335.18,48.61c1.65-1,2.82,1.51,1.22,2.61-.43.29-.86.56-1.28.81-5.05,3.11-9.17,7.86-13.05,12.64a9.3,9.3,0,0,0-2.21,3.93,32.32,32.32,0,0,1,5.68-10.29,79.18,79.18,0,0,1,8-8.43A10.89,10.89,0,0,1,335.18,48.61Z" transform="translate(-57 -44.32)" fill="#6c63ff" opacity="0.2"/><path d="M397.83,140.68c4.85,2.5.75,9.35-4.23,7.08-1.3-.6-2.58-1.27-3.79-1.9-14.82-7.68-32-10.51-49-12.69-4.15-.53-8.58-1-12.42.64,10.47-2.95,21.62-3.2,32.41-1.94s21.26,3.95,31.65,6.8A29,29,0,0,1,397.83,140.68Z" transform="translate(-57 -44.32)" fill="#6c63ff"/><path d="M384,167.35c3.48,3.25-2,7.09-5.61,4-1-.81-1.87-1.67-2.74-2.49C365,158.85,351,151.76,337,145.22c-3.43-1.61-17.55-3.24-21.32-3.15,9.85.88,29.95,4,38.89,8a215.31,215.31,0,0,1,25.36,14.24A26.63,26.63,0,0,1,384,167.35Z" transform="translate(-57 -44.32)" fill="#6c63ff" opacity="0.5"/><path d="M342.92,215.22c.43,4.74-6.18,4-6.82-.79-.17-1.24-.27-2.49-.38-3.68-1.26-14.51-7-29.16-13-43.35-1.49-3.48-10.91-14.12-13.78-16.56,6.75,7.22,19.67,22.92,23.62,31.91a215.82,215.82,0,0,1,9.41,27.52A27.11,27.11,0,0,1,342.92,215.22Z" transform="translate(-57 -44.32)" fill="#6c63ff"/><path d="M346.89,54.74a.86.86,0,0,1-.41.13c-.26,0-.44-.27-.55-.51-.6-1.29-.26-3-1.17-4A14.08,14.08,0,0,0,342.55,54L339.06,53a5.18,5.18,0,0,0,.66,4,5.31,5.31,0,0,0-1.64,1.12,1.81,1.81,0,0,0-.42,1.84,8.83,8.83,0,0,0,2.46.24,16,16,0,0,0,.26,4.58.83.83,0,0,0,.3.58c.25.16.59,0,.85-.14a8.19,8.19,0,0,0,2.86-3l1.3,3.09a1.31,1.31,0,0,0,.57.78.93.93,0,0,0,1.09-.38,2.74,2.74,0,0,0,.38-1.17l.49-2.94a.7.7,0,0,1,.16-.42.75.75,0,0,1,.51-.15q1.85,0,3.69,0c.21-.66-.44-1.26-1.07-1.54s-1.38-.48-1.69-1.09c-.64-1.25,1-3,.31-4.05C349.31,53,348,54.21,346.89,54.74Z" transform="translate(-57 -44.32)" fill="#6c63ff"/><path d="M357.4,198.15a.88.88,0,0,1-.41.12c-.27,0-.45-.27-.56-.51-.59-1.28-.25-2.95-1.16-4a13.85,13.85,0,0,0-2.22,3.71l-3.48-1.07a5.15,5.15,0,0,0,.66,4,5.17,5.17,0,0,0-1.64,1.11,1.82,1.82,0,0,0-.43,1.84,8.83,8.83,0,0,0,2.46.25,16.28,16.28,0,0,0,.26,4.57.91.91,0,0,0,.3.59c.26.16.59,0,.85-.15a7.93,7.93,0,0,0,2.86-3l1.3,3.09a1.38,1.38,0,0,0,.58.77.91.91,0,0,0,1.08-.37,2.8,2.8,0,0,0,.39-1.17l.48-2.95a.7.7,0,0,1,.16-.42.76.76,0,0,1,.52-.14c1.22,0,2.45-.05,3.68,0,.21-.65-.44-1.26-1.07-1.54s-1.37-.48-1.69-1.09c-.64-1.24,1-3,.31-4C359.81,196.37,358.47,197.62,357.4,198.15Z" transform="translate(-57 -44.32)" fill="#6c63ff" opacity="0.2"/><path d="M386.91,102a.78.78,0,0,1-.41.12c-.27,0-.45-.26-.56-.5-.59-1.29-.25-3-1.17-4a14.13,14.13,0,0,0-2.21,3.72l-3.48-1.08a5.15,5.15,0,0,0,.66,4,5.34,5.34,0,0,0-1.64,1.11,1.81,1.81,0,0,0-.43,1.85,8.83,8.83,0,0,0,2.46.24,16.38,16.38,0,0,0,.26,4.58.83.83,0,0,0,.3.58c.25.16.59,0,.85-.14a8,8,0,0,0,2.86-3l1.3,3.09a1.4,1.4,0,0,0,.57.78.94.94,0,0,0,1.09-.38,2.61,2.61,0,0,0,.38-1.17l.49-3a.7.7,0,0,1,.16-.41.75.75,0,0,1,.51-.15c1.23,0,2.46,0,3.69,0,.21-.65-.44-1.26-1.07-1.53s-1.37-.48-1.69-1.09c-.64-1.25,1-3,.31-4C389.32,100.25,388,101.49,386.91,102Z" transform="translate(-57 -44.32)" fill="#6c63ff"/><path d="M268.93,212.53a1.18,1.18,0,0,1-.57.17c-.37,0-.62-.37-.78-.7-.82-1.8-.35-4.13-1.62-5.64a19.25,19.25,0,0,0-3.08,5.18L258,210a7.24,7.24,0,0,0,.92,5.56,7.39,7.39,0,0,0-2.29,1.56,2.53,2.53,0,0,0-.59,2.56,12.39,12.39,0,0,0,3.43.35,22.7,22.7,0,0,0,.36,6.37,1.15,1.15,0,0,0,.42.81c.35.23.82,0,1.18-.19a11.28,11.28,0,0,0,4-4.24l1.81,4.31a2,2,0,0,0,.8,1.08,1.28,1.28,0,0,0,1.51-.52,3.75,3.75,0,0,0,.54-1.64l.67-4.1a1.07,1.07,0,0,1,.23-.58,1,1,0,0,1,.72-.21c1.71,0,3.42-.06,5.13-.05.3-.91-.61-1.75-1.49-2.14s-1.91-.67-2.35-1.52c-.9-1.73,1.41-4.14.43-5.64C272.3,210.06,270.43,211.79,268.93,212.53Z" transform="translate(-57 -44.32)" fill="#6c63ff"/><path d="M219.85,104.89a1.19,1.19,0,0,1-.58.17c-.36,0-.62-.37-.77-.7-.83-1.8-.35-4.13-1.62-5.64a19.28,19.28,0,0,0-3.09,5.18l-4.85-1.51a7.19,7.19,0,0,0,.91,5.56,7.34,7.34,0,0,0-2.28,1.56,2.53,2.53,0,0,0-.6,2.56,12.39,12.39,0,0,0,3.43.35,22.34,22.34,0,0,0,.37,6.37.9.9,0,0,0,1.6.62,11.28,11.28,0,0,0,4-4.24l1.8,4.31a1.9,1.9,0,0,0,.81,1.08,1.29,1.29,0,0,0,1.51-.52,3.69,3.69,0,0,0,.53-1.64l.68-4.1a1,1,0,0,1,.22-.58,1,1,0,0,1,.72-.2c1.71,0,3.42-.07,5.14-.06.29-.91-.62-1.75-1.49-2.14s-1.92-.67-2.36-1.52c-.89-1.73,1.42-4.14.44-5.64C223.21,102.42,221.34,104.15,219.85,104.89Z" transform="translate(-57 -44.32)" fill="#6c63ff"/><path d="M368.79,171.55a.58.58,0,0,1-.3.09c-.2,0-.33-.2-.42-.37-.44-1-.18-2.19-.86-3a10.49,10.49,0,0,0-1.64,2.75l-2.58-.8a3.9,3.9,0,0,0,.49,3,3.75,3.75,0,0,0-1.21.82,1.34,1.34,0,0,0-.32,1.36,6.59,6.59,0,0,0,1.82.19,12,12,0,0,0,.2,3.38.6.6,0,0,0,.22.43.62.62,0,0,0,.63-.1,6.11,6.11,0,0,0,2.12-2.25l1,2.29a1,1,0,0,0,.42.57.69.69,0,0,0,.81-.27,2,2,0,0,0,.28-.87l.36-2.18a.56.56,0,0,1,.12-.31.49.49,0,0,1,.38-.11l2.73,0c.15-.48-.33-.93-.8-1.13s-1-.36-1.25-.81c-.47-.92.76-2.2.24-3S369.58,171.15,368.79,171.55Z" transform="translate(-57 -44.32)" fill="#6c63ff" opacity="0.2"/><path d="M302.11,210.05a.8.8,0,0,1-.3.09.56.56,0,0,1-.41-.38c-.44-.95-.19-2.19-.87-3a10.33,10.33,0,0,0-1.64,2.75l-2.57-.8a3.83,3.83,0,0,0,.48,2.95,4.2,4.2,0,0,0-1.21.83,1.34,1.34,0,0,0-.32,1.36,6.22,6.22,0,0,0,1.82.18,12,12,0,0,0,.2,3.39.62.62,0,0,0,.22.43c.19.12.44,0,.63-.1a6.1,6.1,0,0,0,2.12-2.25l1,2.29a1,1,0,0,0,.42.57.7.7,0,0,0,.81-.28,2,2,0,0,0,.28-.87l.36-2.18a.53.53,0,0,1,.12-.3.52.52,0,0,1,.38-.11q1.37,0,2.73,0c.15-.48-.33-.93-.79-1.14s-1-.35-1.25-.81c-.48-.92.75-2.2.23-3S302.91,209.65,302.11,210.05Z" transform="translate(-57 -44.32)" fill="#6c63ff" opacity="0.2"/><path d="M237.58,75.31a.75.75,0,0,1-.3.09.56.56,0,0,1-.41-.38c-.44-1-.19-2.19-.86-3a9.83,9.83,0,0,0-1.64,2.75l-2.58-.8a3.79,3.79,0,0,0,.49,3,4.12,4.12,0,0,0-1.22.83,1.33,1.33,0,0,0-.31,1.36,6.16,6.16,0,0,0,1.82.18,12,12,0,0,0,.19,3.39.62.62,0,0,0,.22.43c.19.12.44,0,.63-.1a6,6,0,0,0,2.12-2.25l1,2.29a1,1,0,0,0,.43.57.69.69,0,0,0,.8-.28,2,2,0,0,0,.28-.87l.36-2.18a.51.51,0,0,1,.12-.3.52.52,0,0,1,.38-.11q1.37,0,2.73,0c.16-.48-.33-.93-.79-1.14s-1-.35-1.25-.81c-.48-.92.75-2.2.23-3S238.38,74.91,237.58,75.31Z" transform="translate(-57 -44.32)" fill="#6c63ff" opacity="0.5"/><path d="M271.93,151.23a.59.59,0,0,1-.31.09c-.19,0-.33-.19-.41-.37-.44-.95-.19-2.19-.86-3a10.08,10.08,0,0,0-1.64,2.75l-2.58-.8a3.87,3.87,0,0,0,.49,3,4,4,0,0,0-1.21.83,1.33,1.33,0,0,0-.32,1.36,6.19,6.19,0,0,0,1.82.18,12,12,0,0,0,.19,3.39.67.67,0,0,0,.22.43c.19.12.44,0,.63-.11a5.92,5.92,0,0,0,2.12-2.24l1,2.29a1.08,1.08,0,0,0,.43.57.68.68,0,0,0,.8-.28,2,2,0,0,0,.29-.87l.36-2.18a.45.45,0,0,1,.12-.3.49.49,0,0,1,.38-.11c.91,0,1.82,0,2.72,0,.16-.48-.32-.93-.79-1.14s-1-.36-1.25-.81c-.47-.92.76-2.2.23-3S272.72,150.84,271.93,151.23Z" transform="translate(-57 -44.32)" fill="#6c63ff" opacity="0.5"/><path d="M247,121.63a.55.55,0,0,1-.3.09c-.2,0-.33-.19-.41-.37-.44-.95-.19-2.19-.87-3a10.33,10.33,0,0,0-1.64,2.75l-2.57-.8a3.83,3.83,0,0,0,.48,3,4.2,4.2,0,0,0-1.21.83,1.33,1.33,0,0,0-.32,1.36,6.22,6.22,0,0,0,1.82.18,12,12,0,0,0,.2,3.39.62.62,0,0,0,.22.43c.19.12.44,0,.63-.11a5.92,5.92,0,0,0,2.12-2.24l1,2.29a1,1,0,0,0,.42.57.7.7,0,0,0,.81-.28,2,2,0,0,0,.28-.87l.36-2.18a.51.51,0,0,1,.12-.3.52.52,0,0,1,.38-.11q1.36,0,2.73,0c.15-.48-.33-.93-.79-1.14s-1-.36-1.25-.81c-.48-.92.75-2.2.23-3S247.8,121.24,247,121.63Z" transform="translate(-57 -44.32)" fill="#6c63ff" opacity="0.5"/><path d="M354.06,128.6a.58.58,0,0,1-.3.09c-.2,0-.33-.19-.42-.37-.43-.95-.18-2.19-.86-3a10.33,10.33,0,0,0-1.64,2.75l-2.57-.8a3.83,3.83,0,0,0,.48,2.95,3.78,3.78,0,0,0-1.21.83,1.33,1.33,0,0,0-.32,1.36,6.58,6.58,0,0,0,1.82.18,12,12,0,0,0,.2,3.39.62.62,0,0,0,.22.43c.19.12.44,0,.63-.11a6.08,6.08,0,0,0,2.12-2.24l1,2.28a1,1,0,0,0,.42.58.7.7,0,0,0,.81-.28,2,2,0,0,0,.28-.87l.36-2.18a.56.56,0,0,1,.12-.31.53.53,0,0,1,.38-.1q1.36,0,2.73,0c.15-.48-.33-.93-.79-1.14s-1-.36-1.25-.81c-.48-.92.75-2.2.23-3S354.86,128.21,354.06,128.6Z" transform="translate(-57 -44.32)" fill="#6c63ff" opacity="0.5"/><path d="M302.11,122.78a.55.55,0,0,1-.3.09c-.2,0-.33-.2-.41-.37-.44-1-.19-2.19-.87-3a10.66,10.66,0,0,0-1.64,2.75l-2.57-.8a3.85,3.85,0,0,0,.48,3,4,4,0,0,0-1.21.82,1.35,1.35,0,0,0-.32,1.37,7,7,0,0,0,1.82.18,12,12,0,0,0,.2,3.38.58.58,0,0,0,.22.43c.19.13.44,0,.63-.1a6,6,0,0,0,2.12-2.25l1,2.29a1,1,0,0,0,.42.57.68.68,0,0,0,.81-.27,2,2,0,0,0,.28-.87l.36-2.18a.56.56,0,0,1,.12-.31.63.63,0,0,1,.38-.11q1.37,0,2.73,0c.15-.48-.33-.93-.79-1.13s-1-.36-1.25-.81c-.48-.92.75-2.2.23-3S302.91,122.39,302.11,122.78Z" transform="translate(-57 -44.32)" fill="#6c63ff" opacity="0.2"/><path d="M285.81,129.87a.58.58,0,0,1-.3.09c-.2,0-.33-.19-.42-.37-.44-1-.18-2.19-.86-3a10.66,10.66,0,0,0-1.64,2.75l-2.58-.79a3.87,3.87,0,0,0,.49,2.95,3.92,3.92,0,0,0-1.21.82,1.35,1.35,0,0,0-.32,1.37,7,7,0,0,0,1.82.18,12.07,12.07,0,0,0,.2,3.39.62.62,0,0,0,.22.43c.19.12.44,0,.63-.11a6,6,0,0,0,2.12-2.25l1,2.29a1,1,0,0,0,.42.58.7.7,0,0,0,.81-.28,2,2,0,0,0,.28-.87l.36-2.18a.56.56,0,0,1,.12-.31.59.59,0,0,1,.38-.11c.91,0,1.82,0,2.73,0,.15-.49-.33-.94-.79-1.14s-1-.36-1.25-.81c-.48-.92.75-2.2.23-3S286.61,129.48,285.81,129.87Z" transform="translate(-57 -44.32)" fill="#6c63ff" opacity="0.3"/><path d="M270.62,87a.59.59,0,0,1-.31.09c-.19,0-.33-.19-.41-.37-.44-1-.19-2.19-.86-3a10.18,10.18,0,0,0-1.64,2.74l-2.58-.79a3.79,3.79,0,0,0,.49,3,4.09,4.09,0,0,0-1.22.82,1.37,1.37,0,0,0-.31,1.37,6.55,6.55,0,0,0,1.82.18,12.07,12.07,0,0,0,.19,3.39.62.62,0,0,0,.22.43c.19.12.44,0,.63-.11a5.88,5.88,0,0,0,2.12-2.25l1,2.29a1.07,1.07,0,0,0,.43.58A.68.68,0,0,0,271,95a2,2,0,0,0,.29-.87l.35-2.18a.56.56,0,0,1,.12-.31.63.63,0,0,1,.38-.11c.91,0,1.82,0,2.73,0,.16-.49-.32-.94-.79-1.14s-1-.36-1.25-.81c-.47-.92.75-2.2.23-3S271.41,86.56,270.62,87Z" transform="translate(-57 -44.32)" fill="#6c63ff" opacity="0.2"/><path d="M300.55,143a.69.69,0,0,1-.31.09c-.19,0-.33-.2-.41-.38-.44-.95-.19-2.18-.86-3a10.23,10.23,0,0,0-1.64,2.75l-2.58-.8a3.81,3.81,0,0,0,.49,3,3.91,3.91,0,0,0-1.22.82,1.36,1.36,0,0,0-.31,1.36,6.55,6.55,0,0,0,1.82.19,12,12,0,0,0,.19,3.38.67.67,0,0,0,.22.43.62.62,0,0,0,.63-.1,6,6,0,0,0,2.12-2.25l1,2.29a1,1,0,0,0,.43.57.69.69,0,0,0,.8-.27,2,2,0,0,0,.29-.87l.36-2.18a.41.41,0,0,1,.5-.42c.91,0,1.81,0,2.72,0,.16-.48-.32-.93-.79-1.13s-1-.36-1.25-.81c-.47-.92.75-2.2.23-3S301.34,142.56,300.55,143Z" transform="translate(-57 -44.32)" fill="#6c63ff" opacity="0.3"/><g opacity="0.1"><ellipse cx="780.79" cy="757.47" rx="17.99" ry="23.55" fill="#3f3d56"/><path d="M852,701a28.31,28.31,0,0,0,3.76-14.39c0-13-8.06-23.56-18-23.56s-18,10.55-18,23.56A28.41,28.41,0,0,0,823.55,701a29.44,29.44,0,0,0,0,28.79,29.42,29.42,0,0,0,0,28.78,28.47,28.47,0,0,0-3.76,14.4c0,13,8.06,23.55,18,23.55s18-10.54,18-23.55A28.37,28.37,0,0,0,852,758.6a29.42,29.42,0,0,0,0-28.78A29.44,29.44,0,0,0,852,701Z" transform="translate(-57 -44.32)" fill="#3f3d56"/><ellipse cx="780.79" cy="613.53" rx="17.99" ry="23.55" fill="#3f3d56"/><ellipse cx="780.79" cy="584.75" rx="17.99" ry="23.55" fill="#3f3d56"/><path d="M905.14,432.07a85.17,85.17,0,0,0,6.7-9.87l-47.28-7.76,51.13.38a86.35,86.35,0,0,0,1.65-68.29l-68.6,35.59L912,335.61a86.19,86.19,0,1,0-142.34,96.46,86.51,86.51,0,0,0-9.83,15.71l61.37,31.88-65.43-22a86.22,86.22,0,0,0,13.89,80.93,86.18,86.18,0,1,0,135.48,0,86.19,86.19,0,0,0,0-106.56Z" transform="translate(-57 -44.32)" fill="#6c63ff"/><path d="M751.22,485.35a85.81,85.81,0,0,0,18.44,53.28,86.18,86.18,0,1,0,135.48,0C916.69,524,751.22,475.68,751.22,485.35Z" transform="translate(-57 -44.32)" opacity="0.1"/></g><g opacity="0.1"><ellipse cx="164.21" cy="757.47" rx="17.99" ry="23.55" fill="#3f3d56"/><path d="M235.45,701a28.41,28.41,0,0,0,3.76-14.39c0-13-8.06-23.56-18-23.56s-18,10.55-18,23.56A28.31,28.31,0,0,0,207,701a29.44,29.44,0,0,0,0,28.79,29.42,29.42,0,0,0,0,28.78,28.37,28.37,0,0,0-3.76,14.4c0,13,8.06,23.55,18,23.55s18-10.54,18-23.55a28.47,28.47,0,0,0-3.76-14.4,29.42,29.42,0,0,0,0-28.78,29.44,29.44,0,0,0,0-28.79Z" transform="translate(-57 -44.32)" fill="#3f3d56"/><ellipse cx="164.21" cy="613.53" rx="17.99" ry="23.55" fill="#3f3d56"/><ellipse cx="164.21" cy="584.75" rx="17.99" ry="23.55" fill="#3f3d56"/><path d="M153.86,432.07a85.17,85.17,0,0,1-6.7-9.87l47.28-7.76-51.13.38a86.35,86.35,0,0,1-1.65-68.29l68.6,35.59L147,335.61a86.19,86.19,0,1,1,142.34,96.46,86.51,86.51,0,0,1,9.83,15.71L237.8,479.66l65.43-22a86.22,86.22,0,0,1-13.89,80.93,86.18,86.18,0,1,1-135.48,0,86.19,86.19,0,0,1,0-106.56Z" transform="translate(-57 -44.32)" fill="#6c63ff"/><path d="M307.78,485.35a85.81,85.81,0,0,1-18.44,53.28,86.18,86.18,0,1,1-135.48,0C142.31,524,307.78,475.68,307.78,485.35Z" transform="translate(-57 -44.32)" opacity="0.1"/></g><g opacity="0.1"><ellipse cx="453.31" cy="757.47" rx="17.99" ry="23.55" fill="#3f3d56"/><path d="M524.55,701a28.4,28.4,0,0,0,3.75-14.39c0-13-8-23.56-18-23.56s-18,10.55-18,23.56A28.31,28.31,0,0,0,496.08,701a29.44,29.44,0,0,0,0,28.79,29.42,29.42,0,0,0,0,28.78,28.37,28.37,0,0,0-3.76,14.4c0,13,8.06,23.55,18,23.55s18-10.54,18-23.55a28.47,28.47,0,0,0-3.75-14.4,29.48,29.48,0,0,0,0-28.78,29.5,29.5,0,0,0,0-28.79Z" transform="translate(-57 -44.32)" fill="#3f3d56"/><ellipse cx="453.31" cy="613.53" rx="17.99" ry="23.55" fill="#3f3d56"/><ellipse cx="453.31" cy="584.75" rx="17.99" ry="23.55" fill="#3f3d56"/><path d="M443,432.07a85.17,85.17,0,0,1-6.7-9.87l47.27-7.76-51.12.38a86.35,86.35,0,0,1-1.65-68.29l68.6,35.59-63.27-46.51a86.19,86.19,0,1,1,142.35,96.46,85.91,85.91,0,0,1,9.82,15.71L526.9,479.66l65.43-22a86.22,86.22,0,0,1-13.89,80.93,86.18,86.18,0,1,1-135.48,0,86.19,86.19,0,0,1,0-106.56Z" transform="translate(-57 -44.32)" fill="#6c63ff"/><path d="M596.88,485.35a85.81,85.81,0,0,1-18.44,53.28,86.18,86.18,0,1,1-135.48,0C431.41,524,596.88,475.68,596.88,485.35Z" transform="translate(-57 -44.32)" opacity="0.1"/></g><g opacity="0.6"><path d="M580.46,184.26a2,2,0,0,0-3.25,2.32c.37.56.78,1.1,1.17,1.62,4.69,6.34,7.12,14,9.22,21.64.51,1.87,1,3.86.42,5.71a35.58,35.58,0,0,0-1-14.9,92.79,92.79,0,0,0-5.27-14.07A12.46,12.46,0,0,0,580.46,184.26Z" transform="translate(-57 -44.32)" fill="#6c63ff" opacity="0.5"/><path d="M550,197.59c-3.17-.1-3.57,4.7-.42,4.95.83.07,1.66.09,2.46.11,9.7.26,18.86,3.78,27.67,7.56,2.17.93,4.44,2,5.7,4a41.55,41.55,0,0,0-14.76-10.46,109.27,109.27,0,0,0-17.42-5.63A14.9,14.9,0,0,0,550,197.59Z" transform="translate(-57 -44.32)" fill="#6c63ff"/><path d="M550.88,209.39c-2,.07-1.55,2.92.47,2.93.52,0,1,0,1.55,0,6.12-.25,12.38,1.44,18.46,3.3a9.39,9.39,0,0,1,4.15,2.09,33.3,33.3,0,0,0-10.79-5.54A82.32,82.32,0,0,0,553,209.55,11.3,11.3,0,0,0,550.88,209.39Z" transform="translate(-57 -44.32)" fill="#6c63ff" opacity="0.2"/><path d="M591.8,262.22c.57,1.92,3.21.78,2.73-1.18-.13-.51-.28-1-.43-1.49-1.75-5.87-1.67-12.35-1.38-18.7a9.47,9.47,0,0,1,1-4.54A33.43,33.43,0,0,0,591,248.13a83,83,0,0,0,.41,12A11.39,11.39,0,0,0,591.8,262.22Z" transform="translate(-57 -44.32)" fill="#6c63ff" opacity="0.5"/><path d="M554.53,181.59c-1.21-.21-1.3,1.55-.1,1.81l.93.18c3.69.63,7.21,2.43,10.61,4.31a5.75,5.75,0,0,1,2.21,1.77,20.25,20.25,0,0,0-5.74-4.67,50.76,50.76,0,0,0-6.68-3A7.53,7.53,0,0,0,554.53,181.59Z" transform="translate(-57 -44.32)" fill="#6c63ff" opacity="0.2"/><path d="M535.94,228.06c-3.05,1.57-.47,5.89,2.67,4.46.82-.38,1.62-.8,2.38-1.19,9.34-4.85,20.18-6.63,30.84-8,2.62-.34,5.41-.63,7.83.4a53,53,0,0,0-20.42-1.22,133.4,133.4,0,0,0-19.93,4.29A17.77,17.77,0,0,0,535.94,228.06Z" transform="translate(-57 -44.32)" fill="#6c63ff"/><path d="M544.67,244.86c-2.2,2,1.23,4.46,3.53,2.5.6-.52,1.18-1.06,1.72-1.57,6.69-6.28,15.53-10.75,24.33-14.87,2.16-1,11-2,13.43-2-6.2.56-18.87,2.49-24.5,5a135.85,135.85,0,0,0-16,9A17,17,0,0,0,544.67,244.86Z" transform="translate(-57 -44.32)" fill="#6c63ff" opacity="0.5"/><path d="M560.32,271.67c-.64,2.93,3.55,3,4.33,0,.2-.76.37-1.53.53-2.27,1.93-9,6.66-17.67,11.56-26.06,1.2-2.06,7.93-8,9.92-9.26-4.79,4-14.11,12.77-17.28,18.07a136,136,0,0,0-8,16.46A17.85,17.85,0,0,0,560.32,271.67Z" transform="translate(-57 -44.32)" fill="#6c63ff"/><path d="M591.84,168.74c-1.5-3.05-5.77-.54-4.41,2.59.35.81.75,1.61,1.13,2.38,4.6,9.31,6.19,20.08,7.37,30.67.29,2.59.54,5.36-.52,7.75a53,53,0,0,0,1.52-20.22,134.09,134.09,0,0,0-3.9-19.82A17.83,17.83,0,0,0,591.84,168.74Z" transform="translate(-57 -44.32)" fill="#6c63ff"/><path d="M568,173.93a.45.45,0,0,0,.25.07.44.44,0,0,0,.35-.31c.38-.82.16-1.87.74-2.55a8.78,8.78,0,0,1,1.39,2.34l2.2-.68a3.26,3.26,0,0,1-.42,2.51,3.4,3.4,0,0,1,1,.7,1.15,1.15,0,0,1,.26,1.16,5.34,5.34,0,0,1-1.55.16,10,10,0,0,1-.16,2.88.56.56,0,0,1-.19.37.52.52,0,0,1-.53-.09,5.1,5.1,0,0,1-1.81-1.91l-.81,1.94a.88.88,0,0,1-.37.49.58.58,0,0,1-.68-.23,1.79,1.79,0,0,1-.24-.74l-.31-1.86a.42.42,0,0,0-.1-.26.45.45,0,0,0-.32-.09c-.78,0-1.55,0-2.32,0-.14-.41.27-.79.67-1s.86-.31,1.06-.69c.41-.79-.64-1.88-.19-2.55S567.35,173.59,568,173.93Z" transform="translate(-57 -44.32)" fill="#6c63ff"/><path d="M610.36,184.26a2,2,0,0,1,3.26,2.32c-.38.56-.78,1.1-1.17,1.62-4.69,6.34-7.13,14-9.22,21.64-.52,1.87-1,3.86-.43,5.71a35.59,35.59,0,0,1,1-14.9,91.73,91.73,0,0,1,5.27-14.07A12.41,12.41,0,0,1,610.36,184.26Z" transform="translate(-57 -44.32)" fill="#6c63ff" opacity="0.5"/><path d="M640.82,197.59c3.16-.1,3.57,4.7.41,4.95-.82.07-1.66.09-2.45.11-9.7.26-18.87,3.78-27.68,7.56-2.16.93-4.43,2-5.69,4a41.55,41.55,0,0,1,14.76-10.46,109.48,109.48,0,0,1,17.41-5.63A15.09,15.09,0,0,1,640.82,197.59Z" transform="translate(-57 -44.32)" fill="#6c63ff"/><path d="M640,209.39c2,.07,1.54,2.92-.47,2.93-.53,0-1.05,0-1.55,0-6.12-.25-12.38,1.44-18.46,3.3a9.34,9.34,0,0,0-4.15,2.09,33.2,33.2,0,0,1,10.79-5.54,82.32,82.32,0,0,1,11.74-2.58A11.3,11.3,0,0,1,640,209.39Z" transform="translate(-57 -44.32)" fill="#6c63ff" opacity="0.5"/><path d="M636.3,181.59c1.21-.21,1.3,1.55.1,1.81l-.94.18c-3.68.63-7.21,2.43-10.6,4.31a5.75,5.75,0,0,0-2.21,1.77,20.21,20.21,0,0,1,5.73-4.67,51.48,51.48,0,0,1,6.69-3A7.26,7.26,0,0,1,636.3,181.59Z" transform="translate(-57 -44.32)" fill="#6c63ff" opacity="0.2"/><path d="M605,265.86c-.27,1.19-1.92.6-1.7-.61,0-.32.13-.63.2-.93.84-3.64.53-7.59.11-11.45a5.78,5.78,0,0,0-.79-2.72,20.18,20.18,0,0,1,2.1,7.09,51.5,51.5,0,0,1,.23,7.34A6.21,6.21,0,0,1,605,265.86Z" transform="translate(-57 -44.32)" fill="#6c63ff" opacity="0.2"/><path d="M635.53,257.94c.94,1.59-1.37,1.48-2.38-.11-.27-.42-.51-.84-.75-1.24-2.86-4.87-7.22-9.69-11.61-14.34a16.07,16.07,0,0,0-3.59-3.11,57.36,57.36,0,0,1,9.43,8.06c2.82,3,5.3,6,7.74,9.08A15,15,0,0,1,635.53,257.94Z" transform="translate(-57 -44.32)" fill="#6c63ff" opacity="0.5"/><path d="M551.89,257.94c-.94,1.59,1.37,1.48,2.39-.11.26-.42.51-.84.74-1.24,2.86-4.87,7.22-9.69,11.61-14.34a16.12,16.12,0,0,1,3.6-3.11,57.43,57.43,0,0,0-9.44,8.06c-2.81,3-5.3,6-7.74,9.08A15,15,0,0,0,551.89,257.94Z" transform="translate(-57 -44.32)" fill="#6c63ff" opacity="0.2"/><path d="M582.48,265.86c.27,1.19,1.92.6,1.71-.61-.06-.32-.13-.63-.2-.93-.84-3.64-.54-7.59-.11-11.45a5.66,5.66,0,0,1,.78-2.72,20.18,20.18,0,0,0-2.1,7.09,50.06,50.06,0,0,0-.22,7.34A7,7,0,0,0,582.48,265.86Z" transform="translate(-57 -44.32)" fill="#6c63ff" opacity="0.2"/><path d="M626.67,193.56c1.2-.21,1.29,1.54.09,1.81-.31.07-.63.12-.93.17-3.69.63-7.21,2.43-10.61,4.32a5.83,5.83,0,0,0-2.21,1.77,20.28,20.28,0,0,1,5.74-4.68,50.7,50.7,0,0,1,6.68-3A6.54,6.54,0,0,1,626.67,193.56Z" transform="translate(-57 -44.32)" fill="#6c63ff" opacity="0.2"/><path d="M615.42,170.07c1-.65,1.78.94.77,1.64l-.8.51c-3.18,2-5.78,4.95-8.23,8a5.66,5.66,0,0,0-1.38,2.48,20.31,20.31,0,0,1,3.57-6.49,50.85,50.85,0,0,1,5.06-5.31A6.39,6.39,0,0,1,615.42,170.07Z" transform="translate(-57 -44.32)" fill="#6c63ff" opacity="0.2"/><path d="M654.89,228.06c3.05,1.57.47,5.89-2.67,4.46-.82-.38-1.62-.8-2.39-1.19-9.33-4.85-20.17-6.63-30.83-8-2.62-.34-5.41-.63-7.83.4a53,53,0,0,1,20.41-1.22,133.26,133.26,0,0,1,19.94,4.29A18.29,18.29,0,0,1,654.89,228.06Z" transform="translate(-57 -44.32)" fill="#6c63ff"/><path d="M646.16,244.86c2.2,2-1.23,4.46-3.53,2.5-.6-.52-1.18-1.06-1.73-1.57-6.69-6.28-15.52-10.75-24.33-14.87-2.15-1-11.05-2-13.42-2,6.2.56,18.86,2.49,24.49,5a135.19,135.19,0,0,1,16,9A17,17,0,0,1,646.16,244.86Z" transform="translate(-57 -44.32)" fill="#6c63ff" opacity="0.5"/><path d="M620.3,275c.27,3-3.9,2.51-4.3-.49-.1-.79-.17-1.57-.24-2.32-.79-9.14-4.4-18.37-8.21-27.31-.93-2.19-6.87-8.89-8.67-10.43,4.25,4.55,12.39,14.44,14.88,20.1a136.24,136.24,0,0,1,5.92,17.33A16.9,16.9,0,0,1,620.3,275Z" transform="translate(-57 -44.32)" fill="#6c63ff"/><path d="M622.8,173.93a.48.48,0,0,1-.26.07.47.47,0,0,1-.35-.31c-.37-.82-.16-1.87-.73-2.55a8.81,8.81,0,0,0-1.4,2.34l-2.19-.68a3.21,3.21,0,0,0,.42,2.51,3.4,3.4,0,0,0-1,.7,1.15,1.15,0,0,0-.27,1.16,5.42,5.42,0,0,0,1.55.16,10.32,10.32,0,0,0,.17,2.88.56.56,0,0,0,.19.37.52.52,0,0,0,.53-.09,5.1,5.1,0,0,0,1.81-1.91l.81,1.94a.91.91,0,0,0,.36.49.59.59,0,0,0,.69-.23,1.79,1.79,0,0,0,.24-.74l.31-1.86a.42.42,0,0,1,.1-.26.45.45,0,0,1,.32-.09c.77,0,1.55,0,2.32,0,.14-.41-.28-.79-.67-1s-.87-.31-1.07-.69c-.4-.79.65-1.88.2-2.55S623.48,173.59,622.8,173.93Z" transform="translate(-57 -44.32)" fill="#6c63ff"/><path d="M629.42,264.26a.61.61,0,0,1-.26.08c-.17,0-.28-.17-.35-.32-.37-.81-.16-1.87-.73-2.55a8.56,8.56,0,0,0-1.4,2.34l-2.19-.68a3.25,3.25,0,0,0,.41,2.51,3.33,3.33,0,0,0-1,.71,1.14,1.14,0,0,0-.27,1.16,5.79,5.79,0,0,0,1.55.15,10.3,10.3,0,0,0,.16,2.88.56.56,0,0,0,.19.37c.16.1.37,0,.54-.09a5.08,5.08,0,0,0,1.8-1.91l.82,1.94a.83.83,0,0,0,.36.49.58.58,0,0,0,.68-.23,1.76,1.76,0,0,0,.25-.74l.3-1.86a.59.59,0,0,1,.1-.26.46.46,0,0,1,.33-.09c.77,0,1.55,0,2.32,0,.13-.41-.28-.79-.67-1s-.87-.31-1.07-.69c-.4-.79.64-1.87.2-2.55S630.1,263.92,629.42,264.26Z" transform="translate(-57 -44.32)" fill="#6c63ff" opacity="0.2"/><path d="M648,203.71a.65.65,0,0,1-.26.08c-.17,0-.28-.17-.35-.32-.38-.81-.16-1.87-.74-2.55a8.78,8.78,0,0,0-1.39,2.34l-2.2-.68a3.26,3.26,0,0,0,.42,2.51,3.22,3.22,0,0,0-1,.71,1.14,1.14,0,0,0-.27,1.16,5.75,5.75,0,0,0,1.55.15,10.3,10.3,0,0,0,.16,2.88.56.56,0,0,0,.19.37.52.52,0,0,0,.53-.09,5.1,5.1,0,0,0,1.81-1.91l.82,1.94a.83.83,0,0,0,.36.49.58.58,0,0,0,.68-.23,1.62,1.62,0,0,0,.24-.74l.31-1.86a.42.42,0,0,1,.1-.26.45.45,0,0,1,.32-.09c.78,0,1.55,0,2.33,0,.13-.41-.28-.79-.68-1s-.86-.31-1.06-.69c-.41-.79.64-1.88.2-2.55S648.68,203.37,648,203.71Z" transform="translate(-57 -44.32)" fill="#6c63ff"/><path d="M573.69,273.32a.76.76,0,0,1-.36.11c-.23,0-.39-.24-.49-.45-.52-1.13-.22-2.59-1-3.55a12.24,12.24,0,0,0-1.94,3.26l-3.06-.94a4.54,4.54,0,0,0,.58,3.5,4.6,4.6,0,0,0-1.44,1,1.59,1.59,0,0,0-.38,1.61,7.52,7.52,0,0,0,2.16.22,14.56,14.56,0,0,0,.23,4,.76.76,0,0,0,.27.52c.22.14.51,0,.74-.13a7.23,7.23,0,0,0,2.52-2.66l1.13,2.71a1.19,1.19,0,0,0,.51.68.81.81,0,0,0,1-.33,2.29,2.29,0,0,0,.34-1l.42-2.58a.5.5,0,0,1,.6-.5c1.08,0,2.15,0,3.23,0,.19-.57-.39-1.11-.94-1.35s-1.2-.42-1.48-1c-.56-1.09.89-2.61.27-3.55C575.81,271.76,574.64,272.85,573.69,273.32Z" transform="translate(-57 -44.32)" fill="#6c63ff"/><path d="M542.77,205.52a.75.75,0,0,1-.36.1c-.23,0-.39-.23-.49-.44-.52-1.13-.22-2.6-1-3.55a12.24,12.24,0,0,0-1.94,3.26l-3.06-.95a4.54,4.54,0,0,0,.58,3.5,5,5,0,0,0-1.44,1,1.59,1.59,0,0,0-.37,1.62,7.78,7.78,0,0,0,2.15.22,14.58,14.58,0,0,0,.23,4,.74.74,0,0,0,.27.51c.22.15.51,0,.74-.12a7.18,7.18,0,0,0,2.52-2.67l1.13,2.72a1.3,1.3,0,0,0,.51.68.83.83,0,0,0,.95-.33,2.33,2.33,0,0,0,.34-1l.42-2.59a.65.65,0,0,1,.15-.36.59.59,0,0,1,.45-.13c1.08,0,2.15,0,3.23,0,.19-.58-.38-1.11-.94-1.35s-1.2-.43-1.48-1c-.56-1.09.89-2.61.28-3.55C544.89,204,543.72,205.05,542.77,205.52Z" transform="translate(-57 -44.32)" fill="#6c63ff"/><path d="M636.59,247.5a.33.33,0,0,1-.19.06.35.35,0,0,1-.26-.23c-.27-.61-.11-1.38-.54-1.89a6.6,6.6,0,0,0-1,1.73l-1.63-.5a2.43,2.43,0,0,0,.31,1.86,2.39,2.39,0,0,0-.76.52.84.84,0,0,0-.2.86,4,4,0,0,0,1.14.11,7.35,7.35,0,0,0,.13,2.14.4.4,0,0,0,.14.27.38.38,0,0,0,.39-.07,3.73,3.73,0,0,0,1.34-1.42l.6,1.45a.66.66,0,0,0,.27.36.44.44,0,0,0,.51-.18A1.38,1.38,0,0,0,637,252l.22-1.38a.27.27,0,0,1,.32-.26c.57,0,1.14,0,1.71,0,.1-.3-.2-.58-.49-.71s-.65-.23-.79-.51c-.3-.58.47-1.39.14-1.89S637.1,247.26,636.59,247.5Z" transform="translate(-57 -44.32)" fill="#6c63ff" opacity="0.2"/><path d="M594.59,271.75a.42.42,0,0,1-.19.06.35.35,0,0,1-.26-.24c-.27-.6-.11-1.37-.54-1.88a6.45,6.45,0,0,0-1,1.73l-1.63-.5a2.44,2.44,0,0,0,.31,1.86,2.39,2.39,0,0,0-.76.52.84.84,0,0,0-.2.86,4,4,0,0,0,1.14.11,7.26,7.26,0,0,0,.13,2.13.43.43,0,0,0,.13.28c.12.07.28,0,.4-.07a3.73,3.73,0,0,0,1.34-1.42l.6,1.45a.66.66,0,0,0,.27.36.45.45,0,0,0,.51-.18,1.23,1.23,0,0,0,.17-.54l.23-1.38a.27.27,0,0,1,.32-.26c.57,0,1.14,0,1.71,0,.1-.3-.2-.59-.49-.71s-.65-.23-.79-.51c-.3-.58.47-1.39.14-1.89S595.09,271.51,594.59,271.75Z" transform="translate(-57 -44.32)" fill="#6c63ff" opacity="0.2"/><path d="M554,186.88a.47.47,0,0,1-.19.06c-.13,0-.21-.13-.26-.24-.28-.6-.12-1.38-.55-1.88a6.29,6.29,0,0,0-1,1.73L550.3,186a2.38,2.38,0,0,0,.3,1.86,2.7,2.7,0,0,0-.76.52.85.85,0,0,0-.2.86,4.41,4.41,0,0,0,1.15.12,7.61,7.61,0,0,0,.12,2.13.38.38,0,0,0,.14.27c.12.08.27,0,.39-.06a3.8,3.8,0,0,0,1.34-1.42l.6,1.44a.62.62,0,0,0,.27.36.42.42,0,0,0,.51-.17,1.32,1.32,0,0,0,.18-.55l.22-1.37a.36.36,0,0,1,.08-.2.32.32,0,0,1,.24-.06c.57,0,1.14,0,1.72,0,.09-.31-.21-.59-.5-.72s-.64-.22-.79-.51c-.3-.58.47-1.38.15-1.88S554.45,186.63,554,186.88Z" transform="translate(-57 -44.32)" fill="#6c63ff" opacity="0.5"/><path d="M575.58,234.71a.32.32,0,0,1-.19,0c-.12,0-.21-.12-.26-.23-.28-.6-.12-1.38-.54-1.89a6.28,6.28,0,0,0-1,1.74l-1.62-.51a2.39,2.39,0,0,0,.31,1.86,2.55,2.55,0,0,0-.77.52.86.86,0,0,0-.2.86,4.45,4.45,0,0,0,1.15.12,7.61,7.61,0,0,0,.12,2.13.4.4,0,0,0,.14.27c.12.08.28,0,.4-.06a3.78,3.78,0,0,0,1.33-1.42l.61,1.44a.62.62,0,0,0,.27.36.44.44,0,0,0,.5-.17,1.19,1.19,0,0,0,.18-.55l.23-1.37a.35.35,0,0,1,.07-.2.4.4,0,0,1,.24-.07c.57,0,1.15,0,1.72,0,.1-.31-.21-.59-.5-.72s-.64-.22-.79-.51c-.29-.58.48-1.39.15-1.89S576.08,234.46,575.58,234.71Z" transform="translate(-57 -44.32)" fill="#6c63ff" opacity="0.5"/><path d="M559.88,216.06a.42.42,0,0,1-.19.06.35.35,0,0,1-.26-.24c-.28-.6-.12-1.38-.54-1.88a6.23,6.23,0,0,0-1,1.73l-1.62-.5a2.4,2.4,0,0,0,.31,1.86,2.55,2.55,0,0,0-.77.52.86.86,0,0,0-.2.86,4,4,0,0,0,1.15.11,7.61,7.61,0,0,0,.12,2.13.4.4,0,0,0,.14.28c.12.07.28,0,.4-.07a3.71,3.71,0,0,0,1.33-1.42l.61,1.45a.66.66,0,0,0,.27.36.43.43,0,0,0,.5-.18,1.28,1.28,0,0,0,.18-.55l.23-1.37a.32.32,0,0,1,.07-.19.34.34,0,0,1,.24-.07c.57,0,1.15,0,1.72,0,.1-.3-.21-.59-.5-.71s-.64-.23-.79-.51c-.3-.58.48-1.39.15-1.89S560.38,215.81,559.88,216.06Z" transform="translate(-57 -44.32)" fill="#6c63ff" opacity="0.5"/><path d="M627.32,220.45a.47.47,0,0,1-.19.06.33.33,0,0,1-.26-.24c-.28-.6-.12-1.37-.55-1.88a6.45,6.45,0,0,0-1,1.73l-1.62-.5a2.4,2.4,0,0,0,.3,1.86,2.51,2.51,0,0,0-.76.52.84.84,0,0,0-.2.86,4,4,0,0,0,1.15.11,7.61,7.61,0,0,0,.12,2.13.4.4,0,0,0,.14.28c.12.07.27,0,.39-.07a3.73,3.73,0,0,0,1.34-1.42l.6,1.45a.66.66,0,0,0,.27.36.44.44,0,0,0,.51-.18,1.28,1.28,0,0,0,.18-.55l.22-1.37a.27.27,0,0,1,.32-.26c.57,0,1.14,0,1.72,0,.09-.3-.21-.59-.5-.71s-.64-.23-.79-.51c-.3-.58.47-1.39.15-1.89S627.82,220.2,627.32,220.45Z" transform="translate(-57 -44.32)" fill="#6c63ff" opacity="0.5"/><path d="M594.59,216.78a.33.33,0,0,1-.19.06.35.35,0,0,1-.26-.23c-.27-.6-.11-1.38-.54-1.89a6.6,6.6,0,0,0-1,1.73l-1.63-.5a2.43,2.43,0,0,0,.31,1.86,2.39,2.39,0,0,0-.76.52.84.84,0,0,0-.2.86,4,4,0,0,0,1.14.11,7.33,7.33,0,0,0,.13,2.14.43.43,0,0,0,.13.27.4.4,0,0,0,.4-.07,3.73,3.73,0,0,0,1.34-1.42l.6,1.45a.66.66,0,0,0,.27.36.45.45,0,0,0,.51-.18,1.23,1.23,0,0,0,.17-.54l.23-1.38a.27.27,0,0,1,.32-.26c.57,0,1.14,0,1.71,0,.1-.3-.2-.58-.49-.71s-.65-.23-.79-.51c-.3-.58.47-1.39.14-1.89S595.09,216.54,594.59,216.78Z" transform="translate(-57 -44.32)" fill="#6c63ff" opacity="0.2"/><path d="M584.33,221.25a.51.51,0,0,1-.2.06c-.12,0-.2-.13-.26-.24-.27-.6-.11-1.38-.54-1.88a6.45,6.45,0,0,0-1,1.73l-1.63-.5a2.44,2.44,0,0,0,.31,1.86,2.34,2.34,0,0,0-.76.52.84.84,0,0,0-.2.86,4,4,0,0,0,1.14.11,7.62,7.62,0,0,0,.13,2.13.36.36,0,0,0,.14.27c.12.08.27,0,.39-.06a3.8,3.8,0,0,0,1.34-1.42l.6,1.44a.65.65,0,0,0,.27.37.44.44,0,0,0,.51-.18,1.49,1.49,0,0,0,.18-.55l.22-1.37a.27.27,0,0,1,.32-.26c.57,0,1.14,0,1.72,0,.09-.3-.21-.59-.5-.72s-.64-.22-.79-.5c-.3-.59.47-1.39.14-1.89S584.83,221,584.33,221.25Z" transform="translate(-57 -44.32)" fill="#6c63ff" opacity="0.3"/><path d="M574.75,194.22a.32.32,0,0,1-.19.05c-.12,0-.21-.12-.26-.23-.27-.6-.11-1.38-.54-1.89a6.6,6.6,0,0,0-1,1.73l-1.63-.5a2.43,2.43,0,0,0,.31,1.86,2.39,2.39,0,0,0-.76.52.84.84,0,0,0-.2.86,4.38,4.38,0,0,0,1.14.12,7.26,7.26,0,0,0,.13,2.13.43.43,0,0,0,.13.27c.12.08.28,0,.4-.07a3.7,3.7,0,0,0,1.34-1.41l.6,1.44a.66.66,0,0,0,.27.36.46.46,0,0,0,.51-.17,1.31,1.31,0,0,0,.17-.55l.23-1.37a.36.36,0,0,1,.08-.2.38.38,0,0,1,.24-.07c.57,0,1.14,0,1.71,0,.1-.31-.2-.59-.49-.72s-.65-.23-.79-.51c-.3-.58.47-1.39.14-1.89S575.25,194,574.75,194.22Z" transform="translate(-57 -44.32)" fill="#6c63ff" opacity="0.2"/><path d="M593.61,229.5a.29.29,0,0,1-.45-.18c-.28-.6-.12-1.38-.55-1.89a6.6,6.6,0,0,0-1,1.73l-1.62-.5a2.42,2.42,0,0,0,.3,1.86,2.63,2.63,0,0,0-.76.52.84.84,0,0,0-.2.86,4,4,0,0,0,1.15.11,7.66,7.66,0,0,0,.12,2.14.4.4,0,0,0,.14.27.38.38,0,0,0,.39-.07,3.78,3.78,0,0,0,1.34-1.41l.6,1.44a.66.66,0,0,0,.27.36.44.44,0,0,0,.51-.18A1.24,1.24,0,0,0,594,234l.22-1.38a.41.41,0,0,1,.08-.19.33.33,0,0,1,.24-.07c.57,0,1.15,0,1.72,0,.1-.3-.21-.58-.5-.71s-.64-.23-.79-.51c-.3-.58.48-1.39.15-1.89S594.11,229.25,593.61,229.5Z" transform="translate(-57 -44.32)" fill="#6c63ff" opacity="0.3"/></g><g opacity="0.8"><path d="M845.62,83c-2.43-3.3-7.45.28-5.18,3.69.59.9,1.24,1.76,1.86,2.59,7.47,10.09,11.34,22.34,14.67,34.44.82,3,1.61,6.15.68,9.08,1.34-7.86.47-16-1.55-23.71S851,94,847.71,86.67A20.26,20.26,0,0,0,845.62,83Z" transform="translate(-57 -44.32)" fill="#6c63ff" opacity="0.5"/><path d="M797.14,104.19c-5-.16-5.68,7.49-.66,7.89,1.32.1,2.64.13,3.91.17,15.43.42,30,6,44.05,12,3.44,1.48,7,3.14,9.07,6.3-6.32-7.33-14.65-12.7-23.5-16.65s-18.29-6.54-27.72-9A23.55,23.55,0,0,0,797.14,104.19Z" transform="translate(-57 -44.32)" fill="#6c63ff"/><path d="M798.53,123c-3.18.11-2.46,4.64.74,4.66.84,0,1.68,0,2.48-.06,9.73-.4,19.7,2.29,29.37,5.24,2.38.73,4.88,1.55,6.61,3.33a52.91,52.91,0,0,0-17.17-8.81,131.8,131.8,0,0,0-18.68-4.11A16.34,16.34,0,0,0,798.53,123Z" transform="translate(-57 -44.32)" fill="#6c63ff" opacity="0.2"/><path d="M863.67,207.06c.9,3.06,5.1,1.24,4.33-1.87-.2-.81-.44-1.61-.67-2.38-2.8-9.33-2.67-19.66-2.21-29.76.12-2.48.29-5.11,1.58-7.22a52.94,52.94,0,0,0-4.27,18.81,131.09,131.09,0,0,0,.65,19.13A16.83,16.83,0,0,0,863.67,207.06Z" transform="translate(-57 -44.32)" fill="#6c63ff" opacity="0.5"/><path d="M804.33,78.73c-1.91-.33-2.06,2.46-.15,2.88.5.11,1,.2,1.49.28,5.86,1,11.47,3.87,16.87,6.86a9.28,9.28,0,0,1,3.53,2.83,32.42,32.42,0,0,0-9.14-7.45A81.81,81.81,0,0,0,806.3,79.3,11.12,11.12,0,0,0,804.33,78.73Z" transform="translate(-57 -44.32)" fill="#6c63ff" opacity="0.2"/><path d="M774.75,152.7c-4.86,2.5-.75,9.37,4.24,7.09,1.31-.6,2.58-1.27,3.8-1.9,14.86-7.71,32.11-10.54,49.09-12.73,4.16-.53,8.6-1,12.46.65-10.51-3-21.69-3.21-32.5-2s-21.32,4-31.73,6.83A28.22,28.22,0,0,0,774.75,152.7Z" transform="translate(-57 -44.32)" fill="#6c63ff"/><path d="M788.64,179.43c-3.5,3.26,2,7.11,5.62,4,1-.82,1.87-1.69,2.75-2.51,10.64-10,24.71-17.1,38.72-23.66,3.44-1.61,17.59-3.25,21.37-3.16-9.87.88-30,4-39,8a214.88,214.88,0,0,0-25.42,14.27A26.94,26.94,0,0,0,788.64,179.43Z" transform="translate(-57 -44.32)" fill="#6c63ff" opacity="0.5"/><path d="M813.56,222.11c-1,4.66,5.65,4.73,6.89.07.32-1.22.58-2.45.83-3.62,3.08-14.27,10.61-28.13,18.41-41.48,1.92-3.28,12.63-12.68,15.79-14.75-7.62,6.34-22.45,20.33-27.51,28.78a216.23,216.23,0,0,0-12.81,26.19A26.61,26.61,0,0,0,813.56,222.11Z" transform="translate(-57 -44.32)" fill="#6c63ff"/><path d="M863.72,58.27c-2.38-4.85-9.18-.86-7,4.12.57,1.3,1.2,2.57,1.81,3.79,7.32,14.82,9.84,32,11.73,48.81.46,4.14.85,8.54-.83,12.34,3.07-10.37,3.48-21.45,2.42-32.18S868.26,74,865.62,63.61A27.85,27.85,0,0,0,863.72,58.27Z" transform="translate(-57 -44.32)" fill="#6c63ff"/><path d="M825.82,66.53a.88.88,0,0,0,.41.12c.26,0,.45-.27.56-.51.59-1.29.25-3,1.17-4a13.9,13.9,0,0,1,2.22,3.72l3.49-1.08a5.21,5.21,0,0,1-.66,4,5.49,5.49,0,0,1,1.64,1.12,1.81,1.81,0,0,1,.43,1.85,8.86,8.86,0,0,1-2.46.24,16.08,16.08,0,0,1-.27,4.59.83.83,0,0,1-.3.58c-.25.17-.59,0-.85-.14a8.13,8.13,0,0,1-2.87-3L827,77a1.38,1.38,0,0,1-.58.77.93.93,0,0,1-1.09-.37,2.83,2.83,0,0,1-.38-1.18l-.49-3a.7.7,0,0,0-.16-.42.75.75,0,0,0-.51-.15c-1.24,0-2.47,0-3.7,0-.21-.66.44-1.27,1.07-1.54s1.38-.49,1.7-1.1c.64-1.25-1-3-.32-4.06C823.4,64.75,824.74,66,825.82,66.53Z" transform="translate(-57 -44.32)" fill="#6c63ff"/><path d="M893.21,83c2.43-3.3,7.44.28,5.18,3.69-.6.9-1.24,1.76-1.86,2.59-7.47,10.09-11.34,22.34-14.68,34.44-.82,3-1.61,6.15-.67,9.08-1.34-7.86-.47-16,1.55-23.71s5.14-15.09,8.38-22.39A20.92,20.92,0,0,1,893.21,83Z" transform="translate(-57 -44.32)" fill="#6c63ff" opacity="0.5"/><path d="M941.68,104.19c5-.16,5.68,7.49.66,7.89-1.31.1-2.64.13-3.9.17-15.44.42-30,6-44.05,12-3.44,1.48-7.06,3.14-9.07,6.3,6.32-7.33,14.64-12.7,23.5-16.65s18.28-6.54,27.72-9A23.55,23.55,0,0,1,941.68,104.19Z" transform="translate(-57 -44.32)" fill="#6c63ff"/><path d="M940.29,123c3.19.11,2.47,4.64-.73,4.66-.84,0-1.68,0-2.48-.06-9.74-.4-19.7,2.29-29.37,5.24-2.38.73-4.89,1.55-6.61,3.33a52.91,52.91,0,0,1,17.17-8.81A131.8,131.8,0,0,1,937,123.23,16.29,16.29,0,0,1,940.29,123Z" transform="translate(-57 -44.32)" fill="#6c63ff" opacity="0.5"/><path d="M934.5,78.73c1.91-.33,2.06,2.46.15,2.88-.5.11-1,.2-1.49.28-5.86,1-11.48,3.87-16.88,6.86a9.25,9.25,0,0,0-3.52,2.83,32.38,32.38,0,0,1,9.13-7.45,82.55,82.55,0,0,1,10.64-4.83A11.12,11.12,0,0,1,934.5,78.73Z" transform="translate(-57 -44.32)" fill="#6c63ff" opacity="0.2"/><path d="M884.61,212.85c-.43,1.9-3.06,1-2.71-1,.09-.5.21-1,.32-1.48,1.33-5.79.85-12.08.17-18.21a9.2,9.2,0,0,0-1.25-4.34,32.32,32.32,0,0,1,3.35,11.29,80.08,80.08,0,0,1,.35,11.68A10,10,0,0,1,884.61,212.85Z" transform="translate(-57 -44.32)" fill="#6c63ff" opacity="0.2"/><path d="M933.27,200.24c1.5,2.54-2.18,2.37-3.8-.17-.42-.66-.81-1.33-1.18-2-4.56-7.75-11.49-15.42-18.48-22.83a25.64,25.64,0,0,0-5.73-4.94,91,91,0,0,1,15,12.83c4.48,4.69,8.44,9.58,12.32,14.46A23.57,23.57,0,0,1,933.27,200.24Z" transform="translate(-57 -44.32)" fill="#6c63ff" opacity="0.5"/><path d="M800.14,200.24c-1.5,2.54,2.18,2.37,3.79-.17.43-.66.82-1.33,1.19-2,4.56-7.75,11.49-15.42,18.48-22.83a25.42,25.42,0,0,1,5.73-4.94,90.58,90.58,0,0,0-15,12.83c-4.48,4.69-8.45,9.58-12.32,14.46A23.57,23.57,0,0,0,800.14,200.24Z" transform="translate(-57 -44.32)" fill="#6c63ff" opacity="0.2"/><path d="M848.83,212.85c.43,1.9,3.06,1,2.71-1-.09-.5-.21-1-.32-1.48-1.33-5.79-.85-12.08-.17-18.21a9.2,9.2,0,0,1,1.25-4.34A32.32,32.32,0,0,0,849,199.14a80.08,80.08,0,0,0-.35,11.68A10,10,0,0,0,848.83,212.85Z" transform="translate(-57 -44.32)" fill="#6c63ff" opacity="0.2"/><path d="M919.16,97.78c1.91-.34,2.06,2.45.15,2.88-.5.11-1,.19-1.49.27-5.86,1-11.47,3.88-16.88,6.87a9.2,9.2,0,0,0-3.52,2.82,32.21,32.21,0,0,1,9.14-7.44,79.22,79.22,0,0,1,10.63-4.83A9.66,9.66,0,0,1,919.16,97.78Z" transform="translate(-57 -44.32)" fill="#6c63ff" opacity="0.2"/><path d="M901.27,60.38c1.65-1,2.83,1.51,1.21,2.62-.42.29-.86.55-1.27.81-5.07,3.12-9.2,7.88-13.09,12.68a9,9,0,0,0-2.21,3.93A32.3,32.3,0,0,1,891.6,70.1a80.53,80.53,0,0,1,8.06-8.45A10.47,10.47,0,0,1,901.27,60.38Z" transform="translate(-57 -44.32)" fill="#6c63ff" opacity="0.2"/><path d="M964.08,152.7c4.86,2.5.75,9.37-4.24,7.09-1.31-.6-2.59-1.27-3.8-1.9-14.86-7.71-32.12-10.54-49.09-12.73-4.16-.53-8.6-1-12.46.65,10.5-3,21.69-3.21,32.5-2s21.32,4,31.73,6.83A28.48,28.48,0,0,1,964.08,152.7Z" transform="translate(-57 -44.32)" fill="#6c63ff"/><path d="M950.19,179.43c3.49,3.26-2,7.11-5.63,4-.95-.82-1.87-1.69-2.74-2.51-10.65-10-24.72-17.1-38.72-23.66-3.44-1.61-17.6-3.25-21.37-3.16,9.87.88,30,4,39,8a215,215,0,0,1,25.43,14.27A26.94,26.94,0,0,1,950.19,179.43Z" transform="translate(-57 -44.32)" fill="#6c63ff" opacity="0.5"/><path d="M909,227.43c.43,4.75-6.21,4-6.85-.79-.17-1.25-.27-2.5-.37-3.7-1.27-14.54-7-29.23-13.07-43.46-1.49-3.49-10.94-14.15-13.82-16.6,6.77,7.24,19.73,23,23.69,32A215.34,215.34,0,0,1,908,222.46,27.51,27.51,0,0,1,909,227.43Z" transform="translate(-57 -44.32)" fill="#6c63ff"/><path d="M913,66.53a.88.88,0,0,1-.41.12c-.27,0-.45-.27-.56-.51-.6-1.29-.25-3-1.17-4a13.9,13.9,0,0,0-2.22,3.72l-3.49-1.08a5.17,5.17,0,0,0,.66,4,5.54,5.54,0,0,0-1.65,1.12,1.82,1.82,0,0,0-.42,1.85,8.83,8.83,0,0,0,2.46.24,16.45,16.45,0,0,0,.26,4.59.87.87,0,0,0,.3.58c.26.17.6,0,.86-.14a8.13,8.13,0,0,0,2.87-3l1.3,3.1a1.34,1.34,0,0,0,.58.77.91.91,0,0,0,1.08-.37,2.71,2.71,0,0,0,.39-1.18l.48-3a.78.78,0,0,1,.17-.42.75.75,0,0,1,.51-.15c1.23,0,2.47,0,3.7,0,.21-.66-.45-1.27-1.08-1.54s-1.37-.49-1.69-1.1c-.64-1.25,1-3,.31-4.06C915.43,64.75,914.09,66,913,66.53Z" transform="translate(-57 -44.32)" fill="#6c63ff"/><path d="M923.54,210.31a.88.88,0,0,1-.41.12c-.27,0-.45-.26-.56-.5-.59-1.3-.25-3-1.17-4.06a14.06,14.06,0,0,0-2.22,3.72l-3.49-1.08a5.21,5.21,0,0,0,.66,4,5.49,5.49,0,0,0-1.64,1.12,1.81,1.81,0,0,0-.43,1.85,8.87,8.87,0,0,0,2.46.25,16,16,0,0,0,.27,4.58.85.85,0,0,0,.3.59c.25.16.59,0,.85-.15a8.13,8.13,0,0,0,2.87-3l1.3,3.1a1.44,1.44,0,0,0,.58.78,1,1,0,0,0,1.09-.38,2.83,2.83,0,0,0,.38-1.18l.49-2.95a.54.54,0,0,1,.67-.56c1.23,0,2.47-.05,3.7,0,.21-.66-.44-1.26-1.07-1.54s-1.38-.48-1.7-1.1c-.64-1.24,1-3,.32-4.05C926,208.53,924.62,209.78,923.54,210.31Z" transform="translate(-57 -44.32)" fill="#6c63ff" opacity="0.2"/><path d="M953.13,113.93a.79.79,0,0,1-.42.12c-.26,0-.44-.26-.55-.5-.6-1.29-.26-3-1.17-4.06a14,14,0,0,0-2.22,3.73l-3.49-1.09a5.16,5.16,0,0,0,.66,4,5.41,5.41,0,0,0-1.65,1.12,1.86,1.86,0,0,0-.43,1.85,8.94,8.94,0,0,0,2.47.25,16.36,16.36,0,0,0,.26,4.58.89.89,0,0,0,.3.59c.26.16.59,0,.85-.14a8.18,8.18,0,0,0,2.88-3l1.29,3.1a1.4,1.4,0,0,0,.58.78.94.94,0,0,0,1.09-.38,2.66,2.66,0,0,0,.39-1.18l.48-3a.79.79,0,0,1,.16-.41.73.73,0,0,1,.52-.15c1.23,0,2.46,0,3.69,0,.22-.65-.44-1.26-1.07-1.54s-1.38-.48-1.69-1.09c-.64-1.25,1-3,.31-4.06C955.55,112.15,954.2,113.4,953.13,113.93Z" transform="translate(-57 -44.32)" fill="#6c63ff"/><path d="M834.84,224.73a1.18,1.18,0,0,1-.57.17c-.37,0-.63-.37-.78-.71-.83-1.79-.35-4.13-1.63-5.64a19.44,19.44,0,0,0-3.09,5.18l-4.87-1.5a7.27,7.27,0,0,0,.92,5.57,7.39,7.39,0,0,0-2.29,1.56,2.55,2.55,0,0,0-.6,2.57,12.5,12.5,0,0,0,3.44.35,22.48,22.48,0,0,0,.37,6.39,1.2,1.2,0,0,0,.41.81,1.15,1.15,0,0,0,1.19-.2,11.23,11.23,0,0,0,4-4.24l1.81,4.32a1.9,1.9,0,0,0,.81,1.08,1.3,1.3,0,0,0,1.52-.52,3.87,3.87,0,0,0,.53-1.64l.68-4.11a1,1,0,0,1,.22-.59,1.05,1.05,0,0,1,.72-.2c1.72,0,3.44-.07,5.15,0,.3-.92-.62-1.76-1.49-2.15s-1.92-.67-2.36-1.52c-.9-1.74,1.42-4.16.43-5.66C838.21,222.25,836.34,224,834.84,224.73Z" transform="translate(-57 -44.32)" fill="#6c63ff"/><path d="M785.63,116.81a1.22,1.22,0,0,1-.58.17c-.36,0-.62-.37-.78-.71-.82-1.8-.35-4.13-1.62-5.65a19.53,19.53,0,0,0-3.1,5.19l-4.86-1.51a7.21,7.21,0,0,0,.92,5.58,7.27,7.27,0,0,0-2.29,1.56,2.52,2.52,0,0,0-.6,2.57,12.42,12.42,0,0,0,3.44.34,22.8,22.8,0,0,0,.36,6.39,1.17,1.17,0,0,0,.42.82c.36.23.82,0,1.19-.2a11.31,11.31,0,0,0,4-4.24l1.81,4.32a2,2,0,0,0,.8,1.08,1.3,1.3,0,0,0,1.52-.52,3.88,3.88,0,0,0,.54-1.64l.67-4.12a1.07,1.07,0,0,1,.23-.58,1,1,0,0,1,.72-.2c1.71,0,3.43-.07,5.15-.06.29-.91-.62-1.76-1.5-2.14s-1.92-.68-2.36-1.53c-.89-1.74,1.42-4.15.44-5.65C789,114.33,787.13,116.06,785.63,116.81Z" transform="translate(-57 -44.32)" fill="#6c63ff"/><path d="M935,183.64a.55.55,0,0,1-.3.09c-.2,0-.33-.2-.42-.37-.44-1-.18-2.2-.86-3a10.08,10.08,0,0,0-1.64,2.75l-2.59-.8a3.8,3.8,0,0,0,.49,3,4.12,4.12,0,0,0-1.22.83,1.37,1.37,0,0,0-.31,1.37,7,7,0,0,0,1.82.18,11.69,11.69,0,0,0,.2,3.39.63.63,0,0,0,.22.44c.19.12.44,0,.63-.11a6,6,0,0,0,2.12-2.25l1,2.29a1.07,1.07,0,0,0,.43.58.7.7,0,0,0,.81-.28,2,2,0,0,0,.28-.87l.36-2.19a.4.4,0,0,1,.5-.41c.92,0,1.83,0,2.74,0,.16-.49-.33-.94-.79-1.14s-1-.36-1.26-.81c-.47-.93.76-2.21.23-3S935.76,183.25,935,183.64Z" transform="translate(-57 -44.32)" fill="#6c63ff" opacity="0.2"/><path d="M868.11,222.24a.59.59,0,0,1-.31.09c-.19,0-.33-.2-.41-.38-.44-.95-.19-2.19-.86-3a10.32,10.32,0,0,0-1.65,2.76l-2.58-.8a3.81,3.81,0,0,0,.49,3,3.94,3.94,0,0,0-1.22.83,1.35,1.35,0,0,0-.32,1.37,7,7,0,0,0,1.83.18,12,12,0,0,0,.19,3.39.62.62,0,0,0,.22.43c.19.13.44,0,.63-.1a6,6,0,0,0,2.13-2.25l1,2.29a1.07,1.07,0,0,0,.43.58.7.7,0,0,0,.81-.28,2,2,0,0,0,.28-.87l.36-2.19a.56.56,0,0,1,.12-.31.63.63,0,0,1,.38-.11c.91,0,1.82,0,2.74,0,.15-.49-.33-.94-.8-1.14s-1-.36-1.25-.81c-.48-.93.75-2.21.23-3S868.91,221.84,868.11,222.24Z" transform="translate(-57 -44.32)" fill="#6c63ff" opacity="0.2"/><path d="M803.41,87.14a.58.58,0,0,1-.3.09.54.54,0,0,1-.42-.37c-.44-1-.19-2.2-.86-3a10.26,10.26,0,0,0-1.65,2.75l-2.58-.8a3.84,3.84,0,0,0,.49,3,3.91,3.91,0,0,0-1.22.82,1.36,1.36,0,0,0-.32,1.37,6.29,6.29,0,0,0,1.83.18,12.12,12.12,0,0,0,.19,3.4.63.63,0,0,0,.23.43c.19.12.43,0,.63-.1a6,6,0,0,0,2.12-2.26l1,2.3a1,1,0,0,0,.43.57.7.7,0,0,0,.81-.28,2,2,0,0,0,.28-.87l.36-2.18a.56.56,0,0,1,.12-.31.52.52,0,0,1,.38-.11c.91,0,1.83,0,2.74,0,.15-.48-.33-.93-.8-1.14s-1-.36-1.25-.81c-.48-.92.76-2.21.23-3S804.21,86.75,803.41,87.14Z" transform="translate(-57 -44.32)" fill="#6c63ff" opacity="0.5"/><path d="M837.84,163.27a.53.53,0,0,1-.3.09c-.2,0-.33-.19-.41-.37-.44-1-.19-2.2-.87-3a10.49,10.49,0,0,0-1.64,2.75l-2.59-.8a3.89,3.89,0,0,0,.49,3,4,4,0,0,0-1.21.83,1.35,1.35,0,0,0-.32,1.37,6.58,6.58,0,0,0,1.82.18,12.12,12.12,0,0,0,.2,3.4.62.62,0,0,0,.22.43c.19.12.44,0,.63-.11a6,6,0,0,0,2.13-2.25l1,2.29a1,1,0,0,0,.43.58.68.68,0,0,0,.8-.28,2,2,0,0,0,.29-.87l.36-2.18A.48.48,0,0,1,839,168a.49.49,0,0,1,.38-.11q1.36,0,2.73,0c.16-.48-.32-.94-.79-1.14s-1-.36-1.25-.81c-.48-.92.75-2.21.23-3S838.64,162.88,837.84,163.27Z" transform="translate(-57 -44.32)" fill="#6c63ff" opacity="0.5"/><path d="M812.85,133.6a.75.75,0,0,1-.3.09.56.56,0,0,1-.41-.38c-.44-.95-.19-2.19-.87-3a10.28,10.28,0,0,0-1.64,2.76l-2.59-.8a3.91,3.91,0,0,0,.49,3,3.91,3.91,0,0,0-1.22.82,1.37,1.37,0,0,0-.31,1.37,6.19,6.19,0,0,0,1.82.18,12.12,12.12,0,0,0,.2,3.4.62.62,0,0,0,.22.43c.19.12.44,0,.63-.1a6.08,6.08,0,0,0,2.13-2.26l1,2.3a1,1,0,0,0,.42.57.7.7,0,0,0,.81-.28,2,2,0,0,0,.29-.87l.35-2.18a.56.56,0,0,1,.12-.31.53.53,0,0,1,.39-.11q1.36,0,2.73,0c.16-.48-.33-.93-.79-1.14s-1-.36-1.26-.81c-.47-.92.76-2.21.24-3S813.65,133.2,812.85,133.6Z" transform="translate(-57 -44.32)" fill="#6c63ff" opacity="0.5"/><path d="M920.19,140.58a.53.53,0,0,1-.3.09c-.2,0-.33-.19-.41-.37-.44-1-.19-2.2-.87-3a10.23,10.23,0,0,0-1.64,2.75l-2.59-.8a3.89,3.89,0,0,0,.49,3,4.12,4.12,0,0,0-1.22.83,1.37,1.37,0,0,0-.31,1.37,6.55,6.55,0,0,0,1.82.18,12.12,12.12,0,0,0,.2,3.4.62.62,0,0,0,.22.43c.19.12.44,0,.63-.11a6,6,0,0,0,2.13-2.25l1,2.29a1,1,0,0,0,.43.58.69.69,0,0,0,.8-.28,2,2,0,0,0,.29-.87l.36-2.18a.4.4,0,0,1,.5-.42q1.37,0,2.73,0c.16-.48-.33-.94-.79-1.14s-1-.36-1.26-.81c-.47-.92.76-2.21.24-3S921,140.19,920.19,140.58Z" transform="translate(-57 -44.32)" fill="#6c63ff" opacity="0.5"/><path d="M868.11,134.74a.59.59,0,0,1-.31.09c-.19,0-.33-.19-.41-.37-.44-1-.19-2.2-.86-3a10.26,10.26,0,0,0-1.65,2.75l-2.58-.8a3.84,3.84,0,0,0,.49,3,3.91,3.91,0,0,0-1.22.82,1.36,1.36,0,0,0-.32,1.37,6.26,6.26,0,0,0,1.83.18,12.12,12.12,0,0,0,.19,3.4.67.67,0,0,0,.22.43c.19.12.44,0,.63-.1a6,6,0,0,0,2.13-2.26l1,2.3a1,1,0,0,0,.43.57.7.7,0,0,0,.81-.28,2,2,0,0,0,.28-.87l.36-2.18a.56.56,0,0,1,.12-.31.52.52,0,0,1,.38-.11c.91,0,1.82,0,2.74,0,.15-.48-.33-.93-.8-1.14s-1-.36-1.25-.81c-.48-.92.75-2.21.23-3S868.91,134.35,868.11,134.74Z" transform="translate(-57 -44.32)" fill="#6c63ff" opacity="0.2"/><path d="M851.76,141.86a.75.75,0,0,1-.3.09.56.56,0,0,1-.41-.38c-.44-1-.19-2.19-.87-3a10.13,10.13,0,0,0-1.64,2.76l-2.59-.81a3.92,3.92,0,0,0,.49,3,3.91,3.91,0,0,0-1.22.82,1.37,1.37,0,0,0-.31,1.37,6.19,6.19,0,0,0,1.82.18,12.12,12.12,0,0,0,.2,3.4.62.62,0,0,0,.22.43c.19.12.44,0,.63-.1a6.08,6.08,0,0,0,2.13-2.26l1,2.3a1,1,0,0,0,.43.57.69.69,0,0,0,.8-.28,2,2,0,0,0,.29-.87l.36-2.18a.55.55,0,0,1,.11-.31.53.53,0,0,1,.39-.11q1.37,0,2.73,0c.16-.48-.33-.93-.79-1.14s-1-.36-1.26-.81c-.47-.92.76-2.21.24-3S852.56,141.46,851.76,141.86Z" transform="translate(-57 -44.32)" fill="#6c63ff" opacity="0.3"/><path d="M836.53,98.82a.59.59,0,0,1-.31.09c-.19,0-.33-.19-.41-.37-.44-1-.19-2.2-.86-3a10.26,10.26,0,0,0-1.65,2.75l-2.58-.8a3.8,3.8,0,0,0,.49,3,4.12,4.12,0,0,0-1.22.83,1.35,1.35,0,0,0-.32,1.37,6.66,6.66,0,0,0,1.83.18,12.14,12.14,0,0,0,.19,3.4.67.67,0,0,0,.22.43c.19.12.44,0,.63-.11a5.9,5.9,0,0,0,2.13-2.25l1,2.29a1.07,1.07,0,0,0,.43.58.7.7,0,0,0,.81-.28,2,2,0,0,0,.28-.87l.36-2.18a.54.54,0,0,1,.12-.31.52.52,0,0,1,.38-.11c.91,0,1.83,0,2.74,0,.15-.49-.33-.94-.8-1.14s-1-.36-1.25-.81c-.48-.93.75-2.21.23-3S837.33,98.43,836.53,98.82Z" transform="translate(-57 -44.32)" fill="#6c63ff" opacity="0.2"/><path d="M866.54,155a.85.85,0,0,1-.31.09c-.19,0-.33-.2-.41-.38-.44-.95-.19-2.19-.86-3a10.32,10.32,0,0,0-1.65,2.76l-2.58-.8a3.82,3.82,0,0,0,.49,3,3.91,3.91,0,0,0-1.22.82,1.36,1.36,0,0,0-.32,1.37,6.29,6.29,0,0,0,1.83.18,12.12,12.12,0,0,0,.19,3.4.67.67,0,0,0,.22.43c.19.12.44,0,.64-.1a6.05,6.05,0,0,0,2.12-2.26l1,2.3a1,1,0,0,0,.43.57.7.7,0,0,0,.81-.28,2,2,0,0,0,.28-.87l.36-2.18a.56.56,0,0,1,.12-.31.52.52,0,0,1,.38-.11c.91,0,1.83,0,2.74,0,.15-.48-.33-.93-.8-1.14s-1-.36-1.25-.81c-.48-.92.75-2.21.23-3S867.34,154.58,866.54,155Z" transform="translate(-57 -44.32)" fill="#6c63ff" opacity="0.3"/></g><path d="M906.16,709.81a24.69,24.69,0,0,0,3.27-12.54c0-11.33-7-20.51-15.67-20.51s-15.67,9.18-15.67,20.51a24.69,24.69,0,0,0,3.27,12.54,25.68,25.68,0,0,0,0,25.08,25.68,25.68,0,0,0,0,25.08,25.68,25.68,0,0,0,0,25.08,24.72,24.72,0,0,0-3.27,12.54c0,11.33,7,20.52,15.67,20.52s15.67-9.19,15.67-20.52a24.72,24.72,0,0,0-3.27-12.54,25.68,25.68,0,0,0,0-25.08,25.68,25.68,0,0,0,0-25.08,25.68,25.68,0,0,0,0-25.08Z" transform="translate(-57 -44.32)" fill="#3f3d56"/><ellipse cx="836.76" cy="627.88" rx="15.67" ry="20.52" fill="#3f3d56"/><ellipse cx="836.76" cy="602.8" rx="15.67" ry="20.52" fill="#3f3d56"/><path d="M835.08,475.5a74.94,74.94,0,0,1-5.83-8.59l41.18-6.77-44.54.33A75.22,75.22,0,0,1,824.46,401l59.75,31L829.1,391.47a75.09,75.09,0,1,1,124,84,75.42,75.42,0,0,1,8.56,13.69L908.21,517l57-19.13a75.16,75.16,0,0,1-12.1,70.51,75.08,75.08,0,1,1-118,0,75.12,75.12,0,0,1,0-92.84Z" transform="translate(-57 -44.32)" fill="#6c63ff"/><path d="M969.17,521.92a74.79,74.79,0,0,1-16.06,46.42,75.08,75.08,0,1,1-118,0C825,555.56,969.17,513.49,969.17,521.92Z" transform="translate(-57 -44.32)" opacity="0.1"/><path d="M332.39,717.11a26.17,26.17,0,0,0,3.47-13.28c0-12-7.43-21.73-16.6-21.73s-16.6,9.73-16.6,21.73a26.17,26.17,0,0,0,3.47,13.28,27.15,27.15,0,0,0,0,26.56,27.15,27.15,0,0,0,0,26.56,27.13,27.13,0,0,0,0,26.55,26.23,26.23,0,0,0-3.47,13.28c0,12,7.43,21.73,16.6,21.73s16.6-9.73,16.6-21.73a26.23,26.23,0,0,0-3.47-13.28,27.13,27.13,0,0,0,0-26.55,27.15,27.15,0,0,0,0-26.56,27.15,27.15,0,0,0,0-26.56Z" transform="translate(-57 -44.32)" fill="#3f3d56"/><ellipse cx="262.26" cy="632.96" rx="16.6" ry="21.73" fill="#3f3d56"/><ellipse cx="262.26" cy="606.4" rx="16.6" ry="21.73" fill="#3f3d56"/><path d="M381.4,469a80.85,80.85,0,0,0,6.18-9.1L344,452.72l47.17.35a79.64,79.64,0,0,0,1.52-63L329.37,422.9,387.73,380a79.51,79.51,0,1,0-131.32,89,79.07,79.07,0,0,0-9.06,14.5L304,512.89l-60.37-20.26a79.59,79.59,0,0,0,12.82,74.66,79.51,79.51,0,1,0,125,0,79.53,79.53,0,0,0,0-98.31Z" transform="translate(-57 -44.32)" fill="#6c63ff"/><path d="M239.4,518.14a79.2,79.2,0,0,0,17,49.15,79.51,79.51,0,1,0,125,0C392.05,553.76,239.4,509.21,239.4,518.14Z" transform="translate(-57 -44.32)" opacity="0.1"/><ellipse cx="543" cy="784.84" rx="543" ry="26.53" fill="#3f3d56"/><path d="M639,728.83a1.75,1.75,0,0,0-1.2,1.06l-.19,0-.74-.12s-3.88-.32-4.6-.27a1.44,1.44,0,0,1-1.18-.67l-2.89-2.44-.22-.19.51-.18s-7.75-9.62-9.42-9.81-4.43-2.43-4.46-2.46l0-.15c-.06-.32-.1-.65-.14-1l.41.25h0c0-.11,0-.22,0-.34h0a6.24,6.24,0,0,1,1.16-3.3c.81-1.12,2-2,2.48-3.29a4.81,4.81,0,0,0,.25-1.73,5.72,5.72,0,0,0-.8-3,3.79,3.79,0,0,0-2.54-1.75c-.27,0-.55,0-.82-.11-1.62-.38-2.21-2.55-3.78-3.08a3.21,3.21,0,0,0-2.25.23c-.71.3-1.34.74-2,1.08a13,13,0,0,0-2.1,1.07l-.2.17h0l-.13.12h0a4.34,4.34,0,0,0-.67.88l0,.05s0,.07-.05.1l0,.08,0,.1,0,.09,0,.09,0,.1,0,.09,0,.11a.31.31,0,0,1,0,.08s0,.07,0,.11a.19.19,0,0,0,0,.08.37.37,0,0,0,0,.11v.19a.13.13,0,0,1,0,.06l0,.17h0a3.5,3.5,0,0,0,.75,1.06l-.09.09a6.82,6.82,0,0,0-2.1,4.93,7,7,0,0,0,.11,1.22,6.4,6.4,0,0,0-1.14-.69,10,10,0,0,0-4.26-1,29.57,29.57,0,0,1-5.79-.93,2.44,2.44,0,0,1,.19.52l-.48-.27a14.16,14.16,0,0,0-4.52-1.52s-1,.14-1.13-2a9.05,9.05,0,0,0-.36-1.94A33.79,33.79,0,0,1,583,695l-.32-3.11s1.51-8.07.6-11.49a2.39,2.39,0,0,0-.84-2.78c-3.8-2.8-7.64,8.11-7.64,8.11l-1.43,1.38a3.06,3.06,0,0,0-1.21-.46,6.75,6.75,0,0,0-1.3,2.93c-.28,1.14-2.22,3-4,4.57-1.24,1.09-2.44,2.22-3.63,3.35-.89.84-2.86,2-7.16,2.72l-1.85.3a5.71,5.71,0,0,0,.22-1.56,5.84,5.84,0,0,0-4.59-5.68,1.48,1.48,0,0,0,0-.42,1.73,1.73,0,0,0-.44-.79,8.36,8.36,0,0,0-3.23-2.8,4.21,4.21,0,0,0-1.75-.28H544a4.47,4.47,0,0,0-3.27,1.7c-.48.65-.77,1.41-1.19,2.1a9.44,9.44,0,0,1-3.26,3c-.77.46-1.59.87-2.32,1.4a8.71,8.71,0,0,0-3.22,8.69c.3,1.4.92,2.78.75,4.2a7.23,7.23,0,0,1-1.33,3,9.61,9.61,0,0,0-1.48,3,2.94,2.94,0,0,0,.92,3,7.24,7.24,0,0,1,1,.68,3.32,3.32,0,0,1,.47.74,7.37,7.37,0,0,0,4.57,3.55,3,3,0,0,0,.94.1h.1a1.57,1.57,0,0,0,1.7-.78,1.65,1.65,0,0,1,.16-.42.49.49,0,0,1,.28-.19,2.26,2.26,0,0,1,.67.25,8.49,8.49,0,0,0,3.23.91,3.62,3.62,0,0,0,.57,0,2.52,2.52,0,0,0,1.16-.16,2.44,2.44,0,0,0,.89-.77l.15-.2a16.24,16.24,0,0,1-1.46,4.52,8.26,8.26,0,0,0-1.09,3.95,3.92,3.92,0,0,0,.44,2.08l.11-.22a15.86,15.86,0,0,0,2.17,3,21.13,21.13,0,0,1-.21,4.69,9.7,9.7,0,0,0,3.71,10.68l1.23,2.7-5.07.36c-.51-.07-7.15-1-7.18.33s1,14.5,4.44,13.61c3.21-.83,2.15-4.67,2-5.18l.11,0-.12,0,2.56-2.43a1.11,1.11,0,0,0-.19-.84l0,0,6.19.28,1.45,3.18s2.47,3.76.47,6.92-4.08,8.11-4.41,11.1a12.22,12.22,0,0,1-2.74,5.66c-1.16.4-5.61,2.14-3.84,4.79,2,3,8.65,8.8,11.32,8.6s1.6-2.14,1.6-2.14l-2.23-2.18a53.84,53.84,0,0,1-.24-6,1.38,1.38,0,0,0-1-1.42c.21-1.51.74-4.35,1.88-5.93,1.61-2.21,6.75-11.92,6.75-11.92s1.63-1.45,1.27-5.77c-.15-1.74-.23-3.27-.28-4.48l5.82.26s6.24-.62,2-7.31-13.25-13.25-13.25-13.25l-.08-4.14.65.16s0-.15-.1-.42l.1,0A88.66,88.66,0,0,1,556.62,726l.37.17c3.87,4.48,6.48.69,6.48.69s8.18-11.49,7.38-11a.69.69,0,0,1-.54,0l.59-1.88s2.42-3.69-1.09-5.77c-2.86-1.69-2.79,3.62-2.66,5.63l-.14-.13s-2.74,4.12-4.21,6.43-2.7.79-2.7.79l-1.86-2.09a7.43,7.43,0,0,0,.44-2.62,4.42,4.42,0,0,0-1.26-3.39,5.92,5.92,0,0,1-1.87-3.93,4.12,4.12,0,0,1,.37-1.61l9.65-5.11s2,0,4.77-4.18a72.11,72.11,0,0,1,5.85-7.71l-.16-.22.16-.18s-.11-.16-.31-.41l1.49-1.72a22.75,22.75,0,0,0,0,2.33l.76,2.61.44,14.49s-.47,1.39,2.54,2.77c2.54,1.17,6.57,3.15,7.74,3.72a1.78,1.78,0,0,1-.07.17l.35,0,0,0h0c5.87-.53,5.67,5.33,5.67,5.33s.4,11.93-1.4,16.08a23.7,23.7,0,0,0-1.54,9.29s.18-.87,1.19.27l-.07.32c-.57,2.88-1.76,9-2,11.47a40.22,40.22,0,0,1-1.3,6.69l-.6,11,3.76.18,0,.39a1.2,1.2,0,0,1-.63,1c-1.29.7-4.32,3.15-4.08,10.69L588,787.8a15.37,15.37,0,0,1-1.83,5.86,3.74,3.74,0,0,0-.23.44.35.35,0,0,1,.1-.21s-1.95.4-1.55,5.67,1,6.2,1.8,6.26,4.71,1,4.51-.92-.4-6.26-.13-6.92,1.32-2.43.31-2.86h0a14.92,14.92,0,0,0,.42-3.69,24.18,24.18,0,0,1,3.37-4.25c1.4-1.16,2.16-3.12,2.67-5.64,0-.16,4.14-2.9,3.54-5.17q-.15-.58-.24-1c0-.15,0-.28-.07-.4h.08l.83-5v4.88l.5.06,0,.4-.21,4.67a7.57,7.57,0,0,1-.6,2.65,26,26,0,0,0-2.07,11.79l-.05,4.49c-.14,0-2.18.51-1.79,5.6.4,5.27,1,6.19,1.8,6.26s4.71,1,4.51-.92-.4-6.26-.14-6.92.73-2.4-.28-2.83a3.74,3.74,0,0,1,.42-1.69c.44-.75,1.91-4.31,3-7.05a25.35,25.35,0,0,0,1.86-8.71v-.1a8.2,8.2,0,0,1,.64-2.93,20.73,20.73,0,0,0,1.07-3.23c0-.13,0-.26.07-.38l.95.12,3.28-14.16s.89-7.68.46-11.15c0-.14,0-.28-.06-.4h.2s.67-1.71.47-9,1.33-9.62,1.33-9.62c.83-2.63,1.75-3.51,2.28-3.81h0a1.09,1.09,0,0,1,.46-.15l2.48,2.84h0l.46.52s0,0,0,0l.21.23a2.06,2.06,0,0,1,0-.35c1.32.77,4.38,2.56,6.2,3.85,2.38,1.68,3,1.49,5.11,1.31a13.78,13.78,0,0,0,4.11-1.35l.1,0a5,5,0,0,0,1,.39s3.36,2.84,3.68-2.35S639,728.83,639,728.83ZM551.9,789.26a5.11,5.11,0,0,1-1-.41Zm-5.25-56.18v.74l0,0C546.63,733.59,546.64,733.33,546.65,733.08Zm52.49,65.78v.29C599.08,799,599.05,799,599.14,798.86Z" transform="translate(-57 -44.32)" fill="url(#b77fcadf-efbd-44d1-9146-365d58ec581c)"/><rect x="547.16" y="668.2" width="5.7" height="5.99" fill="#6c63ff"/><path d="M597.23,781.72c-.5,2.5-1.24,4.45-2.62,5.6a24.17,24.17,0,0,0-3.31,4.22c0,4.1-1.11,5.34-1.11,5.34l-1.11.3h-2.75a12.82,12.82,0,0,1-.59-2.2,2.51,2.51,0,0,1,.43-1.22,15.43,15.43,0,0,0,1.8-5.82l.12-1.21c-.23-7.5,2.74-9.94,4-10.63a1.22,1.22,0,0,0,.62-1h0l.22-2.14,7.4.36a6,6,0,0,0,.13,2.16c0,.31.13.66.23,1.05C601.29,778.84,597.26,781.55,597.23,781.72Z" transform="translate(-57 -44.32)" fill="#a0616a"/><path d="M609.78,776.54a18.75,18.75,0,0,1-1,3.2,8.4,8.4,0,0,0-.63,2.92v.1a25.5,25.5,0,0,1-1.82,8.66c-1.09,2.72-2.53,6.26-3,7a5.76,5.76,0,0,0-.29,3.34l-4.17-.29.07-7a26.06,26.06,0,0,1,2-11.72,7.72,7.72,0,0,0,.58-2.63l.21-4.65.06-1.37s7.37-1.05,8,.62A3.66,3.66,0,0,1,609.78,776.54Z" transform="translate(-57 -44.32)" fill="#a0616a"/><path d="M597.23,781.72c-.5,2.5-1.24,4.45-2.62,5.6a24.17,24.17,0,0,0-3.31,4.22c0,4.1-1.11,5.34-1.11,5.34l-1.11.3h-2.75a12.82,12.82,0,0,1-.59-2.2,2.51,2.51,0,0,1,.43-1.22,15.43,15.43,0,0,0,1.8-5.82l.12-1.21c-.23-7.5,2.74-9.94,4-10.63a1.22,1.22,0,0,0,.62-1h0l.22-2.14,7.4.36a6,6,0,0,0,.13,2.16c0,.31.13.66.23,1.05C601.29,778.84,597.26,781.55,597.23,781.72Z" transform="translate(-57 -44.32)" fill="#8e5362"/><path d="M609.78,776.54a18.75,18.75,0,0,1-1,3.2,8.4,8.4,0,0,0-.63,2.92v.1a25.5,25.5,0,0,1-1.82,8.66c-1.09,2.72-2.53,6.26-3,7a5.76,5.76,0,0,0-.29,3.34l-4.17-.29.07-7a26.06,26.06,0,0,1,2-11.72,7.72,7.72,0,0,0,.58-2.63l.21-4.65.06-1.37s7.37-1.05,8,.62A3.66,3.66,0,0,1,609.78,776.54Z" transform="translate(-57 -44.32)" fill="#8e5362"/><path d="M600.47,775.53l-7.75-.38.22-2.14,7.4.36A6,6,0,0,0,600.47,775.53Z" transform="translate(-57 -44.32)" opacity="0.1"/><path d="M609.78,776.54l-8-1.08.06-1.37s7.37-1.05,8,.62A3.66,3.66,0,0,1,609.78,776.54Z" transform="translate(-57 -44.32)" opacity="0.1"/><path d="M614,762.2l-3.21,14.08-9.5-1.28v-4.84l-.82,5-11.39-.56.59-10.91a40.25,40.25,0,0,0,1.27-6.64c.22-2.47,1.39-8.55,2-11.4.18-1,.3-1.54.3-1.54s19.52,4.06,20.8,5.53a3.16,3.16,0,0,1,.45,1.5C614.88,754.57,614,762.2,614,762.2Z" transform="translate(-57 -44.32)" fill="#2f2e41"/><path d="M591.21,763.12s7.68-4,9.55-3.18Z" transform="translate(-57 -44.32)" opacity="0.1"/><path d="M595.4,750s6.38,4.85,6.58,6.16Z" transform="translate(-57 -44.32)" opacity="0.1"/><path d="M593.66,766.65s4.62-.19,6.09,1Z" transform="translate(-57 -44.32)" opacity="0.1"/><path d="M602,761.47s2.19,7.18,1.24,9.15-1.93-.46-1.93-.46Z" transform="translate(-57 -44.32)" opacity="0.1"/><path d="M598.9,798.92s-2.17.33-1.77,5.57,1,6.15,1.77,6.22,4.61,1,4.42-.92-.4-6.22-.13-6.87.71-2.39-.28-2.82l-.22,1s-2.09-1.93-3.34-.52a5.22,5.22,0,0,0-.25-1C599,799.27,598.7,799.11,598.9,798.92Z" transform="translate(-57 -44.32)" fill="#2f2e41"/><path d="M638.45,734.63s-.49.27-1.22.62a13.57,13.57,0,0,1-4,1.34c-2,.17-2.68.37-5-1.3-1.79-1.28-4.79-3.07-6.09-3.83l-.57-.34-.06,0v0l1.08-3,3.83-2,1,.82,2.83,2.43a1.4,1.4,0,0,0,1.15.66c.71-.05,4.52.27,4.52.27l.72.12,1.52.25Z" transform="translate(-57 -44.32)" fill="#a0616a"/><path d="M638.45,734.63s-.49.27-1.22.62c-.77-.39-1.72-1.13-1.35-2.34s.42-1.95.69-2.56l1.52.25Z" transform="translate(-57 -44.32)" opacity="0.1"/><path d="M637.94,729.32s4.27-1.23,3.95,3.93-3.61,2.33-3.61,2.33-2.8-.73-2.21-2.67S636.49,729.79,637.94,729.32Z" transform="translate(-57 -44.32)" fill="#a0616a"/><path d="M593.63,712.62l-4.45,1.87-.07,0-.05,0-.28-.14c-1.15-.57-5.1-2.53-7.59-3.7-3-1.37-2.49-2.75-2.49-2.75l-.43-14.41-.75-2.58s-.54-8.78,3.73-11,1.51,12.7,1.51,12.7l.31,3.1a34.44,34.44,0,0,0,1.17,5.85,8.51,8.51,0,0,1,.35,1.92c.13,2.1,1.11,2,1.11,2a13.67,13.67,0,0,1,4.43,1.5,12.08,12.08,0,0,1,1.47.93Z" transform="translate(-57 -44.32)" fill="#a0616a"/><path d="M609.48,719.5l-3.8-.4a14.33,14.33,0,0,0,1.61-3.29,5.48,5.48,0,0,0,.17-.67,2.29,2.29,0,0,0-.21-1.67c-1.11-1.64,6.62-3.93,6.62-3.93a18.92,18.92,0,0,0-.09,2.73,15.61,15.61,0,0,0,.2,1.88,4.72,4.72,0,0,0,1.59,3.09C618,718.91,609.48,719.5,609.48,719.5Z" transform="translate(-57 -44.32)" fill="#8e5362"/><path d="M609.48,719.5l-3.8-.4a14.33,14.33,0,0,0,1.61-3.29c.44.63.59.61,1.21.74,0,0,3.83.57,5.48-2.4a4.72,4.72,0,0,0,1.59,3.09C618,718.91,609.48,719.5,609.48,719.5Z" transform="translate(-57 -44.32)" opacity="0.1"/><path d="M622.1,731.46a2.11,2.11,0,0,0,0,.35l-.59-.69,0,0,1.08-3,3.83-2,1,.82C626,727.38,622.17,729,622.1,731.46Z" transform="translate(-57 -44.32)" opacity="0.1"/><path d="M593.63,712.62l-4.45,1.87h-.12l-.34,0,.06-.17c.37-.9,2.1-5.3,1.35-7.38a12.08,12.08,0,0,1,1.47.93Z" transform="translate(-57 -44.32)" opacity="0.1"/><path d="M614.45,751.12c-1.73-.16-19.07-1.76-20.69-4.31a8.49,8.49,0,0,0-.86-1.18c.18-1,.3-1.54.3-1.54s19.52,4.06,20.8,5.53A3.16,3.16,0,0,1,614.45,751.12Z" transform="translate(-57 -44.32)" opacity="0.1"/><path d="M608.5,716.74s3.87.58,5.51-2.44c0,0,2.74,2.25,4.38,2.45s9.23,9.75,9.23,9.75-6.09,2-5.7,5.11L619,728.27s-1.44-.06-2.68,3.93c0,0-1.51,2.29-1.31,9.56s-.46,9-.46,9-19.13-1.64-20.83-4.33-2-1.37-2-1.37a23.89,23.89,0,0,1,1.5-9.24c1.77-4.12,1.38-16,1.38-16s.19-5.83-5.57-5.3c0,0,2.42-5.64,1.31-7.8a28.57,28.57,0,0,0,5.68.93,9.78,9.78,0,0,1,4.18,1,4.65,4.65,0,0,1,1.73,1.31,2.55,2.55,0,0,0,3,.85,30,30,0,0,0,1.71,4.2l.23.42c.12.19.23.38.35.55A1.39,1.39,0,0,0,608.5,716.74Z" transform="translate(-57 -44.32)" fill="#f86d70"/><path d="M613.78,712.27a6.75,6.75,0,0,1-.69.83,6.85,6.85,0,0,1-4.92,2.07c-.24,0-.48,0-.71,0a2.29,2.29,0,0,0-.21-1.67c-1.11-1.64,6.62-3.93,6.62-3.93A18.92,18.92,0,0,0,613.78,712.27Z" transform="translate(-57 -44.32)" opacity="0.1"/><path d="M615.05,708.1a6.88,6.88,0,1,1-6.88-6.88A6.83,6.83,0,0,1,615.05,708.1Z" transform="translate(-57 -44.32)" fill="#a0616a"/><path d="M618.45,723.82l.14,4.6s2.06-1.65,2.12-3.23S618.45,723.82,618.45,723.82Z" transform="translate(-57 -44.32)" opacity="0.1"/><path d="M601.88,728.42s5.41,7.42,8.55,8.17S603.06,730.83,601.88,728.42Z" transform="translate(-57 -44.32)" opacity="0.1"/><path d="M607.61,729.19s3,3.4,5.18,3.83Z" transform="translate(-57 -44.32)" opacity="0.1"/><path d="M597,737.77s5.5,5.4,8.65,5.73Z" transform="translate(-57 -44.32)" opacity="0.1"/><path d="M615.05,708.1a6.83,6.83,0,0,1-2,4.8l-.76-.46a2.15,2.15,0,0,1-.73-.64,2.55,2.55,0,0,1-.16-1.43,3.35,3.35,0,0,0-1-2.78c-1.31-1-3.4-.47-4.71-1.49a5,5,0,0,1-.84-.93l-1.24-1.66-.26-.32a6.88,6.88,0,0,1,11.7,4.91Z" transform="translate(-57 -44.32)" opacity="0.1"/><path d="M604,699.3a12.46,12.46,0,0,1,2.05-1.07c.68-.34,1.3-.78,2-1.08a3.07,3.07,0,0,1,2.2-.22c1.54.53,2.12,2.68,3.71,3.06.26.06.54.06.81.11a3.73,3.73,0,0,1,2.49,1.73,5.89,5.89,0,0,1,.79,3,5,5,0,0,1-.25,1.72c-.47,1.28-1.64,2.16-2.44,3.27a6.24,6.24,0,0,0-1.14,3.62l-1.92-1.19a2.15,2.15,0,0,1-.73-.64,2.53,2.53,0,0,1-.16-1.42,3.37,3.37,0,0,0-1-2.79c-1.31-1-3.4-.46-4.71-1.49a4.4,4.4,0,0,1-.84-.93c-.41-.55-.83-1.1-1.24-1.66a4.73,4.73,0,0,1-.9-1.25C602.44,701.12,603.33,699.82,604,699.3Z" transform="translate(-57 -44.32)" fill="#2f2e41"/><path d="M612.55,712a2.06,2.06,0,0,1-.74-.63,2.55,2.55,0,0,1-.16-1.43,3.32,3.32,0,0,0-1-2.78c-1.3-1-3.39-.47-4.71-1.49a5,5,0,0,1-.84-.93c-.41-.55-.82-1.11-1.24-1.66a4.62,4.62,0,0,1-.9-1.26,2.86,2.86,0,0,1,.91-2.37,3,3,0,0,0-1.12,2.59,4.73,4.73,0,0,0,.9,1.25c.41.56.83,1.11,1.24,1.66a4.4,4.4,0,0,0,.84.93c1.31,1,3.4.45,4.71,1.49a3.37,3.37,0,0,1,1,2.79,2.53,2.53,0,0,0,.16,1.42,2.15,2.15,0,0,0,.73.64l1.92,1.19c0-.11,0-.23,0-.34Z" transform="translate(-57 -44.32)" opacity="0.1"/><path d="M586.05,794s-1.92.4-1.53,5.64,1,6.16,1.77,6.22,4.62,1,4.42-.91-.39-6.22-.13-6.88,1.3-2.42.31-2.85l-.8,1s-2.09-1.93-3.34-.53C586.75,795.73,585.59,794.45,586.05,794Z" transform="translate(-57 -44.32)" fill="#2f2e41"/><path d="M587.26,797.24c.41.19.8.44,1.21.64a2.76,2.76,0,0,0,1.32.31,1,1,0,0,0,.54-.19" transform="translate(-57 -44.32)" opacity="0.1"/><path d="M599.85,802.38a9.37,9.37,0,0,0,.71.7,2.49,2.49,0,0,0,1.38.28.61.61,0,0,0,.23,0,.48.48,0,0,0,.21-.19l.26-.33" transform="translate(-57 -44.32)" opacity="0.1"/><path d="M567.56,715.24s-.88-8.39,2.56-6.32,1.06,5.73,1.06,5.73l-.8,2.59Z" transform="translate(-57 -44.32)" fill="#ffc1c7"/><path d="M573.06,688.45l2-1.93s3.76-10.84,7.5-8.06-4.74,9.83-4.74,9.83l-2.24,2.62Z" transform="translate(-57 -44.32)" fill="#ffc1c7"/><path d="M544.31,731.32l-.1,2.22s1.8,3.15,2.56,3.38.68-6.65.68-6.65Z" transform="translate(-57 -44.32)" fill="#f86d70"/><path d="M544.11,731.51l-.1,2.23s1.81,3.14,2.56,3.37.69-6.64.69-6.64Z" transform="translate(-57 -44.32)" opacity="0.1"/><polygon points="490.32 684.56 490.45 692.77 499.59 692.77 498.9 687.99 490.32 684.56" fill="#ffc1c7"/><path d="M549.45,749.36l.43,2.62,5.33,11.86s2.43,3.73.46,6.87-4,8.06-4.32,11-2.91,5.9-2.91,5.9l5.63,2.39s.39-4.69,2-6.88,6.62-11.86,6.62-11.86,1.6-1.44,1.24-5.73-.32-7.3-.32-7.3l-.56-6.84Z" transform="translate(-57 -44.32)" fill="#2f2e41"/><path d="M549.45,749.36l.43,2.62,5.33,11.86s2.43,3.73.46,6.87-4,8.06-4.32,11-2.91,5.9-2.91,5.9l5.63,2.39s.39-4.69,2-6.88,6.62-11.86,6.62-11.86,1.6-1.44,1.24-5.73-.32-7.3-.32-7.3l-.56-6.84Z" transform="translate(-57 -44.32)" opacity="0.1"/><path d="M548.93,787.29s-6,1.83-4,4.84,8.48,8.75,11.1,8.55,1.57-2.13,1.57-2.13l-2.19-2.16a53.89,53.89,0,0,1-.23-5.93c.16-1.34-1.87-2-2.13-1.18S548.93,787.29,548.93,787.29Z" transform="translate(-57 -44.32)" fill="#f86d70"/><path d="M552.73,733.6l-4.78.52a1.72,1.72,0,0,0-1.53,1.75c.05,1.91.09,5-.18,5.5A9.71,9.71,0,0,0,549.88,752l7.1,2.26-11.39.82.36,6.32,1.76-1,21.62,1s6.12-.62,2-7.27-13-13.16-13-13.16l-.1-5.18-.65-1.5Z" transform="translate(-57 -44.32)" fill="#2f2e41"/><path d="M558.65,754.14a6.18,6.18,0,0,1,4.92,0Z" transform="translate(-57 -44.32)" opacity="0.1"/><path d="M546.14,755s-7-1-7.07.33,1,14.4,4.35,13.52,1.94-5.21,1.94-5.21l2.52-2.42s.26-1.34-1.41-1.21Z" transform="translate(-57 -44.32)" fill="#f86d70"/><path d="M557.8,718.38l2.79,3.18s1.21,1.5,2.65-.79,4.12-6.38,4.12-6.38,3,2.62,3.77,2.09-7.24,10.91-7.24,10.91-2.55,3.76-6.35-.69l-1.11-.52Z" transform="translate(-57 -44.32)" fill="#f86d70"/><path d="M557.61,718.38l2.78,3.18s1.21,1.5,2.65-.79,4.13-6.38,4.13-6.38,3,2.62,3.76,2.09-7.23,10.91-7.23,10.91-2.56,3.76-6.36-.69l-1.11-.52Z" transform="translate(-57 -44.32)" opacity="0.1"/><circle cx="492.29" cy="655.36" r="5.8" fill="#ffc1c7"/><path d="M549.29,702.79s-5,2.36-4.39,6.49a91.24,91.24,0,0,1,.69,9.33s2.26,3.34-.74,9.73c0,0-1.92,3.24-.64,5.6,0,0,1.42-3.74,5.08-1s9.56,4,9.56,4-3.05-13.36-1.18-15.23c0,0,3.24-4.81.3-7.85s-1.48-5.9-1.48-5.9l9.47-5.08s2,0,4.68-4.15a70.8,70.8,0,0,1,5.73-7.67s-2-3-3.93-3.27a6.81,6.81,0,0,0-1.28,2.91c-.28,1.13-2.17,3-3.89,4.54-1.21,1.08-2.39,2.21-3.56,3.33-.87.84-2.81,2-7,2.71C549.75,702.43,549.29,702.79,549.29,702.79Z" transform="translate(-57 -44.32)" opacity="0.1"/><path d="M549.29,702.4s-5,2.36-4.39,6.48a91.54,91.54,0,0,1,.69,9.34s2.26,3.34-.74,9.72c0,0-1.92,3.25-.64,5.6,0,0,1.42-3.73,5.08-1s9.56,4,9.56,4-3.05-13.36-1.18-15.23c0,0,3.24-4.81.3-7.86s-1.48-5.89-1.48-5.89l9.47-5.08s2,0,4.68-4.16a71.26,71.26,0,0,1,5.73-7.66s-2-3.05-3.93-3.28a6.91,6.91,0,0,0-1.28,2.92c-.28,1.13-2.17,3-3.89,4.54-1.21,1.08-2.39,2.2-3.56,3.33-.87.83-2.81,2-7,2.71C549.75,702,549.29,702.4,549.29,702.4Z" transform="translate(-57 -44.32)" fill="#f86d70"/><path d="M553.58,727.09s3.86,5.7,4,6.68C557.54,733.77,557,727.65,553.58,727.09Z" transform="translate(-57 -44.32)" opacity="0.1"/><path d="M548.5,707.9a4.76,4.76,0,0,0,6.59.53A8.38,8.38,0,0,1,548.5,707.9Z" transform="translate(-57 -44.32)" opacity="0.1"/><path d="M550.59,693.61a1.79,1.79,0,0,0-.42-.79A8.4,8.4,0,0,0,547,690a4.38,4.38,0,0,0-5,1.42c-.47.64-.76,1.41-1.17,2.09a9.23,9.23,0,0,1-3.19,3c-.76.47-1.56.87-2.28,1.4a8.71,8.71,0,0,0-3.15,8.64c.28,1.39.89,2.77.73,4.18a7.47,7.47,0,0,1-1.3,3,9.35,9.35,0,0,0-1.46,3,2.94,2.94,0,0,0,.9,3,5.34,5.34,0,0,1,1,.68,2.94,2.94,0,0,1,.47.73,7.18,7.18,0,0,0,4.48,3.53c.85.22,2,.14,2.29-.68a1.46,1.46,0,0,1,.16-.41c.28-.4.89-.17,1.32,0a8.08,8.08,0,0,0,3.18.91,2.56,2.56,0,0,0,1.29-.15,2.38,2.38,0,0,0,.88-.76,9.35,9.35,0,0,0,1.51-4.79,11.4,11.4,0,0,0,0-3.3c-.33-1.74-1.39-3.37-1.23-5.13s1.69-3.43,1.93-5.31a4.06,4.06,0,0,0-.69-2.79,4.25,4.25,0,0,1-.53-.82.82.82,0,0,1,.16-.9,1.3,1.3,0,0,1,.41-.2,3.42,3.42,0,0,0,2-3,6.16,6.16,0,0,1,.13-1.42C550.05,695.21,550.7,694.4,550.59,693.61Z" transform="translate(-57 -44.32)" opacity="0.1"/><path d="M550.2,693.61a1.81,1.81,0,0,0-.43-.79A8.37,8.37,0,0,0,546.6,690a4.38,4.38,0,0,0-5,1.42,23.74,23.74,0,0,0-1.17,2.09,9.23,9.23,0,0,1-3.19,3c-.76.47-1.56.87-2.28,1.4a8.74,8.74,0,0,0-3.16,8.64c.29,1.39.9,2.77.74,4.18a7.35,7.35,0,0,1-1.31,3,9.33,9.33,0,0,0-1.45,3,2.94,2.94,0,0,0,.9,3,5.68,5.68,0,0,1,1,.68,2.91,2.91,0,0,1,.46.73,7.23,7.23,0,0,0,4.49,3.53c.85.22,2,.14,2.29-.68a1.46,1.46,0,0,1,.16-.41c.28-.4.89-.17,1.32,0a8,8,0,0,0,3.17.91,2.6,2.6,0,0,0,1.3-.15,2.28,2.28,0,0,0,.87-.76,9.26,9.26,0,0,0,1.51-4.79,11.06,11.06,0,0,0,0-3.3c-.33-1.74-1.39-3.37-1.24-5.13s1.7-3.43,1.93-5.31a4,4,0,0,0-.69-2.79,4.72,4.72,0,0,1-.52-.82.82.82,0,0,1,.16-.9,1.12,1.12,0,0,1,.41-.2,3.41,3.41,0,0,0,2-3,6.77,6.77,0,0,1,.14-1.42C549.66,695.21,550.31,694.4,550.2,693.61Z" transform="translate(-57 -44.32)" fill="#2f2e41"/><g opacity="0.1"><path d="M538.49,723.6a1.46,1.46,0,0,0-.16.41,1.33,1.33,0,0,1-1.2.77c.75.07,1.54-.1,1.79-.77a1.46,1.46,0,0,1,.16-.41.47.47,0,0,1,.2-.17A.67.67,0,0,0,538.49,723.6Z" transform="translate(-57 -44.32)"/><path d="M550.21,693.61a1.71,1.71,0,0,0-.43-.79,8.21,8.21,0,0,0-3.17-2.78,4,4,0,0,0-1.81-.27A3.66,3.66,0,0,1,546,690a8.21,8.21,0,0,1,3.17,2.78,1.71,1.71,0,0,1,.43.79c.11.79-.54,1.6-.76,2.33a6.16,6.16,0,0,0-.13,1.42,3.44,3.44,0,0,1-2,3,1.12,1.12,0,0,0-.41.2.81.81,0,0,0-.16.9,4.25,4.25,0,0,0,.53.82,4,4,0,0,1,.69,2.79c-.24,1.88-1.77,3.42-1.94,5.3s.91,3.4,1.24,5.14a11.06,11.06,0,0,1,0,3.3,9.31,9.31,0,0,1-1.5,4.79,2.38,2.38,0,0,1-.88.76,2,2,0,0,1-.64.16,2.69,2.69,0,0,0,1.23-.16,2.38,2.38,0,0,0,.88-.76,9.31,9.31,0,0,0,1.5-4.79,11.06,11.06,0,0,0,0-3.3c-.33-1.74-1.39-3.37-1.24-5.14s1.7-3.42,1.94-5.3a4,4,0,0,0-.69-2.79,4.25,4.25,0,0,1-.53-.82.81.81,0,0,1,.16-.9,1.12,1.12,0,0,1,.41-.2,3.41,3.41,0,0,0,2-3,6.77,6.77,0,0,1,.14-1.42C549.67,695.21,550.32,694.4,550.21,693.61Z" transform="translate(-57 -44.32)"/></g><path d="M542.77,763a2.66,2.66,0,0,0,2.72.75" transform="translate(-57 -44.32)" opacity="0.1"/><path d="M555.36,796.56a1.66,1.66,0,0,1-1.36.35" transform="translate(-57 -44.32)" opacity="0.1"/><path d="M250.3,801.21l13.32-7.83a32.17,32.17,0,0,0-6.81-8.15l-25.12,7.82,19.68-11.58A32,32,0,0,0,204,809.54c0,17.67,14.33,18.29,32,18.29s32-.62,32-18.29a31.79,31.79,0,0,0-2.75-13Z" transform="translate(-57 -44.32)" fill="#6c63ff"/><path d="M253.69,818.39a25,25,0,0,0-4.72-3.71c-2.41-1.6-4.92-3.24-7.77-3.79-2.5-.48-5.08-.07-7.63-.22a17.83,17.83,0,0,1-11.69-5.36c-1.82-1.88-3.25-4.19-5.44-5.62a11.91,11.91,0,0,0-8.14-1.5,19.82,19.82,0,0,0-2.41.5A32,32,0,0,0,204,809.54c0,17.67,14.33,18.29,32,18.29,8.58,0,16.36-.15,22.11-2.32l-1-1.79A25.13,25.13,0,0,0,253.69,818.39Z" transform="translate(-57 -44.32)" opacity="0.1"/><path d="M1030.3,801.21l13.32-7.83a32.17,32.17,0,0,0-6.81-8.15l-25.12,7.82,19.68-11.58A32,32,0,0,0,984,809.54c0,17.67,14.33,18.29,32,18.29s32-.62,32-18.29a31.79,31.79,0,0,0-2.75-13Z" transform="translate(-57 -44.32)" fill="#6c63ff"/><path d="M1033.69,818.39a25,25,0,0,0-4.72-3.71c-2.41-1.6-4.92-3.24-7.77-3.79-2.5-.48-5.08-.07-7.63-.22a17.83,17.83,0,0,1-11.69-5.36c-1.82-1.88-3.25-4.19-5.44-5.62a11.91,11.91,0,0,0-8.14-1.5,19.82,19.82,0,0,0-2.41.5A32,32,0,0,0,984,809.54c0,17.67,14.33,18.29,32,18.29,8.58,0,16.36-.15,22.11-2.32l-1-1.79A25.13,25.13,0,0,0,1033.69,818.39Z" transform="translate(-57 -44.32)" opacity="0.1"/><path d="M388.83,787.53l-10.41-6.12a25.42,25.42,0,0,1,5.32-6.36l19.63,6.1-15.38-9A25,25,0,0,1,425,794c0,13.81-11.19,14.29-25,14.29s-25-.48-25-14.29a24.87,24.87,0,0,1,2.15-10.14Z" transform="translate(-57 -44.32)" fill="#6c63ff"/><path d="M386.18,801a19.46,19.46,0,0,1,3.68-2.89,17.07,17.07,0,0,1,6.07-3c2-.38,4-.06,6-.17a14,14,0,0,0,9.13-4.19c1.42-1.47,2.54-3.28,4.25-4.4a9.3,9.3,0,0,1,6.36-1.17,16.94,16.94,0,0,1,1.88.39A24.82,24.82,0,0,1,425,794c0,13.81-11.19,14.29-25,14.29-6.7,0-12.78-.12-17.27-1.81l.75-1.4A19.23,19.23,0,0,1,386.18,801Z" transform="translate(-57 -44.32)" opacity="0.1"/><path d="M468.83,787.53l-10.41-6.12a25.42,25.42,0,0,1,5.32-6.36l19.63,6.1-15.38-9A25,25,0,0,1,505,794c0,13.81-11.19,14.29-25,14.29s-25-.48-25-14.29a24.87,24.87,0,0,1,2.15-10.14Z" transform="translate(-57 -44.32)" fill="#6c63ff"/><path d="M466.18,801a19.46,19.46,0,0,1,3.68-2.89,17.07,17.07,0,0,1,6.07-3c2-.38,4-.06,6-.17a14,14,0,0,0,9.13-4.19c1.42-1.47,2.54-3.28,4.25-4.4a9.3,9.3,0,0,1,6.36-1.17,16.94,16.94,0,0,1,1.88.39A24.82,24.82,0,0,1,505,794c0,13.81-11.19,14.29-25,14.29-6.7,0-12.78-.12-17.27-1.81l.75-1.4A19.23,19.23,0,0,1,466.18,801Z" transform="translate(-57 -44.32)" opacity="0.1"/><path d="M759.83,787.53l-10.41-6.12a25.42,25.42,0,0,1,5.32-6.36l19.63,6.1-15.38-9A25,25,0,0,1,796,794c0,13.81-11.19,14.29-25,14.29s-25-.48-25-14.29a24.87,24.87,0,0,1,2.15-10.14Z" transform="translate(-57 -44.32)" fill="#6c63ff"/><path d="M757.18,801a19.46,19.46,0,0,1,3.68-2.89,17.07,17.07,0,0,1,6.07-3c2-.38,4-.06,6-.17a14,14,0,0,0,9.13-4.19c1.42-1.47,2.54-3.28,4.25-4.4a9.3,9.3,0,0,1,6.36-1.17,16.94,16.94,0,0,1,1.88.39A24.82,24.82,0,0,1,796,794c0,13.81-11.19,14.29-25,14.29-6.7,0-12.78-.12-17.27-1.81l.75-1.4A19.23,19.23,0,0,1,757.18,801Z" transform="translate(-57 -44.32)" opacity="0.1"/><path d="M502.84,723.29a20.74,20.74,0,0,0,2.74-10.49c0-9.48-5.88-17.17-13.12-17.17s-13.12,7.69-13.12,17.17a20.74,20.74,0,0,0,2.74,10.49,21.47,21.47,0,0,0,0,21,21.45,21.45,0,0,0,0,21,21.47,21.47,0,0,0,0,21,20.71,20.71,0,0,0-2.74,10.49c0,9.48,5.88,17.17,13.12,17.17s13.12-7.69,13.12-17.17a20.71,20.71,0,0,0-2.74-10.49,21.47,21.47,0,0,0,0-21,21.45,21.45,0,0,0,0-21,21.47,21.47,0,0,0,0-21Z" transform="translate(-57 -44.32)" fill="#3f3d56"/><ellipse cx="435.46" cy="647.5" rx="13.12" ry="17.17" fill="#3f3d56"/><ellipse cx="435.46" cy="626.52" rx="13.12" ry="17.17" fill="#3f3d56"/><path d="M541.56,527.23a63.07,63.07,0,0,0,4.88-7.19L512,514.38l37.27.28a62.95,62.95,0,0,0,1.2-49.78l-50,25.94,46.11-33.89a62.82,62.82,0,1,0-103.76,70.3,62.94,62.94,0,0,0-7.16,11.46l44.73,23.24-47.7-16a62.89,62.89,0,0,0,10.13,59,62.82,62.82,0,1,0,98.76,0,62.84,62.84,0,0,0,0-77.68Z" transform="translate(-57 -44.32)" fill="#6c63ff"/><path d="M429.36,566.07a62.51,62.51,0,0,0,13.44,38.84,62.82,62.82,0,1,0,98.76,0C550,594.23,429.36,559,429.36,566.07Z" transform="translate(-57 -44.32)" opacity="0.1"/><path d="M694.36,707.8a26.22,26.22,0,0,0,3.46-13.28c0-12-7.43-21.73-16.6-21.73s-16.6,9.73-16.6,21.73a26.23,26.23,0,0,0,3.47,13.28,27.13,27.13,0,0,0,0,26.55,27.15,27.15,0,0,0,0,26.56,27.15,27.15,0,0,0,0,26.56,26.2,26.2,0,0,0-3.47,13.28c0,12,7.44,21.73,16.6,21.73s16.6-9.73,16.6-21.73a26.19,26.19,0,0,0-3.46-13.28,27.22,27.22,0,0,0,0-26.56,27.22,27.22,0,0,0,0-26.56,27.2,27.2,0,0,0,0-26.55Z" transform="translate(-57 -44.32)" fill="#3f3d56"/><ellipse cx="624.22" cy="623.65" rx="16.6" ry="21.73" fill="#3f3d56"/><ellipse cx="624.22" cy="597.09" rx="16.6" ry="21.73" fill="#3f3d56"/><path d="M619.09,459.66a77.42,77.42,0,0,1-6.18-9.1l43.61-7.16-47.17.35a79.64,79.64,0,0,1-1.52-63l63.29,32.83-58.37-42.9a79.51,79.51,0,1,1,131.32,89,79.66,79.66,0,0,1,9.07,14.5l-56.62,29.42,60.37-20.26A79.51,79.51,0,0,1,744.07,558a79.51,79.51,0,1,1-125,0,79.51,79.51,0,0,1,0-98.32Z" transform="translate(-57 -44.32)" fill="#6c63ff"/><path d="M761.09,508.82a79.15,79.15,0,0,1-17,49.16,79.51,79.51,0,1,1-125,0C608.43,544.45,761.09,499.9,761.09,508.82Z" transform="translate(-57 -44.32)" opacity="0.1"/></svg>