<svg id="a2995fdc-ba4a-4390-a70c-27b90cf54d89" data-name="Layer 1" xmlns="http://www.w3.org/2000/svg" width="908.62314" height="777.89947" viewBox="0 0 908.62314 777.89947"><title>social_distancing</title><ellipse cx="123.57123" cy="330.54811" rx="95.37247" ry="194.59837" fill="#7c38b5"/><path d="M268.38406,393.61678c4.7574-84.70728,14.34278-141.9244,14.43909-142.49248l-2.07973-.35229c-.09631.5686-9.69868,57.8774-14.46381,142.69386-4.39739,78.28064-5.45837,196.68479,14.4633,316.21379l2.08075-.3461C262.936,590.00748,263.99439,471.78256,268.38406,393.61678Z" transform="translate(-145.68843 -61.05027)" fill="#3f3d56"/><rect x="262.97947" y="375.08617" width="97.80632" height="2.10972" transform="translate(-286.27613 130.6363) rotate(-28.1569)" fill="#3f3d56"/><rect x="219.80149" y="350.35844" width="2.10972" height="97.80632" transform="translate(-381.06222 344.64643) rotate(-61.8584)" fill="#3f3d56"/><ellipse cx="784.89356" cy="252.45832" rx="123.72957" ry="252.45832" fill="#7c38b5"/><path d="M929.07915,316.0948C935.252,206.18367,947.69,131.94294,947.815,131.20564l-1.97168-.334c-.125.73779-12.5791,75.06542-18.75928,185.08007-5.70459,101.5376-7.08057,255.11768,18.75879,410.15284l1.97266-.32813C922.00835,570.93269,923.38237,417.52351,929.07915,316.0948Z" transform="translate(-145.68843 -61.05027)" fill="#3f3d56"/><rect x="922.43432" y="292.45509" width="126.88732" height="2.00012" transform="translate(-167.49547 438.9048) rotate(-28.1571)" fill="#3f3d56"/><rect x="866.7871" y="260.00661" width="2.00012" height="126.88732" transform="translate(27.59148 875.04534) rotate(-61.8584)" fill="#3f3d56"/><ellipse cx="635.81992" cy="478.96817" rx="46.22863" ry="94.32509" fill="#e6e6e6"/><path d="M781.46764,544.08223l.27362.51159,41.79785-22.37207-.94336-1.76367-41.041,21.967c2.27112-41.80139,6.91614-69.86267,7.00977-70.41522l-1.97168-.334c-.10223.6034-5.62122,33.92652-7.58014,82.1449l-41.39349-22.15564-.94336,1.76367,41.79785,22.37207.499-.9328c-1.56732,39.79737-.68884,89.55964,7.61969,139.41034l1.97266-.32812C779.50633,639.59779,779.30681,585.34749,781.46764,544.08223Z" transform="translate(-145.68843 -61.05027)" fill="#3f3d56"/><path d="M1015.74556,746.816c-246.23242-77.94726-469.50879-73.79492-613.45459-56.585C246.3437,708.87559,147.38716,746.41954,146.4062,746.79649l-.71777-1.86719c.98389-.37793,100.17334-38.01074,256.36524-56.68457a1486.92035,1486.92035,0,0,1,276.89013-7.083,1444.325,1444.325,0,0,1,337.40528,63.748Z" transform="translate(-145.68843 -61.05027)" fill="#3f3d56"/><path d="M462.20019,724.78684s.69057-14.46983,14.84713-12.78791" transform="translate(-145.68843 -61.05027)" fill="#3f3d56"/><circle cx="312.51176" cy="642.88148" r="7.08526" fill="#7c38b5"/><rect x="311.35889" y="654.81263" width="2" height="14" fill="#3f3d56"/><path d="M720.20019,727.78684s.69057-14.46983,14.84713-12.78791" transform="translate(-145.68843 -61.05027)" fill="#3f3d56"/><circle cx="570.51176" cy="645.88148" r="7.08526" fill="#7c38b5"/><rect x="569.35889" y="657.81263" width="2" height="14" fill="#3f3d56"/><path d="M295.20019,702.78684s.69057-14.46983,14.84713-12.78791" transform="translate(-145.68843 -61.05027)" fill="#3f3d56"/><circle cx="145.51176" cy="620.88148" r="7.08526" fill="#7c38b5"/><rect x="144.35889" y="632.81263" width="2" height="14" fill="#3f3d56"/><path d="M404.20019,683.78684s.69057-14.46983,14.84713-12.78791" transform="translate(-145.68843 -61.05027)" fill="#3f3d56"/><circle cx="254.51176" cy="601.88148" r="7.08526" fill="#7c38b5"/><rect x="253.35889" y="613.81263" width="2" height="14" fill="#3f3d56"/><path d="M677.20019,710.78684s.69057-14.46983,14.84713-12.78791" transform="translate(-145.68843 -61.05027)" fill="#3f3d56"/><circle cx="527.51176" cy="628.88148" r="7.08526" fill="#7c38b5"/><rect x="526.35889" y="640.81263" width="2" height="14" fill="#3f3d56"/><path d="M984.7021,681.77975l41.15828,61.0278L987.5406,781.12733l-4.96738-9.93476,8.51551-19.86951s-1.41925-18.45027-6.38663-23.41765-26.96577-34.77165-26.96577-34.77165Z" transform="translate(-145.68843 -61.05027)" fill="#ffb8b8"/><path d="M932.18981,484.50385s7.80435,12.35225-8.517,65.57417c0,0,76.13,128.48795,64.06637,137.00346s-44.70886,27.361-53.22437,21.684S864.06576,510.76,864.06576,510.76Z" transform="translate(-145.68843 -61.05027)" fill="#2f2e41"/><path d="M1018.40931,731.80835l12.41845,12.41845c6.38663,6.38663,10.64439,15.61176-1.41925,23.41764S975.477,804.545,961.28446,795.31984s17.031-17.74064,17.031-17.74064,5.163-19.14312,7.90367-14.89375,2.74071,12.76488,2.74071,12.76488Z" transform="translate(-145.68843 -61.05027)" fill="#2f2e41"/><path d="M868.32351,715.13215s-22.708,41.86791-22.708,46.83529,1.41925,19.15989,1.41925,19.15989l-43.28716,10.64438-14.90213-7.09625,4.96738-12.77326s26.96577-9.22513,32.64277-26.96577,12.06364-36.19091,12.06364-36.19091Z" transform="translate(-145.68843 -61.05027)" fill="#ffb8b8"/><circle cx="748.89122" cy="207.72741" r="29.80427" fill="#ffb8b8"/><path d="M886.77377,294.3242l14.22936,40.88508L932.18981,321.29S910.901,288.64719,910.901,284.38944Z" transform="translate(-145.68843 -61.05027)" fill="#ffb8b8"/><path d="M882.516,439.79744h37.61015s26.96578,41.15828,11.354,84.44544c-2.39072,6.62882-4.764,15.91425-7.13271,26.89228-5.44757,25.2469-10.87142,59.44586-16.42968,90.87152-7.80743,44.1422-15.88,82.81253-24.65611,83.51462-17.74064,1.41925-52.23873,1.18244-52.23873-5.91382s23.108-212.39562,23.108-212.39562l4.96738-8.5155.93889-37.0924A22.37292,22.37292,0,0,1,882.516,439.79744Z" transform="translate(-145.68843 -61.05027)" fill="#2f2e41"/><path d="M845.26068,761.61263s8.16069,13.8377,6.03182,23.77245-5.677,8.51551-21.28877,9.93476S761.17,796.73909,761.17,786.80433s41.51765-22.83651,41.69278-18.86932,1.59438,11.77307-2.66337,13.19232-.35482.35481-.35482.35481Z" transform="translate(-145.68843 -61.05027)" fill="#2f2e41"/><path d="M886.77975,528.37025s-3.08711,50.40877-23.6759,35.40206,8.02355-42.1147,8.02355-42.1147Z" transform="translate(-145.68843 -61.05027)" fill="#fff"/><path d="M927.87211,461.98051a5.97691,5.97691,0,0,0,6.11867-.72426,6.26925,6.26925,0,0,0,2.32148-3.95407c2.97657-17.16055,6.60075-64.73426,8.68825-88.79059,2.61936-30.18586-10.46455-53.5657-10.57424-53.708l-7.71042-10.60184a6.0519,6.0519,0,0,0-7.24767-2.03428S895.39669,327.142,895.308,328.10625c-.37768,4.14064-3.24252,13.31657-18.17514,28.2492-16.33872,16.33871-16.4295,30.59879-16.06776,34.58039q.03561.39265.03644.78467A17.50508,17.50508,0,0,0,861.82111,397c6.84364,21.5755,1.48429,47.40621-7.122,74.36917a6.08122,6.08122,0,0,0,2.45109,6.599c2.51349,1.71-.5007-.82731.39588.2713,5.93143,7.268,14.46694-2.86172,24.23053-13.91462,3.40121-3.85027,7.25633-8.2144,11.7996-12.75767,6.24665-6.247,18.18242,8.00789,23.73192,8.00789A25.77032,25.77032,0,0,1,927.87211,461.98051Z" transform="translate(-145.68843 -61.05027)" fill="#575a89"/><path d="M931.18174,325.81116s15.58848,13.14643,6.7324,30.19594-7.67868,29.62436-7.67868,29.62436-2.35783,117.12469-30.03044,111.4341l-12.5875,34.75249-22.73355-8.2052,13.14558-30.65251s-10.529-.6548-7.45237-7.8288c2.16091-5.03874,13.80288-59.71868,20.54161-91.82185,2.85564-13.60421,4.83077-23.15415,4.83077-23.15415S904.90629,322.264,931.18174,325.81116Z" transform="translate(-145.68843 -61.05027)" fill="#575a89"/><polygon points="788.763 324.281 779.998 381.79 784.727 320.297 788.763 324.281" opacity="0.2"/><path d="M862.06229,255.57216s-5.01067-38.99525,35.873-26.2078c0,0,29.1994-5.35766,38.775,31.16631l9.696,38.28613-4.72533-2.572-2.203,4.81545-7.65722,1.93919-3.27672-6.50366-1.58513,7.89789-62.71687,6.25234s28.08963-16.612,28.53506-46.38472l-5.35049,5.65407Z" transform="translate(-145.68843 -61.05027)" fill="#2f2e41"/><polygon points="763.014 583.199 776.999 490.013 765.625 590.611 763.014 583.199" opacity="0.2"/><circle cx="785.86943" cy="168.69591" r="15.77018" fill="#2f2e41"/><path d="M915.30806,225.8854a15.75777,15.75777,0,0,1,15.76272-14.73946c-.32565-.04131-.64837-.09154-.98042-.11288a15.77018,15.77018,0,1,0-2.02364,31.47537c.332.02135.65854.01287.9868.0136A15.75777,15.75777,0,0,1,915.30806,225.8854Z" transform="translate(-145.68843 -61.05027)" fill="#2f2e41"/><polygon points="740.865 342.202 726.99 416.567 744.974 334.43 740.865 342.202" opacity="0.2"/><path d="M887.41861,290.2558l-8.0868,6.0971c-8.32851-4.19115-14.575-13.88834-16.84527-23.14382l8.81225-4.44638C871.99144,278.20274,878.69229,284.4787,887.41861,290.2558Z" transform="translate(-145.68843 -61.05027)" fill="#fff"/><path d="M890.77691,270.106H870.62713a.67166.67166,0,0,1,0-1.34332h20.14978a.67166.67166,0,0,1,0,1.34332Z" transform="translate(-145.68843 -61.05027)" fill="#fff"/><path d="M886.747,290.2558a.67107.67107,0,0,1-.62312-.92091l5.37327-13.43319a.67113.67113,0,1,1,1.24625.4985l-5.37328,13.43319A.67052.67052,0,0,1,886.747,290.2558Z" transform="translate(-145.68843 -61.05027)" fill="#fff"/><ellipse cx="746.44397" cy="210.09264" rx="4.92818" ry="6.89945" fill="#ffb8b8"/><polygon points="399.191 230.876 451.677 242.887 473.853 201.062 428.974 183.54 399.191 230.876" fill="#2f2e41"/><path d="M572.76549,517.07715s-16.87156,38.664-16.87156,49.91169c0,0,6.67833,30.5797,4.56938,39.01548L553.082,621.82141l-15.46559-6.32683-4.21789-42.1789.703-67.48624Z" transform="translate(-145.68843 -61.05027)" fill="#ffb9b9"/><path d="M582.25574,285.79618s1.406,23.1984-1.406,30.22821,10.54472,20.38647,10.54472,20.38647L612.484,308.99458s-14.05963-14.05963-10.54472-29.52523Z" transform="translate(-145.68843 -61.05027)" fill="#ffb9b9"/><path d="M538.31939,446.42749s-20.38647,37.961-.703,35.14908S550.62157,445.373,550.62157,445.373" transform="translate(-145.68843 -61.05027)" fill="#e6e6e6"/><polyline points="404.933 384.323 411.611 317.891 411.26 277.47 395.794 280.281 395.794 317.539 392.631 385.377" fill="#ffb9b9"/><path d="M533.75,610.5737,563.97822,598.623l3.51491,59.75344S573.82,676.654,571.711,683.6838c0,0,1.406,11.95068-2.10895,12.65367s-13.35665,2.10894-14.05963,1.406-.703-2.81193-.703-2.81193-7.02982,4.92087-7.7328,10.54473c0,0-29.52523,9.13876-30.22821.703s14.76261-15.4656,14.76261-15.4656l11.95069-18.27752Z" transform="translate(-145.68843 -61.05027)" fill="#2f2e41"/><path d="M635.68235,517.07715s-16.87156,38.664-16.87156,49.91169c0,0,6.67832,30.5797,4.56938,39.01548l-7.38131,15.81709-15.4656-6.32683-4.21789-42.1789.703-67.48624Z" transform="translate(-145.68843 -61.05027)" fill="#ffb9b9"/><path d="M597.72134,610.5737,627.94955,598.623l3.51491,59.75344s6.32683,18.27752,4.21789,25.30734c0,0,1.406,11.95068-2.109,12.65367s-13.35665,2.10894-14.05963,1.406-.703-2.81193-.703-2.81193-7.02982,4.92087-7.7328,10.54473c0,0-29.52523,9.13876-30.22821.703s14.76261-15.4656,14.76261-15.4656l11.95069-18.27752Z" transform="translate(-145.68843 -61.05027)" fill="#2f2e41"/><path d="M611.78584,269.631a22.4967,22.4967,0,0,1-44.44619,4.92186,21.79764,21.79764,0,0,1-.55068-4.92186,22.49844,22.49844,0,0,1,44.99687,0Z" transform="translate(-145.68843 -61.05027)" fill="#ffb9b9"/><path d="M592.09748,314.61843l17.45674-9.06537,7.8506,6.25344s18.98051-.703,26.01033,7.7328S654.31136,349.416,654.31136,349.416s-23.19839-4.92087-20.38647,14.76262L629.707,352.93093l-3.8664,9.49025-47.09977,16.16858L557.65138,342.7377s-14.05963-4.21789-18.9805,5.62385c0,0,1.05447-35.50057,14.76261-36.555,9.21905-.70915,16.16858-.703,16.16858-.703l7.7328-1.406,4.95194-1.75745Z" transform="translate(-145.68843 -61.05027)" fill="#575a89"/><path d="M621.97412,391.595s36.90662,110.71956,26.3619,126.18516c0,0-39.367,19.68348-118.10092-7.02982l31.9856-124.07624Q591.69189,380.647,621.97412,391.595Z" transform="translate(-145.68843 -61.05027)" fill="#2f2e41"/><path d="M621.97412,391.595l10.38705-35.69436c-12.45993-13.55038-1.70576-43.59776-1.70576-43.59776l-15.03427-3.22163s-15.08788,40.68629-30.55347,35.76542-7.02982-36.555-7.02982-36.555l-14.05963,1.406-6.32684,24.60436,4.56932,52.37215C581.27734,385.03955,601.26367,386.94165,621.97412,391.595Z" transform="translate(-145.68843 -61.05027)" fill="#575a89"/><polyline points="494.563 384.323 499.484 317.539 500.89 277.47 485.425 280.281 485.425 317.539 482.261 385.377" fill="#ffb9b9"/><path d="M627.94955,446.42749s-20.38647,37.961-.703,35.14908S640.25173,445.373,640.25173,445.373" transform="translate(-145.68843 -61.05027)" fill="#fff"/><path d="M654.31136,349.416s-2.49889-36.10212-23.39337-35.97709v41.7504S646.57856,345.90111,654.31136,349.416Z" transform="translate(-145.68843 -61.05027)" fill="#575a89"/><path d="M596.48087,275.43624a.57367.57367,0,0,1-.35852-1.0218l11.47291-9.17833a.57392.57392,0,1,1,.717.89632l-11.47291,9.17833A.57433.57433,0,0,1,596.48087,275.43624Z" transform="translate(-145.68843 -61.05027)" fill="#fff"/><path d="M597.3491,289.20374c-.25237.30972-.50474.61951-.76859.90633a22.498,22.498,0,0,1-31.24086-15.55726l10.87124-2,21.13821,2C592.50757,280.4499,593.0927,282.492,597.3491,289.20374Z" transform="translate(-145.68843 -61.05027)" fill="#fff"/><path d="M576.58438,238.14142s-11.62689,2.187-14.31567,16.68788a26.62077,26.62077,0,0,0-.2277,7.40429c.26848,2.79126-.121,8.68672-6.18175,15.62856a151.96767,151.96767,0,0,0-11.03539,14.17242h0l12.14907,3.23424L562.40111,275.14a102.97,102.97,0,0,1,12.03225-27.655l.1116-.17906s4.03511,10.7817,14.8503,12.25976l-3.33469-4.39044s12.643,7.30862,19.806,9.54126a4.7063,4.7063,0,0,1,1.51868,8.1838q-.0762.05994-.15523.12c-5.26853,4.00163-16.01675,13.54991-11.77049,22.78659s-.70555,10.92077-.70555,10.92077l9.13111-3.47375,4.17929-1.78966-.4223,3.09005,20.40208.42743s5.51317-.03349-4.27975-14.74985c0,0-2.36295-5.51806-.42307-9.73367a22.393,22.393,0,0,0,2.2614-10.26077C624.986,255.40061,618.73585,225.21642,576.58438,238.14142Z" transform="translate(-145.68843 -61.05027)" fill="#2f2e41"/><path d="M290.38435,660.7632s0,95.4619-21.90929,120.50109c0,0-4.69485,12.5196-6.2598,17.21445a65.79875,65.79875,0,0,1-3.12989,7.82474v6.2598s-42.25363-4.69485-46.94848-15.64949l7.82474-9.3897s1.56495-1.56495,0-6.2598,3.1299-4.69484,3.1299-4.69484l10.95465-25.03919L232.48123,648.2436,240.306,505.83322l67.29282-3.1299Z" transform="translate(-145.68843 -61.05027)" fill="#2f2e41"/><path d="M255.95547,803.17358s10.95464,32.86394,0,34.42889-106.41655,3.1299-104.8516-9.3897,32.86393-10.95464,32.86393-10.95464l32.86394-20.34434Z" transform="translate(-145.68843 -61.05027)" fill="#2f2e41"/><path d="M352.98232,505.83322s3.1299,20.34434-9.38969,42.25363-4.69485,95.46191-4.69485,95.46191l111.1114,97.02685s-21.90929,37.55878-29.734,35.99384S288.8194,674.84774,288.8194,674.84774L240.306,512.093Z" transform="translate(-145.68843 -61.05027)" fill="#2f2e41"/><path d="M448.48225,736.429s33.62247,8.341,29.07974,18.43142-54.32622,91.5584-64.06288,83.53426,8.341-33.62247,8.341-33.62247l.41015-38.64922Z" transform="translate(-145.68843 -61.05027)" fill="#2f2e41"/><path d="M327.943,214.75529a35.79163,35.79163,0,0,1-8.02355,22.63684,35.90387,35.90387,0,0,1-34.93408,12.67061,34.92342,34.92342,0,0,1-9.24888-3.18261,35.97122,35.97122,0,0,1-18.73706-23.51835,35.453,35.453,0,0,1-1.04585-8.60649,35.99471,35.99471,0,1,1,71.98942,0Z" transform="translate(-145.68843 -61.05027)" fill="#a0616a"/><path d="M320.26988,227.45253l-1.592,46.31734-30.28613,11.96646s-2.97008-47.42592-7.16265-50.05519S320.26988,227.45253,320.26988,227.45253Z" transform="translate(-145.68843 -61.05027)" fill="#a0616a"/><path d="M280.99466,291.43516s42.25363-42.25363,53.20827-40.68868,10.95465,6.2598,10.95465,9.3897-3.1299,4.69485,0,6.2598,6.25979,0,6.25979,4.69484,28.16909,51.64333,18.7794,103.28666-20.34434,76.68251-15.6495,104.8516,1.56495,34.42888,1.56495,34.42888S238.741,523.04766,237.17608,512.093s4.69484-4.69485-3.1299-12.5196-4.69485-7.82475-4.69485-12.51959S263.78021,291.43516,280.99466,291.43516Z" transform="translate(-145.68843 -61.05027)" fill="#575a89"/><path d="M302.904,504.26827S284.12455,549.6518,270.04,538.69715s6.2598-48.51343,6.2598-48.51343Z" transform="translate(-145.68843 -61.05027)" fill="#fff"/><path d="M348.28748,294.56506s36.76854,4.20949,23.07911,71.745S304.4689,512.093,304.4689,512.093l-35.99384-17.21445,46.94848-92.332L304.4689,344.64344S298.2091,289.87022,348.28748,294.56506Z" transform="translate(-145.68843 -61.05027)" fill="#575a89"/><polygon points="170.518 342.279 118.874 428.351 123.569 433.046 170.518 342.279" opacity="0.2"/><polygon points="197.853 382.389 156.433 450.26 170.518 450.26 197.853 382.389" opacity="0.2"/><rect x="268.4153" y="563.38362" width="2.22678" height="115.56155" transform="translate(-349.35204 75.77956) rotate(-20.87686)" opacity="0.2"/><circle cx="135.52808" cy="236.75108" r="2.22625" fill="#d0cde1"/><line x1="135.52808" y1="236.75108" x2="116.60494" y2="297.973" fill="none"/><path d="M262.29338,360.13639a1.11255,1.11255,0,0,0,1.06312-.78484l18.92314-61.22137a1.11282,1.11282,0,1,0-2.12625-.65766L261.23025,358.695a1.114,1.114,0,0,0,1.06313,1.44141Z" transform="translate(-145.68843 -61.05027)" fill="#d0cde1"/><path d="M284.73145,242.32291l-8.995,8.55722c-9.26383-4.66183-18.2118-17.22344-20.73706-27.51835l11.8019-4.94573C267.57175,228.91625,275.02513,235.897,284.73145,242.32291Z" transform="translate(-145.68843 -61.05027)" fill="#fff"/><path d="M286.97418,222.89859a.74632.74632,0,0,1-.10652-.0073l-20.9185-2.98836a.74721.74721,0,1,1,.21012-1.47958l20.9185,2.98835a.74714.74714,0,0,1-.1036,1.48689Z" transform="translate(-145.68843 -61.05027)" fill="#fff"/><path d="M283.98436,242.32291a.7464.7464,0,0,1-.65078-1.11334l6.931-12.33865a.74677.74677,0,1,1,1.30157.7325l-6.931,12.33865A.74537.74537,0,0,1,283.98436,242.32291Z" transform="translate(-145.68843 -61.05027)" fill="#fff"/><path d="M308.24058,236.38118c-2.91392-1.54067-6.29879-1.85831-9.45277-2.81594-11.284-3.4261-18.84319-16.18211-16.42984-27.72523a14.14679,14.14679,0,0,0,.59266-4.56945c-.42187-3.41873-3.92005-5.62462-7.27446-6.40793s-6.92345-.66954-10.12956-1.92914c-4.95028-1.94484-8.23855-7.03211-8.95138-12.30275s.85107-10.64613,3.39478-15.317l1.21166,3.48662a12.9329,12.9329,0,0,0,3.959-5.92118,8.15635,8.15635,0,0,1,6.21452,4.9975c1.94489,1.14685,2.22506-3.56292,4.37334-4.25772.89956-.29094,1.82459.26175,2.68142.66138,4.32884,2.019,9.35827.29275,14.00184-.82639a52.709,52.709,0,0,1,24.46832-.02881c5.3451,1.27491,10.6358,3.495,14.46058,7.44041,3.14109,3.24017,5.09822,7.43011,6.76463,11.62394,4.10226,10.32412,6.81231,21.49515,5.45807,32.52157a46.03362,46.03362,0,0,1-10.84846,24.3902C329.63751,242.96991,319.532,255.42,313.991,253.29741,307.02865,250.63029,316.444,240.71857,308.24058,236.38118Z" transform="translate(-145.68843 -61.05027)" fill="#2f2e41"/></svg>