<?xml version="1.0" encoding="UTF-8" standalone="no"?>
<!-- Created with Inkscape (http://www.inkscape.org/) -->

<svg
   xmlns:dc="http://purl.org/dc/elements/1.1/"
   xmlns:cc="http://creativecommons.org/ns#"
   xmlns:rdf="http://www.w3.org/1999/02/22-rdf-syntax-ns#"
   xmlns:svg="http://www.w3.org/2000/svg"
   xmlns="http://www.w3.org/2000/svg"
   xmlns:sodipodi="http://sodipodi.sourceforge.net/DTD/sodipodi-0.dtd"
   xmlns:inkscape="http://www.inkscape.org/namespaces/inkscape"
   width="470.98843"
   height="431.66071"
   id="svg2"
   version="1.1"
   inkscape:version="0.47 r22583"
   sodipodi:docname="baby crying.svg">
  <defs
     id="defs4">
    <inkscape:perspective
       sodipodi:type="inkscape:persp3d"
       inkscape:vp_x="0 : 526.18109 : 1"
       inkscape:vp_y="0 : 1000 : 0"
       inkscape:vp_z="744.09448 : 526.18109 : 1"
       inkscape:persp3d-origin="372.04724 : 350.78739 : 1"
       id="perspective10" />
    <inkscape:perspective
       id="perspective3602"
       inkscape:persp3d-origin="0.5 : 0.33333333 : 1"
       inkscape:vp_z="1 : 0.5 : 1"
       inkscape:vp_y="0 : 1000 : 0"
       inkscape:vp_x="0 : 0.5 : 1"
       sodipodi:type="inkscape:persp3d" />
    <inkscape:perspective
       id="perspective3626"
       inkscape:persp3d-origin="0.5 : 0.33333333 : 1"
       inkscape:vp_z="1 : 0.5 : 1"
       inkscape:vp_y="0 : 1000 : 0"
       inkscape:vp_x="0 : 0.5 : 1"
       sodipodi:type="inkscape:persp3d" />
    <inkscape:perspective
       id="perspective3662"
       inkscape:persp3d-origin="0.5 : 0.33333333 : 1"
       inkscape:vp_z="1 : 0.5 : 1"
       inkscape:vp_y="0 : 1000 : 0"
       inkscape:vp_x="0 : 0.5 : 1"
       sodipodi:type="inkscape:persp3d" />
    <inkscape:perspective
       id="perspective3701"
       inkscape:persp3d-origin="0.5 : 0.33333333 : 1"
       inkscape:vp_z="1 : 0.5 : 1"
       inkscape:vp_y="0 : 1000 : 0"
       inkscape:vp_x="0 : 0.5 : 1"
       sodipodi:type="inkscape:persp3d" />
    <inkscape:perspective
       id="perspective3723"
       inkscape:persp3d-origin="0.5 : 0.33333333 : 1"
       inkscape:vp_z="1 : 0.5 : 1"
       inkscape:vp_y="0 : 1000 : 0"
       inkscape:vp_x="0 : 0.5 : 1"
       sodipodi:type="inkscape:persp3d" />
    <inkscape:perspective
       id="perspective3752"
       inkscape:persp3d-origin="0.5 : 0.33333333 : 1"
       inkscape:vp_z="1 : 0.5 : 1"
       inkscape:vp_y="0 : 1000 : 0"
       inkscape:vp_x="0 : 0.5 : 1"
       sodipodi:type="inkscape:persp3d" />
    <inkscape:perspective
       id="perspective3776"
       inkscape:persp3d-origin="0.5 : 0.33333333 : 1"
       inkscape:vp_z="1 : 0.5 : 1"
       inkscape:vp_y="0 : 1000 : 0"
       inkscape:vp_x="0 : 0.5 : 1"
       sodipodi:type="inkscape:persp3d" />
    <inkscape:perspective
       id="perspective3814"
       inkscape:persp3d-origin="0.5 : 0.33333333 : 1"
       inkscape:vp_z="1 : 0.5 : 1"
       inkscape:vp_y="0 : 1000 : 0"
       inkscape:vp_x="0 : 0.5 : 1"
       sodipodi:type="inkscape:persp3d" />
  </defs>
  <sodipodi:namedview
     id="base"
     pagecolor="#ffffff"
     bordercolor="#666666"
     borderopacity="1.0"
     inkscape:pageopacity="0.0"
     inkscape:pageshadow="2"
     inkscape:zoom="0.7"
     inkscape:cx="150.97359"
     inkscape:cy="256.52015"
     inkscape:document-units="px"
     inkscape:current-layer="layer1"
     showgrid="false"
     inkscape:window-width="1600"
     inkscape:window-height="838"
     inkscape:window-x="-8"
     inkscape:window-y="-8"
     inkscape:window-maximized="1" />
  <metadata
     id="metadata7">
    <rdf:RDF>
      <cc:Work
         rdf:about="">
        <dc:format>image/svg+xml</dc:format>
        <dc:type
           rdf:resource="http://purl.org/dc/dcmitype/StillImage" />
        <dc:title />
      </cc:Work>
    </rdf:RDF>
  </metadata>
  <g
     inkscape:label="Camada 1"
     inkscape:groupmode="layer"
     id="layer1"
     transform="translate(-111.64864,-270.79077)">
    <g
       id="g2873">
      <path
         sodipodi:nodetypes="cssssscssscssssssssssssscscsss"
         d="m 526.36049,551.65266 c -2.41679,11.81056 -7.45623,24.76252 -12.04662,35.61543 -9.18079,21.70582 -22.46559,41.25314 -38.88164,57.66919 -32.83212,32.83212 -78.18926,53.1392 -128.28938,53.1392 -50.10011,0 -95.45726,-20.30708 -128.28937,-53.1392 -16.41606,-16.41605 -29.70085,-35.96337 -38.88164,-57.66919 -4.59039,-10.85291 -8.15477,-22.24544 -12.04662,-35.61543 -5.81768,0.27733 -10.59213,1.29302 -15.6038,1.29302 -20.04671,0 -36.29778,-16.25106 -36.29778,-36.29777 0,-20.04672 16.25107,-36.29779 36.29778,-36.29779 5.01169,0 9.78614,1.01569 15.60378,1.29303 3.89185,-13.37001 7.45624,-24.76253 12.04664,-35.61545 4.5904,-10.85289 10.20679,-21.16618 16.72759,-30.81824 6.52082,-9.65206 13.94602,-18.6429 22.15405,-26.85094 8.20803,-8.20802 17.19886,-15.63323 26.85093,-22.15404 9.65206,-6.5208 19.96535,-12.1372 30.81825,-16.72759 10.85291,-4.59041 22.24544,-8.1548 34.05601,-10.57158 11.81056,-2.41679 24.03915,-3.68598 36.56418,-3.68598 12.52503,0 24.75363,1.26919 36.56418,3.68598 11.81056,2.41678 23.2031,5.98117 34.056,10.57158 10.85292,4.59039 21.1662,10.20679 30.81826,16.72759 9.65206,6.52081 18.6429,13.94602 26.85094,22.15404 8.20802,8.20804 15.63324,17.19888 22.15404,26.85094 6.52081,9.65206 12.1372,19.96535 16.7276,30.81824 4.59039,10.85292 8.15478,22.24544 12.04662,35.61545 5.81766,-0.27734 10.59211,-1.29303 15.60379,-1.29303 20.04671,0 36.29779,16.25107 36.29779,36.29779 0,10.02335 -4.06277,19.09779 -10.63138,25.6664 -6.56861,6.5686 -15.64305,10.63137 -25.66641,10.63137 -5.01168,0 -11.26118,0.54375 -15.60379,-1.29302 z"
         style="fill:#f2dcc3;fill-opacity:1;stroke:none"
         id="path3592-1-5" />
      <path
         sodipodi:nodetypes="cssssscssscssssssssssssscscsss"
         d="m 526.36049,551.65266 c -2.41679,11.81056 -7.45623,24.76251 -12.04662,35.61543 -9.18079,21.70582 -22.46559,41.25313 -38.88164,57.66919 -32.83212,32.83211 -78.18926,53.13919 -128.28938,53.13919 -50.10011,0 -95.45726,-20.30708 -128.28937,-53.13919 -16.41606,-16.41606 -29.70085,-35.96337 -38.88164,-57.66919 -4.59039,-10.85292 -8.15478,-22.24544 -12.04663,-35.61543 -5.81767,0.27733 -10.59212,1.29302 -15.60379,1.29302 -20.04671,0 -36.29778,-16.25107 -36.29778,-36.29777 0,-20.04672 16.25107,-36.29779 36.29778,-36.29779 5.01169,0 9.78614,1.01569 15.60378,1.29302 3.89185,-13.37 7.45624,-24.76253 12.04664,-35.61544 4.5904,-10.85289 10.20679,-21.16618 16.72759,-30.81824 6.52081,-9.65206 13.94602,-18.6429 22.15405,-26.85094 8.20803,-8.20802 17.19887,-15.63323 26.85093,-22.15405 9.65206,-6.52079 19.96535,-12.13719 30.81825,-16.72759 10.85291,-4.5904 22.24544,-8.15479 34.05601,-10.57157 11.81056,-2.41679 24.03915,-3.68598 36.56418,-3.68598 12.52503,0 24.75363,1.26919 36.56419,3.68598 11.81055,2.41678 23.20309,5.98117 34.056,10.57157 10.85291,4.5904 21.16619,10.2068 30.81825,16.72759 9.65206,6.52082 18.6429,13.94603 26.85094,22.15405 8.20802,8.20804 15.63324,17.19888 22.15404,26.85094 6.52081,9.65206 12.1372,19.96535 16.7276,30.81824 4.59039,10.85291 8.15478,22.24544 12.04662,35.61544 5.81766,-0.27733 10.59211,-1.29302 15.60379,-1.29302 20.04671,0 36.29779,16.25107 36.29779,36.29779 0,10.02335 -4.06277,19.09779 -10.63138,25.66639 -6.56861,6.56861 -15.64305,10.63138 -25.66641,10.63138 -5.01168,0 -11.26118,0.54374 -15.60379,-1.29302 z"
         style="fill:none;stroke:#000000;stroke-width:8.75;stroke-miterlimit:4;stroke-opacity:1;stroke-dashoffset:0"
         id="path3592-1" />
      <g
         id="g3838">
        <path
           style="fill:none;stroke:#000000;stroke-width:3;stroke-linecap:butt;stroke-linejoin:miter;stroke-miterlimit:4;stroke-opacity:1;stroke-dasharray:none"
           d="m 137.76647,506.81838 c 0,0 13.84864,2.73934 16.5436,8.28713 2.57889,5.30883 -3.55245,17.34618 -3.55245,17.34618 l 0,0"
           id="path3646"
           sodipodi:nodetypes="cscc" />
        <path
           style="fill:none;stroke:#000000;stroke-width:3;stroke-linecap:butt;stroke-linejoin:miter;stroke-miterlimit:4;stroke-opacity:1;stroke-dasharray:none"
           d="m 154.0912,514.92185 -16.59661,7.33329"
           id="path3648" />
      </g>
      <g
         id="g3842">
        <path
           style="fill:none;stroke:#000000;stroke-width:3;stroke-linecap:butt;stroke-linejoin:miter;stroke-miterlimit:4;stroke-opacity:1;stroke-dasharray:none"
           d="m 555.37917,506.13445 c 0,0 -13.55719,3.9359 -15.75838,9.69746 -2.10638,5.5134 5.05076,16.97056 5.05076,16.97056 l 0,0"
           id="path3646-0"
           sodipodi:nodetypes="cscc" />
        <path
           style="fill:none;stroke:#000000;stroke-width:3;stroke-linecap:butt;stroke-linejoin:miter;stroke-miterlimit:4;stroke-opacity:1;stroke-dasharray:none"
           d="m 540.11081,514.89268 16.59661,7.33329"
           id="path3648-9" />
      </g>
      <g
         id="g3902">
        <g
           id="g3897">
          <path
             transform="translate(-37.428592,45.714273)"
             d="m 307.14287,440.93362 a 18.571428,18.571428 0 1 1 -37.14286,0 18.571428,18.571428 0 1 1 37.14286,0 z"
             sodipodi:ry="18.571428"
             sodipodi:rx="18.571428"
             sodipodi:cy="440.93362"
             sodipodi:cx="288.57144"
             id="path3616"
             style="fill:#000000;fill-opacity:1;stroke:#000000;stroke-width:8.75;stroke-miterlimit:4;stroke-opacity:1;stroke-dasharray:none;stroke-dashoffset:0"
             sodipodi:type="arc" />
          <path
             transform="matrix(4.771236,0,0,4.771236,-997.76182,-1636.5634)"
             d="m 264.15488,443.2402 a 1.5152289,1.5152289 0 1 1 -3.03046,0 1.5152289,1.5152289 0 1 1 3.03046,0 z"
             sodipodi:ry="1.5152289"
             sodipodi:rx="1.5152289"
             sodipodi:cy="443.2402"
             sodipodi:cx="262.63965"
             id="path3640"
             style="fill:#ffffff;fill-opacity:1;stroke:none"
             sodipodi:type="arc" />
          <path
             transform="matrix(2.385618,0,0,2.385618,-381.20395,-557.16159)"
             d="m 264.15488,443.2402 a 1.5152289,1.5152289 0 1 1 -3.03046,0 1.5152289,1.5152289 0 1 1 3.03046,0 z"
             sodipodi:ry="1.5152289"
             sodipodi:rx="1.5152289"
             sodipodi:cy="443.2402"
             sodipodi:cx="262.63965"
             id="path3640-2"
             style="fill:#ffffff;fill-opacity:1;stroke:none"
             sodipodi:type="arc" />
        </g>
      </g>
      <path
         sodipodi:nodetypes="cszzsc"
         id="path4014"
         d="m 422.90551,498.87315 c -3.82615,7.11677 -8.97592,15.13157 -10.6569,23.0335 -0.7774,3.65434 -1.30883,7.46974 2.04537,10.99775 3.35421,3.52802 14.46501,3.51301 18.02435,0 3.55933,-3.51301 2.18009,-7.42284 1.18045,-10.99775 -2.244,-8.02501 -6.89727,-16.28864 -10.59327,-23.0335 z"
         style="fill:#abebef;fill-opacity:1;stroke:#3fd1da;stroke-width:5;stroke-linecap:butt;stroke-linejoin:miter;stroke-miterlimit:4;stroke-opacity:1;stroke-dasharray:none" />
      <g
         id="g3892">
        <path
           sodipodi:type="arc"
           style="fill:#000000;fill-opacity:1;stroke:#000000;stroke-width:8.75;stroke-miterlimit:4;stroke-opacity:1;stroke-dasharray:none;stroke-dashoffset:0"
           id="path3616-8"
           sodipodi:cx="288.57144"
           sodipodi:cy="440.93362"
           sodipodi:rx="18.571428"
           sodipodi:ry="18.571428"
           d="m 307.14287,440.93362 a 18.571428,18.571428 0 1 1 -37.14286,0 18.571428,18.571428 0 1 1 37.14286,0 z"
           transform="translate(154.57141,45.714273)" />
        <path
           sodipodi:type="arc"
           style="fill:#ffffff;fill-opacity:1;stroke:none"
           id="path3640-8"
           sodipodi:cx="262.63965"
           sodipodi:cy="443.2402"
           sodipodi:rx="1.5152289"
           sodipodi:ry="1.5152289"
           d="m 264.15488,443.2402 a 1.5152289,1.5152289 0 1 1 -3.03046,0 1.5152289,1.5152289 0 1 1 3.03046,0 z"
           transform="matrix(4.771236,0,0,4.771236,-805.76178,-1636.5634)" />
        <path
           sodipodi:type="arc"
           style="fill:#ffffff;fill-opacity:1;stroke:none"
           id="path3640-8-4"
           sodipodi:cx="262.63965"
           sodipodi:cy="443.2402"
           sodipodi:rx="1.5152289"
           sodipodi:ry="1.5152289"
           d="m 264.15488,443.2402 a 1.5152289,1.5152289 0 1 1 -3.03046,0 1.5152289,1.5152289 0 1 1 3.03046,0 z"
           transform="matrix(2.385618,0,0,2.385618,-189.20391,-557.16159)" />
      </g>
      <path
         sodipodi:nodetypes="cscsssss"
         id="path3792"
         d="m 350.35146,388.97623 c -17.33003,2.48944 -34.76659,-15.32626 -30.6325,-32.46525 2.07521,-8.60333 8.8657,-15.08275 14.75078,-21.39652 9.63184,-9.42536 23.01565,-17.06869 36.8546,-14.81497 6.96657,1.13453 11.7948,9.56803 8.32626,16.24634 -4.82496,9.28997 -14.50011,16.15316 -24.7325,17.06435 -32.94623,2.93385 -51.03936,-20.69416 -36.17916,-50.01515 9.19086,-18.13468 30.34809,-26.28365 49.35463,-30.30426"
         style="fill:none;stroke:#000000;stroke-width:5;stroke-linecap:butt;stroke-linejoin:miter;stroke-miterlimit:4;stroke-opacity:1;stroke-dasharray:none" />
      <path
         sodipodi:nodetypes="ccsss"
         id="path3799"
         d="m 367.37161,550.83452 c 1.11094,2.62654 1.72526,5.51427 1.72526,8.54549 0,6.06243 -2.45729,11.55094 -6.43018,15.52384 -3.9729,3.9729 -9.46141,6.43019 -15.52384,6.43019 -3.03122,0 -5.91895,-0.61432 -8.54549,-1.72526"
         style="fill:none;stroke:#000000;stroke-width:5;stroke-miterlimit:4;stroke-opacity:1;stroke-dasharray:none" />
      <path
         sodipodi:nodetypes="cc"
         id="path3804"
         d="m 243.60221,644.96587 c 69.02709,-51.51962 138.05419,-52.28873 207.08128,0"
         style="fill:none;stroke:#000000;stroke-width:5;stroke-linecap:butt;stroke-linejoin:miter;stroke-miterlimit:4;stroke-opacity:1;stroke-dasharray:none" />
    </g>
  </g>
</svg>
