<svg xmlns="http://www.w3.org/2000/svg" id="b1e55c18-19aa-4dcf-8e98-b72f0689681d" width="974.917" height="611.895" data-name="Layer 1" viewBox="0 0 974.917 611.895"><path fill="#3f3d56" d="M769.77783,413.35119H112.54162V144.05236H769.77783Zm-655.23621-2H767.77783V146.05236H114.54162Z" transform="translate(-112.54162 -144.05236)"/><path fill="#ff6584" d="M205.37,246.68939H164.06638a144.46051,144.46051,0,0,1,0-49.24667H205.37A88.61114,88.61114,0,0,0,205.37,246.68939Z" transform="translate(-112.54162 -144.05236)"/><path fill="#e6e6e6" d="M241.12784,267.66712h41.30365a144.46007,144.46007,0,0,0,0-49.24668H241.12784A88.61117,88.61117,0,0,1,241.12784,267.66712Z" transform="translate(-112.54162 -144.05236)"/><path fill="#e6e6e6" d="M507.6702,277.73653h56.126a1.5009,1.5009,0,0,0,0-3h-56.126a1.5009,1.5009,0,0,0,0,3Z" transform="translate(-112.54162 -144.05236)"/><path fill="#e6e6e6" d="M562.33744,263.585l8.769,8.004c1.00287.91538,3.76135,2.80521,4.38446,4.002,1.28839,2.47452-.09595,1.91-2.30359,2.76747a49.35994,49.35994,0,0,0-14.76367,9.16753c-1.45135,1.27893.67712,3.394,2.12134,2.12131a45.83257,45.83257,0,0,1,13.43988-8.396c1.769-.6998,5.12518-1.1096,5.9657-3.2168,1.02868-2.579-2.24756-4.482-3.79981-5.89883l-11.692-10.67208c-1.42353-1.29936-3.551.81635-2.12134,2.12133Z" transform="translate(-112.54162 -144.05236)"/><path fill="#6c63ff" d="M193.12784,338.66712h41.30365a144.46007,144.46007,0,0,0,0-49.24668H193.12784A88.61117,88.61117,0,0,1,193.12784,338.66712Z" transform="translate(-112.54162 -144.05236)"/><path fill="#6c63ff" d="M514.12784,242.66712h41.30365a144.46007,144.46007,0,0,0,0-49.24668H514.12784A88.61117,88.61117,0,0,1,514.12784,242.66712Z" transform="translate(-112.54162 -144.05236)"/><polygon fill="#f2f2f2" points="270.825 179.533 270.825 57.985 259.825 55.533 259.825 190.533 342.825 189.684 342.545 178.8 270.825 179.533"/><path fill="#3f3d56" d="M465.36705,344.73653h-100v-161h100Zm-98-2h96v-157h-96Z" transform="translate(-112.54162 -144.05236)"/><rect width="16.197" height="2" x="261.825" y="49.684" fill="#3f3d56"/><rect width="16.197" height="2" x="261.825" y="54.684" fill="#3f3d56"/><rect width="16.197" height="2" x="261.825" y="59.684" fill="#3f3d56"/><rect width="69.197" height="2" x="269.825" y="145.684" fill="#3f3d56"/><rect width="69.197" height="2" x="269.825" y="156.684" fill="#3f3d56"/><rect width="69.197" height="2" x="269.825" y="167.684" fill="#3f3d56"/><path fill="#3f3d56" d="M450.36705,206.73653a7,7,0,1,1,7-7A7.00786,7.00786,0,0,1,450.36705,206.73653Zm0-12a5,5,0,1,0,5,5A5.00573,5.00573,0,0,0,450.36705,194.73653Z" transform="translate(-112.54162 -144.05236)"/><path fill="#3f3d56" d="M452.36705,266.73653h-71v-46h71Zm-69-2h67v-42h-67Z" transform="translate(-112.54162 -144.05236)"/><rect width="2" height="81.835" x="415.867" y="202.819" fill="#3f3d56" transform="matrix(0.53767, -0.84316, 0.84316, 0.53767, -125.318, 320.12045)"/><rect width="81.835" height="2" x="375.949" y="242.736" fill="#3f3d56" transform="translate(-178.20836 118.30595) rotate(-32.52429)"/><polygon fill="#f2f2f2" points="524.825 179.533 524.825 57.985 513.825 55.533 513.825 190.533 596.825 189.684 596.545 178.8 524.825 179.533"/><path fill="#3f3d56" d="M720.367,342.73653h-100v-161h100Zm-98-2h96v-157h-96Z" transform="translate(-112.54162 -144.05236)"/><rect width="16.197" height="2" x="516.825" y="47.684" fill="#3f3d56"/><rect width="16.197" height="2" x="516.825" y="52.684" fill="#3f3d56"/><rect width="16.197" height="2" x="516.825" y="57.684" fill="#3f3d56"/><path fill="#3f3d56" d="M705.367,204.73653a7,7,0,1,1,7-7A7.00786,7.00786,0,0,1,705.367,204.73653Zm0-12a5,5,0,1,0,5,5A5.00573,5.00573,0,0,0,705.367,192.73653Z" transform="translate(-112.54162 -144.05236)"/><path fill="#3f3d56" d="M707.367,264.73653h-71v-46h71Zm-69-2h67v-42h-67Z" transform="translate(-112.54162 -144.05236)"/><rect width="2" height="81.835" x="670.867" y="200.819" fill="#3f3d56" transform="translate(-5.73668 534.20071) rotate(-57.47511)"/><rect width="81.835" height="2" x="630.949" y="240.736" fill="#3f3d56" transform="translate(-137.15596 255.02317) rotate(-32.5184)"/><path fill="#3f3d56" d="M707.367,324.73653h-71v-46h71Zm-69-2h67v-42h-67Z" transform="translate(-112.54162 -144.05236)"/><rect width="2" height="81.835" x="670.867" y="260.819" fill="#3f3d56" transform="translate(-56.32615 561.94076) rotate(-57.47511)"/><rect width="81.835" height="2" x="630.949" y="300.736" fill="#3f3d56" transform="translate(-169.41018 264.43003) rotate(-32.5184)"/><path fill="#6c63ff" d="M400.12784,375.66712h41.30365a144.46007,144.46007,0,0,0,0-49.24668H400.12784A88.61117,88.61117,0,0,1,400.12784,375.66712Z" transform="translate(-112.54162 -144.05236)"/><circle cx="897.962" cy="342.261" r="29.266" fill="#ffb8b8" transform="translate(-166.66901 328.60718) rotate(-28.66322)"/><circle cx="831.302" cy="161.871" r="25.89" fill="#2f2e41"/><path fill="#2f2e41" d="M966.1754,327.36177a25.89173,25.89173,0,0,1-39.98159-13.59461A25.8918,25.8918,0,1,0,976.699,303.14972,25.88224,25.88224,0,0,1,966.1754,327.36177Z" transform="translate(-112.54162 -144.05236)"/><path fill="#2f2e41" d="M864.00058,327.39054c4.51979-8.09173,6.24924-11.47187,12.077-16.39233,5.15347-4.35167,11.49242-5.62963,16.60531-1.50633a30.61956,30.61956,0,1,1-18.475,28.10592,30.87312,30.87312,0,0,1,.20862-3.4622C869.97214,333.51144,868.4449,328.0147,864.00058,327.39054Z" transform="translate(-112.54162 -144.05236)"/><polygon fill="#ffb8b8" points="714.548 597.707 701.163 593.819 709.789 540.338 729.545 546.077 714.548 597.707"/><path fill="#2f2e41" d="M800.65658,732.3224H829.578a0,0,0,0,1,0,0v16.92591a0,0,0,0,1,0,0H785.76972a0,0,0,0,1,0,0v-2.03905A14.88686,14.88686,0,0,1,800.65658,732.3224Z" transform="translate(126.15148 -339.94245) rotate(16.19699)"/><polygon fill="#ffb8b8" points="852.88 598.027 838.941 598.026 832.31 544.261 852.882 544.262 852.88 598.027"/><path fill="#2f2e41" d="M826.94535,594.04308h28.92138a0,0,0,0,1,0,0V610.969a0,0,0,0,1,0,0H812.05849a0,0,0,0,1,0,0v-2.03905A14.88686,14.88686,0,0,1,826.94535,594.04308Z"/><path fill="#ffb8b8" d="M932.62439,554.92014a11.43313,11.43313,0,0,1,3.2083-17.23524l-7.23756-39.97958,19.41432,8.2976,3.89648,36.69318a11.49507,11.49507,0,0,1-19.28154,12.224Z" transform="translate(-112.54162 -144.05236)"/><path fill="#6c63ff" d="M943.03294,459.19813l-22.77759-69.14795c-.47522-.793-6.14465-9.71631-18.49048-5.92041a10.32417,10.32417,0,0,0-6.3772,5.20019c-3.61389,6.92822-.24316,17.63135-.22814,17.688l28.04284,62.84082.02918.06494,8.85144,64.53565,19.11535-3.88086Z" transform="translate(-112.54162 -144.05236)"/><path fill="#2f2e41" d="M791.6378,715.00721l34.28369-105.12793L865.672,519.0199l-.57227-44.06689L912.271,463.9535l5.49316,18.46777c31.76965,20.96289,21.30383,61.28809,20.557,63.99072l47.86914,176.65967L933.99522,728.871l-35.035-167.26416-32.31127,67.96484-22.846,101.665Z" transform="translate(-112.54162 -144.05236)"/><path fill="#6c63ff" d="M861.69883,437.96082c-9.37878-17.97754-2.598-24.82324,7.65564-35.17773a141.13594,141.13594,0,0,0,11.77332-13.01465c15.99695-20.56641,34.563-10.46582,34.74878-10.36084l.10449.05859,4.58716,6.88037c15.11645,15.21338-7.80713,57.01758-9.5481,60.13086L912.1699,476.37l-48.749,4.64258Z" transform="translate(-112.54162 -144.05236)"/><path fill="#ffb8b8" d="M880.272,553.36445a11.43315,11.43315,0,0,1,7.46464-15.86272l3.11326-40.50995,16.68324,12.93968L902.019,546.41661a11.49507,11.49507,0,0,1-21.747,6.94784Z" transform="translate(-112.54162 -144.05236)"/><path fill="#6c63ff" d="M883.80491,534.372,891.68,468.77967l-11.22534-67.875c-.02637-.47607-.58435-11.73242,4.9458-17.8335a11.2912,11.2912,0,0,1,8.18567-3.74707c14.02564-.61425,17.37915,11.0708,17.41126,11.18848l4.56775,72.91748-10.30469,72.13428Z" transform="translate(-112.54162 -144.05236)"/><path fill="#ccc" d="M705.45838,755.94764h381a1,1,0,0,0,0-2h-381a1,1,0,0,0,0,2Z" transform="translate(-112.54162 -144.05236)"/></svg>