<svg xmlns="http://www.w3.org/2000/svg" width="120" height="60" fill="#0056D2">
<style >
<!-- path{
    fill: #0056D2;
} -->

@media (prefers-color-scheme: dark) {
      path {
        fill: #000000; <!-- set icon color for dark mode -->
        opacity: 0.5;
      }
    }

</style>
<path d="M27.392 24.89l-1.07-.047c-3.234 0-5.328 1.722-6.49 3.723l-2.815 4.98c-.745 1.187-1.745 1.698-3.094 1.698-1.93 0-3.513-1.466-3.513-3.257S12 28.728 13.92 28.728c1.14 0 1.978.302 2.652 1.047l2.07-3.42a8.16 8.16 0 0 0-4.77-1.536c-4.258 0-7.724 3.187-7.724 7.143 0 3.327 2.466 6.12 5.817 6.9.605.14 1.256.233 1.908.233h.163c2.536-.047 4.956-.86 6.142-3l3.118-5.607c.582-.907 1.117-1.303 1.93-1.56a3.96 3.96 0 0 1 1.187-.186c1.93 0 3.513 1.466 3.513 3.257s-1.582 3.257-3.513 3.257c-1.582 0-2.56-.396-3.5-1.56l-2 3.28c1.396 1.326 3.374 2.164 5.537 2.164 4.258 0 7.724-3.187 7.724-7.143.023-3.676-2.955-6.7-6.794-7.12z"/><path d="M42.213 38.71c-1 0-1.885-.116-2.722-.372-.838-.21-1.512-.582-2.094-1.117s-1.047-1.163-1.373-1.954-.465-1.745-.465-2.838v-7.306h4.607v7.282c0 .838.21 1.42.582 1.79s.884.582 1.512.582 1.094-.163 1.512-.535c.372-.372.582-.954.582-1.745v-7.375h4.607v7.236c0 1.163-.163 2.117-.465 2.908-.326.79-.79 1.466-1.373 1.954-.582.535-1.303.907-2.094 1.117-.884.28-1.815.372-2.815.372z" fill-rule="evenodd"/><path d="M87.56 31.962c0-4.5-2.676-7.282-7.33-7.282-4.397 0-7.445 2.63-7.445 7.003 0 4.5 3.304 6.957 7.748 6.957 3.048 0 6.072-1.373 6.817-4.5h-4.56c-.535.907-1.256 1.2-2.257 1.2-2 0-2.978-1-2.978-2.908H87.56zm-9.888-2.164c.326-1.326 1.466-2.047 2.838-2.047 1.256 0 2.466.79 2.676 2.047zm31.433-4.63v1.2c-1-1.117-2.63-1.698-4.14-1.698-3.98 0-6.7 3.21-6.7 6.957s2.77 7.003 6.747 7.003c1.582 0 3.187-.582 4.025-1.908h.047v1.466h4.77v-13.03zm-2.932 9.493c-1.93 0-3.048-1.256-3.048-2.955 0-1.582 1.163-2.955 3.048-2.955 1.93 0 3.048 1.326 3.048 2.955-.023 1.675-1.117 2.955-3.048 2.955z"/><path d="M69.783 28.542c-.745-.372-1.722-.628-2.56-.628-.535 0-1.466.21-1.466.907 0 .907 1.466 1 2.14 1.163 2.2.42 3.885 1.466 3.885 3.91 0 3.5-3.187 4.91-6.328 4.91-1.885 0-3.77-.535-5.398-1.536l1.722-3.28c.954.675 2.56 1.326 3.77 1.326.582 0 1.466-.256 1.466-1 0-1-1.466-1.047-2.978-1.466-1.466-.372-2.978-1.117-2.978-3.5 0-3.21 2.978-4.63 5.9-4.63 1.512 0 3.048.21 4.397.838zm-8.26-3.583c-.28 0 .07 0-1.605 0s-3.397.745-4.35 2.327h-.047v-2.117h-4.77V38.29h4.77v-5.258c0-2.257 1.094-3.955 3.77-3.955l2.234-4.118zm38.017 0c-.28 0 .07 0-1.605 0s-3.397.745-4.35 2.327h-.047v-2.117h-4.77V38.29h4.77v-5.258c0-2.257 1.094-3.955 3.77-3.955l2.234-4.118z" fill-rule="evenodd"/></svg>