<svg xmlns="http://www.w3.org/2000/svg" viewBox="0 0 270 60" width="120" height="60" fill-rule="evenodd">
<style >
<!-- path{
    fill: #0056D2;
} -->

@media (prefers-color-scheme: dark) {
      path {
        fill: #000000; <!-- set icon color for dark mode -->
        opacity: 0.5;
      }
    }

</style>
<path  d="M234.2 54.54h6.907l11.95-30.287h-6.837l-4.94 15.084-5.204-15.084h-7.63l9.087 21.877zm-34.284-23.097v15.525h-6.97V24.253h4.897l1.455 1.984c1.896-1.587 3.925-2.514 6.263-2.514 3.132 0 5.513.927 6.97 3.22 2.117-1.942 4.367-3.22 7.234-3.22 5.38 0 8.512 2.78 8.512 10.322v12.923H221.3v-12.13c0-3.484-1.412-4.5-3.662-4.5-1.323 0-2.425.353-3.66 1.147a22.79 22.79 0 0 1 .133 2.558v12.923h-6.97v-12.13c0-3.484-1.412-4.5-3.705-4.5-1.28 0-2.338.31-3.53 1.103zm-24.305 1.94h8.954c-.485-2.955-2.073-4.367-4.455-4.367-2.03 0-3.97 1.192-4.5 4.367zm4.985 14.026c-6.704 0-12.086-3.308-12.086-12.04 0-8.16 5.206-11.688 11.204-11.688 7.233 0 10.453 5.072 10.453 13.055h-14.6c.486 3.925 2.912 5.073 6.132 5.073 3.114 0 5.55-.768 7.435-2.037l-.946 5.528c-1.8 1.4-3.958 2.1-7.592 2.1zm-25.95-5.866c1.587 0 2.778-.265 4.013-1.19v-9.88c-1.102-.662-2.204-.97-3.793-.97-3.396 0-5.337 2.293-5.337 6.13 0 3.75 1.985 5.912 5.116 5.912zm5.38 3.75c-1.808 1.367-3.88 2.205-6.836 2.205-6.22 0-10.717-3.837-10.717-11.733 0-7.85 5.16-12.085 11.776-12.085 1.543 0 3.044.22 4.4.75v-9.64h6.97v32.18h-4.41zm-47.082-11.777V16.68h7.233v16.703c0 5.998 2.7 7.233 6.395 7.233 4.014 0 6.087-1.764 6.087-7.233V16.68h7.278v16.834c0 9.925-4.322 14.07-13.717 14.07-8.734 0-13.277-3.572-13.277-14.07z" fill="#645a53"/><path d="M99.133 34.777c-.284-.233-.622-.39-.983-.462-2.122 2.114-4.7 4.342-7.01 5.84-1.06.705-2.395 1.057-3.278 1.057-2.033 0-2.917-1.94-3.182-5.02-.353-4.14-.592-9.097-.592-16.76 0-7.86-1.784-13.202-6.535-13.62a6.84 6.84 0 0 0-.615-.03c-2.917 0-4.33 1.497-6.187 5.284-1.59 3.258-4.066 8.014-8.66 16.997-3.977 7.75-8.396 14.62-12.198 19.377-1.058 1.318-1.895 2.224-2.68 2.74-.525.346-1.03.52-1.56.52-1.5 0-2.595-1.266-2.96-4.214-.087-.7-.133-1.496-.133-2.392 0-6.077 2.3-15.94 6.275-30.473C51.75 3.05 50.512-4.17 44.148-4.17h-.07-.004c-1.44.017-2.636.54-3.787 1.445-1.133.892-2.267 2.82-3.326 5.41-1.193 2.918-8.45 17.474-20 24.973-.136 2.85 1.478 5.7 4.748 6 2.977.282 5.09-.973 7.813-2.8l-1.08 4.885-.38 1.733a48.64 48.64 0 0 0-.823 4.945c-1.63 14.557 5.118 21.74 13.02 21.74 1.32 0 2.63-.157 3.928-.487 8.706-2.207 17.087-12.193 27.007-35.18-.15 2.5-.166 4.836-.058 7.003C71.8 48.68 77 52.634 84.363 52.634c5.568 0 10.783-2.906 13.434-6.517 1.945-2.554 2.74-5.373 2.74-7.574 0-1.71-.542-3.073-1.404-3.766" fill="#ea5252"/></svg>