<svg viewBox="0 0 800.09 301" xmlns="http://www.w3.org/2000/svg" width="2500" height="941">
<path d="M124.29 71.82L62.14 35.91 0 71.82V35.91L62.15 0l62.15 35.91v35.91z" fill="#a435f0"/>
<path d="M32.56 101.97v79.15c0 20.45 15.26 30.42 29.59 30.42 14.45 0 29.6-10.23 29.6-30.69v-78.88h32.55v81.04c0 18.84-5.92 33.37-17.75 43.34-11.85 9.96-26.64 14.81-44.68 14.81-18.02 0-32.82-4.84-44.38-14.81C5.92 216.39 0 202.4 0 183.81v-81.84zm373.19 98.37l24.18 13.97c-14.75 16.82-34.42 26.58-59.14 26.58-21.26 0-38.75-6.46-51.93-19.11-13.18-12.66-19.9-29.63-19.9-50.9v-1.06c0-21.55 6.72-38.78 19.9-51.97 13.46-13.19 30.42-19.65 51.13-19.65 19.65 0 35.78 6.46 48.15 19.65 12.65 13.19 18.84 29.35 18.84 48.74 0 6.25-.71 12.9-.71 12.9H331.09c1.77 20.62 17.43 33.94 40.78 33.94 12.8 0 24.03-4.31 33.88-13.09zm-61.86-66.06c-6.94 5.4-10.93 12.04-11.97 19.92h72.2c-.3-7.62-3.77-14.25-10.19-19.65-6.74-5.93-14.54-8.89-23.95-8.89-9.95 0-18.84 2.96-26.1 8.61zm389.57 124.9c-13.2 31.21-27.02 41.82-48.21 41.82h-14.69v-28.88h11.88c7.29 0 14.06-2.74 20.52-17.65l6.46-14.93-55.7-137.57h33.1l39.55 99.08L767 101.97h33.09l-66.62 157.21zM251.04 50.02h32.29v187.64h-32.29v-12.49c-7.36 6.79-21.29 15.45-43.32 15.45-19.09 0-35.24-6.73-48.42-20.2-12.92-13.73-19.37-30.42-19.37-50.62 0-20.19 6.45-36.88 19.37-50.35C172.48 105.73 188.62 99 207.72 99c16.05 0 32.65 5.69 43.32 15.26zm2.43 119.8c0-11.86-4.05-21.82-12.12-29.62-7.8-7.81-17.75-11.85-29.33-11.85-11.57 0-20.98 4.04-28.78 11.85-7.53 7.8-11.3 17.76-11.3 29.62 0 11.84 3.78 21.8 11.3 29.61 7.8 7.81 17.21 11.85 28.78 11.85 11.58 0 21.53-4.04 29.33-11.85 8.07-7.81 12.12-17.77 12.12-29.61zm350.06-70.53c28.08 0 47.09 18.99 47.09 54.37v84h-32.29v-79.43c0-18.57-8.88-30.15-24.22-30.15-15.87 0-26.89 12.93-26.89 31.5v78.09H535.2v-79.42c0-18.58-8.87-30.16-24.22-30.16-15.05 0-26.36 13.19-26.36 31.5v78.08h-32.01V101.99h32.01v14.11c5.71-7 17.16-16.82 36.59-16.82 22.98 0 32.82 13.32 36.31 19.99 8.74-9.81 21.48-19.99 46.01-19.99z"/></svg>