<?xml version="1.0" standalone="no"?>
<!DOCTYPE svg PUBLIC "-//W3C//DTD SVG 20010904//EN"
 "http://www.w3.org/TR/2001/REC-SVG-20010904/DTD/svg10.dtd">
<svg version="1.0" xmlns="http://www.w3.org/2000/svg"
 width="189.000000pt" height="267.000000pt" viewBox="0 0 189.000000 267.000000"
 preserveAspectRatio="xMidYMid meet">

<g transform="translate(0.000000,267.000000) scale(0.100000,-0.100000)"
fill="#000000" stroke="none">
<path d="M1 2248 c1 -233 5 -409 9 -393 15 58 30 85 66 120 28 27 34 39 25 48
-27 27 -7 30 85 12 18 -4 23 2 33 39 6 24 13 50 16 59 5 12 -5 16 -47 22 -82
10 -91 14 -77 32 19 22 65 43 97 43 27 0 30 4 35 40 23 170 207 288 368 236
28 -10 52 -16 53 -14 53 89 91 124 171 157 l50 20 -442 0 -443 1 1 -422z"/>
<path d="M1005 2656 c22 -7 55 -20 73 -30 31 -16 33 -16 60 3 50 36 100 31
151 -14 21 -19 48 -35 59 -35 54 0 202 -80 202 -110 0 -4 -20 -11 -45 -15 -37
-5 -45 -10 -41 -23 3 -9 8 -34 12 -56 l7 -38 63 7 63 6 7 -36 c3 -19 4 -49 1
-64 -5 -26 -3 -29 26 -35 40 -8 137 -55 137 -66 0 -8 -19 -14 -98 -25 -41 -7
-43 -9 -37 -32 3 -14 9 -39 12 -55 l6 -31 66 7 c36 3 83 9 103 12 35 6 37 5
46 -27 7 -24 10 73 11 319 l1 352 -462 -1 c-389 0 -457 -2 -423 -13z"/>
<path d="M946 2365 c-17 -13 -17 -16 12 -59 54 -80 55 -81 32 -127 -16 -30
-26 -40 -40 -36 -21 5 -30 -24 -31 -102 -1 -63 -17 -25 -18 43 -1 27 -4 46 -8
42 -10 -9 -10 -13 -12 -73 -2 -58 -21 -40 -21 19 0 48 -8 68 -29 68 -9 0 -26
20 -39 45 l-22 45 37 56 c36 54 37 57 18 70 -10 8 -21 14 -25 14 -3 0 -24 -31
-47 -68 l-42 -68 44 -87 c45 -86 45 -87 45 -192 l0 -105 29 0 c17 0 32 4 36 9
3 5 15 8 28 6 30 -5 60 -8 73 -6 7 1 14 40 18 102 6 91 11 109 48 183 l41 83
-46 70 c-25 39 -49 73 -54 76 -4 3 -17 -1 -27 -8z m-36 -442 c0 -36 -3 -43
-20 -43 -17 0 -20 7 -20 43 0 36 3 43 20 43 17 0 20 -7 20 -43z"/>
<path d="M846 2314 c-9 -8 -16 -18 -17 -22 0 -4 -2 -15 -4 -24 -2 -10 1 -18 6
-18 5 0 9 9 9 20 0 17 7 20 50 20 43 0 50 -3 50 -20 0 -11 5 -20 10 -20 17 0
11 39 -10 60 -24 24 -72 26 -94 4z"/>
<path d="M1867 1820 c-28 -79 -24 -77 -214 -79 -92 0 -167 -5 -166 -9 1 -5 3
-34 4 -65 l2 -57 61 -2 c34 0 67 -1 74 -1 22 1 13 -35 -21 -78 -65 -86 -191
-123 -285 -84 -35 15 -38 15 -87 -12 -70 -39 -161 -39 -225 -2 -25 15 -53 36
-63 47 -18 19 -21 19 -55 5 -28 -12 -56 -14 -113 -10 l-77 6 -25 -38 c-14 -21
-47 -51 -74 -66 -119 -70 -284 -7 -328 126 -15 45 -18 47 -63 54 -26 4 -56 12
-66 17 -26 14 -10 22 79 38 39 7 86 16 105 21 l35 8 -3 56 c-2 30 -5 55 -5 55
-1 0 -76 -11 -167 -25 -90 -13 -168 -21 -171 -17 -4 4 -9 18 -12 32 -2 14 -5
-372 -6 -857 l-1 -883 381 0 c239 0 378 4 374 10 -3 5 1 25 9 44 10 25 22 36
45 41 17 3 35 4 41 0 5 -3 10 0 10 9 0 8 4 16 9 18 4 1 11 40 15 84 l7 82 -75
4 c-41 2 -80 8 -86 14 -9 9 -17 293 -11 371 2 24 75 35 224 31 133 -3 150 -5
163 -22 11 -15 14 -59 14 -192 0 -147 -2 -173 -17 -185 -9 -8 -48 -15 -95 -18
l-79 -3 7 -81 c4 -45 12 -86 18 -93 6 -6 29 -14 50 -18 31 -6 40 -14 52 -42 8
-19 12 -39 9 -44 -4 -6 148 -10 409 -10 l416 0 0 935 c0 514 -1 935 -3 935 -1
0 -10 -22 -20 -50z m-49 -210 c60 -37 71 -119 23 -172 -26 -29 -35 -33 -80
-33 -41 0 -55 5 -76 25 -54 55 -48 135 14 177 42 28 76 29 119 3z m-87 -259
c37 -37 38 -79 3 -120 -54 -65 -154 -26 -154 59 0 85 90 121 151 61z m-161
-161 c54 -54 -20 -144 -81 -97 -24 18 -31 51 -18 80 18 40 68 48 99 17z m-390
-260 l0 -180 -30 0 c-17 0 -47 11 -68 24 -35 22 -46 23 -172 22 -123 -1 -138
-3 -167 -24 -18 -13 -46 -22 -67 -22 l-36 0 0 180 0 180 270 0 270 0 0 -180z
m229 156 c7 -8 11 -27 9 -43 -2 -23 -8 -29 -35 -31 -27 -3 -35 1 -45 22 -9 22
-8 29 7 46 21 24 48 26 64 6z m-119 -62 c10 -11 11 -23 4 -42 -17 -48 -84 -38
-84 12 0 43 53 63 80 30z m-822 -206 l3 -108 -76 0 -75 0 0 110 0 111 73 -3
72 -3 3 -107z m136 -67 c-3 -22 -7 -61 -8 -88 -1 -41 2 -49 22 -58 15 -7 22
-18 22 -37 l0 -28 -170 0 -170 0 0 51 c0 42 -3 52 -20 56 -51 14 -8 23 118 25
l137 3 0 25 c-1 14 -4 40 -8 58 l-6 32 44 0 45 0 -6 -39z m796 -41 c0 -6 -28
-10 -65 -10 -37 0 -65 4 -65 10 0 6 28 10 65 10 37 0 65 -4 65 -10z m200 -55
c0 -9 -6 -12 -15 -9 -12 5 -15 -4 -15 -50 l0 -56 -50 0 -50 0 0 -255 0 -255
-55 0 -55 0 0 255 0 255 -68 0 -69 0 1 65 1 65 188 0 c158 0 187 -2 187 -15z
m-960 -200 c0 -64 -2 -75 -17 -76 -17 -1 -17 -2 -1 -6 16 -4 17 -22 17 -174
l1 -169 -170 0 -170 0 0 170 0 170 153 2 152 2 -152 3 -153 4 0 74 0 75 170 0
170 0 0 -75z"/>
<path d="M873 1050 c-38 -23 -48 -53 -38 -116 8 -57 34 -84 80 -84 43 0 70 25
84 77 17 60 13 92 -14 118 -29 30 -68 32 -112 5z"/>
<path d="M385 790 c-4 -6 -3 -16 3 -22 6 -6 12 -6 17 2 4 6 3 16 -3 22 -6 6
-12 6 -17 -2z"/>
<path d="M434 448 c-3 -4 15 -8 40 -8 25 0 46 2 46 4 0 8 -82 11 -86 4z"/>
<path d="M434 278 c-3 -4 15 -8 40 -8 25 0 46 2 46 4 0 8 -82 11 -86 4z"/>
<path d="M435 110 c-4 -6 12 -10 42 -10 35 0 44 3 33 10 -20 13 -67 13 -75 0z"/>
<path d="M807 1546 c-8 -20 0 -24 46 -24 30 0 37 4 35 17 -4 22 -73 28 -81 7z"/>
<path d="M913 1553 c-7 -2 -13 -11 -13 -19 0 -10 12 -14 38 -14 43 0 53 6 45
26 -5 14 -45 18 -70 7z"/>
<path d="M789 63 c-1 -5 -2 -20 -3 -36 -2 -26 -1 -27 54 -27 l55 0 2 35 3 35
-55 0 c-30 0 -56 -3 -56 -7z"/>
<path d="M923 35 l2 -35 57 0 c61 0 59 -3 49 63 0 4 -26 7 -56 7 l-55 0 3 -35z"/>
</g>
</svg>
