<svg id="f36e36b5-a914-4189-a8f7-2c7091a7d461" xmlns="http://www.w3.org/2000/svg" viewBox="0 0 676 681"><defs><style>.cls-1{fill:#f5f5f5;}.cls-2{opacity:0.2;isolation:isolate;}.cls-3{fill:#2f2e41;}.cls-4{fill:#ffdbac;}.cls-5{fill:#6c63ff;}</style></defs><title>dp_female</title><path class="cls-1" d="M676,338a337.1,337.1,0,0,1-24.55,126.7l-.11.26h0a336.44,336.44,0,0,1-42.79,75.64q-5.06,6.75-10.43,13.22c-1.31,1.58-2.64,3.15-4,4.7q-10.27,11.93-21.62,22.85-2.64,2.55-5.34,5l-1.26,1.16a337.46,337.46,0,0,1-27.65,22.7q-9.67,7.15-19.86,13.59-2.24,1.43-4.5,2.8-3.93,2.4-7.93,4.69-5.22,3-10.57,5.81c-1.44.77-2.89,1.51-4.34,2.25-2.12,1.09-4.25,2.14-6.4,3.17l-1.11.53c-1.4.68-2.82,1.34-4.24,2a335.26,335.26,0,0,1-57.46,20.39l-.32.08c-1.29.33-2.59.65-3.89,1-1,.24-2,.47-2.93.69a2.22,2.22,0,0,1-.37.09c-2,.47-4,.92-6.05,1.33l-3.42.71c-.69.15-1.39.28-2.08.41l-2.6.5c-.48.1-1,.18-1.45.26l-3.29.59c-1.86.32-3.74.63-5.61.91-1.36.21-2.71.41-4.07.6-1.6.23-3.2.44-4.81.64-.44.07-.88.12-1.32.17l-1.71.21c-1.15.14-2.3.27-3.46.39l-1.79.19-3.42.33c-1.47.14-2.94.26-4.42.38-1.8.14-3.59.27-5.4.38l-3.49.2c-3,.16-6,.27-9,.35-1.49,0-3,.07-4.49.09h0c-1.49,0-3,0-4.49,0a338.63,338.63,0,0,1-45.45-3q-16.57-2.22-32.62-6l-1.28-.31c-1.08-.25-2.15-.52-3.22-.79l-2.84-.74A335.16,335.16,0,0,1,182,637.91l-.34-.18c-.65-.34-1.29-.67-1.93-1q-2.11-1.11-4.21-2.26-11.92-6.56-23.24-14-2.91-1.9-5.76-3.87l-1.81-1.26L142.82,614q-2.48-1.76-4.92-3.55-10.12-7.44-19.65-15.61A339.54,339.54,0,0,1,59.09,529q-8.78-12.78-16.38-26.38A336.38,336.38,0,0,1,0,338C0,151.33,151.33,0,338,0S676,151.33,676,338Z" transform="translate(0)"/><path class="cls-2" d="M450.29,226.52c6.38,36-7.71,68.59-7.71,68.59s-24.43-25.76-30.81-61.76,7.71-68.59,7.71-68.59S443.91,190.52,450.29,226.52Z" transform="translate(0)"/><path class="cls-3" d="M440,536.27l1.22.63C441.06,538.2,440.77,539,440,536.27Z" transform="translate(0)"/><path class="cls-3" d="M441.57,536.69c0,.14,0,.29,0,.43l-.43-.22c0-.13,0-.27,0-.41C441.32,534.74,441.2,532.67,441.57,536.69Z" transform="translate(0)"/><circle class="cls-3" cx="311.68" cy="324.64" r="164.21"/><circle class="cls-4" cx="325.2" cy="382.71" r="99.44"/><path class="cls-4" d="M552.27,573.31l-.12,0L529,578.89l-48.16,11.56L474.29,592,401.05,609.6l-6.22,1.5L217.14,653.74A332.62,332.62,0,0,1,182,637.91l-.34-.18c-.65-.34-1.29-.67-1.93-1q-2.11-1.11-4.21-2.26-11.92-6.56-23.24-14-2.91-1.9-5.76-3.87l-1.81-1.26L142.82,614q-2.48-1.76-4.92-3.55c17.26-31.37,58.36-52.22,99.46-63.63,31-8.62,37.84-36.95,37.25-62.16a147.44,147.44,0,0,0-1.46-17.18,167.67,167.67,0,0,0-6-26.74L366.64,444l10.26,23.64a53.76,53.76,0,0,0-.27,7.82c.78,19.39,12.75,31.93,27.52,40,1.92,1.05,3.89,2,5.89,2.94,24.22,11,52.73,11.76,52.73,11.76a101.73,101.73,0,0,1,26.09.49q3.15.48,6.12,1.15a88.07,88.07,0,0,1,32.11,14.37,91.49,91.49,0,0,1,10.41,8.63A82.47,82.47,0,0,1,552.27,573.31Z" transform="translate(0)"/><path class="cls-5" d="M566.49,587.06a11.61,11.61,0,0,1-.56,1.91,340.72,340.72,0,0,1-27.65,23.63A114,114,0,0,1,512.49,619s.75,3.91,1.43,10.68q-3.93,2.49-7.93,4.88-5.22,3.12-10.57,6.05c-1.44.8-2.89,1.57-4.34,2.34-2.12,1.13-4.25,2.22-6.4,3.3l-1.11.55c-1.4.71-2.82,1.39-4.24,2.08a326.06,326.06,0,0,1-57.46,21.22l-.32.09c-1.29.34-2.59.67-3.89,1-1,.25-2,.49-2.93.72l-.37.1c-2,.49-4,.95-6.05,1.38l-3.42.74c-.69.16-1.39.29-2.08.43l-2.6.52c-.48.1-1,.18-1.45.27l-3.29.61c-1.86.33-3.74.66-5.61,1-1.36.22-2.71.43-4.07.62-1.6.24-3.2.46-4.81.67l-1.32.18-1.71.21c-1.15.15-2.3.29-3.46.41l-1.79.2c-1.14.12-2.28.24-3.42.34-1.47.15-2.94.27-4.42.4-1.8.14-3.59.28-5.4.39-1.16.08-2.32.15-3.49.21-3,.17-6,.28-9,.37-1.49,0-3,.07-4.49.09h0c-1.49,0-3,0-4.49,0a326.06,326.06,0,0,1-45.45-3.16,321.07,321.07,0,0,1-32.62-6.27l-1.28-.32c-1.08-.26-2.15-.54-3.22-.82l-2.84-.77a328.19,328.19,0,0,1-70.6-28.3l-.34-.19-1.93-1.06c54.89-13.31,141.63-34.31,216.9-52.29l6.29-1.5c27.8-6.64,53.84-12.82,75.87-18l6.7-1.56c23.67-5.53,42-9.74,52-11.84a77.63,77.63,0,0,1,8.14-1.49L566.45,587Z" transform="translate(0)"/><circle class="cls-3" cx="161.45" cy="205.85" r="48.91"/><circle class="cls-3" cx="461.92" cy="191.88" r="48.91"/><path class="cls-3" d="M409.51,170.91a48.91,48.91,0,0,1,43.67-48.62,48.91,48.91,0,0,0-10.62,97.25,49.61,49.61,0,0,0,10.62,0A48.91,48.91,0,0,1,409.51,170.91Z" transform="translate(0)"/><path class="cls-3" d="M106.8,245.42a48.91,48.91,0,0,1-2.84-65.3A48.91,48.91,0,1,0,172,249.58,48.9,48.9,0,0,1,106.8,245.42Z" transform="translate(0)"/><path class="cls-3" d="M311.68,247.78c-57.88,0-104.81,27.37-104.81,61.14,0,15.11,9.43,28.92,25,39.58l20.18-14.62-5.49,22.91c2.28,1,4.6,2.07,7,3l30.14-35.17v43.2a174.51,174.51,0,0,0,27.95,2.22c57.89,0,104.82-27.37,104.82-61.14S369.57,247.78,311.68,247.78Z" transform="translate(0)"/><path class="cls-3" d="M413,191.88s-7.59,34.93,39.88,48.91Z" transform="translate(0)"/><path class="cls-3" d="M206.87,198.24s17.47,39.06-34.94,56.52Z" transform="translate(0)"/><ellipse class="cls-4" cx="227.41" cy="402.6" rx="8.29" ry="19.89" transform="translate(-100.11 76.21) rotate(-15.64)"/><ellipse class="cls-4" cx="426.3" cy="386.03" rx="19.89" ry="8.29" transform="translate(14.8 787.79) rotate(-86.48)"/></svg>