<?xml version="1.0" encoding="UTF-8"?><svg xmlns="http://www.w3.org/2000/svg" viewBox="0 0 50 50"><path style="line-height:normal;text-indent:0;text-align:start;text-decoration-line:none;text-decoration-style:solid;text-decoration-color:#000;text-transform:none;block-progression:tb;isolation:auto;mix-blend-mode:normal" d="M25 2C12.31 2 2 12.31 2 25s10.31 23 23 23 23-10.31 23-23S37.69 2 25 2zm0 2c11.61 0 21 9.39 21 21s-9.39 21-21 21S4 36.61 4 25 13.39 4 25 4zm-6.55 4.992a5.677 5.677 0 0 0-.76.024c-.665.066-1.3.256-1.893.586-1.187.659-1.98 1.81-2.397 3.171-.416 1.361-.495 2.953-.302 4.702.05.451.119.915.205 1.386-.236.088-.48.171-.705.264-1.621.667-2.969 1.47-3.96 2.434C7.649 22.523 7 23.705 7 25s.648 2.477 1.639 3.441c.99.965 2.338 1.767 3.959 2.434.225.093.469.176.705.264-.086.472-.156.936-.205 1.388-.193 1.75-.114 3.339.302 4.7.417 1.36 1.21 2.514 2.397 3.173 2.374 1.32 5.413.388 8.357-1.673.282-.197.564-.416.846-.635.282.22.564.438.846.635 2.944 2.06 5.981 2.992 8.355 1.673 1.187-.659 1.98-1.813 2.397-3.173.416-1.361.495-2.95.302-4.7-.05-.451-.119-.915-.205-1.386.237-.088.481-.173.707-.266 1.621-.667 2.969-1.47 3.96-2.434C42.351 27.477 43 26.295 43 25s-.648-2.477-1.639-3.441c-.99-.965-2.338-1.767-3.959-2.434-.225-.093-.469-.176-.705-.264.086-.471.156-.935.205-1.386.193-1.75.114-3.339-.302-4.7-.417-1.36-1.212-2.514-2.399-3.173a4.843 4.843 0 0 0-1.892-.586c-1.995-.198-4.255.712-6.463 2.257-.283.198-.565.417-.848.637-.282-.219-.563-.438-.844-.635-1.932-1.352-3.906-2.22-5.705-2.283zm13.614 2.03a2.81 2.81 0 0 1 1.166.328c.666.37 1.15 1.01 1.458 2.011.306 1.002.397 2.34.226 3.895-.035.315-.087.644-.143.974a32.44 32.44 0 0 0-4.53-.902c-1.177-1.549-2.419-2.926-3.68-4.092.143-.107.289-.224.431-.324 1.32-.923 2.546-1.5 3.61-1.752a4.823 4.823 0 0 1 1.462-.139zm-14.13.001c.44-.032.93.013 1.462.14 1.064.252 2.29.828 3.61 1.751.142.1.286.218.43.324-1.262 1.166-2.5 2.544-3.676 4.092a32.45 32.45 0 0 0-4.531.9 17.43 17.43 0 0 1-.143-.974c-.17-1.554-.08-2.895.226-3.897.307-1.001.792-1.64 1.458-2.01a2.796 2.796 0 0 1 1.164-.326zm7.064 3.493a28.22 28.22 0 0 1 2.467 2.564A42.412 42.412 0 0 0 25 17c-.84 0-1.658.033-2.467.08a28.251 28.251 0 0 1 2.465-2.564zM25 19c1.44 0 2.83.084 4.158.227a35.94 35.94 0 0 1 1.694 2.56A35.391 35.391 0 0 1 32.559 25a35.38 35.38 0 0 1-1.707 3.213c-.54.899-1.109 1.75-1.694 2.56A39.053 39.053 0 0 1 25 31c-1.44 0-2.83-.084-4.16-.227a35.97 35.97 0 0 1-1.694-2.56 35.333 35.333 0 0 1-1.705-3.21 35.39 35.39 0 0 1 1.707-3.216h-.002a35.97 35.97 0 0 1 1.694-2.56C22.17 19.084 23.56 19 25 19zm6.846.615c.876.164 1.713.357 2.492.576-.206.77-.456 1.562-.758 2.377a38.624 38.624 0 0 0-1.014-1.81 38.94 38.94 0 0 0-.72-1.143zm-13.694.002c-.243.376-.486.75-.72 1.14a38.642 38.642 0 0 0-1.014 1.811 26.729 26.729 0 0 1-.756-2.377c.779-.22 1.615-.41 2.49-.574zm-4.392 1.207A30.182 30.182 0 0 0 15.242 25a30.196 30.196 0 0 0-1.482 4.176c-.132-.05-.274-.098-.4-.15-1.456-.6-2.597-1.308-3.327-2.018C9.303 26.298 9 25.638 9 25c0-.638.303-1.297 1.033-2.008.73-.71 1.871-1.418 3.326-2.017.127-.053.27-.1.4-.15zm22.48 0c.132.05.274.098.4.15 1.456.6 2.597 1.308 3.327 2.018.73.71 1.033 1.37 1.033 2.008 0 .638-.303 1.297-1.033 2.008-.73.71-1.871 1.418-3.326 2.017-.128.053-.27.1-.403.15A30.193 30.193 0 0 0 34.756 25a30.198 30.198 0 0 0 1.484-4.176zM25 22c-1.645 0-3 1.355-3 3s1.355 3 3 3 3-1.355 3-3-1.355-3-3-3zm0 2c.564 0 1 .436 1 1 0 .564-.436 1-1 1-.564 0-1-.436-1-1 0-.564.436-1 1-1zm8.58 3.434c.302.815.55 1.607.756 2.377-.779.22-1.615.41-2.49.574.243-.376.486-.752.72-1.143.362-.603.695-1.206 1.014-1.808zm-17.162.002a38.63 38.63 0 0 0 1.014 1.806c.234.39.477.765.72 1.14a28.741 28.741 0 0 1-2.488-.571c.206-.77.452-1.56.754-2.375zm-1.19 4.334a32.45 32.45 0 0 0 4.532.9c1.177 1.55 2.417 2.927 3.68 4.094-.144.107-.29.224-.432.324-2.639 1.847-4.906 2.304-6.238 1.564-.666-.37-1.15-1.01-1.457-2.011-.307-1.002-.398-2.34-.227-3.895.035-.315.087-.645.143-.976zm19.543 0c.056.331.108.66.143.976.17 1.554.078 2.893-.228 3.895-.307 1.001-.79 1.642-1.456 2.011-1.332.74-3.599.283-6.238-1.564-.142-.1-.288-.217-.431-.324a31.617 31.617 0 0 0 3.68-4.092 32.44 32.44 0 0 0 4.53-.902zm-12.238 1.15c.809.047 1.628.08 2.467.08.84 0 1.658-.033 2.467-.08A28.23 28.23 0 0 1 25 35.486a28.248 28.248 0 0 1-2.467-2.566z" font-weight="400" font-family="sans-serif" white-space="normal" overflow="visible"/><metadata><rdf:RDF xmlns:rdf="http://www.w3.org/1999/02/22-rdf-syntax-ns#" xmlns:rdfs="http://www.w3.org/2000/01/rdf-schema#" xmlns:dc="http://purl.org/dc/elements/1.1/"><rdf:Description about="https://iconscout.com/legal#licenses" dc:title="google,scholar" dc:description="google,scholar" dc:publisher="Iconscout" dc:date="2017-12-09" dc:format="image/svg+xml" dc:language="en"><dc:creator><rdf:Bag><rdf:li>Icons8</rdf:li></rdf:Bag></dc:creator></rdf:Description></rdf:RDF></metadata></svg>