<?xml version="1.0" encoding="UTF-8" standalone="no"?>
<!-- Created with Inkscape (http://www.inkscape.org/) -->
<svg xmlns:svg="http://www.w3.org/2000/svg" xmlns="http://www.w3.org/2000/svg" version="1.0" width="1143.9567" height="408.40155" id="svg3642">
  <defs id="defs3644"/>
  <g transform="translate(162.8693,-197.3138)" id="layer1">
    <g transform="matrix(1.293235,0,0,1.293235,-4878.321,-1224.915)" id="g15041">
      <g transform="matrix(2.438586,0,0,2.438586,3659.952,1113.451)" style="fill:black;fill-opacity:1;fill-rule:nonzero;stroke:none;stroke-miterlimit:4" id="g15043">
        <g style="fill:black;fill-opacity:1" id="g15045">
          <path d="M 86.068,0 C 61.466,0 56.851,35.041 70.691,35.041 C 84.529,35.041 110.671,0 86.068,0 z " style="fill:black;fill-opacity:1" id="path15047"/>
          <path d="M 45.217,30.699 C 52.586,31.149 60.671,2.577 46.821,4.374 C 32.976,6.171 37.845,30.249 45.217,30.699 z " style="fill:black;fill-opacity:1" id="path15049"/>
          <path d="M 11.445,48.453 C 16.686,46.146 12.12,23.581 3.208,29.735 C -5.7,35.89 6.204,50.759 11.445,48.453 z " style="fill:black;fill-opacity:1" id="path15051"/>
          <path d="M 26.212,36.642 C 32.451,35.37 32.793,9.778 21.667,14.369 C 10.539,18.961 19.978,37.916 26.212,36.642 L 26.212,36.642 z " style="fill:black;fill-opacity:1" id="path15053"/>
          <path d="M 58.791,93.913 C 59.898,102.367 52.589,106.542 45.431,101.092 C 22.644,83.743 83.16,75.088 79.171,51.386 C 75.86,31.712 15.495,37.769 8.621,68.553 C 3.968,89.374 27.774,118.26 52.614,118.26 C 64.834,118.26 78.929,107.226 81.566,93.248 C 83.58,82.589 57.867,86.86 58.791,93.913 L 58.791,93.913 z " style="fill:black;fill-opacity:1" id="path15055"/>
        </g>
      </g>
      <g id="g15057">
        <path d="M 4176.2963,1214.4401 C 4161.1885,1214.847 4149.2577,1220.2768 4140.4837,1230.6901 C 4131.3976,1241.527 4126.8275,1256.5005 4126.8275,1275.5964 C 4126.8275,1294.6396 4131.3978,1309.5721 4140.4837,1320.4088 C 4149.6142,1331.2457 4162.1501,1336.6588 4178.14,1336.6588 C 4194.174,1336.6588 4206.7414,1331.2457 4215.8275,1320.4088 C 4224.9134,1309.5721 4229.4526,1294.6396 4229.4525,1275.5964 C 4229.4524,1256.5005 4224.9134,1241.527 4215.8275,1230.6901 C 4206.7414,1219.8535 4194.1739,1214.4402 4178.14,1214.4401 C 4177.5154,1214.4401 4176.9104,1214.4236 4176.2963,1214.4401 z M 4177.4213,1236.4401 C 4177.6628,1236.4334 4177.895,1236.4401 4178.14,1236.4401 C 4186.0233,1236.4402 4192.1319,1239.8515 4196.4525,1246.6901 C 4200.7728,1253.5289 4202.9524,1263.1814 4202.9525,1275.5964 C 4202.9525,1287.9587 4200.7726,1297.5391 4196.4525,1304.3776 C 4192.1321,1311.2165 4186.0232,1314.6588 4178.14,1314.6588 C 4170.3009,1314.6588 4164.2417,1311.2165 4159.9213,1304.3776 C 4155.6009,1297.5391 4153.4214,1287.9587 4153.4213,1275.5964 C 4153.4213,1263.1815 4155.6011,1253.5289 4159.9213,1246.6901 C 4164.1065,1240.0652 4169.9336,1236.6473 4177.4213,1236.4401 z " style="font-size:148.699646px;font-style:normal;font-variant:normal;font-weight:bold;font-stretch:normal;text-align:start;line-height:125%;writing-mode:lr-tb;text-anchor:start;fill:black;fill-opacity:1;stroke:none;stroke-width:1pt;stroke-linecap:butt;stroke-linejoin:miter;stroke-opacity:1;font-family:Bitstream Vera Sans" id="path15059"/>
        <path d="M 4005.6293,1325.612 C 3992.3217,1336.7877 3972.5226,1336.6592 3964.2744,1336.6592 C 3947.6611,1336.6592 3934.4997,1331.1882 3924.7902,1320.2462 C 3915.0805,1309.2516 3910.2258,1294.3643 3910.2258,1275.584 C 3910.2258,1256.5934 3915.1696,1241.6535 3925.0574,1230.764 C 3934.9452,1219.8748 3948.4851,1214.4301 3965.6774,1214.43 C 3972.3137,1214.4301 3978.6605,1215.1666 3984.718,1216.6394 C 3990.8199,1218.1124 3996.5655,1220.2956 4001.9548,1223.1888 L 3995.0338,1243.6496 C 3992.004,1241.991 3988.5351,1240.3564 3985.3193,1239.2072 C 3979.8409,1237.3661 3974.3403,1236.4455 3968.8175,1236.4454 C 3958.5733,1236.4455 3950.6675,1239.8386 3945.1002,1246.6246 C 3939.5772,1253.3582 3936.8158,1263.0113 3936.8158,1275.584 C 3936.8158,1288.0516 3939.4881,1297.6785 3944.833,1304.4646 C 3950.1776,1311.2507 3958.2098,1314.6437 3967.6148,1314.6437 C 3977.1696,1314.6437 3983.0876,1312.2353 3986.2439,1309.6976 L 3986.2439,1289.3141 L 3965.5438,1289.3141 L 3965.5438,1268.9557 L 4005.6293,1268.9557" style="font-size:148.699646px;font-style:normal;font-variant:normal;font-weight:bold;font-stretch:normal;text-align:start;line-height:125%;writing-mode:lr-tb;text-anchor:start;fill:black;fill-opacity:1;stroke:none;stroke-width:1pt;stroke-linecap:butt;stroke-linejoin:miter;stroke-opacity:1;font-family:Bitstream Vera Sans" id="path15061"/>
        <path d="M 4023.2108,1216.5605 L 4039.4387,1216.5605 L 4090.7162,1287.3627 L 4090.7162,1216.5605 L 4112.6015,1216.5605 L 4112.6015,1334.3708 L 4096.3736,1334.3708 L 4045.0962,1263.5686 L 4045.0962,1334.3708 L 4023.2108,1334.3708 L 4023.2108,1216.5605" style="font-size:148.699646px;font-style:normal;font-variant:normal;font-weight:bold;font-stretch:normal;text-align:start;line-height:125%;writing-mode:lr-tb;text-anchor:start;fill:black;fill-opacity:1;stroke:none;stroke-width:1pt;stroke-linecap:butt;stroke-linejoin:miter;stroke-opacity:1;font-family:Bitstream Vera Sans" id="path15063"/>
        <path d="M 4246.3361,1216.5605 L 4279.0727,1216.5605 L 4301.7878,1290.1084 L 4324.6365,1216.5605 L 4352.3063,1216.5605 L 4364.8063,1334.3708 L 4340.4877,1334.3708 L 4332.9877,1260.7028 L 4310.0054,1334.7241 L 4293.7039,1334.7241 L 4270.7215,1258.2028 L 4263.2215,1334.3708 L 4238.8361,1334.3708 L 4251.3361,1216.5605" style="font-size:148.699646px;font-style:normal;font-variant:normal;font-weight:bold;font-stretch:normal;text-align:start;line-height:125%;writing-mode:lr-tb;text-anchor:start;fill:black;fill-opacity:1;stroke:none;stroke-width:1pt;stroke-linecap:butt;stroke-linejoin:miter;stroke-opacity:1;font-family:Bitstream Vera Sans" id="path15065"/>
        <path d="M 4382.3597,1216.5605 L 4451.7744,1216.5605 L 4451.7744,1239.5229 L 4408.0811,1239.5229 L 4408.0811,1263.9594 L 4441.6688,1263.9594 L 4441.6688,1284.4217 L 4408.0811,1284.4217 L 4408.0811,1311.4085 L 4453.2442,1311.4085 L 4453.2442,1334.3708 L 4382.3597,1334.3708 L 4382.3597,1216.5605" style="font-size:148.699646px;font-style:normal;font-variant:normal;font-weight:bold;font-stretch:normal;text-align:start;line-height:125%;writing-mode:lr-tb;text-anchor:start;fill:black;fill-opacity:1;stroke:none;stroke-width:1pt;stroke-linecap:butt;stroke-linejoin:miter;stroke-opacity:1;font-family:Bitstream Vera Sans" id="path15067"/>
        <text x="4474.6182" y="1215.743" style="font-size:30.68958855px;font-style:normal;font-weight:normal;fill:black;fill-opacity:1;stroke:none;stroke-width:1pt;stroke-linecap:butt;stroke-linejoin:miter;stroke-opacity:1;font-family:Bitstream Vera Sans" id="text15069" xml:space="preserve"><tspan x="4474.6182" y="1215.743" style="letter-spacing:11.06259632" id="tspan15072"><tspan style="letter-spacing:0.2523815" id="tspan15074">TM</tspan></tspan></text>
      </g>
    </g>
  </g>
</svg>