<svg id="ae50b0f8-1e91-4a07-b038-015d07e00e48" data-name="Layer 1" xmlns="http://www.w3.org/2000/svg" width="882.19063" height="486.8907" viewBox="0 0 882.19063 486.8907"><title>team_goals</title><ellipse cx="761.81858" cy="468.54799" rx="120.37205" ry="16.59149" fill="#e6e6e6"/><ellipse cx="120.72327" cy="470.29921" rx="120.72327" ry="16.59149" fill="#e6e6e6"/><path d="M360.08869,429.17856l3.10546,6.41733s17.62635,23.52346,6.73753,27.20873S353.265,440.494,353.265,440.494l-2.87885-3.63847Z" transform="translate(-158.90468 -206.55465)" fill="#ffb8b8"/><path d="M339.7846,307.66472l2.89738-1.22579s3.42881,1.22579,3.42881,6.49761-4.21746,82.24043-4.21746,82.24043l8.43491,42.17457-11.598,2.10873L320.806,400.44879Z" transform="translate(-158.90468 -206.55465)" fill="#575a89"/><path d="M339.7846,307.66472l2.89738-1.22579s3.42881,1.22579,3.42881,6.49761-4.21746,82.24043-4.21746,82.24043l22.66883,36.37557-14.7611,10.54364-28.995-41.64739Z" transform="translate(-158.90468 -206.55465)" fill="#575a89"/><path d="M337.67587,429.971s13.70674,5.27182,12.65237,14.76111-14.7611,198.22051-14.7611,198.22051l4.21746,21.08729-40.06585,1.05437-1.05437-136.013-28.46784,136.013H230.13069l28.46785-239.34074Z" transform="translate(-158.90468 -206.55465)" fill="#2f2e41"/><path d="M334.51278,659.82245l9.48928,9.48928s22.14165,4.21745,16.86983,11.598-60.09878-2.10872-60.09878-2.10872l1.05437-16.86984Z" transform="translate(-158.90468 -206.55465)" fill="#2f2e41"/><path d="M265.97909,659.82245l9.48928,9.48928s22.14165,4.21745,16.86983,11.598-60.09878-2.10872-60.09878-2.10872l1.05437-16.86984Z" transform="translate(-158.90468 -206.55465)" fill="#2f2e41"/><circle cx="145.03152" cy="37.8482" r="25.30475" fill="#ffb8b8"/><polygon points="160.847 52.609 158.738 95.838 126.053 76.86 130.27 52.609 160.847 52.609" fill="#ffb8b8"/><polygon points="124.999 66.316 155.575 88.458 160.847 72.642 170.336 97.947 165.064 143.285 124.999 66.316" fill="#cfcce0"/><path d="M283.90328,269.70759l33.73967,46.392,1.22185-38.75476,10.37615,8.17819V293.958l14.76111,13.70674-5.27183,52.71822-1.05436,62.2075s6.32619,5.27182,4.21746,8.43492S331.34968,441.569,321.8604,441.569s-68.53369-7.38055-68.53369-11.598,2.10873-59.04441,2.10873-59.04441V297.12107l25.30475-18.97856Z" transform="translate(-158.90468 -206.55465)" fill="#575a89"/><polygon points="92.313 238.177 106.02 258.21 111.292 235.014 104.966 230.797 92.313 238.177" fill="#ffb8b8"/><rect x="279.29976" y="501.70563" width="58.52536" height="2.10922" transform="translate(-428.85289 411.54885) rotate(-69.73678)" opacity="0.2"/><path d="M288.64792,219.62528s3.1631-15.81546,21.08729-12.65237l-2.10873,1.05436s16.86983-2.10873,14.76111,7.38055c0,0,13.70673,8.43492,10.54364,17.9242a107.284,107.284,0,0,0-4.21746,16.86983l-3.16309-3.16309s-3.16309-21.08729-22.14166-18.97856c-14.23392,1.58154-20.03292,8.30312-21.51562,13.14661a42.78187,42.78187,0,0,1-2.6049,6.62659l-1.18422.25972S271.77809,224.8971,288.64792,219.62528Z" transform="translate(-158.90468 -206.55465)" fill="#2f2e41"/><path d="M267.03345,296.06671l-9.5982-.44549-1.99981,1.49985a63.11947,63.11947,0,0,0-6.32619,7.38055c-2.10872,3.1631-29.5222,80.1317-29.5222,80.1317a26.86655,26.86655,0,0,0,2.10873,13.70674c3.16309,7.38055,28.46784,51.66386,28.46784,51.66386l18.97856-11.598-25.30475-51.66386,17.9242-25.30475Z" transform="translate(-158.90468 -206.55465)" fill="#575a89"/><polygon points="726.044 420.319 726.044 448.719 743.084 448.719 745.356 420.319 726.044 420.319" fill="#a0616a"/><polygon points="766.372 422.023 773.187 437.927 784.547 442.471 786.819 410.663 777.731 406.12 766.372 422.023" fill="#a0616a"/><path d="M940.04393,642.2097s-.96356-7.1709-10.7056-4.15344l1.61776,21.19315S923.00422,683.105,934.364,680.833s18.17569-23.85559,18.17569-23.85559l7.95187-36.35138L941.289,615.00073Z" transform="translate(-158.90468 -206.55465)" fill="#2f2e41"/><path d="M868.47716,401.38181s-15.90373,120.414-10.22383,134.04571,65.31889,101.67027,65.31889,101.67027l26.12755-34.07942-58.503-73.27075,54.52707-74.97472,4.54392-45.43922Z" transform="translate(-158.90468 -206.55465)" fill="#2f2e41"/><polygon points="772.051 237.994 787.048 245.93 786.819 248.218 749.9 432.815 721.5 427.135 740.244 297.065 772.051 237.994" fill="#2f2e41"/><path d="M883.2449,646.75362,876.429,656.97745S861.66127,681.969,877.565,681.969s22.71961,0,23.85559-5.6799a74.854,74.854,0,0,1,3.408-11.35981l-1.136-14.76774Z" transform="translate(-158.90468 -206.55465)" fill="#2f2e41"/><circle cx="768.64346" cy="39.19782" r="24.99157" fill="#a0616a"/><path d="M907.1005,253.70433s3.40794,19.31167-6.81589,22.71961,12.49579,48.84717,12.49579,48.84717L938.908,282.10385s-6.81588-14.76775-2.272-21.58364Z" transform="translate(-158.90468 -206.55465)" fill="#a0616a"/><path d="M912.7804,305.95944l-6.16652-37.01863-12.00917,7.48313-31.80746,18.17569L875.293,347.99072l-4.54392,32.94344s-5.67991,10.22383-4.54393,14.76775-1.136,6.81588,0,7.95186,57.935,10.22383,74.97472,17.03971,19.31168,9.08785,18.17569,3.40794S945.72384,391.158,945.72384,391.158l10.22382-45.43923,13.63177-39.75932-33.0937-30.54126Z" transform="translate(-158.90468 -206.55465)" fill="#575a89"/><path d="M961.62757,355.94259l7.95186,21.58363-20.44765,37.48736-6.6722,5.18949a6.81483,6.81483,0,0,0-2.40655,7.11365l4.53483,17.23235,11.88576-17.65165s32.41748-39.14738,31.2815-49.3712-4.54392-26.12756-4.54392-26.12756Z" transform="translate(-158.90468 -206.55465)" fill="#a0616a"/><path d="M849.16548,337.7669l-5.6799,28.39951L821.902,419.5575s-23.85559,22.71961-12.49579,27.26354,24.99158-22.71962,24.99158-22.71962l27.26353-51.11912,10.22383-30.67148Z" transform="translate(-158.90468 -206.55465)" fill="#a0616a"/><path d="M957.08364,303.68748l9.1443-.821,3.35149,3.093s19.31167,43.16726,17.03971,47.71118-24.99157,6.81589-24.99157,6.81589L952.53972,333.223Z" transform="translate(-158.90468 -206.55465)" fill="#575a89"/><path d="M870.74912,295.73561l-5.63566-2.45952-2.31621,1.32354s-22.71961,45.43923-17.03971,47.71119,32.94344,5.6799,32.94344,5.6799Z" transform="translate(-158.90468 -206.55465)" fill="#575a89"/><polygon points="735.7 328.597 728.775 376.651 722.329 366.75 735.7 328.597" opacity="0.2"/><path d="M943.79238,230.95184s2.51693,6.625-9.16564,3.2288c0,0-4.62767,2.25616-4.35853-1.59445,0,0-6.37956,6.00314-7.59317,2.04889s-4.538.97263-4.538.97263l-2.51694-6.625-3.23463,3.64334-10.37925-.72546s-1.17123-25.878,34.23532-20.82366,15.05729,44.50353,15.05729,44.50353.22373-7.32083-3.01091-3.67749S943.79238,230.95184,943.79238,230.95184Z" transform="translate(-158.90468 -206.55465)" fill="#2f2e41"/><path d="M368.50886,434.98376V544.06509H824.17374V434.98376Zm273.00855,90.7791H396.6943V510.389H641.51741Zm0-28.55149H396.6943V481.83749H641.51741Zm154.47088-28.55149H396.6943V453.286h399.294Z" transform="translate(-158.90468 -206.55465)" fill="#6c63ff"/><polygon points="460.743 180.28 399.248 180.28 399.248 118.784 440.977 118.784 440.977 120.249 400.712 120.249 400.712 178.816 459.279 178.816 459.279 149.532 460.743 149.532 460.743 180.28" fill="#3f3d56"/><path d="M588.58358,370.7943c-1.4211-4.19614-19.242-18.45992-8.3218-20.8574l8.95523,11.94078,41.17217-41.17145,4.14088,4.14088Z" transform="translate(-158.90468 -206.55465)" fill="#6c63ff"/></svg>