<svg xmlns="http://www.w3.org/2000/svg" xmlns:xlink="http://www.w3.org/1999/xlink" id="e96d43fc-c2ba-4d44-92c2-c0adf9da4e64" width="862.844" height="574" data-name="Layer 1" viewBox="0 0 862.844 574"><defs><linearGradient id="bfa0f4d2-dcfa-4ef6-86fd-560f9baa573d" x1="491.814" x2="491.814" y1="649.09" y2="275.777" gradientUnits="userSpaceOnUse"><stop offset="0" stop-color="gray" stop-opacity=".25"/><stop offset=".535" stop-color="gray" stop-opacity=".12"/><stop offset="1" stop-color="gray" stop-opacity=".1"/></linearGradient><linearGradient id="a8a26417-897b-4824-ba24-124e6df23ee1" x1="743.556" x2="743.556" y1="708.815" y2="647.802" xlink:href="#bfa0f4d2-dcfa-4ef6-86fd-560f9baa573d"/><linearGradient id="ab5b96a4-0813-40c0-b204-ab4c684c1095" x1="322.803" x2="322.803" y1="543.162" y2="385.061" xlink:href="#bfa0f4d2-dcfa-4ef6-86fd-560f9baa573d"/><linearGradient id="abf8dd20-0cff-4ae4-8a34-4657bd98ff8c" x1="519.121" x2="519.121" y1="123.678" y2="29.316" xlink:href="#bfa0f4d2-dcfa-4ef6-86fd-560f9baa573d"/><linearGradient id="be1ebc98-5a27-4b7e-a024-d61eab9032a4" x1="534.557" x2="534.557" y1="145.484" y2="51.121" xlink:href="#bfa0f4d2-dcfa-4ef6-86fd-560f9baa573d"/><linearGradient id="ef1bc669-8f5e-47d2-bcab-fb6965780cb0" x1="656.13" x2="656.13" y1="119.518" y2="65.397" xlink:href="#bfa0f4d2-dcfa-4ef6-86fd-560f9baa573d"/><linearGradient id="fdab1853-eb02-4945-888d-7e18210c292d" x1="771.514" x2="771.514" y1="162.365" y2="18.041" xlink:href="#bfa0f4d2-dcfa-4ef6-86fd-560f9baa573d"/><linearGradient id="abb561b1-6277-47b7-aebb-e0bd47f7b9cd" x1="674.919" x2="674.919" y1="262.903" y2="202.956" xlink:href="#bfa0f4d2-dcfa-4ef6-86fd-560f9baa573d"/><linearGradient id="bfa125eb-3859-436e-b673-157c8f5e610a" x1="637.959" x2="637.959" y1="255.272" y2="180.968" xlink:href="#bfa0f4d2-dcfa-4ef6-86fd-560f9baa573d"/></defs><title>Organizing projects</title><path fill="#3f3d56" d="M274,668.62224c0,18.88026-11.22431,25.47337-25.06914,25.47337-.32233,0-.64293-.00349-.96178-.0122-.64119-.01394-1.27715-.04181-1.9044-.08712-12.49625-.88338-22.20469-7.81624-22.20469-25.37405,0-18.16937,23.21526-41.09715,24.96633-42.79944l.00349-.00175c.06621-.0662.101-.0993.101-.0993S274,649.74024,274,668.62224Z" transform="translate(-168.57802 -163)"/><path fill="#f2f2f2" d="M248.01612,691.20677l9.17006-12.8116-9.19271,14.21769-.02439,1.47055c-.64119-.01394-1.27715-.04181-1.9044-.08712l.98792-18.889-.007-.14637.01743-.02787.09234-1.78419L237.94,658.89462l9.24324,12.91614.02265.37811.74748-14.27172L240.064,643.189l7.98525,12.22094.7771-29.58709.00349-.101v.0993l-.12894,23.332,7.85283-9.25022L248.66776,651.162l-.20733,12.77851,7.33361-12.26276-7.365,14.14451-.115,7.10362,10.64584-17.07L248.274,675.40526Z" transform="translate(-168.57802 -163)"/><path fill="url(#bfa0f4d2-dcfa-4ef6-86fd-560f9baa573d)" d="M592.51319,559.44847c-6.69828-24.31322-43.88872-42.23288-72.90771-46.85833v-11.679q.80456-.29971,1.60018-.61741a25.80449,25.80449,0,0,0-1.39392-6.844A70.43338,70.43338,0,0,0,550.67,469.04284,79.35794,79.35794,0,0,0,535.00069,346.7025a15.57,15.57,0,0,0-6.96213-28.68268,30.3914,30.3914,0,0,0-47.31236-35.30576,30.38171,30.38171,0,0,1,44.65292,26.82984c0,.26671-.01578.52952-.0226.7946a30.38589,30.38589,0,1,0-58.90437,11.367,15.194,15.194,0,0,0-10.05686,22.25626,79.36055,79.36055,0,0,0-19.353,126.21911,70.44524,70.44524,0,0,0,28.62208,22.68125v19.467c-29.3263,4.18973-67.94606,22.44217-74.69415,47.35455-5.88056,21.70968-12.15778,45.55164-15.281,59.54974,26.7709,18.81079,82.94473,29.85609,118.14907,29.85609,33.44821,0,88.11815-9.9692,114.10088-27.09764C605.12483,606.611,598.64958,581.72218,592.51319,559.44847ZM538.88587,334.86914c0,.27668-.01144.55056-.026.82359a15.19713,15.19713,0,0,0-12.61858-14.11309q.44136-.74742.84172-1.5208A15.19746,15.19746,0,0,1,538.88587,334.86914Z" transform="translate(-168.57802 -163)"/><path fill="#7c38b5" d="M493.7806,643.77286c32.49549,0,85.60824-9.68525,110.85087-26.32582-2.73418-14.94272-9.025-39.12268-14.98658-60.76192-7.59245-27.55885-55.51136-46.66462-84.097-46.66462H478.00176c-28.67418,0-76.66223,19.21632-84.15911,46.89313-5.71305,21.0913-11.81148,44.25416-14.84578,57.85354C405.00526,633.04217,459.579,643.77286,493.7806,643.77286Z" transform="translate(-168.57802 -163)"/><circle cx="324.68" cy="252.595" r="77.092" fill="#f55f44"/><path fill="#fda57d" d="M303.86624,306.181h40.33461a6.035,6.035,0,0,1,6.035,6.035v41.24161a24.77978,24.77978,0,0,1-24.77978,24.77978H322.611a24.77978,24.77978,0,0,1-24.77978-24.77978V312.216A6.035,6.035,0,0,1,303.86624,306.181Z"/><path d="M495.03245,504.09727a67.98146,67.98146,0,0,0,25.336-4.88195,25.10935,25.10935,0,0,0-25.04537-23.48378H493.1753a25.1215,25.1215,0,0,0-25.01388,22.85987A67.96813,67.96813,0,0,0,495.03245,504.09727Z" opacity=".05" transform="translate(-168.57802 -163)"/><circle cx="324.817" cy="266.344" r="68.203" fill="#fda57d"/><circle cx="301.717" cy="177.143" r="14.762" fill="#f55f44"/><circle cx="354.205" cy="177.143" r="14.762" fill="#f55f44"/><circle cx="326.32" cy="152.539" r="29.525" fill="#f55f44"/><path fill="#f55f44" d="M526.0633,322.10008a14.69253,14.69253,0,0,0-8.23833,2.51185,14.75544,14.75544,0,0,1,13.19614,26.1412,14.754,14.754,0,0,0-4.95781-28.65305Z" transform="translate(-168.57802 -163)"/><path fill="#f55f44" d="M499.81918,281.09365a29.40313,29.40313,0,0,0-18.77716,6.73953,29.52238,29.52238,0,0,1,32.63315,48.85092,29.52118,29.52118,0,0,0-13.856-55.59045Z" transform="translate(-168.57802 -163)"/><path fill="#f55f44" d="M444.05043,368.02729s8.20128,54.1285,111.5375,24.60386L504.74,348.3442Z" transform="translate(-168.57802 -163)"/><rect width="71.055" height="30.236" x="45.227" y="515.012" fill="#7c38b5" rx="14.297"/><g opacity=".7"><path fill="url(#a8a26417-897b-4824-ba24-124e6df23ee1)" d="M763.71145,658.69733V647.80222H709.23591V698.1921a10.62275,10.62275,0,0,0,10.62273,10.62273h33.23008a10.62275,10.62275,0,0,0,10.62273-10.62273V687.02461a14.16364,14.16364,0,1,0,0-28.32728Zm0,22.87973V664.14489a8.71609,8.71609,0,0,1,0,17.43217Z" transform="translate(-168.57802 -163)"/></g><path fill="#7c38b5" d="M761.95876,660.40265a12.932,12.932,0,1,0,12.932,12.932A12.932,12.932,0,0,0,761.95876,660.40265Zm0,20.89019a7.95817,7.95817,0,1,1,7.95816-7.95817A7.95818,7.95818,0,0,1,761.95876,681.29284Z" transform="translate(-168.57802 -163)"/><path d="M761.95876,660.40265a12.932,12.932,0,1,0,12.932,12.932A12.932,12.932,0,0,0,761.95876,660.40265Zm0,20.89019a7.95817,7.95817,0,1,1,7.95816-7.95817A7.95818,7.95818,0,0,1,761.95876,681.29284Z" opacity=".1" transform="translate(-168.57802 -163)"/><path fill="#7c38b5" d="M543.6422,487.45495h49.73854a0,0,0,0,1,0,0v45.95716a9.75,9.75,0,0,1-9.75,9.75H553.3922a9.75,9.75,0,0,1-9.75-9.75V487.45495A0,0,0,0,1,543.6422,487.45495Z"/><rect width="645.606" height="21.885" y="543.162" fill="#e0e0e0"/><g opacity=".7"><rect width="274.557" height="158.101" x="185.525" y="385.061" fill="url(#ab5b96a4-0813-40c0-b204-ab4c684c1095)" rx="14.5"/></g><rect width="264.609" height="155.184" x="190.499" y="387.978" fill="#535461" rx="26.835"/><circle cx="322.803" cy="465.57" r="8.953" fill="#fff"/><rect width="590.894" height="8.953" x="27.356" y="565.047" fill="#e0e0e0"/><rect width="590.894" height="2.984" x="27.356" y="565.047" opacity=".1"/><path d="M753.00582,650.455v46.00814a9.699,9.699,0,0,1-9.699,9.699h4.97385a9.699,9.699,0,0,0,9.699-9.699V650.455Z" opacity=".1" transform="translate(-168.57802 -163)"/><path fill="#eee" d="M722.03546,613.37321a2.90423,2.90423,0,0,0-2.1965,1.11521c-.65244,1.18276.52985,2.51633,1.60877,3.329,1.99324,1.50147,4.09411,2.97632,5.449,5.072s1.7805,5.02022.29944,7.02867c-1.93388,2.62249-6.5477,3.18662-6.99422,6.4143-.28666,2.07216,1.50475,3.8403,3.31992,4.88008,4.48025,2.5664,10.25592,3.25107,13.50114,7.267,1.34247-2.76054,4.34521-4.35628,7.33829-5.03772s6.10287-.63057,9.13753-1.09285a3.15939,3.15939,0,0,0,2.52119-1.33731c.8483-1.72159-1.56943-3.78639-.735-5.51473.63512-1.31546,2.50084-1.2133,3.86329-1.74011,2.21844-.85777,3.13325-3.71287,2.50361-6.00651s-2.40819-4.08614-4.27841-5.55575c-5.0403-3.96061-11.10094-6.28982-17.2309-7.96517-2.851-.7792-6.19776-2.00112-9.159-2.11925C728.125,611.996,724.86481,612.88918,722.03546,613.37321Z" transform="translate(-168.57802 -163)"/><rect width="434.476" height="297.668" x="428.368" fill="#535461" opacity=".1"/><g opacity=".5"><rect width="102.276" height="94.362" x="467.983" y="29.316" fill="url(#abf8dd20-0cff-4ae4-8a34-4657bd98ff8c)" rx="4.5"/></g><rect width="99.917" height="92.074" x="469.232" y="30.047" fill="#f5f5f5" rx="4.5"/><rect width="16.85" height="15.165" x="476.932" y="45.213" fill="#7c38b5" rx="4.5"/><rect width="66.985" height="1.685" x="498.838" y="45.213" fill="#e0e0e0" rx=".797"/><rect width="66.985" height="1.685" x="498.838" y="50.268" fill="#e0e0e0" rx=".797"/><rect width="90.576" height="1.685" x="475.247" y="68.616" fill="#e0e0e0" rx=".797"/><rect width="90.576" height="1.685" x="475.247" y="73.671" fill="#e0e0e0" rx=".797"/><rect width="90.576" height="1.685" x="475.247" y="80.411" fill="#e0e0e0" rx=".797"/><rect width="52.236" height="1.685" x="475.247" y="85.467" fill="#e0e0e0" rx=".797"/><rect width="90.576" height="1.685" x="475.247" y="92.19" fill="#e0e0e0" rx=".797"/><rect width="90.576" height="1.685" x="475.247" y="97.245" fill="#e0e0e0" rx=".797"/><rect width="90.576" height="1.685" x="475.247" y="103.986" fill="#e0e0e0" rx=".797"/><rect width="52.236" height="1.685" x="475.247" y="109.041" fill="#e0e0e0" rx=".797"/><g opacity=".5"><rect width="102.276" height="94.362" x="483.419" y="51.121" fill="url(#be1ebc98-5a27-4b7e-a024-d61eab9032a4)" rx="4.5"/></g><rect width="99.917" height="92.074" x="484.667" y="51.853" fill="#fff" rx="4.5"/><rect width="16.85" height="15.165" x="492.367" y="67.018" fill="#7c38b5" rx="4.5"/><rect width="66.985" height="1.685" x="514.273" y="67.018" fill="#e0e0e0" rx=".797"/><rect width="66.985" height="1.685" x="514.273" y="72.073" fill="#e0e0e0" rx=".797"/><rect width="90.576" height="1.685" x="490.682" y="90.422" fill="#e0e0e0" rx=".797"/><rect width="90.576" height="1.685" x="490.682" y="95.477" fill="#e0e0e0" rx=".797"/><rect width="90.576" height="1.685" x="490.682" y="102.217" fill="#e0e0e0" rx=".797"/><rect width="52.236" height="1.685" x="490.682" y="107.272" fill="#e0e0e0" rx=".797"/><rect width="90.576" height="1.685" x="490.682" y="113.996" fill="#e0e0e0" rx=".797"/><rect width="90.576" height="1.685" x="490.682" y="119.051" fill="#e0e0e0" rx=".797"/><rect width="90.576" height="1.685" x="490.682" y="125.791" fill="#e0e0e0" rx=".797"/><rect width="52.236" height="1.685" x="490.682" y="130.846" fill="#e0e0e0" rx=".797"/><rect width="56.331" height="54.122" x="627.965" y="65.397" fill="url(#ef1bc669-8f5e-47d2-bcab-fb6965780cb0)"/><rect width="54.563" height="51.692" x="628.848" y="66.722" fill="#f5f5f5"/><g opacity=".6"><rect width="19.66" height="2.651" x="646.741" y="97.428" fill="#7c38b5"/></g><rect width="33.577" height="2.651" x="639.341" y="102.288" fill="#bdbdbd"/><g opacity=".5"><rect width="122.835" height="144.324" x="710.096" y="18.041" fill="url(#fdab1853-eb02-4945-888d-7e18210c292d)"/></g><rect width="116.447" height="138.807" x="713.871" y="20.364" fill="#fff"/><rect width="81.89" height="3.485" x="731.295" y="81.264" fill="#e0e0e0"/><rect width="81.89" height="3.485" x="731.295" y="104.204" fill="#e0e0e0"/><rect width="81.89" height="3.485" x="731.295" y="110.303" fill="#e0e0e0"/><rect width="34.556" height="3.485" x="731.295" y="98.106" fill="#e0e0e0"/><rect width="25.845" height="3.485" x="787.34" y="98.106" fill="#3ad29f" opacity=".6"/><rect width="25.845" height="3.485" x="760.043" y="124.532" fill="#7c38b5"/><g opacity=".5"><rect width="72.986" height="59.948" x="638.426" y="202.956" fill="url(#abb561b1-6277-47b7-aebb-e0bd47f7b9cd)"/></g><rect width="71.144" height="57.822" x="639.277" y="204.089" fill="#f2f2f2"/><rect width="71.144" height="12.897" x="639.277" y="204.089" fill="#7c38b5"/><rect width="71.144" height="12.897" x="639.277" y="204.089" opacity=".1"/><rect width="59.806" height="7.511" x="644.945" y="221.663" fill="#e0e0e0"/><rect width="43.65" height="2.551" x="644.945" y="234.843" fill="#e0e0e0"/><rect width="28.344" height="2.551" x="644.945" y="239.236" fill="#e0e0e0"/><rect width="37.414" height="2.551" x="644.945" y="243.629" fill="#e0e0e0"/><rect width="43.65" height="2.551" x="644.945" y="248.023" fill="#e0e0e0"/><rect width="14.597" height="2.551" x="644.945" y="252.416" fill="#e0e0e0"/><g opacity=".5"><rect width="90.464" height="74.304" x="592.726" y="180.968" fill="url(#bfa125eb-3859-436e-b673-157c8f5e610a)"/></g><rect width="88.181" height="71.669" x="593.78" y="182.374" fill="#fff"/><rect width="88.181" height="15.985" x="593.78" y="182.374" fill="#7c38b5"/><rect width="74.128" height="9.31" x="600.807" y="204.155" fill="#f5f5f5"/><rect width="54.103" height="3.162" x="600.807" y="220.492" fill="#e0e0e0"/><rect width="35.132" height="3.162" x="600.807" y="225.937" fill="#e0e0e0"/><rect width="46.374" height="3.162" x="600.807" y="231.382" fill="#e0e0e0"/><rect width="54.103" height="3.162" x="600.807" y="236.828" fill="#e0e0e0"/><rect width="18.093" height="3.162" x="600.807" y="242.273" fill="#e0e0e0"/><rect width="21.079" height="2.811" x="604.671" y="207.317" fill="#69f0ae"/><circle cx="469.373" cy="366.072" r="12.214" fill="#535461" opacity=".1"/><circle cx="492.057" cy="326.812" r="12.214" fill="#535461" opacity=".1"/></svg>