<svg xmlns="http://www.w3.org/2000/svg" xmlns:xlink="http://www.w3.org/1999/xlink" id="e2165270-d70d-4354-9ac9-1848d055b0c2" width="971.44" height="662" data-name="Layer 1" viewBox="0 0 971.44 662"><defs><linearGradient id="afa9b5ae-644d-481c-a512-b5b81b77e42b" x1="979.446" x2="979.446" y1="738.59" y2="646.785" gradientUnits="userSpaceOnUse"><stop offset="0" stop-color="gray" stop-opacity=".25"/><stop offset=".535" stop-color="gray" stop-opacity=".12"/><stop offset="1" stop-color="gray" stop-opacity=".1"/></linearGradient><linearGradient id="bf9220ea-365d-417c-960f-9ff5535a2d22" x1="600.652" x2="600.652" y1="650.105" y2="119" xlink:href="#afa9b5ae-644d-481c-a512-b5b81b77e42b"/><linearGradient id="b4202d31-0de8-4369-b735-813ee4300deb" x1="485.72" x2="485.72" y1="615.598" y2="377.704" xlink:href="#afa9b5ae-644d-481c-a512-b5b81b77e42b"/></defs><title>Designer</title><path fill="#3f3d56" d="M260.11393,656.80937c-6.98452,26.59789-31.459,43.21966-31.459,43.21966s-13.15033-26.50193-6.16581-53.09982,31.459-43.21966,31.459-43.21966S267.09845,630.21148,260.11393,656.80937Z" transform="translate(-114.2798 -119)"/><path fill="#6c63ff" d="M249.52,651.18266c-19.56251,19.32716-21.75117,48.83128-21.75117,48.83128s29.52845-1.83141,49.091-21.15858,21.75116-48.83129,21.75116-48.83129S269.08248,631.85549,249.52,651.18266Z" transform="translate(-114.2798 -119)"/><rect width="106.916" height="45.496" x="68.053" y="573.241" fill="#6c63ff" rx="15.198"/><g opacity=".7"><path fill="url(#afa9b5ae-644d-481c-a512-b5b81b77e42b)" d="M1009.77408,663.17837V646.78456H927.805V722.606a15.984,15.984,0,0,0,15.984,15.984h50.00113a15.984,15.984,0,0,0,15.984-15.984V705.80229a21.312,21.312,0,0,0,0-42.62392Zm0,34.427v-26.2301a13.115,13.115,0,0,1,0,26.2301Z" transform="translate(-114.2798 -119)"/></g><path fill="#6c63ff" d="M1007.13681,665.74436a19.45875,19.45875,0,1,0,19.45875,19.45874A19.45877,19.45877,0,0,0,1007.13681,665.74436Zm0,31.43336a11.97462,11.97462,0,1,1,11.97461-11.97462A11.97462,11.97462,0,0,1,1007.13681,697.17772Z" transform="translate(-114.2798 -119)"/><path d="M1007.13681,665.74436a19.45875,19.45875,0,1,0,19.45875,19.45874A19.45877,19.45877,0,0,0,1007.13681,665.74436Zm0,31.43336a11.97462,11.97462,0,1,1,11.97461-11.97462A11.97462,11.97462,0,0,1,1007.13681,697.17772Z" opacity=".1" transform="translate(-114.2798 -119)"/><path fill="#6c63ff" d="M818.01569,531.77609H892.857a0,0,0,0,1,0,0v74.07228a9.75,9.75,0,0,1-9.75,9.75H827.76569a9.75,9.75,0,0,1-9.75-9.75V531.77609A0,0,0,0,1,818.01569,531.77609Z"/><rect width="971.44" height="32.93" y="615.598" fill="#e0e0e0"/><g opacity=".7"><path fill="url(#bf9220ea-365d-417c-960f-9ff5535a2d22)" d="M753.24926,514.26464c-10.41165-37.79179-69.43785-65.38862-113.8507-71.50773.006-.27882.02112-.55536.02112-.83569V409.571c.04726-.01733.09584-.03182.143-.04925v-1.22615A110.93933,110.93933,0,0,0,706.57314,338.064a119.882,119.882,0,0,0,7.14989-15.41561c4.74115-1.72629,8.322-9.54462,8.322-18.93884a33.06945,33.06945,0,0,0-1.3381-9.49537,121.52779,121.52779,0,0,0,.88891-14.41912,120.17944,120.17944,0,0,0-39.6966-89.38228,23.44841,23.44841,0,0,0,.37522-5.87723c-1.00473-15.52708-17.58929-26.07586-33.13284-26.78142a32.8005,32.8005,0,0,0,5.53147-34.63658c-9.91113,14.43929-30.25853,15.97418-47.77168,16.08774,7.55675-2.9265,10.95734-13.39715,6.56225-20.20525-18.30375,24.53386-53.985,29.07689-75.75576,50.59371a63.8633,63.8633,0,0,0-11.77976,16.06661,120.24089,120.24089,0,0,0-45.31946,94.1347,121.55587,121.55587,0,0,0,.87233,14.28918,32.96391,32.96391,0,0,0-1.38014,9.62531c0,9.43741,3.61453,17.27988,8.38807,18.95778a119.88387,119.88387,0,0,0,7.18266,15.46665,110.91725,110.91725,0,0,0,66.54128,69.98516v33.80212c0,.26025.01449.51691.0196.77593-44.58123,6.01408-104.079,33.82817-114.39809,71.92387-8.91132,32.89854-18.42365,69.02824-23.15665,90.24078,40.56827,28.50553,125.69315,45.24341,179.04119,45.24341,50.6869,0,133.53278-15.10715,172.90663-41.06339C772.36065,585.734,762.54821,548.0178,753.24926,514.26464Z" transform="translate(-114.2798 -119)"/></g><path fill="#6c63ff" d="M603.61048,640.72159c48.89581,0,128.8143-14.57335,166.79676-39.61233-4.11411-22.48424-13.57985-58.86769-22.55024-91.42816-11.42431-41.46766-83.52767-70.216-126.54025-70.216h-41.4486c-43.1459,0-115.35328,28.91469-126.6338,70.55985-8.5964,31.736-17.77266,66.589-22.33837,87.05194C470.03068,624.57518,552.14757,640.72159,603.61048,640.72159Z" transform="translate(-114.2798 -119)"/><circle cx="486.807" cy="164.497" r="116.236" fill="#72351c"/><path d="M449.29134,261.31116H523.77a0,0,0,0,1,0,0v59.58294a37.23927,37.23927,0,0,1-37.23927,37.23927h-.00007a37.23927,37.23927,0,0,1-37.23927-37.23927V261.31116A0,0,0,0,1,449.29134,261.31116Z" opacity=".1"/><path fill="#fda57d" d="M459.97433,258.55269H513.087a10.683,10.683,0,0,1,10.683,10.683v48.89994a37.23927,37.23927,0,0,1-37.23927,37.23927h-.00007a37.23927,37.23927,0,0,1-37.23927-37.23927V269.23568A10.683,10.683,0,0,1,459.97433,258.55269Z"/><path d="M563.70906,408.43366a107.19075,107.19075,0,0,0,74.47862.20587v-9.14914H563.70906Z" opacity=".1" transform="translate(-114.2798 -119)"/><circle cx="486.807" cy="187.668" r="106.753" fill="#fda57d"/><path d="M525.04613,209.56488S570.036,300.88751,696.94755,247.8398L667.402,201.507l-52.37621-18.80172Z" opacity=".1" transform="translate(-114.2798 -119)"/><path fill="#72351c" d="M525.04613,208.2219s44.98982,91.32263,171.90142,38.27492L667.402,200.164,615.02578,181.3623Z" transform="translate(-114.2798 -119)"/><path fill="#72351c" d="M524.64663,202.0522a61.66959,61.66959,0,0,1,15.28543-24.86262c21.00146-20.75652,55.42186-25.13895,73.07881-48.80594,4.23984,6.56758.95939,16.66822-6.33032,19.49128,16.89431-.10957,36.52273-1.59016,46.08358-15.51925a31.6415,31.6415,0,0,1-5.336,33.4127c14.99426.68059,30.99283,10.85661,31.962,25.835.64565,9.97871-5.6112,19.42651-13.81131,25.14924s-18.12112,8.34985-27.88617,10.50284C609.18758,233.54021,506.04616,259.8821,524.64663,202.0522Z" transform="translate(-114.2798 -119)"/><path fill="#72351c" d="M707.83565,307.60241h-2.83022l-55.06218,49.01876c-53.0477-24.84513-91.99411,0-91.99411,0L500.201,309.61688l-5.82291.73165a106.75011,106.75011,0,0,0,213.45756-2.74612ZM600.92449,375.42289c-20.76778,0-37.60344-4.209-37.60344-9.40086s16.83566-9.40086,37.60344-9.40086,37.60344,4.20894,37.60344,9.40086S621.69227,375.42289,600.92449,375.42289Z" transform="translate(-114.2798 -119)"/><ellipse cx="380.011" cy="187.566" fill="#fda57d" rx="9.93" ry="18.62"/><ellipse cx="593.545" cy="187.566" fill="#fda57d" rx="9.93" ry="18.62"/><g opacity=".7"><rect width="413.124" height="237.894" x="279.158" y="377.704" fill="url(#b4202d31-0de8-4369-b735-813ee4300deb)" rx="14.5"/></g><rect width="398.156" height="233.505" x="286.642" y="382.093" fill="#535461" rx="26.835"/><circle cx="485.72" cy="498.846" r="13.471" fill="#fff"/><rect width="889.115" height="13.471" x="41.163" y="648.529" fill="#e0e0e0"/><rect width="889.115" height="4.49" x="41.163" y="648.529" opacity=".1"/><path d="M993.66537,650.77609v69.22823a14.59407,14.59407,0,0,1-14.59405,14.59406h7.48413a14.59408,14.59408,0,0,0,14.59406-14.59406V650.77609Z" opacity=".1" transform="translate(-114.2798 -119)"/><path fill="#eee" d="M947.06443,594.97939c-1.26234.216-2.68649.55668-3.30507,1.67806-.98172,1.77969.79727,3.7863,2.42071,5.0092,2.99922,2.25925,6.16039,4.47845,8.19907,7.63175s2.67912,7.5539.45056,10.576c-2.9099,3.94605-9.85229,4.79489-10.52416,9.65158-.43133,3.11795,2.26418,5.77847,4.99546,7.343,6.74142,3.86165,15.432,4.89187,20.3151,10.93461,2.02-4.15378,6.53823-6.55488,11.04189-7.58024s9.183-.94882,13.7492-1.6444c1.47405-.22454,3.13458-.67474,3.79362-2.01224,1.27644-2.59048-2.36152-5.69737-1.1059-8.298.95565-1.97936,3.763-1.82565,5.81307-2.61832,3.33807-1.29069,4.71459-5.58675,3.76717-9.038s-3.62359-6.14839-6.4377-8.3597c-7.58411-5.95952-16.70353-9.46426-25.92726-11.98516-4.2899-1.17245-9.32574-3.01108-13.78142-3.18882C956.2274,592.90716,951.32174,594.25107,947.06443,594.97939Z" transform="translate(-114.2798 -119)"/></svg>