<svg xmlns="http://www.w3.org/2000/svg" id="e49cd177-4f21-4b2c-9072-3096883e7875" width="819.571" height="641.807" data-name="Layer 1" viewBox="0 0 819.571 641.807"><path fill="#f2f2f2" d="M334.77145,657.99886c-13.71858-9.21282-26.57168-30.26129-15.1905-47.84554,5.64447-8.72086,15.49314-11.94609,24.76948-12.89552,12.83117-1.31326,25.8106,1.37332,37.74418,5.433,13.76466,4.6825,26.68525,11.48117,39.48567,18.33381,12.63671,6.76494,25.33933,13.36443,38.31626,19.4334a665.52091,665.52091,0,0,0,78.75812,30.87618A660.41535,660.41535,0,0,0,619.06875,691.676q20.25532,3.78075,40.76955,6.23141c12.76652,1.51691,25.63393,2.90268,38.57207,2.84777,17.04678-.07245,45.4984-2.05732,51.76261-23.87,3.32148-11.56577-1.17362-23.59534-6.794-32.94841-6.79582-11.3091-16.1236-20.647-25.27558-29.7517q-63.8548-63.5247-128.0156-126.70859c-9.95922-9.85716-20.05229-19.60671-29.31061-30.21555-8.668-9.93246-16.92654-20.76291-22.12417-33.30782-4.53966-10.957-7.199-24.32455-2.28691-36.18727,4.07375-9.838,12.838-16.11309,22.00281-19.78153,22.69022-9.08234,48.64975-6.21771,71.17476-1.22982,27.985,6.19691,54.7387,16.67255,82.68576,23.01738,22.56557,5.12305,47.75524,7.83594,70.75053.11706,8.8167-2.95951,17.47363-7.81986,23.3936-15.70465,5.799-7.72372,7.83241-17.396,6.91232-26.77975-1.08593-11.075-5.70046-21.3621-11.22176-30.46651a134.01312,134.01312,0,0,0-23.885-28.63461c-19.82123-18.33734-42.57052-32.74029-63.7963-49.16216-10.40957-8.05363-20.80767-16.48783-29.40729-26.69587-7.28576-8.64844-14.71378-19.37106-15.91946-31.47254-2.48764-24.96816,27.69657-27.47844,43.88927-26.57005a234.62315,234.62315,0,0,1,32.81609,4.65087c2.31439.46276,2.78669-3.4563.48311-3.91691-11.36344-2.27218-22.86141-4.23823-34.5189-4.73524-9.81525-.41844-20.26944-.01325-29.68795,4.03222-7.9103,3.39765-14.58679,10.00823-16.36254,19.04573-2.101,10.693,2.722,21.44867,7.89768,29.8964,6.84425,11.17122,16.05075,20.31717,25.75907,28.63332,10.22459,8.75844,21.05682,16.703,31.90893,24.5843,21.685,15.74864,44.72186,31.23332,61.27552,53.186,11.57981,15.35656,25.41443,41.0725,11.80841,60.93384-6.03976,8.81656-15.84,13.726-25.39807,16.41891-11.55131,3.25453-23.56672,3.866-35.26959,3.254-54.57173-2.854-103.26934-35.08136-158.83759-31.71068-18.89354,1.14606-43.59389,7.02158-52.02907,28.153-4.38189,10.97734-2.96992,23.1666.53436,33.734,4.1971,12.65684,11.70613,23.73732,19.8478,33.72692,8.61242,10.56716,18.22484,20.15963,27.838,29.6855q16.0482,15.90241,32.11377,31.78547l64.97585,64.30988,32.28356,31.9528c9.85309,9.7521,20.09207,19.4144,27.93294,31.14267,6.42006,9.60308,12.90094,23.7749,7.10189,35.9632-4.6054,9.67961-15.44283,13.72949-24.65755,15.66808-11.932,2.51022-24.17754,2.365-36.10354,1.56064-13.75589-.92781-27.45627-2.59179-41.05477-4.58807a642.11378,642.11378,0,0,1-82.90521-17.8899,667.5143,667.5143,0,0,1-80.18135-28.51789q-19.78437-8.49442-38.99381-18.27764c-13.199-6.7266-26.05147-14.16688-39.4544-20.47606-12.12315-5.7068-24.77162-10.42275-38.09223-12.50563-11.12249-1.73916-23.51415-1.93537-34.35823,2.89122a29.834,29.834,0,0,0-16.32742,17.9957,36.79335,36.79335,0,0,0,1.26283,24.64618,47.41333,47.41333,0,0,0,17.91842,21.57062c1.95976,1.31611,4.26836-1.88528,2.2999-3.20721Z" transform="translate(-190.21447 -129.09644)"/><path fill="#fff" d="M1009.78553,231.09644h-301v-102h301Z" transform="translate(-190.21447 -129.09644)"/><rect width="290" height="195.648" x="335.626" y="319.659" fill="#fff"/><path fill="#3f3d56" d="M816.84046,645.40356h-292V447.75562h292Zm-290-2h288V449.75562h-288Z" transform="translate(-190.21447 -129.09644)"/><path fill="#e6e6e6" d="M550.3475,601.51624H791.33342V464.2768H550.3475Z" transform="translate(-190.21447 -129.09644)"/><circle cx="431.026" cy="396.355" r="24.153" fill="#6c63ff"/><path fill="#3f3d56" d="M696.98143,599.88244H578.49376a2.41321,2.41321,0,0,1-.44276-.0351l56.03922-97.068a3.92371,3.92371,0,0,1,6.83011,0l37.60932,65.14015,1.80178,3.117Z" transform="translate(-190.21447 -129.09644)"/><polygon points="506.767 470.786 466.312 470.786 486.171 441.94 487.601 439.862 488.316 438.823 490.117 441.94 506.767 470.786" opacity=".2" style="isolation:isolate"/><path fill="#3f3d56" d="M762.95452,599.88244H660.47241l19.859-28.846,1.42913-2.078,25.87808-37.59177a5.23628,5.23628,0,0,1,7.77263-.4647,4.67237,4.67237,0,0,1,.37266.4647Z" transform="translate(-190.21447 -129.09644)"/><rect width="295" height="143" x="436.571" y="138" fill="#fff"/><circle cx="484.495" cy="185.33" r="21.338" fill="#e6e6e6"/><path fill="#e6e6e6" d="M723.99148,300.201a3.55641,3.55641,0,0,0,0,7.11282H891.65085a3.55642,3.55642,0,0,0,0-7.11282Z" transform="translate(-190.21447 -129.09644)"/><path fill="#e6e6e6" d="M723.99148,321.53943a3.55642,3.55642,0,1,0-.015,7.11282h72.15933a3.55641,3.55641,0,1,0,0-7.11282Z" transform="translate(-190.21447 -129.09644)"/><path fill="#e6e6e6" d="M658.34264,355.6535c-2.70528,0-4.90674,1.59558-4.90674,3.55642s2.20146,3.55639,4.90674,3.55639H889.661c2.70531,0,4.90674-1.59561,4.90674-3.55639s-2.20149-3.55642-4.90674-3.55642Z" transform="translate(-190.21447 -129.09644)"/><path fill="#e6e6e6" d="M658.34264,376.99194c-2.70528,0-4.90674,1.59555-4.90674,3.5564s2.20146,3.55639,4.90674,3.55639H889.661c2.70531,0,4.90674-1.59561,4.90674-3.55639s-2.20149-3.5564-4.90674-3.5564Z" transform="translate(-190.21447 -129.09644)"/><path fill="#e6e6e6" d="M924.78553,413.09644h-301v-149h301Zm-295-6h289v-137h-289Z" transform="translate(-190.21447 -129.09644)"/><circle cx="569.495" cy="50.33" r="21.338" fill="#e6e6e6"/><path fill="#e6e6e6" d="M808.99148,165.201a3.55641,3.55641,0,0,0,0,7.11282H976.65085a3.55642,3.55642,0,0,0,0-7.11282Z" transform="translate(-190.21447 -129.09644)"/><path fill="#e6e6e6" d="M808.99148,186.53943a3.55642,3.55642,0,1,0-.015,7.11282h72.15933a3.55641,3.55641,0,1,0,0-7.11282Z" transform="translate(-190.21447 -129.09644)"/><path fill="#e6e6e6" d="M1009.78553,231.09644h-301v-102h301Zm-295-6h289v-90h-289Z" transform="translate(-190.21447 -129.09644)"/><polygon fill="#ffb8b8" points="184.403 624.868 200.589 624.867 208.29 562.433 184.4 562.435 184.403 624.868"/><path fill="#2f2e41" d="M371.149,749.33891h50.87185a0,0,0,0,1,0,0v19.655a0,0,0,0,1,0,0h-35.985A14.88686,14.88686,0,0,1,371.149,754.10709v-4.76818A0,0,0,0,1,371.149,749.33891Z" transform="translate(602.99008 1389.21831) rotate(179.99738)"/><polygon fill="#ffb8b8" points="119.708 624.868 135.895 624.867 143.595 562.433 119.706 562.435 119.708 624.868"/><path fill="#2f2e41" d="M306.45467,749.33891h50.87185a0,0,0,0,1,0,0v19.655a0,0,0,0,1,0,0h-35.985a14.88686,14.88686,0,0,1-14.88686-14.88686v-4.76818A0,0,0,0,1,306.45467,749.33891Z" transform="translate(473.60137 1389.22127) rotate(179.99738)"/><path fill="#ffb8b8" d="M402.81806,573.98138a12.38035,12.38035,0,0,1,1.067-18.95377l-6.9347-27.42815L412.59059,519.32l9.24911,38.87141a12.44744,12.44744,0,0,1-19.02164,15.79Z" transform="translate(-190.21447 -129.09644)"/><polygon fill="#2f2e41" points="113.952 396.978 115.272 489.399 116.592 610.866 145.639 608.225 160.162 440.548 178.646 608.225 208.633 608.225 211.653 439.227 201.091 402.259 113.952 396.978"/><path fill="#6c63ff" d="M361.01719,538.48541c-31.60436.00242-60.6958-14.30179-61.08849-14.49814l-.32623-.16312L296.95029,460.175c-.76907-2.24921-15.91334-46.63112-18.47821-60.73779-2.59871-14.29213,35.06456-26.83528,39.6382-28.30213l1.03792-11.49738,42.2064-4.548,5.34935,14.7114,15.14186,5.67771a7.4896,7.4896,0,0,1,4.64191,8.79869l-8.41567,34.2233,16.55373,113.22725-.425.19151C383.59419,536.70985,372.14665,538.48481,361.01719,538.48541Z" transform="translate(-190.21447 -129.09644)"/><path fill="#6c63ff" d="M398.74994,545.58949l-14.64707-60.298-15.87558-72.76318,8.05862-36.2653h6.88961c.12627,0,12.64615.18728,15.34183,16.3601,2.61078,15.66474,10.48393,65.51834,10.56307,66.01978l13.30648,85.16194Z" transform="translate(-190.21447 -129.09644)"/><path fill="#ffb8b8" d="M336.07524,535.39962a12.38034,12.38034,0,0,0-15.11512-11.48551l-16.372-23.07271-16.44782,6.52949,23.57812,32.25841a12.44744,12.44744,0,0,0,24.35686-4.22968Z" transform="translate(-190.21447 -129.09644)"/><path fill="#6c63ff" d="M304.16674,533.68975l-49.53915-64.26717,18.56189-58.33693c1.36022-14.6667,10.538-18.76216,10.92858-18.92951l.59569-.25555L300.866,434.97454,289.00646,466.6l29.109,48.95707Z" transform="translate(-190.21447 -129.09644)"/><circle cx="341.905" cy="317.421" r="30.389" fill="#ffb8b8" transform="translate(-300.56943 73.80032) rotate(-28.66319)"/><path fill="#2f2e41" d="M362.30818,302.61883c-3.14573,3.72278-8.46951,4.77328-13.38045,5.204-9.97353.87471-24.47619-.54414-34.223-2.79449-.69561,6.74242,1.20105,14.01237-2.77028,19.55871a90.79845,90.79845,0,0,1-3.22612-20.58362c-.12038-2.98589-.07325-6.07478,1.14028-8.81587s3.85958-5.06786,6.907-5.09221a17.311,17.311,0,0,0-7.7218-3.30125l9.64913-4.849-2.47789-2.54393,17.46919-1.069-5.05972-3.21438a109.71477,109.71477,0,0,1,22.98556-.72558c3.55989.26226,7.28177.7633,10.16613,2.82589s4.551,6.162,2.7604,9.1903a13.344,13.344,0,0,1,10.16941,8.069c1.28588,3.26,1.168,6.88092.772,10.35461a73.39881,73.39881,0,0,1-3.84846,16.281" transform="translate(-190.21447 -129.09644)"/><path fill="#ccc" d="M572.21447,770.90356h-381a1,1,0,0,1,0-2h381a1,1,0,1,1,0,2Z" transform="translate(-190.21447 -129.09644)"/></svg>