<svg id="ed283abe-d35d-4870-aca9-7e129b645167" data-name="Layer 1" xmlns="http://www.w3.org/2000/svg" width="743.12956" height="477.70146" viewBox="0 0 743.12956 477.70146"><path d="M856.58507,452.44486l.96659,123.00988a6.50753,6.50753,0,0,1-6.44873,6.55087l-14.75882.116a6.50752,6.50752,0,0,1-6.55087-6.44872L828.82665,452.663a6.50753,6.50753,0,0,1,6.44873-6.55087l14.75882-.116A6.50752,6.50752,0,0,1,856.58507,452.44486Z" transform="translate(-228.43522 -211.14927)" fill="#6c63ff"/><rect x="419.09695" y="475.46074" width="324.03261" height="2.24072" fill="#3f3d56"/><path d="M803.69878,687.86319H788.9395a6.50753,6.50753,0,0,1-6.5-6.5V558.34951a6.50753,6.50753,0,0,1,6.5-6.5h14.75928a6.50753,6.50753,0,0,1,6.5,6.5V681.36319A6.50753,6.50753,0,0,1,803.69878,687.86319Z" transform="translate(-228.43522 -211.14927)" fill="#2f2e41"/><path d="M832.89116,687.86319H818.1314a6.50753,6.50753,0,0,1-6.5-6.5V558.34951a6.50753,6.50753,0,0,1,6.5-6.5h14.75976a6.50753,6.50753,0,0,1,6.5,6.5V681.36319A6.50753,6.50753,0,0,1,832.89116,687.86319Z" transform="translate(-228.43522 -211.14927)" fill="#2f2e41"/><circle cx="582.48011" cy="145.40278" r="53.51916" fill="#6c63ff"/><path d="M803.03978,376.388l.05566-2c-3.7207-.10352-7.001-.33692-9.46582-2.1377a6.148,6.148,0,0,1-2.38135-4.52832,3.51437,3.51437,0,0,1,1.15283-2.89453c1.63623-1.38184,4.269-.93457,6.188-.05469l1.65479.75879-3.17334-23.19043-1.98145.27148,2.69922,19.72657c-2.60742-.7666-5.02344-.43653-6.67822.96093a5.471,5.471,0,0,0-1.86035,4.49219,8.13266,8.13266,0,0,0,3.20019,6.07324C795.61692,376.18,799.73265,376.29526,803.03978,376.388Z" transform="translate(-228.43522 -211.14927)" fill="#2f2e41"/><rect x="546.08307" y="133.16455" width="10.77148" height="2" fill="#2f2e41"/><rect x="580.08307" y="133.16455" width="10.77148" height="2" fill="#2f2e41"/><path d="M864.83678,490.04139h-44v-49a22,22,0,0,1,44,0Z" transform="translate(-228.43522 -211.14927)" fill="#ccc"/><path d="M783.15233,459.30577l-92.07449,81.576a6.50752,6.50752,0,0,1-9.17563-.55473l-9.78756-11.04717a6.50753,6.50753,0,0,1,.55473-9.17564l92.0745-81.57605a6.50752,6.50752,0,0,1,9.17563.55474l9.78756,11.04717A6.50752,6.50752,0,0,1,783.15233,459.30577Z" transform="translate(-228.43522 -211.14927)" fill="#6c63ff"/><path d="M760.24006,490.235,731.32131,457.0732l36.9302-32.205A22,22,0,0,1,797.17026,458.03Z" transform="translate(-228.43522 -211.14927)" fill="#ccc"/><rect width="233.59252" height="157" fill="#6c63ff"/><polygon points="2 8.349 4 8.349 4 3.349 9 3.349 9 1.349 2 1.349 2 8.349" fill="#ccc"/><rect x="219.9934" y="1.34863" width="12.41162" height="2" fill="#ccc"/><rect x="170.34789" y="1.34863" width="12.41162" height="2" fill="#ccc"/><rect x="195.17064" y="1.34863" width="12.41162" height="2" fill="#ccc"/><rect x="269.63891" y="1.34863" width="12.41162" height="2" fill="#ccc"/><rect x="294.46166" y="1.34863" width="12.41162" height="2" fill="#ccc"/><rect x="244.81615" y="1.34863" width="12.41162" height="2" fill="#ccc"/><rect x="46.23412" y="1.34863" width="12.41162" height="2" fill="#ccc"/><rect x="21.41137" y="1.34863" width="12.41162" height="2" fill="#ccc"/><rect x="71.05688" y="1.34863" width="12.41162" height="2" fill="#ccc"/><rect x="120.70238" y="1.34863" width="12.41162" height="2" fill="#ccc"/><rect x="95.87963" y="1.34863" width="12.41162" height="2" fill="#ccc"/><rect x="145.52514" y="1.34863" width="12.41162" height="2" fill="#ccc"/><rect x="319.28441" y="1.34863" width="12.41162" height="2" fill="#ccc"/><polygon points="344.107 1.349 344.107 3.349 349.107 3.349 349.107 8.349 351.107 8.349 351.107 1.349 344.107 1.349" fill="#ccc"/><rect x="349.10717" y="170.2002" width="2" height="12.4502" fill="#ccc"/><rect x="349.10717" y="145.2998" width="2" height="12.4502" fill="#ccc"/><rect x="349.10717" y="95.49902" width="2" height="12.4502" fill="#ccc"/><rect x="349.10717" y="45.69922" width="2" height="12.4502" fill="#ccc"/><rect x="349.10717" y="70.59961" width="2" height="12.44922" fill="#ccc"/><rect x="349.10717" y="120.39941" width="2" height="12.4502" fill="#ccc"/><rect x="349.10717" y="195.09961" width="2" height="12.4502" fill="#ccc"/><rect x="349.10717" y="20.79883" width="2" height="12.4502" fill="#ccc"/><polygon points="349.107 225 344.107 225 344.107 227 351.107 227 351.107 220 349.107 220 349.107 225" fill="#ccc"/><rect x="294.46166" y="225" width="12.41162" height="2" fill="#ccc"/><rect x="95.87963" y="225" width="12.41162" height="2" fill="#ccc"/><rect x="46.23412" y="225" width="12.41162" height="2" fill="#ccc"/><rect x="71.05688" y="225" width="12.41162" height="2" fill="#ccc"/><rect x="21.41137" y="225" width="12.41162" height="2" fill="#ccc"/><rect x="219.9934" y="225" width="12.41162" height="2" fill="#ccc"/><rect x="269.63891" y="225" width="12.41162" height="2" fill="#ccc"/><rect x="244.81615" y="225" width="12.41162" height="2" fill="#ccc"/><rect x="319.28441" y="225" width="12.41162" height="2" fill="#ccc"/><rect x="170.34789" y="225" width="12.41162" height="2" fill="#ccc"/><rect x="145.52514" y="225" width="12.41162" height="2" fill="#ccc"/><rect x="120.70238" y="225" width="12.41162" height="2" fill="#ccc"/><rect x="195.17064" y="225" width="12.41162" height="2" fill="#ccc"/><polygon points="4 220 2 220 2 227 9 227 9 225 4 225 4 220" fill="#ccc"/><rect x="1.99975" y="70.59863" width="2" height="12.4502" fill="#ccc"/><rect x="1.99975" y="95.49902" width="2" height="12.4502" fill="#ccc"/><rect x="1.99975" y="20.79883" width="2" height="12.4502" fill="#ccc"/><rect x="1.99975" y="45.69824" width="2" height="12.4502" fill="#ccc"/><rect x="1.99975" y="195.09961" width="2" height="12.4502" fill="#ccc"/><rect x="1.99975" y="170.19922" width="2" height="12.4502" fill="#ccc"/><rect x="1.99975" y="145.2998" width="2" height="12.44922" fill="#ccc"/><rect x="1.99975" y="120.39941" width="2" height="12.4502" fill="#ccc"/><polygon points="399.14 258.684 397.148 258.881 397.98 267.23 302.732 183.27 311.12 183.048 311.065 181.047 299.058 181.366 300.249 193.317 302.241 193.12 301.407 184.767 396.66 268.733 388.269 268.953 388.323 270.954 400.329 270.636 399.14 258.684" fill="#3f3d56"/><circle cx="349.69488" cy="225.99973" r="11" fill="#3f3d56"/><circle cx="371.07435" cy="244.84564" r="6" fill="#ccc"/><circle cx="327.56525" cy="206.49257" r="6" fill="#ccc"/><path d="M844.22828,574.72958h-67.0625a6.50753,6.50753,0,0,1-6.5-6.5V425.754a6.50753,6.50753,0,0,1,6.5-6.5h67.0625a6.50753,6.50753,0,0,1,6.5,6.5V568.22958A6.50753,6.50753,0,0,1,844.22828,574.72958Z" transform="translate(-228.43522 -211.14927)" fill="#ccc"/><path d="M843.9071,374.86791c-4.897-1.91065-7.64882-6.70422-9.02856-11.53447-1.6362-5.72811-1.38033-11.58447-1.31279-17.4745.07474-6.51776-.13724-13.34152-3.24274-19.23871-2.83114-5.3762-7.886-9.03221-13.45915-11.18755-13.58354-5.25325-28.43928-.81943-42.51253-2.22417-6.53215-.652-13.31322-2.49529-18.54993-6.61568-4.54114-3.5731-8.20364-8.94839-8.76615-14.80981-1.23536-12.87251,12.566-21.09281,24.1399-19.50049a1.55423,1.55423,0,0,0,1.84518-1.04766,1.50916,1.50916,0,0,0-1.04766-1.84517c-10.86982-1.49546-23.54241,3.9721-27.13485,14.9841-1.91765,5.87825-.53507,12.32936,2.702,17.47a29.68339,29.68339,0,0,0,15.05358,11.80562c6.651,2.477,13.91244,3.01812,20.95445,2.872,8.193-.17,16.4724-1.36718,24.64368-.22255,6.11995.85728,12.3733,3.20219,16.67624,7.78942,4.76791,5.08291,5.63553,12.1406,5.70462,18.81765.06614,6.39191-.48046,12.773.87812,19.07741,1.145,5.3133,3.55991,10.625,8.07158,13.88574a15.91838,15.91838,0,0,0,3.58754,1.89165c1.79944.70209,2.57929-2.19764.79751-2.89284Z" transform="translate(-228.43522 -211.14927)" fill="#2f2e41"/></svg>