<svg xmlns="http://www.w3.org/2000/svg" id="b08e8e8f-1307-48a6-9539-94597298b0fc" width="1038" height="764.064" data-name="Layer 1" viewBox="0 0 1038 764.064"><title>creation</title><rect width="375" height="413" x="637" y="184.064" fill="#f2f2f2"/><circle cx="262" cy="429.064" r="262" fill="#f2f2f2"/><line x1="996.917" x2="996.917" y1="571.224" y2="455.131" fill="#3f3d56" stroke="#3f3d56" stroke-miterlimit="10" stroke-width="2"/><circle cx="996.917" cy="455.131" r="16.417" fill="#3f3d56"/><path fill="#3f3d56" d="M1078.41727,595.14959s-2.34533-50.44293-50.42446-44.57962" transform="translate(-81.5 -68.46809)"/><line x1="850.007" x2="850.007" y1="571.379" y2="189.375" fill="#3f3d56" stroke="#3f3d56" stroke-miterlimit="10" stroke-width="2"/><circle cx="850.007" cy="189.192" r="16.417" fill="#3f3d56"/><circle cx="799.583" cy="469.357" r="16.417" fill="#3f3d56"/><path fill="#3f3d56" d="M931.50719,341.52009s-2.34532-50.44293-50.42446-44.57962" transform="translate(-81.5 -68.46809)"/><path fill="#3f3d56" d="M931.50719,484.52009s-2.34532-50.44293-50.42446-44.57962" transform="translate(-81.5 -68.46809)"/><path fill="none" stroke="#3f3d56" stroke-miterlimit="10" stroke-width="2" d="M931.50719,635.33417s10.554-92.81816-50.42446-97.50881" transform="translate(-81.5 -68.46809)"/><circle cx="900.439" cy="469.357" r="16.417" fill="#3f3d56"/><path fill="none" stroke="#3f3d56" stroke-miterlimit="10" stroke-width="2" d="M931.51439,635.33417s-10.554-92.81816,50.42446-97.50881" transform="translate(-81.5 -68.46809)"/><circle cx="901.439" cy="315.357" r="16.417" fill="#3f3d56"/><path fill="none" stroke="#3f3d56" stroke-miterlimit="10" stroke-width="2" d="M932.51439,481.33417s-10.554-92.81816,50.42446-97.50881" transform="translate(-81.5 -68.46809)"/><line x1="736.356" x2="736.356" y1="571.879" y2="339.692" fill="#3f3d56" stroke="#3f3d56" stroke-miterlimit="10" stroke-width="2"/><circle cx="736.356" cy="339.692" r="16.417" fill="#3f3d56"/><path fill="#3f3d56" d="M817.85612,475.02009s-2.34533-50.44293-50.42447-44.57962" transform="translate(-81.5 -68.46809)"/><path fill="none" stroke="#3f3d56" stroke-miterlimit="10" stroke-width="2" d="M817.85612,635.83417s10.55395-92.81816-50.42447-97.50881" transform="translate(-81.5 -68.46809)"/><circle cx="685.932" cy="469.857" r="16.417" fill="#3f3d56"/><circle cx="736" cy="237.064" r="64" fill="#ff6584"/><line x1="45" x2="1037" y1="33.064" y2="33.064" fill="none" stroke="#3f3d56" stroke-miterlimit="10" stroke-width="2"/><line x1="282" x2="801" y1="763.064" y2="763.064" fill="none" stroke="#3f3d56" stroke-miterlimit="10" stroke-width="2"/><circle cx="67.064" cy="11.064" r="11.064" fill="#6c63ff"/><circle cx="96" cy="11.064" r="11.064" fill="#6c63ff"/><circle cx="124.936" cy="11.064" r="11.064" fill="#6c63ff"/><rect width="375" height="413" x="662" y="159.064" fill="none" stroke="#3f3d56" stroke-miterlimit="10" stroke-width="2"/><line x1="136" x2="136" y1="173.064" y2="685.064" fill="none" stroke="#3f3d56" stroke-miterlimit="10" stroke-width="2"/><circle cx="550" cy="730.064" r="33" fill="#6c63ff"/><polygon fill="#fff" points="562.412 717.913 545.878 734.447 538.045 726.613 534.995 729.663 545.868 740.536 565.462 720.963 562.412 717.913"/><path fill="#ffb9b9" d="M303.06953,326.483s-2.67377,9.80381,2.67377,13.36884,7.13005,20.49889,7.13005,20.49889l-10.69507,29.41145-28.5202,5.34753L262.963,374.61083v-30.3027s3.565-15.15135,2.67377-19.60763S303.06953,326.483,303.06953,326.483Z" transform="translate(-81.5 -68.46809)"/><path d="M303.06953,326.483s-2.67377,9.80381,2.67377,13.36884,7.13005,20.49889,7.13005,20.49889l-10.69507,29.41145-28.5202,5.34753L262.963,374.61083v-30.3027s3.565-15.15135,2.67377-19.60763S303.06953,326.483,303.06953,326.483Z" opacity=".2" transform="translate(-81.5 -68.46809)"/><path fill="#2f2e41" d="M331.58972,494.9304l23.17266,4.45628s1.78251,25.84642,0,32.08521-3.565,13.36884-1.78251,15.15136-8.02131,47.23656-7.13,49.91033,2.67377,10.69507,1.78251,16.04261-3.565,3.565-1.78251,8.91256,3.565,6.23879,1.78251,9.80382-10.69507,90.01686-13.36884,90.90811-26.73768,1.78251-26.73768,0,8.02131-15.15135,5.34754-18.71637.89125-64.17044.89125-66.84421,5.34754-7.13,2.67377-8.91256-4.45628-3.565-3.565-6.23879,2.67377-3.565.89125-6.23879-1.78251-56.14913-8.0213-57.93164c0,0-8.0213,39.21526-5.34754,49.01908s-.89125,13.36884-.89125,13.36884l12.47758,10.69507-16.93386,32.08522-17.82512-20.49889s0-5.34754-3.565-6.23879-5.34753-1.78251-5.34753-4.45628-6.2388-19.60764-6.2388-19.60764-17.82512-56.14912-8.91256-84.66932,12.34609-27.57617,12.34609-27.57617Z" transform="translate(-81.5 -68.46809)"/><polygon fill="#ffb9b9" points="264.35 610.952 274.154 621.647 270.589 651.059 262.567 651.059 250.09 623.43 264.35 610.952"/><path fill="#2f2e41" d="M352.08861,699.028s-3.565,8.02131-6.23879,6.2388-3.56-4.45628-7.57318-4.45628-7.57817.89125-6.68692,2.67377S343.176,724.87445,343.176,724.87445a25.19338,25.19338,0,0,1,0,21.39014c-5.34753,11.58633,14.2601,17.82512,17.82512,5.34754s4.45628-26.73768,3.565-32.08522,4.45628-32.97647,4.45628-32.97647-14.39809-6.63758-18.78538-6.88381C350.2371,679.66663,353.87113,695.463,352.08861,699.028Z" transform="translate(-81.5 -68.46809)"/><path fill="#2f2e41" d="M328.0247,718.63566l3.565,10.69507s0,10.69507,3.565,16.04261,7.13005,16.93386-7.13,17.82512-20.49889-4.45628-20.49889-4.45628,2.67377-7.13,0-9.80382,0-8.0213,0-8.0213l2.67377-21.39015Z" transform="translate(-81.5 -68.46809)"/><path fill="#2f2e41" d="M303.96079,629.51006h8.0213l40.10652,52.5841s-7.13005,16.93386-17.82512,18.71638c0,0-1.78251-.89126-9.80381-6.2388s-29.41145-32.08521-29.41145-32.08521l-2.67377-15.15135Z" transform="translate(-81.5 -68.46809)"/><circle cx="202.853" cy="241.081" r="28.52" fill="#ffb9b9"/><path fill="#6c63ff" d="M319.11214,346.09064l-8.91256-3.565s-.89126,31.194-17.82512,31.194-34.759-4.45628-34.759-13.36884-14.26009,16.0426-14.26009,16.0426S256.72422,465.519,255.833,466.4102s9.80382,48.12783,9.80382,48.12783,45.45406,1.78251,60.60541-4.45628,19.60763-17.82512,19.60763-17.82512L339.611,413.8261l-12.47759-60.60541Z" transform="translate(-81.5 -68.46809)"/><path fill="#575a89" d="M303.96594,338.06934s3.55987-3.565,8.90741,0,38.324,11.58632,38.324,14.26009v33.86773s.89125,5.34754-1.78252,8.91256-8.91256,16.93387-5.34753,23.17266,16.93386,78.43053,14.2601,87.34309-9.80382,16.93386-9.80382,16.93386-38.324-81.1043-38.324-104.277.37194-51.60162.37194-51.60162Z" transform="translate(-81.5 -68.46809)"/><path fill="#575a89" d="M343.176,353.22069h8.02131s30.3027,57.93164,30.3027,69.518-19.60763,75.75676-21.39014,76.648-7.13-9.80382-7.13-9.80382l-4.45628-35.65024s8.91256-21.39015,6.23879-24.95517-16.04261-31.194-16.04261-31.194Z" transform="translate(-81.5 -68.46809)"/><path fill="#575a89" d="M264.28106,338.06934s-10.23061,7.13-12.01312,9.80381-28.52019,17.82512-29.41145,21.39015S243.35538,403.131,243.35538,403.131s8.91256,49.91033,8.91256,53.47536,3.565,64.17043,3.565,64.17043,36.5415,10.69507,36.5415,4.45628.89126-95.36439-4.45628-114.972S264.28106,338.06934,264.28106,338.06934Z" transform="translate(-81.5 -68.46809)"/><path fill="#ffb9b9" d="M270.09306,522.55933s30.3027,40.99778,14.2601,40.10652-26.73769-35.65024-26.73769-35.65024Z" transform="translate(-81.5 -68.46809)"/><path fill="#575a89" d="M233.55156,366.58953l-10.69507,2.67377s-8.91256,78.43053-3.565,89.1256,33.86772,80.213,33.86772,77.53927,25.08864-7.43951,24.13065-9.95854-6.30553-13.21411-8.088-16.77914-4.45628-8.0213-3.565-12.47758-9.80382-23.53056-9.80382-23.53056-2.67377-11.22843-3.565-16.576-8.91256-64.17044-8.91256-64.17044Z" transform="translate(-81.5 -68.46809)"/><path fill="#2f2e41" d="M312.31666,287.47133a7.08719,7.08719,0,0,0-3.22724-3.96493,15.18546,15.18546,0,0,0-.6814-5.23249c-1.77527-4.94-5.98087-4.65681-9.949-6.84086-1.72159-.94758-1.61525-1.78508-2.51148-3.34147a12.79235,12.79235,0,0,0-5.077-4.87563c-2.54578-1.52669-5.23309-3.099-8.24472-3.29219-6.329-.406-11.18151,5.19707-17.23067,6.99535-2.66631.79259-5.53135.82526-8.21174,1.57458s-5.35458,2.53849-5.75405,5.14328c-.18441,1.20256.14093,2.43622-.04611,3.63844-.37186,2.38945-2.59909,4.06294-4.09006,6.02828-3.29708,4.3461-2.92,10.48592-.2833,15.21464a21.26931,21.26931,0,0,0,1.90124,2.80038,16.48252,16.48252,0,0,0,2.0074,6.397c2.63667,4.72872,7.17375,8.2623,11.91331,11.198a25.00836,25.00836,0,0,1-.703-4.77509,3.11594,3.11594,0,0,1,.21572-1.58215c.52782-1.03853,1.92253-1.31472,2.98593-1.88349,2.20255-1.17809,3.06627-3.78524,3.13-6.169s-.473-4.77139-.20767-7.14271a3.81443,3.81443,0,0,1,1.41946-2.87094,5.15,5.15,0,0,1,2.67616-.60055c4.5128-.17329,9.228-.25132,13.20853-2.26a20.071,20.071,0,0,1,4.11118-1.95748c3.38284-.83032,6.84029,1.40139,8.7899,4.13277s2.92164,5.98175,4.72041,8.80334,4.90632,5.3378,8.38417,5.00351a1.43143,1.43143,0,0,0,1.03865-.43472,1.395,1.395,0,0,0,.19133-.8329l.19431-12.51307A17.85183,17.85183,0,0,0,312.31666,287.47133Z" transform="translate(-81.5 -68.46809)"/></svg>