<svg id="ei8qhGJE7wD1" xmlns="http://www.w3.org/2000/svg" xmlns:xlink="http://www.w3.org/1999/xlink" viewBox="0 0 1121.80595 699.0818" shape-rendering="geometricPrecision" text-rendering="geometricPrecision"><circle id="ei8qhGJE7wD2" r="254" transform="matrix(1 0 0 1 852.806 367.999)" fill="rgb(242,242,242)" stroke="none" stroke-width="1"/><circle id="ei8qhGJE7wD3" r="97" transform="matrix(1 0 0 1 119.319956 -20.826674)" fill="rgb(152,47,228)" stroke="none" stroke-width="1"/><circle id="ei8qhGJE7wD4" r="254" transform="matrix(1 0 0 1 311.806 266.999)" fill="rgb(236,226,244)" stroke="none" stroke-width="1"/><ellipse id="ei8qhGJE7wD5" rx="279" ry="15" transform="matrix(1 0 0 1 299.806 520)" fill="rgb(63,61,86)" stroke="none" stroke-width="1"/><ellipse id="ei8qhGJE7wD6" rx="209" ry="10.3448" transform="matrix(1 0 0 1 243.806 520.517)" opacity="0.1" fill="rgb(0,0,0)" stroke="none" stroke-width="1"/><ellipse id="ei8qhGJE7wD7" rx="279" ry="16.5" transform="matrix(1 0 0 1 842.806 624.5)" fill="rgb(63,61,86)" stroke="none" stroke-width="1"/><ellipse id="ei8qhGJE7wD8" rx="209" ry="11.3793" transform="matrix(1 0 0 1 786.806 625.069)" opacity="0.1" fill="rgb(0,0,0)" stroke="none" stroke-width="1"/><ellipse id="ei8qhGJE7wD9" rx="178.043" ry="9" transform="matrix(1 0 0 1 400.903 586)" fill="rgb(63,61,86)" stroke="none" stroke-width="1"/><ellipse id="ei8qhGJE7wD10" rx="85.903" ry="4.34235" transform="matrix(1 0 0 1 85.903 556)" fill="rgb(63,61,86)" stroke="none" stroke-width="1"/><ellipse id="ei8qhGJE7wD11" rx="159.879" ry="8.0818" transform="matrix(1 0 0 1 952.927 691)" fill="rgb(63,61,86)" stroke="none" stroke-width="1"/><rect id="ei8qhGJE7wD12" width="320" height="190" rx="0" ry="0" transform="matrix(0.999852 0.017225 -0.017225 0.999852 617.466113 430.258094)" fill="rgb(63,61,86)" stroke="none" stroke-width="1"/><circle id="ei8qhGJE7wD13" r="72" transform="matrix(0 1 1 0 713.806 535)" fill="rgb(108,99,255)" stroke="none" stroke-width="1"/><rect id="ei8qhGJE7wD14" width="24" height="24" rx="0" ry="0" transform="matrix(1 0 0 1 812.806 463)" fill="rgb(108,99,255)" stroke="none" stroke-width="1"/><rect id="ei8qhGJE7wD15" width="24" height="24" rx="0" ry="0" transform="matrix(1 0 0 1 842.806 463)" opacity="0.5" fill="rgb(108,99,255)" stroke="none" stroke-width="1"/><rect id="ei8qhGJE7wD16" width="24" height="24" rx="0" ry="0" transform="matrix(1 0 0 1 872.806 463)" opacity="0.2" fill="rgb(108,99,255)" stroke="none" stroke-width="1"/><rect id="ei8qhGJE7wD17" width="24" height="24" rx="0" ry="0" transform="matrix(1 0 0 1 812.806 493)" fill="rgb(47,46,65)" stroke="none" stroke-width="1"/><rect id="ei8qhGJE7wD18" width="24" height="24" rx="0" ry="0" transform="matrix(1 0 0 1 842.806 493)" opacity="0.5" fill="rgb(47,46,65)" stroke="none" stroke-width="1"/><rect id="ei8qhGJE7wD19" width="24" height="24" rx="0" ry="0" transform="matrix(1 0 0 1 872.806 493)" opacity="0.2" fill="rgb(47,46,65)" stroke="none" stroke-width="1"/><rect id="ei8qhGJE7wD20" width="24" height="24" rx="0" ry="0" transform="matrix(1 0 0 1 812.806 523)" fill="rgb(255,101,132)" stroke="none" stroke-width="1"/><rect id="ei8qhGJE7wD21" width="24" height="24" rx="0" ry="0" transform="matrix(1 0 0 1 842.806 523)" opacity="0.5" fill="rgb(255,101,132)" stroke="none" stroke-width="1"/><rect id="ei8qhGJE7wD22" width="24" height="24" rx="0" ry="0" transform="matrix(1 0 0 1 872.806 523)" opacity="0.2" fill="rgb(255,101,132)" stroke="none" stroke-width="1"/><path id="ei8qhGJE7wD23" d="M757.903,558.4591L757.903,702.4591C797.66753,702.4591,831.903,670.22357,831.903,630.4591C831.903,590.69463,797.6675,558.4591,757.903,558.4591Z" transform="matrix(1 0 0 1 -39.097 -100.459)" opacity="0.5" fill="rgb(63,61,86)" stroke="none" stroke-width="1"/><path id="ei8qhGJE7wD24" d="M1043.403,546.9591C1043.403,546.9591,1085.403,565.9591,1070.403,587.9591C1055.403,609.9591,1010.403,651.9591,1009.403,660.9591C1008.403,669.9591,1002.403,677.9591,1002.403,677.9591C1002.403,677.9591,982.403,656.9591,984.403,654.9591C986.403,652.9591,1006.403,633.9591,1007.403,628.9591C1008.403,623.9591,1038.403,584.9591,1038.403,584.9591L1011.403,560.9591Z" transform="matrix(1 0 0 1 -39.097 -100.459)" fill="rgb(255,185,185)" stroke="none" stroke-width="1"/><path id="ei8qhGJE7wD25" d="M1043.403,546.9591C1043.403,546.9591,1085.403,565.9591,1070.403,587.9591C1055.403,609.9591,1010.403,651.9591,1009.403,660.9591C1008.403,669.9591,1002.403,677.9591,1002.403,677.9591C1002.403,677.9591,982.403,656.9591,984.403,654.9591C986.403,652.9591,1006.403,633.9591,1007.403,628.9591C1008.403,623.9591,1038.403,584.9591,1038.403,584.9591L1011.403,560.9591Z" transform="matrix(1 0 0 1 -39.097 -100.459)" opacity="0.1" fill="rgb(0,0,0)" stroke="none" stroke-width="1"/><g id="ei8qhGJE7wD26" transform="matrix(1 0 0 1 0.000001 0.000007)"><g id="ei8qhGJE7wD27" transform="matrix(1 0 0 1 0.000001 0.000001)"><g id="ei8qhGJE7wD28" transform="matrix(1 0 0 1 0.000001 0.000001)"><path id="ei8qhGJE7wD29" d="M990.403,588.9591C990.403,588.9591,1019.403,600.9591,1017.403,619.9591C1015.403,638.9591,1052.403,692.9591,1052.403,692.9591C1052.403,692.9591,1056.403,705.9591,1055.403,709.9591C1054.403,713.9591,1081.403,712.9591,1081.403,712.9591L1081.403,703.9591C1081.403,703.9591,1060.403,667.9591,1058.403,657.9591C1056.403,647.9591,1044.403,608.9591,1044.403,608.9591C1044.403,608.9591,1040.403,573.9591,1020.403,573.9591C1008.599601,573.9591,997.485039,579.516381,990.403,588.9591Z" transform="matrix(1 0 0 1 -39.097 -100.459)" fill="rgb(255,185,185)" stroke="none" stroke-width="1"/><path id="ei8qhGJE7wD30" d="M1059.403,708.9591C1059.403,708.9591,1053.403,705.9591,1052.403,708.9591C1051.403,711.9591,1045.403,726.9591,1052.403,728.9591C1059.403,730.9591,1128.403,732.9591,1126.403,728.9591C1124.403,724.9591,1113.403,719.9591,1106.403,717.9591C1099.403,715.9591,1081.403,700.9591,1081.403,700.9591C1081.403,700.9591,1071.403,713.9591,1059.403,708.9591Z" transform="matrix(1 0 0 1 -39.097 -100.459)" fill="rgb(47,46,65)" stroke="none" stroke-width="1"/></g></g></g><path id="ei8qhGJE7wD31" d="M991.903,498.4591C991.903,498.4591,1051.903,547.4591,1049.903,551.4591C1047.903,555.4591,1018.903,570.4591,1013.903,571.4591C1008.903,572.4591,973.52505,498.4591,973.52505,498.4591Z" transform="matrix(1 0 0 1 -39.097 -100.459)" fill="rgb(47,46,65)" stroke="none" stroke-width="1"/><path id="ei8qhGJE7wD32" d="M991.903,498.4591C991.903,498.4591,1051.903,547.4591,1049.903,551.4591C1047.903,555.4591,1018.903,570.4591,1013.903,571.4591C1008.903,572.4591,973.52505,498.4591,973.52505,498.4591Z" transform="matrix(1 0 0 1 -39.097 -100.459)" opacity="0.1" fill="rgb(0,0,0)" stroke="none" stroke-width="1"/><path id="ei8qhGJE7wD33" d="M926.903,508.4591C926.903,508.4591,920.903,535.4591,936.903,546.4591C952.903,557.4591,979.903,600.4591,982.903,600.4591C985.903,600.4591,1028.903,577.4591,1026.903,573.4591C1024.903,569.4591,1002.903,534.4591,1002.903,534.4591L995.903,497.4591C995.903,497.4591,934.903,495.4591,926.903,508.4591Z" transform="matrix(1 0 0 1 -39.097 -100.459)" fill="rgb(47,46,65)" stroke="none" stroke-width="1"/><path id="ei8qhGJE7wD34" d="M991.903,420.4591L1000.903,478.4591L1016.903,519.4591C1016.903,519.4591,1040.903,544.4591,1026.903,546.4591C1012.903,548.4591,1004.903,519.4591,1004.903,519.4591L991.903,495.4591Z" transform="matrix(1 0 0 1 -39.097 -100.459)" fill="rgb(255,185,185)" stroke="none" stroke-width="1"/><path id="ei8qhGJE7wD35" d="M991.903,420.4591L1000.903,478.4591L1016.903,519.4591C1016.903,519.4591,1040.903,544.4591,1026.903,546.4591C1012.903,548.4591,1004.903,519.4591,1004.903,519.4591L991.903,495.4591Z" transform="matrix(1 0 0 1 -39.097 -100.459)" opacity="0.1" fill="rgb(0,0,0)" stroke="none" stroke-width="1"/><path id="ei8qhGJE7wD36" d="M958.403,355.9591C958.403,355.9591,958.403,376.9591,951.403,378.9591C944.403,380.9591,979.403,407.9591,979.403,407.9591C979.403,407.9591,975.403,372.9591,989.403,363.9591Z" transform="matrix(1 0 0 1 -39.097 -100.459)" fill="rgb(255,185,185)" stroke="none" stroke-width="1"/><path id="ei8qhGJE7wD37" d="M958.403,355.9591C958.403,355.9591,958.403,376.9591,951.403,378.9591C944.403,380.9591,979.403,407.9591,979.403,407.9591C979.403,407.9591,975.403,372.9591,989.403,363.9591Z" transform="matrix(1 0 0 1 -39.097 -100.459)" opacity="0.1" fill="rgb(0,0,0)" stroke="none" stroke-width="1"/><circle id="ei8qhGJE7wD38" r="23" transform="matrix(1 0 0 1 935.306 249.5)" fill="rgb(255,185,185)" stroke="none" stroke-width="1"/><path id="ei8qhGJE7wD39" d="M975.403,397.9591C975.403,397.9591,954.403,371.9591,951.403,372.9591C948.403,373.9591,926.403,395.9591,924.403,402.9591C922.403,409.9591,918.403,459.9591,921.403,469.9591C924.403,479.9591,924.403,505.9591,923.403,507.9591C922.403,509.9591,916.403,514.9591,922.403,514.9591C928.403,514.9591,949.403,499.9591,963.403,502.9591C977.403,505.9591,996.403,501.9591,997.403,499.9591C998.403,497.9591,996.403,445.9591,997.403,441.9591C998.403,437.9591,995.403,417.9591,994.403,413.9591C993.403,409.9591,993.403,393.9591,983.403,389.9591L979.139,389.53774L978.90018,399.42931Z" transform="matrix(1 0 0 1 -39.097 -100.459)" fill="rgb(108,99,255)" stroke="none" stroke-width="1"/><path id="ei8qhGJE7wD40" d="M931.403,449.9591C931.403,449.9591,933.403,480.9591,948.403,493.9591C963.403,506.9591,995.403,528.9591,997.403,532.9591C999.403,536.9591,1018.403,557.9591,1022.403,548.9591C1023.563844,546.153363,1023.843543,543.060835,1023.20494,540.09235C1022.031044,534.128601,1018.447783,528.913768,1013.3015,525.67956L1004.403,519.9591L960.403,473.9591L958.403,449.9591Z" transform="matrix(1 0 0 1 -39.097 -100.459)" fill="rgb(255,185,185)" stroke="none" stroke-width="1"/><path id="ei8qhGJE7wD41" d="M988.903,651.4591C988.903,651.4591,977.403,648.9591,973.403,655.9591C969.403,662.9591,977.403,681.9591,977.403,681.9591C977.403,681.9591,1000.403,729.9591,1004.403,723.9591C1008.403,717.9591,1001.403,695.9591,1001.403,695.9591C1001.403,695.9591,1011.403,673.9591,1007.403,672.9591C1003.403,671.9591,988.903,663.4591,988.903,651.4591Z" transform="matrix(1 0 0 1 -39.097 -100.459)" fill="rgb(47,46,65)" stroke="none" stroke-width="1"/><path id="ei8qhGJE7wD42" d="M997.57221,331.70484C997.140545,330.253707,996.189547,329.012388,994.90079,328.21789C994.967324,326.663407,994.776762,325.108604,994.33679,323.6162C992.86727,319.27176,989.386,319.52078,986.10133,317.60002C984.67624,316.76667,984.76426,316.03014,984.02239,314.66138C983.050281,312.867072,981.59426,311.381491,979.81985,310.37352C977.71253,309.03088,975.48805,307.64815,972.99511,307.47822C967.75611,307.12113,963.73938,312.04876,958.73211,313.63022C956.52501,314.32722,954.15342,314.356,951.93467,315.01498C949.71592,315.67396,947.50231,317.24745,947.17167,319.53823C947.01902,320.59581,947.28833,321.68075,947.1335,322.73804C946.82569,324.83943,944.98205,326.31118,943.74787,328.03959C941.01864,331.86175,941.3308,337.2614,943.51336,341.42006C943.973287,342.280563,944.499472,343.103974,945.08715,343.88284C945.269213,345.848478,945.833683,347.759585,946.74882,349.5087C948.93138,353.66735,952.68704,356.77494,956.6103,359.35675C956.288991,357.977552,956.094213,356.57191,956.02839,355.15731C955.973015,354.685878,956.034337,354.208061,956.20696,353.76589C956.64387,352.85257,957.79837,352.60967,958.67862,352.10946C960.50182,351.0734,961.21679,348.78055,961.26951,346.68419C961.32223,344.58783,960.87797,342.48801,961.09761,340.40256C961.114917,339.432726,961.541774,338.515495,962.27261,337.87772C962.945486,337.493863,963.714164,337.310598,964.48785,337.34957C968.22341,337.19717,972.12649,337.12857,975.42148,335.36202C976.484132,334.656225,977.626416,334.07839,978.8246,333.64052C981.62481,332.9103,984.48679,334.87297,986.1006,337.27507C987.71441,339.67717,988.51904,342.5357,990.00802,345.01714C991.497,347.49858,994.06932,349.71146,996.94818,349.41746C997.276118,349.4182,997.588829,349.279146,997.80794,349.03515C997.932124,348.812065,997.987248,348.557121,997.96632,348.30266L998.12717,337.29808C998.260807,335.415685,998.073142,333.524274,997.57221,331.70484Z" transform="matrix(1 0 0 1 -39.097 -100.459)" fill="rgb(47,46,65)" stroke="none" stroke-width="1"/><path id="ei8qhGJE7wD43" d="M940.403,398.9591C940.403,398.9591,962.403,408.9591,961.403,429.9591C960.403,450.9591,967.403,452.9591,950.403,454.9591C933.403,456.9591,929.403,454.9591,928.403,456.9591C927.403,458.9591,921.403,410.9591,925.403,405.9591C929.403,400.9591,940.403,398.9591,940.403,398.9591Z" transform="matrix(1 0 0 1 -39.097 -100.459)" fill="rgb(108,99,255)" stroke="none" stroke-width="1"/><circle id="ei8qhGJE7wD44" r="32" transform="matrix(1 0 0 1 458.806 97)" fill="rgb(47,46,65)" stroke="none" stroke-width="1"/><path id="ei8qhGJE7wD45" d="M519.403,547.9591L501.403,596.9591C501.403,596.9591,486.403,608.9591,495.403,612.9591C504.403,616.9591,522.403,608.9591,522.403,608.9591L536.403,572.9591L534.403,547.9591Z" transform="matrix(1 0 0 1 -39.097 -100.459)" fill="rgb(47,46,65)" stroke="none" stroke-width="1"/><path id="ei8qhGJE7wD46" d="M519.403,547.9591L501.403,596.9591C501.403,596.9591,486.403,608.9591,495.403,612.9591C504.403,616.9591,522.403,608.9591,522.403,608.9591L536.403,572.9591L534.403,547.9591Z" transform="matrix(1 0 0 1 -39.097 -100.459)" opacity="0.1" fill="rgb(0,0,0)" stroke="none" stroke-width="1"/><path id="ei8qhGJE7wD47" d="M520.903,257.4591L535.903,259.4591C535.903,259.4591,542.903,314.4591,539.903,318.4591C536.903,322.4591,521.903,338.4591,515.903,334.4591C509.903,330.4591,520.903,257.4591,520.903,257.4591Z" transform="matrix(1 0 0 1 -39.097 -100.459)" fill="rgb(87,90,137)" stroke="none" stroke-width="1"/><path id="ei8qhGJE7wD48" d="M377.403,357.9591C377.403,357.9591,356.403,366.9591,352.403,367.9591C348.403,368.9591,342.403,378.9591,349.403,380.9591C356.403,382.9591,383.403,362.9591,383.403,362.9591Z" transform="matrix(1 0 0 1 -39.097 -100.459)" fill="rgb(160,97,106)" stroke="none" stroke-width="1"/><g id="ei8qhGJE7wD49" transform="matrix(1 0 0 1 0.000001 0.000001)"><path id="ei8qhGJE7wD50" d="M526.403,567.9591L537.403,608.9591C537.403,608.9591,538.403,623.9591,543.403,624.9591C548.403,625.9591,563.403,619.9591,563.403,617.9591C563.403,615.9591,557.403,599.9591,557.403,599.9591C557.403,599.9591,557.403,587.9591,551.403,582.9591C545.403,577.9591,539.99749,561.20951,539.99749,561.20951Z" transform="matrix(1 0 0 1 -39.097 -100.459)" fill="rgb(47,46,65)" stroke="none" stroke-width="1"/><path id="ei8qhGJE7wD51" d="M460.403,340.9591C460.403,340.9591,446.403,371.9591,466.403,414.9591C478.77887,441.718405,489.792948,469.086722,499.403,496.9591C509.013052,524.831478,506.403,529.9591,516.403,550.9591C526.403,571.9591,524.403,572.9591,524.403,572.9591L540.403,563.9591C540.403,563.9591,531.403,501.9591,527.403,495.9591C523.403,489.9591,523.403,472.9591,523.403,472.9591L512.403,431.9591L503.403,392.9591L547.403,395.9591C547.403,395.9591,547.403,338.9591,527.403,327.9591Z" transform="matrix(1 0 0 1 -39.097 -100.459)" fill="rgb(47,46,65)" stroke="none" stroke-width="1"/></g><path id="ei8qhGJE7wD52" d="M540.403,473.9591C542.423,478.6691,542.173,512.8391,539.96306,535.5791C538.89299,546.6291,537.36297,554.9791,535.403,555.9591L521.07293,552.3791L515.403,550.9591L515.253,538.5191L514.403,469.9591L497.403,398.9591L497.403,380.9591L540.403,384.9591L547.22307,395.6691L547.403,395.9591C547.403,395.9591,537.403,466.9591,540.403,473.9591Z" transform="matrix(1 0 0 1 -39.097 -100.459)" fill="rgb(47,46,65)" stroke="none" stroke-width="1"/><path id="ei8qhGJE7wD53" d="M531.403,495.9591C533.543,499.1691,537.113,518.3891,539.96306,535.5791C538.89299,546.6291,537.36297,554.9791,535.403,555.9591L521.07293,552.3791C520.85293,551.9191,520.63299,551.4391,520.403,550.9591C518.57293,547.1191,516.853,542.8791,515.253,538.5191L514.403,469.9591L497.403,398.9591L497.403,380.9591L540.403,384.9591L547.22307,395.6691L507.403,392.9591L516.403,431.9591L527.403,472.9591C527.403,472.9591,527.403,489.9591,531.403,495.9591Z" transform="matrix(1 0 0 1 -39.097 -100.459)" opacity="0.1" fill="rgb(0,0,0)" stroke="none" stroke-width="1"/><path id="ei8qhGJE7wD54" d="M476.903,212.4591C476.903,212.4591,476.903,228.4591,471.903,229.4591C466.903,230.4591,456.903,230.4591,453.903,235.4591C450.903,240.4591,476.903,306.4591,476.903,306.4591L503.903,289.4591L512.903,244.4591C512.903,244.4591,499.903,236.4591,499.903,232.4591L499.903,214.4591Z" transform="matrix(1 0 0 1 -39.097 -100.459)" fill="rgb(160,97,106)" stroke="none" stroke-width="1"/><path id="ei8qhGJE7wD55" d="M476.903,212.4591C476.903,212.4591,476.903,228.4591,471.903,229.4591C466.903,230.4591,456.903,230.4591,453.903,235.4591C450.903,240.4591,476.903,306.4591,476.903,306.4591L503.903,289.4591L512.903,244.4591C512.903,244.4591,499.903,236.4591,499.903,232.4591L499.903,214.4591Z" transform="matrix(1 0 0 1 -39.097 -100.459)" opacity="0.1" fill="rgb(0,0,0)" stroke="none" stroke-width="1"/><circle id="ei8qhGJE7wD56" r="24" transform="matrix(1 0 0 1 453.306 105.5)" fill="rgb(160,97,106)" stroke="none" stroke-width="1"/><path id="ei8qhGJE7wD57" d="M479.903,286.4591C479.903,286.4591,470.903,229.4591,468.903,229.4591C466.903,229.4591,438.903,235.4591,436.903,236.4591C434.903,237.4591,427.903,246.4591,427.903,246.4591L441.903,286.4591C441.903,286.4591,447.903,314.4591,451.903,319.4591C455.903,324.4591,463.903,338.4591,459.903,340.4591C455.903,342.4591,451.903,345.4591,455.903,345.4591C459.903,345.4591,492.903,339.4591,494.903,342.4591C496.903,345.4591,529.903,331.4591,529.903,330.4591C529.903,329.4591,525.903,282.4591,525.903,282.4591L535.903,259.4591L505.903,238.4591Z" transform="matrix(-1 0 0 1 -39.097 -100.459)" fill="rgb(87,90,137)" stroke="none" stroke-width="1"/><path id="ei8qhGJE7wD58" d="M437.903,241.4591L427.903,246.4591C427.903,246.4591,399.903,310.4591,397.903,311.4591C395.903,312.4591,385.903,331.4591,384.903,335.4591C383.903,339.4591,381.903,352.4591,378.903,354.4591C377.293809,355.551914,375.624514,356.553492,373.903,357.4591C372.181486,358.364708,379.903,367.4591,382.903,367.4591C385.903,367.4591,395.903,353.4591,395.903,353.4591C395.903,353.4591,417.903,367.4591,423.903,356.4591C429.903,345.4591,444.903,275.4591,444.903,275.4591Z" transform="matrix(1 0 0 1 -39.097 -100.459)" fill="rgb(87,90,137)" stroke="none" stroke-width="1"/><path id="ei8qhGJE7wD59" d="M516.403,271.9591C516.403,271.9591,502.403,237.9591,494.403,241.9591C486.403,245.9591,500.403,269.9591,509.403,273.9591Z" transform="matrix(1 0 0 1 -39.097 -100.459)" fill="rgb(160,97,106)" stroke="none" stroke-width="1"/><path id="ei8qhGJE7wD60" d="M502.403,272.9591L516.43351,269.78736L519.403,284.9591C519.403,284.9591,532.403,307.9591,529.403,317.9591C526.403,327.9591,508.403,343.9591,502.403,334.9591C496.403,325.9591,491.403,311.9591,495.403,303.9591C499.403,295.9591,505.403,276.9591,502.403,272.9591Z" transform="matrix(1 0 0 1 -39.097 -100.459)" opacity="0.1" fill="rgb(0,0,0)" stroke="none" stroke-width="1"/><path id="ei8qhGJE7wD61" d="M505.403,270.9591L519.43351,267.78736L522.403,282.9591C522.403,282.9591,535.403,305.9591,532.403,315.9591C529.403,325.9591,511.403,341.9591,505.403,332.9591C499.403,323.9591,494.403,309.9591,498.403,301.9591C502.403,293.9591,508.403,274.9591,505.403,270.9591Z" transform="matrix(1 0 0 1 -39.097 -100.459)" fill="rgb(87,90,137)" stroke="none" stroke-width="1"/><ellipse id="ei8qhGJE7wD62" rx="11.5" ry="24" transform="matrix(0.42422 -0.905559 0.905559 0.42422 459.805928 90.500473)" fill="rgb(47,46,65)" stroke="none" stroke-width="1"/><circle id="ei8qhGJE7wD63" r="14" transform="matrix(1 0 0 1 477.806 70)" fill="rgb(47,46,65)" stroke="none" stroke-width="1"/><path id="ei8qhGJE7wD64" d="M503.903,165.4591C503.903976,158.308491,509.293538,152.307864,516.403,151.54186C511.068446,150.959232,505.870244,153.477141,503.020385,158.024142C500.170525,162.571143,500.170525,168.347057,503.020385,172.894058C505.870244,177.441059,511.068446,179.958968,516.403,179.37634C509.293538,178.610336,503.903976,172.609709,503.903,165.4591Z" transform="matrix(1 0 0 1 -39.097 -100.459)" fill="rgb(47,46,65)" stroke="none" stroke-width="1"/><rect id="ei8qhGJE7wD65" width="350" height="243" rx="0" ry="0" transform="matrix(1 0 0 1 -0.818197 252.349083)" fill="rgb(63,61,86)" stroke="none" stroke-width="1"/><rect id="ei8qhGJE7wD66" width="46" height="46" rx="0" ry="0" transform="matrix(1 0 0 1 92.8059 301)" fill="rgb(242,242,242)" stroke="none" stroke-width="1"/><rect id="ei8qhGJE7wD67" width="46" height="46" rx="0" ry="0" transform="matrix(1 0 0 1 92.8059 376)" fill="rgb(108,99,255)" stroke="none" stroke-width="1"/><rect id="ei8qhGJE7wD68" width="46" height="46" rx="0" ry="0" transform="matrix(1 0 0 1 92.8059 451)" fill="rgb(242,242,242)" stroke="none" stroke-width="1"/><rect id="ei8qhGJE7wD69" width="219" height="4" rx="0" ry="0" transform="matrix(1 0 0 1 160.806 315.5)" fill="rgb(242,242,242)" stroke="none" stroke-width="1"/><rect id="ei8qhGJE7wD70" width="68" height="4" rx="0" ry="0" transform="matrix(1 0 0 1 160.806 328.5)" fill="rgb(242,242,242)" stroke="none" stroke-width="1"/><rect id="ei8qhGJE7wD71" width="219" height="4" rx="0" ry="0" transform="matrix(1 0 0 1 160.806 390.5)" fill="rgb(242,242,242)" stroke="none" stroke-width="1"/><rect id="ei8qhGJE7wD72" width="68" height="4" rx="0" ry="0" transform="matrix(1 0 0 1 160.806 403.5)" fill="rgb(242,242,242)" stroke="none" stroke-width="1"/><rect id="ei8qhGJE7wD73" width="219" height="4" rx="0" ry="0" transform="matrix(1 0 0 1 160.806 465.5)" fill="rgb(242,242,242)" stroke="none" stroke-width="1"/><rect id="ei8qhGJE7wD74" width="68" height="4" rx="0" ry="0" transform="matrix(1 0 0 1 160.806 478.5)" fill="rgb(242,242,242)" stroke="none" stroke-width="1"/><path id="ei8qhGJE7wD75" d="M1028.903,769.39173C1028.903,789.74809,1016.80312,796.85529,1001.87478,796.85529C1001.529,796.85529,1001.18323,796.85029,1000.83993,796.84283C1000.14836,796.82791,999.46177,796.79558,998.78514,796.74832C985.31208,795.79555,974.84658,788.32267,974.84658,769.39173C974.84658,749.80405,999.87722,725.08436,1001.76284,723.25097L1001.76533,723.24848C1001.83748,723.17635,1001.87478,723.14148,1001.87478,723.14148C1001.87478,723.14148,1028.903,749.03785,1028.903,769.39173Z" transform="matrix(1 0 0 1 -39.097 -100.459)" fill="rgb(108,99,255)" stroke="none" stroke-width="1"/><path id="ei8qhGJE7wD76" d="M1000.88966,793.74075L1010.77554,779.92937L1000.86477,795.25821L1000.8399,796.84283C1000.14833,796.82791,999.46174,796.79558,998.78511,796.74832L999.84981,776.38448L999.84236,776.22528L999.85977,776.19791L999.96177,774.27248L990.02615,758.90632L999.99162,772.82965L1000.0165,773.23765L1000.82001,757.85158L992.31476,741.97298L1000.92448,755.1525L1001.76282,723.25099L1001.76531,723.14154L1001.76531,723.24854L1001.626,748.40354L1010.09394,738.43059L1001.59117,750.57029L1001.36729,764.34684L1009.27549,751.12502L1001.33495,766.37426L1001.21057,774.03371L1012.68606,755.63014L1001.16579,776.70544Z" transform="matrix(1 0 0 1 -39.097 -100.459)" fill="rgb(63,61,86)" stroke="none" stroke-width="1"/><path id="ei8qhGJE7wD77" d="M151.903,630.39173C151.903,650.74809,139.80312,657.85529,124.87478,657.85529C124.529,657.85529,124.18323,657.85029,123.83993,657.84283C123.14836,657.82791,122.46177,657.79558,121.78514,657.74832C108.31208,656.79555,97.84658,649.32267,97.84658,630.39173C97.84658,610.80405,122.87722,586.08436,124.76284,584.25097L124.76533,584.24848C124.83748,584.17635,124.87478,584.14148,124.87478,584.14148C124.87478,584.14148,151.903,610.03785,151.903,630.39173Z" transform="matrix(1 0 0 1 -39.097 -100.459)" fill="rgb(108,99,255)" stroke="none" stroke-width="1"/><path id="ei8qhGJE7wD78" d="M123.88966,654.74075L133.77554,640.92937L123.86477,656.25821L123.8399,657.84283C123.14833,657.82791,122.46174,657.79558,121.78511,657.74832L122.84981,637.38448L122.84236,637.22528L122.85977,637.19791L122.96177,635.27248L113.02615,619.90632L122.99162,633.82965L123.0165,634.23765L123.82001,618.85158L115.31476,602.97298L123.92448,616.1525L124.76282,584.25099L124.76531,584.14154L124.76531,584.24854L124.626,609.40354L133.09394,599.43059L124.59117,611.57029L124.36729,625.34684L132.27549,612.12502L124.33495,627.37426L124.21057,635.03371L135.68606,616.63014L124.16579,637.70544Z" transform="matrix(1 0 0 1 -39.097 -100.459)" fill="rgb(63,61,86)" stroke="none" stroke-width="1"/><script><![CDATA[!function(t,n){"object"==typeof exports&&"undefined"!=typeof module?module.exports=n():"function"==typeof define&&define.amd?define(n):(t="undefined"!=typeof globalThis?globalThis:t||self).__SVGATOR_PLAYER__=n()}(this,(function(){"use strict";function t(n){return(t="function"==typeof Symbol&&"symbol"==typeof Symbol.iterator?function(t){return typeof t}:function(t){return t&&"function"==typeof Symbol&&t.constructor===Symbol&&t!==Symbol.prototype?"symbol":typeof t})(n)}function n(t,n){if(!(t instanceof n))throw new TypeError("Cannot call a class as a function")}function r(t,n){for(var r=0;r<n.length;r++){var e=n[r];e.enumerable=e.enumerable||!1,e.configurable=!0,"value"in e&&(e.writable=!0),Object.defineProperty(t,e.key,e)}}function e(t,n,e){return n&&r(t.prototype,n),e&&r(t,e),t}function i(t){return(i=Object.setPrototypeOf?Object.getPrototypeOf:function(t){return t.__proto__||Object.getPrototypeOf(t)})(t)}function o(t,n){return(o=Object.setPrototypeOf||function(t,n){return t.__proto__=n,t})(t,n)}function u(t,n){return!n||"object"!=typeof n&&"function"!=typeof n?function(t){if(void 0===t)throw new ReferenceError("this hasn't been initialised - super() hasn't been called");return t}(t):n}function a(t){var n=function(){if("undefined"==typeof Reflect||!Reflect.construct)return!1;if(Reflect.construct.sham)return!1;if("function"==typeof Proxy)return!0;try{return Boolean.prototype.valueOf.call(Reflect.construct(Boolean,[],(function(){}))),!0}catch(t){return!1}}();return function(){var r,e=i(t);if(n){var o=i(this).constructor;r=Reflect.construct(e,arguments,o)}else r=e.apply(this,arguments);return u(this,r)}}function l(t,n,r){return(l="undefined"!=typeof Reflect&&Reflect.get?Reflect.get:function(t,n,r){var e=function(t,n){for(;!Object.prototype.hasOwnProperty.call(t,n)&&null!==(t=i(t)););return t}(t,n);if(e){var o=Object.getOwnPropertyDescriptor(e,n);return o.get?o.get.call(r):o.value}})(t,n,r||t)}var f=s(Math.pow(10,-6));function s(t){var n=arguments.length>1&&void 0!==arguments[1]?arguments[1]:6;if(Number.isInteger(t))return t;var r=Math.pow(10,n);return Math.round((+t+Number.EPSILON)*r)/r}function c(t,n){var r=arguments.length>2&&void 0!==arguments[2]?arguments[2]:f;return Math.abs(t-n)<r}var h=Math.PI/180;function v(t){return t}function y(t,n,r){var e=1-r;return 3*r*e*(t*e+n*r)+r*r*r}function d(){var t=arguments.length>0&&void 0!==arguments[0]?arguments[0]:0,n=arguments.length>1&&void 0!==arguments[1]?arguments[1]:0,r=arguments.length>2&&void 0!==arguments[2]?arguments[2]:1,e=arguments.length>3&&void 0!==arguments[3]?arguments[3]:1;return t<0||t>1||r<0||r>1?null:c(t,n)&&c(r,e)?v:function(i){if(i<=0)return t>0?i*n/t:0===n&&r>0?i*e/r:0;if(i>=1)return r<1?1+(i-1)*(e-1)/(r-1):1===r&&t<1?1+(i-1)*(n-1)/(t-1):1;for(var o,u=0,a=1;u<a;){var l=y(t,r,o=(u+a)/2);if(c(i,l))break;l<i?u=o:a=o}return y(n,e,o)}}function g(){return 1}function p(t){return 1===t?1:0}function m(){var t=arguments.length>0&&void 0!==arguments[0]?arguments[0]:1,n=arguments.length>1&&void 0!==arguments[1]?arguments[1]:0;if(1===t){if(0===n)return p;if(1===n)return g}var r=1/t;return function(t){return t>=1?1:(t+=n*r)-t%r}}function b(t,n,r){return t>=.5?r:n}function w(t,n,r){return 0===t||n===r?n:t*(r-n)+n}function x(t,n,r){var e=w(t,n,r);return e<=0?0:e}function k(t,n,r){return 0===t?n:1===t?r:{x:w(t,n.x,r.x),y:w(t,n.y,r.y)}}function A(t,n,r){var e=function(t,n,r){return Math.round(w(t,n,r))}(t,n,r);return e<=0?0:e>=255?255:e}function S(t,n,r){return 0===t?n:1===t?r:{r:A(t,n.r,r.r),g:A(t,n.g,r.g),b:A(t,n.b,r.b),a:w(t,null==n.a?1:n.a,null==r.a?1:r.a)}}function _(t,n,r){if(0===t)return n;if(1===t)return r;var e=n.length;if(e!==r.length)return b(t,n,r);for(var i=[],o=0;o<e;o++)i.push(S(t,n[o],r[o]));return i}function O(t,n){for(var r=[],e=0;e<t;e++)r.push(n);return r}function M(t,n){if(--n<=0)return t;var r=(t=Object.assign([],t)).length;do{for(var e=0;e<r;e++)t.push(t[e])}while(--n>0);return t}var j,P=function(){function t(r){n(this,t),this.list=r,this.length=r.length}return e(t,[{key:"setAttribute",value:function(t,n){for(var r=this.list,e=0;e<this.length;e++)r[e].setAttribute(t,n)}},{key:"removeAttribute",value:function(t){for(var n=this.list,r=0;r<this.length;r++)n[r].removeAttribute(t)}},{key:"style",value:function(t,n){for(var r=this.list,e=0;e<this.length;e++)r[e].style[t]=n}}]),t}(),I=/-./g,E=function(t,n){return n.toUpperCase()};function F(t){return"function"==typeof t?t:b}function N(t){return t?"function"==typeof t?t:Array.isArray(t)?function(t){var n=arguments.length>1&&void 0!==arguments[1]?arguments[1]:v;if(!Array.isArray(t))return n;switch(t.length){case 1:return m(t[0])||n;case 2:return m(t[0],t[1])||n;case 4:return d(t[0],t[1],t[2],t[3])||n}return n}(t,null):function(t,n){var r=arguments.length>2&&void 0!==arguments[2]?arguments[2]:v;switch(t){case"linear":return v;case"steps":return m(n.steps||1,n.jump||0)||r;case"bezier":case"cubic-bezier":return d(n.x1||0,n.y1||0,n.x2||0,n.y2||0)||r}return r}(t.type,t.value,null):null}function B(t,n,r){var e=arguments.length>3&&void 0!==arguments[3]&&arguments[3],i=n.length-1;if(t<=n[0].t)return e?[0,0,n[0].v]:n[0].v;if(t>=n[i].t)return e?[i,1,n[i].v]:n[i].v;var o,u=n[0],a=null;for(o=1;o<=i;o++){if(!(t>n[o].t)){a=n[o];break}u=n[o]}return null==a?e?[i,1,n[i].v]:n[i].v:u.t===a.t?e?[o,1,a.v]:a.v:(t=(t-u.t)/(a.t-u.t),u.e&&(t=u.e(t)),e?[o,t,r(t,u.v,a.v)]:r(t,u.v,a.v))}function R(t,n){var r=arguments.length>2&&void 0!==arguments[2]?arguments[2]:null;return t&&t.length?"function"!=typeof n?null:("function"!=typeof r&&(r=null),function(e){var i=B(e,t,n);return null!=i&&r&&(i=r(i)),i}):null}function q(t,n){return t.t-n.t}function T(n,r,e,i,o){var u,a="@"===e[0],l="#"===e[0],f=j[e],s=b;switch(a?(u=e.substr(1),e=u.replace(I,E)):l&&(e=e.substr(1)),t(f)){case"function":if(s=f(i,o,B,N,e,a,r,n),l)return s;break;case"string":s=R(i,F(f));break;case"object":if((s=R(i,F(f.i),f.f))&&"function"==typeof f.u)return f.u(r,s,e,a,n)}return s?function(t,n,r){var e=arguments.length>3&&void 0!==arguments[3]&&arguments[3];if(e)return t instanceof P?function(e){return t.style(n,r(e))}:function(e){return t.style[n]=r(e)};if(Array.isArray(n)){var i=n.length;return function(e){var o=r(e);if(null==o)for(var u=0;u<i;u++)t[u].removeAttribute(n);else for(var a=0;a<i;a++)t[a].setAttribute(n,o)}}return function(e){var i=r(e);null==i?t.removeAttribute(n):t.setAttribute(n,i)}}(r,e,s,a):null}function L(n,r,e,i){if(!i||"object"!==t(i))return null;var o=null,u=null;return Array.isArray(i)?u=function(t){if(!t||!t.length)return null;for(var n=0;n<t.length;n++)t[n].e&&(t[n].e=N(t[n].e));return t.sort(q)}(i):(u=i.keys,o=i.data||null),u?T(n,r,e,u,o):null}function C(t,n,r){if(!r)return null;var e=[];for(var i in r)if(r.hasOwnProperty(i)){var o=L(t,n,i,r[i]);o&&e.push(o)}return e.length?e:null}function z(t,n){if(!n.duration||n.duration<0)return null;var r=function(t,n){if(!n)return null;var r=[];if(Array.isArray(n))for(var e=n.length,i=0;i<e;i++){var o=n[i];if(2===o.length){var u=null;if("string"==typeof o[0])u=t.getElementById(o[0]);else if(Array.isArray(o[0])){u=[];for(var a=0;a<o[0].length;a++)if("string"==typeof o[0][a]){var l=t.getElementById(o[0][a]);l&&u.push(l)}u=u.length?1===u.length?u[0]:new P(u):null}if(u){var f=C(t,u,o[1]);f&&(r=r.concat(f))}}}else for(var s in n)if(n.hasOwnProperty(s)){var c=t.getElementById(s);if(c){var h=C(t,c,n[s]);h&&(r=r.concat(h))}}return r.length?r:null}(t,n.elements);return r?function(t,n){var r=arguments.length>2&&void 0!==arguments[2]?arguments[2]:1/0,e=arguments.length>3&&void 0!==arguments[3]?arguments[3]:1,i=arguments.length>4&&void 0!==arguments[4]&&arguments[4],o=arguments.length>5&&void 0!==arguments[5]?arguments[5]:1,u=t.length,a=e>0?n:0;i&&r%2==0&&(a=n-a);var l=null;return function(f,s){var c=f%n,h=1+(f-c)/n;s*=e,i&&h%2==0&&(s=-s);var v=!1;if(h>r)c=a,v=!0,-1===o&&(c=e>0?0:n);else if(s<0&&(c=n-c),c===l)return!1;l=c;for(var y=0;y<u;y++)t[y](c);return v}}(r,n.duration,n.iterations||1/0,n.direction||1,!!n.alternate,n.fill||1):null}Number.isInteger||(Number.isInteger=function(t){return"number"==typeof t&&isFinite(t)&&Math.floor(t)===t}),Number.EPSILON||(Number.EPSILON=2220446049250313e-31);var D=function(){function t(r,e){var i=arguments.length>2&&void 0!==arguments[2]?arguments[2]:{};n(this,t),this._id=0,this._running=!1,this._rollingBack=!1,this._animations=r,this.duration=e.duration,this.alternate=e.alternate,this.fill=e.fill,this.iterations=e.iterations,this.direction=i.direction||1,this.speed=i.speed||1,this.fps=i.fps||100,this.offset=i.offset||0,this.rollbackStartOffset=0}return e(t,[{key:"_rollback",value:function(){var t=this,n=1/0,r=null;this.rollbackStartOffset=this.offset,this._rollingBack||(this._rollingBack=!0,this._running=!0);this._id=window.requestAnimationFrame((function e(i){if(t._rollingBack){null==r&&(r=i);var o=i-r,u=t.rollbackStartOffset-o,a=Math.round(u*t.speed);if(a>t.duration&&n!=1/0){var l=!!t.alternate&&a/t.duration%2>1,f=a%t.duration;a=(f+=l?t.duration:0)||t.duration}var s=t.fps?1e3/t.fps:0,c=Math.max(0,a);if(c<n-s){t.offset=c,n=c;for(var h=t._animations,v=h.length,y=0;y<v;y++)h[y](c,t.direction)}var d=!1;if(t.iterations>0&&-1===t.fill){var g=t.iterations*t.duration,p=g==a;a=p?0:a,t.offset=p?0:t.offset,d=a>g}a>0&&t.offset>=a&&!d?t._id=window.requestAnimationFrame(e):t.stop()}}))}},{key:"_start",value:function(){var t=this,n=arguments.length>0&&void 0!==arguments[0]?arguments[0]:0,r=-1/0,e=null,i={},o=function o(u){t._running=!0,null==e&&(e=u);var a=Math.round((u-e+n)*t.speed),l=t.fps?1e3/t.fps:0;if(a>r+l&&!t._rollingBack){t.offset=a,r=a;for(var f=t._animations,s=f.length,c=0,h=0;h<s;h++)i[h]?c++:(i[h]=f[h](a,t.direction),i[h]&&c++);if(c===s)return void t._stop()}t._id=window.requestAnimationFrame(o)};this._id=window.requestAnimationFrame(o)}},{key:"_stop",value:function(){this._id&&window.cancelAnimationFrame(this._id),this._running=!1,this._rollingBack=!1}},{key:"play",value:function(){!this._rollingBack&&this._running||(this._rollingBack=!1,this.rollbackStartOffset>this.duration&&(this.offset=this.rollbackStartOffset-(this.rollbackStartOffset-this.offset)%this.duration,this.rollbackStartOffset=0),this._start(this.offset))}},{key:"stop",value:function(){this._stop(),this.offset=0,this.rollbackStartOffset=0;var t=this.direction,n=this._animations;window.requestAnimationFrame((function(){for(var r=0;r<n.length;r++)n[r](0,t)}))}},{key:"reachedToEnd",value:function(){return this.iterations>0&&this.offset>=this.iterations*this.duration}},{key:"restart",value:function(){this._stop(),this.offset=0,this._start()}},{key:"pause",value:function(){this._stop()}},{key:"reverse",value:function(){this.direction=-this.direction}}],[{key:"build",value:function(n,r){return(n=function(t,n){if(j=n,!t||!t.root||!Array.isArray(t.animations))return null;for(var r=document.getElementsByTagName("svg"),e=!1,i=0;i<r.length;i++)if(r[i].id===t.root&&!r[i].svgatorAnimation){(e=r[i]).svgatorAnimation=!0;break}if(!e)return null;var o=t.animations.map((function(t){return z(e,t)})).filter((function(t){return!!t}));return o.length?{element:e,animations:o,animationSettings:t.animationSettings,options:t.options||void 0}:null}(n,r))?{el:n.element,options:n.options||{},player:new t(n.animations,n.animationSettings,n.options)}:null}}]),t}();function Q(t){return s(t)+""}function U(t){var n=arguments.length>1&&void 0!==arguments[1]?arguments[1]:" ";return t&&t.length?t.map(Q).join(n):""}function V(t){return t?null==t.a||t.a>=1?"rgb("+t.r+","+t.g+","+t.b+")":"rgba("+t.r+","+t.g+","+t.b+","+t.a+")":"transparent"}!function(){for(var t=0,n=["ms","moz","webkit","o"],r=0;r<n.length&&!window.requestAnimationFrame;++r)window.requestAnimationFrame=window[n[r]+"RequestAnimationFrame"],window.cancelAnimationFrame=window[n[r]+"CancelAnimationFrame"]||window[n[r]+"CancelRequestAnimationFrame"];window.requestAnimationFrame||(window.requestAnimationFrame=function(n){var r=Date.now(),e=Math.max(0,16-(r-t)),i=window.setTimeout((function(){n(r+e)}),e);return t=r+e,i},window.cancelAnimationFrame=window.clearTimeout)}();var G={f:null,i:function(t,n,r){return 0===t?n:1===t?r:{x:x(t,n.x,r.x),y:x(t,n.y,r.y)}},u:function(t,n){return function(r){var e=n(r);t.setAttribute("rx",Q(e.x)),t.setAttribute("ry",Q(e.y))}}},H={f:null,i:function(t,n,r){return 0===t?n:1===t?r:{width:x(t,n.width,r.width),height:x(t,n.height,r.height)}},u:function(t,n){return function(r){var e=n(r);t.setAttribute("width",Q(e.width)),t.setAttribute("height",Q(e.height))}}},Y=Math.sin,Z=Math.cos,J=Math.acos,K=Math.asin,W=Math.tan,X=Math.atan2,$=Math.PI/180,tt=180/Math.PI,nt=Math.sqrt,rt=function(){function t(){var r=arguments.length>0&&void 0!==arguments[0]?arguments[0]:1,e=arguments.length>1&&void 0!==arguments[1]?arguments[1]:0,i=arguments.length>2&&void 0!==arguments[2]?arguments[2]:0,o=arguments.length>3&&void 0!==arguments[3]?arguments[3]:1,u=arguments.length>4&&void 0!==arguments[4]?arguments[4]:0,a=arguments.length>5&&void 0!==arguments[5]?arguments[5]:0;n(this,t),this.m=[r,e,i,o,u,a],this.i=null,this.w=null,this.s=null}return e(t,[{key:"determinant",get:function(){var t=this.m;return t[0]*t[3]-t[1]*t[2]}},{key:"isIdentity",get:function(){if(null===this.i){var t=this.m;this.i=1===t[0]&&0===t[1]&&0===t[2]&&1===t[3]&&0===t[4]&&0===t[5]}return this.i}},{key:"point",value:function(t,n){var r=this.m;return{x:r[0]*t+r[2]*n+r[4],y:r[1]*t+r[3]*n+r[5]}}},{key:"translateSelf",value:function(){var t=arguments.length>0&&void 0!==arguments[0]?arguments[0]:0,n=arguments.length>1&&void 0!==arguments[1]?arguments[1]:0;if(!t&&!n)return this;var r=this.m;return r[4]+=r[0]*t+r[2]*n,r[5]+=r[1]*t+r[3]*n,this.w=this.s=this.i=null,this}},{key:"rotateSelf",value:function(){var t=arguments.length>0&&void 0!==arguments[0]?arguments[0]:0;if(t%=360){var n=Y(t*=$),r=Z(t),e=this.m,i=e[0],o=e[1];e[0]=i*r+e[2]*n,e[1]=o*r+e[3]*n,e[2]=e[2]*r-i*n,e[3]=e[3]*r-o*n,this.w=this.s=this.i=null}return this}},{key:"scaleSelf",value:function(){var t=arguments.length>0&&void 0!==arguments[0]?arguments[0]:1,n=arguments.length>1&&void 0!==arguments[1]?arguments[1]:1;if(1!==t||1!==n){var r=this.m;r[0]*=t,r[1]*=t,r[2]*=n,r[3]*=n,this.w=this.s=this.i=null}return this}},{key:"skewSelf",value:function(t,n){if(n%=360,(t%=360)||n){var r=this.m,e=r[0],i=r[1],o=r[2],u=r[3];t&&(t=W(t*$),r[2]+=e*t,r[3]+=i*t),n&&(n=W(n*$),r[0]+=o*n,r[1]+=u*n),this.w=this.s=this.i=null}return this}},{key:"resetSelf",value:function(){var t=arguments.length>0&&void 0!==arguments[0]?arguments[0]:1,n=arguments.length>1&&void 0!==arguments[1]?arguments[1]:0,r=arguments.length>2&&void 0!==arguments[2]?arguments[2]:0,e=arguments.length>3&&void 0!==arguments[3]?arguments[3]:1,i=arguments.length>4&&void 0!==arguments[4]?arguments[4]:0,o=arguments.length>5&&void 0!==arguments[5]?arguments[5]:0,u=this.m;return u[0]=t,u[1]=n,u[2]=r,u[3]=e,u[4]=i,u[5]=o,this.w=this.s=this.i=null,this}},{key:"recomposeSelf",value:function(){var t=arguments.length>0&&void 0!==arguments[0]?arguments[0]:null,n=arguments.length>1&&void 0!==arguments[1]?arguments[1]:null,r=arguments.length>2&&void 0!==arguments[2]?arguments[2]:null,e=arguments.length>3&&void 0!==arguments[3]?arguments[3]:null,i=arguments.length>4&&void 0!==arguments[4]?arguments[4]:null;return this.isIdentity||this.resetSelf(),t&&(t.x||t.y)&&this.translateSelf(t.x,t.y),n&&this.rotateSelf(n),r&&(r.x&&this.skewSelf(r.x,0),r.y&&this.skewSelf(0,r.y)),!e||1===e.x&&1===e.y||this.scaleSelf(e.x,e.y),i&&(i.x||i.y)&&this.translateSelf(i.x,i.y),this}},{key:"decompose",value:function(){var t=arguments.length>0&&void 0!==arguments[0]?arguments[0]:0,n=arguments.length>1&&void 0!==arguments[1]?arguments[1]:0,r=this.m,e=r[0]*r[0]+r[1]*r[1],i=[[r[0],r[1]],[r[2],r[3]]],o=nt(e);if(0===o)return{origin:{x:s(r[4]),y:s(r[5])},translate:{x:s(t),y:s(n)},scale:{x:0,y:0},skew:{x:0,y:0},rotate:0};i[0][0]/=o,i[0][1]/=o;var u=r[0]*r[3]-r[1]*r[2]<0;u&&(o=-o);var a=i[0][0]*i[1][0]+i[0][1]*i[1][1];i[1][0]-=i[0][0]*a,i[1][1]-=i[0][1]*a;var l=nt(i[1][0]*i[1][0]+i[1][1]*i[1][1]);if(0===l)return{origin:{x:s(r[4]),y:s(r[5])},translate:{x:s(t),y:s(n)},scale:{x:s(o),y:0},skew:{x:0,y:0},rotate:0};i[1][0]/=l,i[1][1]/=l,a/=l;var f=0;return i[1][1]<0?(f=J(i[1][1])*tt,i[0][1]<0&&(f=360-f)):f=K(i[0][1])*tt,u&&(f=-f),a=X(a,nt(i[0][0]*i[0][0]+i[0][1]*i[0][1]))*tt,u&&(a=-a),{origin:{x:s(r[4]),y:s(r[5])},translate:{x:s(t),y:s(n)},scale:{x:s(o),y:s(l)},skew:{x:s(a),y:0},rotate:s(f)}}},{key:"toString",value:function(){return null===this.s&&(this.s="matrix("+this.m.map((function(t){return s(t)})).join(" ")+")"),this.s}}]),t}();Object.freeze({M:2,L:2,Z:0,H:1,V:1,C:6,Q:4,T:2,S:4,A:7});var et={},it=null;function ot(n){var r=function(){if(it)return it;if("object"!==("undefined"==typeof document?"undefined":t(document))||!document.createElementNS)return{};var n=document.createElementNS("http://www.w3.org/2000/svg","svg");return n&&n.style?(n.style.position="absolute",n.style.opacity="0.01",n.style.zIndex="-9999",n.style.left="-9999px",n.style.width="1px",n.style.height="1px",it={svg:n}):{}}().svg;if(!r)return function(t){return null};var e=document.createElementNS(r.namespaceURI,"path");e.setAttributeNS(null,"d",n),e.setAttributeNS(null,"fill","none"),e.setAttributeNS(null,"stroke","none"),r.appendChild(e);var i=e.getTotalLength();return function(t){var n=e.getPointAtLength(i*t);return{x:n.x,y:n.y}}}function ut(t){return et[t]?et[t]:et[t]=ot(t)}function at(t,n,r,e){if(!t||!e)return!1;var i=["M",t.x,t.y];if(n&&r&&(i.push("C"),i.push(n.x),i.push(n.y),i.push(r.x),i.push(r.y)),n?!r:r){var o=n||r;i.push("Q"),i.push(o.x),i.push(o.y)}return n||r||i.push("L"),i.push(e.x),i.push(e.y),i.join(" ")}function lt(t,n,r,e){var i=arguments.length>4&&void 0!==arguments[4]?arguments[4]:1,o=at(t,n,r,e),u=ut(o);try{return u(i)}catch(t){return null}}function ft(t,n,r,e){var i=1-e;return i*i*t+2*i*e*n+e*e*r}function st(t,n,r,e){return 2*(1-e)*(n-t)+2*e*(r-n)}function ct(t,n,r,e){var i=arguments.length>4&&void 0!==arguments[4]&&arguments[4],o=lt(t,n,null,r,e);return o||(o={x:ft(t.x,n.x,r.x,e),y:ft(t.y,n.y,r.y,e)}),i&&(o.a=ht(t,n,r,e)),o}function ht(t,n,r,e){return Math.atan2(st(t.y,n.y,r.y,e),st(t.x,n.x,r.x,e))}function vt(t,n,r,e,i){var o=i*i;return i*o*(e-t+3*(n-r))+3*o*(t+r-2*n)+3*i*(n-t)+t}function yt(t,n,r,e,i){var o=1-i;return 3*(o*o*(n-t)+2*o*i*(r-n)+i*i*(e-r))}function dt(t,n,r,e,i){var o=arguments.length>5&&void 0!==arguments[5]&&arguments[5],u=lt(t,n,r,e,i);return u||(u={x:vt(t.x,n.x,r.x,e.x,i),y:vt(t.y,n.y,r.y,e.y,i)}),o&&(u.a=gt(t,n,r,e,i)),u}function gt(t,n,r,e,i){return Math.atan2(yt(t.y,n.y,r.y,e.y,i),yt(t.x,n.x,r.x,e.x,i))}function pt(t,n,r){return t+(n-t)*r}function mt(t,n,r){var e=arguments.length>3&&void 0!==arguments[3]&&arguments[3],i={x:pt(t.x,n.x,r),y:pt(t.y,n.y,r)};return e&&(i.a=bt(t,n)),i}function bt(t,n){return Math.atan2(n.y-t.y,n.x-t.x)}function wt(t,n,r){var e=arguments.length>3&&void 0!==arguments[3]&&arguments[3];if(kt(n)){if(At(r))return ct(n,r.start,r,t,e)}else if(kt(r)){if(n.end)return ct(n,n.end,r,t,e)}else{if(n.end)return r.start?dt(n,n.end,r.start,r,t,e):ct(n,n.end,r,t,e);if(r.start)return ct(n,r.start,r,t,e)}return mt(n,r,t,e)}function xt(t,n,r){var e=wt(t,n,r,!0);return e.a=function(t){var n=arguments.length>1&&void 0!==arguments[1]&&arguments[1];return n?t+Math.PI:t}(e.a)/h,e}function kt(t){return!t.type||"corner"===t.type}function At(t){return null!=t.start&&!kt(t)}var St=new rt;var _t={f:Q,i:w},Ot={f:Q,i:function(t,n,r){var e=w(t,n,r);return e<=0?0:e>=1?1:e}};function Mt(t,n,r,e,i,o,u,a){return n=function(t,n,r){for(var e,i,o,u=t.length-1,a={},l=0;l<=u;l++)(e=t[l]).e&&(e.e=n(e.e)),e.v&&"g"===(i=e.v).t&&i.r&&(o=r.getElementById(i.r))&&(a[i.r]=o.querySelectorAll("stop"));return a}(t,e,a),function(e){var i,o=r(e,t,jt);return o?"c"===o.t?V(o.v):"g"===o.t?(n[o.r]&&function(t,n){for(var r=0,e=t.length;r<e;r++)t[r].setAttribute("stop-color",V(n[r]))}(n[o.r],o.v),(i=o.r)?"url(#"+i+")":"none"):"none":"none"}}function jt(t,n,r){if(0===t)return n;if(1===t)return r;if(n&&r){var e=n.t;if(e===r.t)switch(n.t){case"c":return{t:e,v:S(t,n.v,r.v)};case"g":if(n.r===r.r)return{t:e,v:_(t,n.v,r.v),r:n.r}}}return b(t,n,r)}var Pt={fill:Mt,"fill-opacity":Ot,stroke:Mt,"stroke-opacity":Ot,"stroke-width":_t,"stroke-dashoffset":{f:Q,i:w},"stroke-dasharray":{f:function(t){var n=arguments.length>1&&void 0!==arguments[1]?arguments[1]:" ";return t&&t.length>0&&(t=t.map((function(t){return s(t,4)}))),U(t,n)},i:function(t,n,r){var e,i,o,u=n.length,a=r.length;if(u!==a)if(0===u)n=O(u=a,0);else if(0===a)a=u,r=O(u,0);else{var l=(o=(e=u)*(i=a)/function(t,n){for(var r;n;)r=n,n=t%n,t=r;return t||1}(e,i))<0?-o:o;n=M(n,Math.floor(l/u)),r=M(r,Math.floor(l/a)),u=a=l}for(var f=[],c=0;c<u;c++)f.push(s(x(t,n[c],r[c])));return f}},opacity:Ot,transform:function(n,r,e,i){if(!(n=function(n,r){if(!n||"object"!==t(n))return null;var e=!1;for(var i in n)n.hasOwnProperty(i)&&(n[i]&&n[i].length?(n[i].forEach((function(t){t.e&&(t.e=r(t.e))})),e=!0):delete n[i]);return e?n:null}(n,i)))return null;var o=function(t,i,o){var u=arguments.length>3&&void 0!==arguments[3]?arguments[3]:null;return n[t]?e(i,n[t],o):r&&r[t]?r[t]:u};return r&&r.a&&n.o?function(t){var r=e(t,n.o,xt);return St.recomposeSelf(r,o("r",t,w,0)+r.a,o("k",t,k),o("s",t,k),o("t",t,k)).toString()}:function(t){return St.recomposeSelf(o("o",t,wt,null),o("r",t,w,0),o("k",t,k),o("s",t,k),o("t",t,k)).toString()}},r:_t,"#size":H,"#radius":G,_:function(t,n){if(Array.isArray(t))for(var r=0;r<t.length;r++)this[t[r]]=n;else this[t]=n}};return function(t){!function(t,n){if("function"!=typeof n&&null!==n)throw new TypeError("Super expression must either be null or a function");t.prototype=Object.create(n&&n.prototype,{constructor:{value:t,writable:!0,configurable:!0}}),n&&o(t,n)}(u,t);var r=a(u);function u(){return n(this,u),r.apply(this,arguments)}return e(u,null,[{key:"build",value:function(t){var n=l(i(u),"build",this).call(this,t,Pt);if(!n)return null;n.el,n.options;var r=n.player;return function(t,n,r){t.play()}(r),r}}]),u}(D)}));
__SVGATOR_PLAYER__.build({"root":"ei8qhGJE7wD1","animations":[{"duration":10000,"direction":1,"iterations":0,"fill":1,"alternate":false,"speed":1,"elements":{"ei8qhGJE7wD3":{"transform":{"keys":{"o":[{"t":0,"v":{"x":200,"y":80,"type":"corner"}},{"t":1300,"v":{"x":282.543928,"y":112.0001,"type":"corner"}},{"t":2300,"v":{"x":282.543928,"y":281.5001,"type":"corner"}},{"t":3000,"v":{"x":167.543529,"y":152.89858,"type":"corner"}}],"t":[{"t":1300,"v":{"x":-80.680044,"y":-100.826674}},{"t":2300,"v":{"x":-44.79138,"y":-182.717938}},{"t":3000,"v":{"x":46.629612,"y":-161.000096}}]}}},"ei8qhGJE7wD49":{"transform":{"data":{"o":{"x":444.306,"y":465.5,"type":"corner"}},"keys":{"t":[{"t":9200,"v":{"x":-444.305999,"y":-465.499999}},{"t":10000,"v":{"x":-444.306,"y":-450.507491}}]}}},"ei8qhGJE7wD65":{"transform":{"data":{"t":{"x":-229.586616,"y":-143.496204}},"keys":{"o":[{"t":0,"v":{"x":228.768419,"y":395.845287,"type":"corner"}},{"t":1780,"v":{"x":248.144755,"y":414.029605,"type":"corner"}},{"t":3000,"v":{"x":280.489618,"y":422,"type":"corner"}}]}}}}}],"options":{"start":"load","hover":null,"click":null,"scroll":null,"font":"embed","exportedIds":"unique","svgFormat":"animated","title":"referencesvg.svg"},"animationSettings":{"duration":10000,"direction":1,"iterations":0,"fill":1,"alternate":false,"speed":1}})]]></script></svg>